<svg width="105" height="19" viewBox="0 0 105 19" fill="none" xmlns="http://www.w3.org/2000/svg">
<path d="M9.46369 0.363281L12.4969 5.08569L17.9255 6.51115L14.3715 10.8552L14.6934 16.4586L9.46369 14.421L4.234 16.4586L4.55583 10.8552L1.00187 6.51115L6.43047 5.08569L9.46369 0.363281Z" fill="#FBA333"/>
<path d="M30.4363 0.363281L33.4696 5.08569L38.8982 6.51115L35.3442 10.8552L35.666 16.4586L30.4363 14.421L25.2067 16.4586L25.5285 10.8552L21.9745 6.51115L27.4031 5.08569L30.4363 0.363281Z" fill="#FBA333"/>
<path d="M51.409 0.363281L54.4422 5.08569L59.8708 6.51115L56.3169 10.8552L56.6387 16.4586L51.409 14.421L46.1793 16.4586L46.5011 10.8552L42.9472 6.51115L48.3758 5.08569L51.409 0.363281Z" fill="#FBA333"/>
<path d="M72.3797 0.363281L75.4129 5.08569L80.8415 6.51115L77.2876 10.8552L77.6094 16.4586L72.3797 14.421L67.15 16.4586L67.4718 10.8552L63.9179 6.51115L69.3465 5.08569L72.3797 0.363281Z" fill="#FBA333"/>
<path d="M95.3524 0.363281L98.3856 5.08569L103.814 6.51115L100.26 10.8552L100.582 16.4586L95.3524 14.421L90.1227 16.4586L90.4445 10.8552L86.8905 6.51115L92.3191 5.08569L95.3524 0.363281Z" fill="#FBA333"/>
</svg>
