<svg width="63" height="29" viewBox="0 0 63 29" fill="none" xmlns="http://www.w3.org/2000/svg">
<path d="M1.61719 10.2844C3.77689 7.92168 9.59739 3.49006 15.6018 4.66501C23.1073 6.13371 27.277 10.2844 36.8994 10.2844C46.5219 10.2844 54.2198 -0.251873 62.6234 1.98306" stroke="#B2C4F0" stroke-width="2.22664"/>
<path d="M1.61719 18.8957C3.77689 16.533 9.59739 12.1014 15.6018 13.2763C23.1073 14.745 27.277 18.8957 36.8994 18.8957C46.5219 18.8957 54.2198 8.35945 62.6234 10.5944" stroke="#B2C4F0" stroke-width="2.22664"/>
<path d="M1.61719 27.509C3.77689 25.1463 9.59739 20.7147 15.6018 21.8896C23.1073 23.3583 27.277 27.509 36.8994 27.509C46.5219 27.509 54.2198 16.9727 62.6234 19.2077" stroke="#B2C4F0" stroke-width="2.22664"/>
</svg>
