<svg width="120" height="121" viewBox="0 0 120 121" fill="none" xmlns="http://www.w3.org/2000/svg">
<g opacity="0.8" filter="url(#filter0_d_717_2807)">
<circle cx="58.3977" cy="52.925" r="34.5129" fill="#F9F9F9"/>
</g>
<g filter="url(#filter1_d_717_2807)">
<circle cx="58.3974" cy="52.9248" r="27.0908" fill="#F9F9F9"/>
</g>
<path d="M74.2396 85.6962C73.3356 84.9571 72.0552 84.7206 70.9774 85.0934C70.6885 85.1934 70.4203 85.3337 70.18 85.5104C69.5672 85.9612 68.2067 87.3145 67.1286 88.6538V78.3299C67.1286 77.4524 66.7679 76.5947 66.139 75.9765C65.5146 75.3629 64.6945 75.032 63.8339 75.048C63.4431 75.055 63.0687 75.1325 62.7228 75.268V74.2596C62.7228 73.3045 62.3301 72.371 61.6452 71.6978C60.9664 71.0306 60.0781 70.6709 59.1387 70.6881C57.2656 70.7205 55.7364 72.2431 55.6804 74.1043C55.2746 73.9203 54.834 73.8171 54.3778 73.8034C53.4262 73.7755 52.4838 74.1437 51.793 74.8145C51.1163 75.4712 50.7435 76.3383 50.7435 77.2534L50.7411 78.2312C50.4491 78.1352 50.1377 78.0826 49.814 78.0826C48.1804 78.0826 46.8516 79.4115 46.8516 81.0448L46.8526 96.0521L46.855 96.1232C46.9916 98.0928 47.4038 99.7791 48.0807 101.136C48.7152 102.407 49.6005 103.431 50.7119 104.179C52.899 105.651 55.6007 105.84 57.71 105.84C61.8522 105.84 65.5787 103.78 67.4424 100.463C67.669 100.098 68.2662 99.1588 68.9112 98.1459C69.5393 97.1589 70.1237 96.2495 70.6389 95.4471C70.9221 95.0059 71.1798 94.6047 71.4035 94.255C72.2368 92.9518 73.1248 91.6884 74.043 90.4995C74.3836 90.0586 74.4885 89.939 74.5124 89.9127C74.9423 89.4437 75.2131 88.8695 75.2957 88.2518C75.4258 87.2829 75.0407 86.3512 74.2396 85.6962ZM73.2521 87.9783C73.2256 88.1757 73.1357 88.3629 72.9923 88.5195C72.9174 88.6013 72.7836 88.7568 72.4114 89.239C71.4558 90.4759 70.5322 91.7898 69.6662 93.1441C69.443 93.4931 69.1864 93.8927 68.9037 94.3328C68.3875 95.1368 67.8023 96.0484 67.1717 97.0385C66.5117 98.0753 65.9008 99.0357 65.6771 99.397L65.6538 99.4367C64.1581 102.114 61.1144 103.778 57.7103 103.778C55.8938 103.778 53.5874 103.629 51.8632 102.469C50.1039 101.285 49.1395 99.1741 48.9147 96.0159L48.9137 81.045C48.9137 80.5486 49.3176 80.1447 49.814 80.1447C50.3134 80.1447 50.7197 80.5486 50.7197 81.045V86.6612C50.7197 86.6778 50.7215 86.6939 50.7221 86.7105C50.7231 86.7288 50.7231 86.7473 50.725 86.7655C50.7266 86.7819 50.7299 86.7977 50.7323 86.8138C50.7349 86.8318 50.7368 86.85 50.7403 86.868C50.7438 86.8841 50.7486 86.8999 50.7526 86.9157C50.7569 86.9326 50.7604 86.95 50.7658 86.9667C50.7706 86.9827 50.7771 86.9983 50.783 87.0139C50.7886 87.0297 50.7937 87.0458 50.8004 87.0613C50.8068 87.0769 50.8146 87.0916 50.8218 87.1067C50.8291 87.1217 50.8358 87.137 50.8436 87.1517C50.8513 87.1662 50.8607 87.1801 50.8693 87.1944C50.8779 87.2086 50.8859 87.223 50.8951 87.2367C50.9044 87.2504 50.9149 87.2633 50.9248 87.2764C50.9347 87.2898 50.9439 87.3035 50.9543 87.3161C50.9648 87.3287 50.9763 87.3402 50.987 87.3523C50.9983 87.3647 51.009 87.3778 51.0208 87.3896C51.0324 87.4009 51.0444 87.411 51.0565 87.422C51.0688 87.4333 51.0809 87.4454 51.0941 87.4561C51.1064 87.4663 51.1195 87.4754 51.1324 87.4851C51.1461 87.4953 51.1592 87.506 51.1732 87.5156C51.1863 87.5245 51.2003 87.532 51.2137 87.54C51.2284 87.5492 51.2429 87.5588 51.2582 87.5674C51.2721 87.5749 51.2869 87.5811 51.3011 87.5881C51.3167 87.5958 51.3322 87.6039 51.3483 87.6109C51.363 87.6173 51.3789 87.6221 51.3939 87.6277C51.4102 87.6336 51.4263 87.6404 51.443 87.6457C51.4588 87.6505 51.4754 87.654 51.4915 87.6583C51.5084 87.6626 51.5248 87.6677 51.5417 87.6712C51.5588 87.6747 51.576 87.6766 51.5932 87.6792C51.6103 87.6817 51.6269 87.6851 51.6441 87.687C51.6613 87.6886 51.679 87.6889 51.6964 87.6897C51.7136 87.6905 51.7307 87.6924 51.7482 87.6924C51.749 87.6924 51.75 87.6924 51.7508 87.6924C51.7865 87.6924 51.8217 87.6905 51.8562 87.687C51.8713 87.6857 51.886 87.6825 51.901 87.6803C51.9201 87.6776 51.9397 87.6755 51.9584 87.6715C51.9783 87.6674 51.9973 87.6618 52.0166 87.6567C52.03 87.653 52.044 87.6503 52.0571 87.6463C52.0786 87.6395 52.0995 87.6312 52.1204 87.6232C52.1306 87.6192 52.1416 87.6159 52.1518 87.6117C52.1727 87.6028 52.1926 87.5923 52.2127 87.5824C52.2223 87.5776 52.2322 87.5736 52.2419 87.5685C52.2607 87.5583 52.2784 87.5465 52.2963 87.5352C52.3065 87.5291 52.317 87.5234 52.3267 87.5167C52.3433 87.5057 52.3591 87.4931 52.3749 87.4808C52.3854 87.473 52.3961 87.4658 52.406 87.4574C52.4208 87.4456 52.4342 87.4322 52.4481 87.4194C52.4586 87.41 52.4693 87.4009 52.4795 87.3912C52.4924 87.3783 52.5039 87.3644 52.516 87.351C52.5259 87.34 52.5366 87.3293 52.546 87.318C52.5568 87.3048 52.5664 87.2909 52.5766 87.2772C52.5863 87.2643 52.5965 87.252 52.6053 87.2386C52.6147 87.2249 52.6225 87.2107 52.631 87.1965C52.6396 87.1823 52.649 87.1683 52.6571 87.1539C52.6648 87.1394 52.6713 87.1244 52.6785 87.1096C52.6858 87.0943 52.6938 87.0793 52.7005 87.0637C52.7069 87.0487 52.7118 87.0329 52.7174 87.0176C52.7236 87.0015 52.73 86.9857 52.7354 86.9691C52.7402 86.9532 52.7437 86.9372 52.7477 86.9211C52.752 86.9042 52.7571 86.8875 52.7609 86.8704C52.7641 86.8543 52.7659 86.8374 52.7684 86.8208C52.7713 86.8033 52.7745 86.7859 52.7764 86.7682C52.7783 86.7516 52.7783 86.7344 52.7791 86.7175C52.7802 86.6995 52.782 86.6821 52.782 86.6641L52.8059 77.2561C52.8059 76.901 52.9564 76.5593 53.2294 76.2941C53.5228 76.0095 53.9197 75.8523 54.3169 75.8647C55.0608 75.8869 55.6661 76.5341 55.6661 77.3089L55.6779 86.6067C55.6779 86.6255 55.6798 86.6438 55.6809 86.662C55.6817 86.6784 55.6817 86.6953 55.6833 86.7113C55.6852 86.7307 55.6889 86.7492 55.6919 86.7679C55.6943 86.7832 55.6959 86.7988 55.6989 86.8138C55.7032 86.8342 55.7091 86.854 55.7144 86.8739C55.7179 86.8867 55.7206 86.8999 55.7243 86.9125C55.7311 86.9339 55.7396 86.9549 55.7477 86.9758C55.7517 86.9862 55.7547 86.997 55.7589 87.0072C55.7686 87.0294 55.7796 87.0511 55.7906 87.0726C55.7949 87.0806 55.7981 87.0892 55.8024 87.097C55.8145 87.1193 55.8281 87.1404 55.8415 87.1614C55.8458 87.1683 55.8496 87.1753 55.8541 87.182C55.8684 87.2032 55.8839 87.223 55.8995 87.2429C55.9043 87.2491 55.9086 87.2555 55.9134 87.2614C55.9309 87.2826 55.9496 87.3024 55.9687 87.322C55.9727 87.3263 55.9759 87.3306 55.9799 87.3346C55.9995 87.3542 56.0204 87.3724 56.0416 87.3904C56.0456 87.3939 56.0491 87.3976 56.0531 87.4011C56.0743 87.4186 56.0963 87.4344 56.1186 87.4499C56.1234 87.4534 56.1277 87.4572 56.1325 87.4604C56.1551 87.4757 56.1787 87.4894 56.2023 87.5028C56.2074 87.5057 56.2122 87.5092 56.2175 87.5122C56.2422 87.5253 56.2677 87.5371 56.2934 87.5486C56.2983 87.5508 56.3028 87.5535 56.3077 87.5556C56.3339 87.5666 56.361 87.576 56.3884 87.5851C56.3932 87.5864 56.3975 87.5886 56.4023 87.5902C56.4294 87.5985 56.457 87.6052 56.4847 87.6114C56.4903 87.6125 56.4957 87.6143 56.5013 87.6157C56.5683 87.6294 56.6378 87.6366 56.7089 87.6366C56.7094 87.6366 56.7099 87.6366 56.7105 87.6366C56.7284 87.6366 56.7461 87.6347 56.7638 87.6339C56.781 87.6328 56.7982 87.6328 56.8151 87.6312C56.8338 87.6291 56.8518 87.6256 56.8703 87.6227C56.8859 87.6202 56.902 87.6186 56.9175 87.6154C56.936 87.6117 56.954 87.6063 56.9722 87.6015C56.987 87.5974 57.0017 87.5945 57.0162 87.5899C57.0347 87.5843 57.0524 87.5771 57.0704 87.5701C57.0838 87.565 57.0977 87.561 57.1109 87.5553C57.1294 87.5473 57.1474 87.5379 57.1653 87.5291C57.1771 87.5232 57.1895 87.5181 57.201 87.5119C57.2187 87.5022 57.2356 87.491 57.2528 87.4805C57.2638 87.4735 57.2753 87.4674 57.286 87.4601C57.3024 87.4491 57.3177 87.4368 57.3332 87.4247C57.3439 87.4167 57.3549 87.4092 57.3654 87.4006C57.3801 87.3885 57.3941 87.3748 57.4083 87.3617C57.4182 87.3526 57.4287 87.3437 57.4386 87.3341C57.4518 87.3207 57.4641 87.3062 57.4767 87.2922C57.4861 87.2818 57.496 87.2719 57.5051 87.2609C57.5164 87.2469 57.5266 87.2322 57.537 87.218C57.5462 87.2056 57.5558 87.1938 57.5644 87.1815C57.574 87.1673 57.5821 87.1522 57.5909 87.1375C57.5993 87.1238 57.6084 87.1104 57.6159 87.0965C57.6239 87.0817 57.6304 87.0662 57.6376 87.0511C57.6449 87.0361 57.6529 87.0216 57.6593 87.0061C57.6655 86.9913 57.6706 86.9758 57.676 86.9605C57.6821 86.9441 57.6888 86.928 57.6939 86.9114C57.6988 86.8953 57.7022 86.879 57.7065 86.8626C57.7108 86.846 57.7159 86.8296 57.7191 86.8127C57.7226 86.7958 57.7245 86.7784 57.7272 86.7615C57.7296 86.7443 57.7331 86.7274 57.7347 86.7103C57.7366 86.6928 57.7366 86.6751 57.7374 86.6574C57.7384 86.64 57.7401 86.6231 57.7401 86.6054V74.2102C57.7401 73.4185 58.3837 72.7636 59.1746 72.7499C59.5562 72.7446 59.9188 72.8921 60.2002 73.1686C60.493 73.4563 60.6609 73.8541 60.6609 74.2596V86.6623C60.6609 86.681 60.6628 86.6993 60.6639 86.7178C60.6647 86.7341 60.6647 86.7508 60.6663 86.7671C60.6682 86.7854 60.6719 86.8031 60.6746 86.821C60.6773 86.8374 60.6789 86.8538 60.6821 86.8696C60.6859 86.8875 60.6912 86.905 60.6958 86.9227C60.6998 86.938 60.7027 86.9532 60.7076 86.9683C60.7135 86.9873 60.721 87.0058 60.728 87.0243C60.7328 87.0372 60.7368 87.0503 60.7422 87.0629C60.7505 87.0822 60.7601 87.1008 60.7695 87.1195C60.7749 87.1305 60.7797 87.1421 60.7856 87.1531C60.7958 87.1721 60.8076 87.1901 60.8191 87.2083C60.8253 87.218 60.8307 87.2284 60.8374 87.2381C60.8497 87.2563 60.8634 87.2737 60.8771 87.2912C60.8838 87.2998 60.8897 87.3089 60.8966 87.3172C60.9117 87.3357 60.9283 87.3529 60.9447 87.3703C60.9511 87.3767 60.9567 87.384 60.9632 87.3904C60.9801 87.4076 60.9983 87.4231 61.0165 87.4389C61.0232 87.4448 61.0294 87.4513 61.0364 87.4569C61.0568 87.4738 61.0782 87.4891 61.0997 87.5044C61.105 87.5081 61.1101 87.5124 61.1158 87.5164C61.1388 87.532 61.163 87.5462 61.1874 87.5599C61.1919 87.5623 61.1959 87.5655 61.2005 87.5679C61.2273 87.5824 61.2547 87.5953 61.2828 87.6076C61.2855 87.6087 61.2879 87.6103 61.2906 87.6114C61.3199 87.6237 61.3499 87.6345 61.3805 87.6441C61.3821 87.6449 61.3837 87.6454 61.3856 87.646C61.4497 87.6661 61.5164 87.6798 61.5854 87.687C61.5859 87.687 61.5862 87.687 61.5867 87.687C61.6213 87.6905 61.6564 87.6924 61.6921 87.6924C61.6924 87.6924 61.6926 87.6924 61.6932 87.6924C61.7114 87.6924 61.7294 87.6905 61.7476 87.6897C61.7645 87.6886 61.7814 87.6886 61.798 87.687C61.8171 87.6851 61.8356 87.6814 61.8544 87.6784C61.8696 87.676 61.8852 87.6744 61.9005 87.6712C61.9206 87.6672 61.9399 87.6613 61.9595 87.6562C61.9726 87.6527 61.9863 87.65 61.9992 87.646C62.0201 87.6393 62.0402 87.6312 62.0606 87.6235C62.0716 87.6192 62.0829 87.6157 62.0938 87.6111C62.1145 87.6023 62.1343 87.5921 62.1545 87.5819C62.1641 87.5771 62.1743 87.573 62.184 87.5677C62.2035 87.5569 62.2223 87.5449 62.2414 87.5328C62.2505 87.5272 62.2599 87.5221 62.269 87.5159C62.2883 87.503 62.3063 87.4886 62.3245 87.4743C62.3323 87.4684 62.3406 87.4628 62.3484 87.4566C62.3663 87.4416 62.3832 87.4253 62.4004 87.4092C62.4074 87.4027 62.4149 87.3968 62.4213 87.3901C62.4379 87.3735 62.4535 87.3558 62.4688 87.3378C62.4752 87.3309 62.4819 87.3242 62.4881 87.3169C62.5028 87.2989 62.5162 87.2799 62.5297 87.2611C62.5353 87.2531 62.5417 87.2456 62.5474 87.2375C62.56 87.2188 62.5712 87.1992 62.5825 87.1796C62.5879 87.1705 62.594 87.1619 62.5991 87.1525C62.6098 87.1327 62.619 87.112 62.6283 87.0914C62.6329 87.0817 62.6383 87.0723 62.6423 87.0624C62.6509 87.0423 62.6579 87.0214 62.6651 87.0007C62.6688 86.9897 62.6737 86.979 62.6772 86.9675C62.6831 86.9479 62.6876 86.9272 62.6927 86.9071C62.6957 86.8942 62.6997 86.8816 62.7024 86.8688C62.7064 86.8489 62.7088 86.8283 62.7118 86.8082C62.7136 86.7942 62.7166 86.7805 62.7179 86.7663C62.7201 86.7475 62.7201 86.7282 62.7209 86.7089C62.7217 86.6931 62.7233 86.6776 62.7233 86.6612V78.151C62.7903 77.5757 63.2787 77.1201 63.8701 77.1099C64.1739 77.1048 64.4673 77.2244 64.6939 77.4473C64.931 77.6801 65.067 78.0019 65.067 78.3299V90.5001L65.0675 90.5462C65.0732 91.2142 65.5119 91.7788 66.1591 91.951C66.8019 92.1218 67.4587 91.8517 67.7966 91.273L67.8031 91.2614C68.6114 89.8492 70.7719 87.6355 71.4027 87.1716C71.4757 87.1176 71.5596 87.0745 71.6521 87.0423C72.063 86.9004 72.5782 87.001 72.9349 87.2928C73.1028 87.4304 73.2945 87.661 73.2521 87.9783Z" fill="#F48C06"/>
<defs>
<filter id="filter0_d_717_2807" x="0.133938" y="0.598989" width="119.496" height="119.496" filterUnits="userSpaceOnUse" color-interpolation-filters="sRGB">
<feFlood flood-opacity="0" result="BackgroundImageFix"/>
<feColorMatrix in="SourceAlpha" type="matrix" values="0 0 0 0 0 0 0 0 0 0 0 0 0 0 0 0 0 0 127 0" result="hardAlpha"/>
<feOffset dx="1.48443" dy="7.42213"/>
<feGaussianBlur stdDeviation="12.6176"/>
<feColorMatrix type="matrix" values="0 0 0 0 0.0599965 0 0 0 0 0.0750638 0 0 0 0 0.154167 0 0 0 0.15 0"/>
<feBlend mode="normal" in2="BackgroundImageFix" result="effect1_dropShadow_717_2807"/>
<feBlend mode="normal" in="SourceGraphic" in2="effect1_dropShadow_717_2807" result="shape"/>
</filter>
<filter id="filter1_d_717_2807" x="7.55581" y="8.02086" width="104.652" height="104.652" filterUnits="userSpaceOnUse" color-interpolation-filters="sRGB">
<feFlood flood-opacity="0" result="BackgroundImageFix"/>
<feColorMatrix in="SourceAlpha" type="matrix" values="0 0 0 0 0 0 0 0 0 0 0 0 0 0 0 0 0 0 127 0" result="hardAlpha"/>
<feOffset dx="1.48443" dy="7.42213"/>
<feGaussianBlur stdDeviation="12.6176"/>
<feColorMatrix type="matrix" values="0 0 0 0 0.0599965 0 0 0 0 0.0750638 0 0 0 0 0.154167 0 0 0 0.15 0"/>
<feBlend mode="normal" in2="BackgroundImageFix" result="effect1_dropShadow_717_2807"/>
<feBlend mode="normal" in="SourceGraphic" in2="effect1_dropShadow_717_2807" result="shape"/>
</filter>
</defs>
</svg>
