<svg width="100" height="100" viewBox="0 0 100 100" fill="none" xmlns="http://www.w3.org/2000/svg">
<rect width="100" height="100" fill="white"/>
<path d="M20.6956 70.7747C19.0165 70.7918 17.3387 70.6756 15.678 70.4273C14.1317 70.1657 13.3477 69.7943 13.3477 69.3232L13.3482 69.3146L16.2329 47.3519L14.78 43.1872C14.719 43.0123 14.701 42.8253 14.7276 42.642C14.7541 42.4587 14.8243 42.2845 14.9323 42.1341C15.0404 41.9837 15.183 41.8615 15.3482 41.7778C15.5135 41.6941 15.6964 41.6515 15.8816 41.6534L25.4356 41.7529C25.6174 41.7548 25.7962 41.7996 25.9573 41.8837C26.1185 41.9678 26.2576 42.0889 26.3631 42.2369C26.4686 42.385 26.5377 42.5559 26.5646 42.7357C26.5916 42.9155 26.5756 43.0991 26.5182 43.2716L25.1582 47.3514L28.0429 69.3146C28.0435 70.469 23.4247 70.7747 20.6956 70.7747Z" fill="#F2F2F2"/>
<path d="M19.9168 67.6826H15.25V67.945H19.9168V67.6826Z" fill="#CCCCCC"/>
<path d="M19.9168 66.1084H15.25V66.3708H19.9168V66.1084Z" fill="#CCCCCC"/>
<path d="M19.9168 64.5342H15.25V64.7966H19.9168V64.5342Z" fill="#CCCCCC"/>
<path d="M19.9168 62.959H15.25V63.2214H19.9168V62.959Z" fill="#CCCCCC"/>
<path d="M19.9168 61.3848H15.25V61.6472H19.9168V61.3848Z" fill="#CCCCCC"/>
<path d="M62.6839 70.7747C61.0048 70.7918 59.327 70.6756 57.6663 70.4273C56.12 70.1657 55.3359 69.7943 55.3359 69.3232L55.3365 69.3146L58.2211 47.3519L56.7683 43.1872C56.7073 43.0123 56.6893 42.8253 56.7158 42.642C56.7423 42.4587 56.8126 42.2845 56.9206 42.1341C57.0286 41.9837 57.1713 41.8615 57.3365 41.7778C57.5017 41.6941 57.6847 41.6515 57.8699 41.6534L67.4239 41.7529C67.6057 41.7548 67.7844 41.7996 67.9456 41.8837C68.1068 41.9678 68.2458 42.0889 68.3514 42.2369C68.4569 42.385 68.526 42.5559 68.5529 42.7357C68.5799 42.9155 68.5639 43.0991 68.5064 43.2716L67.1465 47.3514L70.0312 69.3146C70.0318 70.469 65.413 70.7747 62.6839 70.7747Z" fill="#F2F2F2"/>
<path d="M61.9051 67.6826H57.2383V67.945H61.9051V67.6826Z" fill="#CCCCCC"/>
<path d="M61.9051 66.1084H57.2383V66.3708H61.9051V66.1084Z" fill="#CCCCCC"/>
<path d="M61.9051 64.5342H57.2383V64.7966H61.9051V64.5342Z" fill="#CCCCCC"/>
<path d="M61.9051 62.959H57.2383V63.2214H61.9051V62.959Z" fill="#CCCCCC"/>
<path d="M61.9051 61.3848H57.2383V61.6472H61.9051V61.3848Z" fill="#CCCCCC"/>
<path d="M43.0003 70.7747C41.3212 70.7918 39.6434 70.6756 37.9827 70.4273C36.4364 70.1657 35.6523 69.7943 35.6523 69.3232L35.6529 69.3146L38.5376 47.3519L37.0847 43.1872C37.0237 43.0123 37.0057 42.8253 37.0322 42.642C37.0587 42.4587 37.129 42.2845 37.237 42.1341C37.345 41.9837 37.4877 41.8615 37.6529 41.7778C37.8181 41.6941 38.0011 41.6515 38.1863 41.6534L47.7403 41.7529C47.9221 41.7548 48.1009 41.7996 48.262 41.8837C48.4232 41.9678 48.5623 42.0889 48.6678 42.2369C48.7733 42.385 48.8424 42.5559 48.8693 42.7357C48.8963 42.9155 48.8803 43.0991 48.8228 43.2716L47.4629 47.3514L50.3476 69.3146C50.3482 70.469 45.7294 70.7747 43.0003 70.7747Z" fill="#F2F2F2"/>
<path d="M42.2215 67.6826H37.5547V67.945H42.2215V67.6826Z" fill="#CCCCCC"/>
<path d="M42.2215 66.1084H37.5547V66.3708H42.2215V66.1084Z" fill="#CCCCCC"/>
<path d="M42.2215 64.5342H37.5547V64.7966H42.2215V64.5342Z" fill="#CCCCCC"/>
<path d="M42.2215 62.959H37.5547V63.2214H42.2215V62.959Z" fill="#CCCCCC"/>
<path d="M42.2215 61.3848H37.5547V61.6472H42.2215V61.3848Z" fill="#CCCCCC"/>
<path d="M74.0319 72.4067H65.1094V57.4484H74.0319C74.5191 57.4484 74.9864 57.2548 75.3309 56.9103C75.6754 56.5658 75.8689 56.0986 75.8689 55.6114C75.8689 55.1242 75.6754 54.657 75.3309 54.3125C74.9864 53.968 74.5191 53.7744 74.0319 53.7744H11.837C11.3498 53.7744 10.8825 53.968 10.538 54.3125C10.1935 54.657 10 55.1242 10 55.6114C10 56.0986 10.1935 56.5658 10.538 56.9103C10.8825 57.2548 11.3498 57.4484 11.837 57.4484H19.4473V72.4067H11.837C11.3498 72.4067 10.8825 72.6002 10.538 72.9447C10.1935 73.2892 10 73.7564 10 74.2436C10 74.7308 10.1935 75.1981 10.538 75.5426C10.8825 75.8871 11.3498 76.0806 11.837 76.0806H74.0319C74.2733 76.0809 74.5124 76.0336 74.7355 75.9414C74.9586 75.8492 75.1614 75.7139 75.3321 75.5433C75.5029 75.3727 75.6384 75.1701 75.7309 74.9471C75.8233 74.7241 75.8709 74.485 75.8709 74.2436C75.8709 74.0022 75.8233 73.7632 75.7309 73.5402C75.6384 73.3172 75.5029 73.1146 75.3321 72.944C75.1614 72.7734 74.9586 72.6381 74.7355 72.5459C74.5124 72.4537 74.2733 72.4064 74.0319 72.4067ZM23.1213 72.4067V57.4484H61.4355V72.4067H23.1213Z" fill="#CCCCCC"/>
<path d="M72.5873 91.7736C68.0237 91.7736 63.7673 91.4786 60.6027 90.9432C56.6986 90.2828 54.8008 89.3232 54.8008 88.0095L54.8029 87.9681L61.6553 35.7914L58.2246 25.9569C58.06 25.4942 58.0106 24.9984 58.0809 24.5123C58.1512 24.0263 58.339 23.5647 58.6279 23.1676C58.9101 22.7643 59.2877 22.437 59.7269 22.2149C60.1662 21.9928 60.6535 21.8827 61.1456 21.8944L83.863 22.131C84.3445 22.136 84.8181 22.2548 85.245 22.4775C85.6719 22.7003 86.0401 23.0208 86.3197 23.4129C86.5992 23.805 86.7821 24.2577 86.8535 24.7339C86.9249 25.2101 86.8827 25.6965 86.7304 26.1533L83.519 35.7877L90.3725 87.969V87.9891C90.3733 89.4055 88.2246 90.4111 83.8039 91.0635C79.461 91.7044 74.5131 91.7736 72.5873 91.7736Z" fill="white"/>
<path d="M72.5873 91.7736C68.0237 91.7736 63.7673 91.4786 60.6027 90.9432C56.6986 90.2828 54.8008 89.3232 54.8008 88.0095L54.8029 87.9681L61.6553 35.7914L58.2246 25.9569C58.06 25.4942 58.0106 24.9984 58.0809 24.5123C58.1512 24.0263 58.339 23.5647 58.6279 23.1676C58.9101 22.7643 59.2877 22.437 59.7269 22.2149C60.1662 21.9928 60.6535 21.8827 61.1456 21.8944L83.863 22.131C84.3445 22.136 84.8181 22.2548 85.245 22.4775C85.6719 22.7003 86.0401 23.0208 86.3197 23.4129C86.5992 23.805 86.7821 24.2577 86.8535 24.7339C86.9249 25.2101 86.8827 25.6965 86.7304 26.1533L83.519 35.7877L90.3725 87.969V87.9891C90.3733 89.4055 88.2246 90.4111 83.8039 91.0635C79.461 91.7044 74.5131 91.7736 72.5873 91.7736ZM61.0828 22.5179C60.7005 22.5175 60.3237 22.6095 59.9845 22.786C59.6454 22.9625 59.3539 23.2183 59.1348 23.5317C58.9049 23.8477 58.7555 24.215 58.6996 24.6018C58.6436 24.9885 58.6829 25.3831 58.8139 25.7512L62.2934 35.7256L62.2837 35.799L55.4237 88.0299C55.4249 88.5416 56.1111 89.5505 60.7069 90.3276C63.8382 90.8575 68.0574 91.1495 72.5873 91.1495C76.5691 91.1495 80.7282 90.8865 83.7128 90.4461C87.5254 89.8836 89.7218 88.9956 89.7481 88.008L82.8815 35.7268L86.1383 25.956C86.2594 25.5925 86.293 25.2055 86.2362 24.8265C86.1794 24.4475 86.0339 24.0874 85.8114 23.7753C85.589 23.4633 85.296 23.2082 84.9563 23.0309C84.6166 22.8536 84.2398 22.7591 83.8566 22.7551L61.1357 22.5185C61.118 22.518 61.1003 22.5179 61.0828 22.5179Z" fill="#3F3D56"/>
<path opacity="0.5" d="M85.5365 81.6262H59.6367L63.7424 53.8634L63.8543 53.0982L65.5647 41.5405C65.6691 40.8355 66.4807 41.383 67.0546 40.9604C70.6177 38.3364 74.2235 38.2604 77.8606 40.7894C78.4228 41.1803 79.1994 40.7228 79.3043 41.3995L81.1011 52.9923L81.2748 54.1136L85.5365 81.6262Z" fill="#6C63FF"/>
<path d="M82.3405 85.513H62.8062C62.2941 85.513 61.7879 85.4026 61.3223 85.1894C60.8567 84.9762 60.4425 84.6652 60.1079 84.2775C59.7734 83.8897 59.5263 83.4345 59.3835 82.9427C59.2407 82.4509 59.2056 81.9341 59.2806 81.4275L64.9879 42.8335C65.0173 42.6362 65.0984 42.4502 65.2229 42.2942C65.3473 42.1383 65.5108 42.018 65.6967 41.9455C65.8826 41.8731 66.0843 41.851 66.2815 41.8816C66.4786 41.9121 66.6642 41.9942 66.8195 42.1196C70.2978 44.906 74.0888 44.8433 78.0869 41.934C78.2419 41.8207 78.4237 41.7494 78.6144 41.7272C78.8052 41.705 78.9985 41.7325 79.1754 41.8072C79.356 41.8814 79.5144 42.001 79.635 42.1546C79.7556 42.3081 79.8344 42.4903 79.8636 42.6833L85.8626 81.4034C85.9412 81.9115 85.9091 82.4306 85.7682 82.9251C85.6274 83.4196 85.3812 83.8778 85.0466 84.2682C84.712 84.6586 84.2969 84.972 83.8298 85.1868C83.3627 85.4017 82.8547 85.513 82.3405 85.513Z" fill="#6C63FF"/>
<path d="M74.4813 80.9893H63.3828V81.6133H74.4813V80.9893Z" fill="white"/>
<path d="M74.4813 77.2441H63.3828V77.8682H74.4813V77.2441Z" fill="white"/>
<path d="M74.4813 73.5H63.3828V74.1241H74.4813V73.5Z" fill="white"/>
<path d="M74.4813 69.7559H63.3828V70.3799H74.4813V69.7559Z" fill="white"/>
<path d="M74.4813 66.0107H63.3828V66.6348H74.4813V66.0107Z" fill="white"/>
<path d="M81.7995 56.1871C80.9387 57.0419 79.9032 57.7003 78.764 58.1172C77.6248 58.5341 76.4089 58.6996 75.1997 58.6023C73.8205 58.4775 72.5629 57.9626 71.3522 57.3136C70.1009 56.6427 68.8902 55.8407 67.5047 55.4663C66.2908 55.1386 64.8523 55.0949 63.8101 55.9063C63.7249 55.9723 63.6208 56.0094 63.5131 56.0122C63.4053 56.015 63.2995 55.9833 63.2109 55.9219L63.3295 55.1106C64.4903 54.2992 65.9008 54.1744 67.2831 54.4521C70.0666 55.0138 72.1791 57.3167 75.0312 57.6475C76.2615 57.786 77.5069 57.6167 78.6556 57.1548C79.8043 56.693 80.8203 55.953 81.6122 55.0013L81.6153 54.9982L81.7995 56.1871Z" fill="white"/>
<path d="M79.7605 11.227C80.4674 11.227 81.0405 10.6539 81.0405 9.94699C81.0405 9.24007 80.4674 8.66699 79.7605 8.66699C79.0535 8.66699 78.4805 9.24007 78.4805 9.94699C78.4805 10.6539 79.0535 11.227 79.7605 11.227Z" fill="#6C63FF"/>
<path d="M72.9323 20.4008C73.6393 20.4008 74.2123 19.8277 74.2123 19.1208C74.2123 18.4139 73.6393 17.8408 72.9323 17.8408C72.2254 17.8408 71.6523 18.4139 71.6523 19.1208C71.6523 19.8277 72.2254 20.4008 72.9323 20.4008Z" fill="#6C63FF"/>
</svg>
