<svg width="100" height="100" viewBox="0 0 100 100" fill="none" xmlns="http://www.w3.org/2000/svg">
<rect width="100" height="100" fill="white"/>
<path d="M46.6098 23.2064H18.5759C18.1579 23.2064 17.7571 23.0404 17.4616 22.7449C17.166 22.4493 17 22.0485 17 21.6306C17 21.2126 17.166 20.8118 17.4616 20.5163C17.7571 20.2207 18.1579 20.0547 18.5759 20.0547H46.6098C47.0278 20.0547 47.4286 20.2207 47.7241 20.5163C48.0197 20.8118 48.1857 21.2126 48.1857 21.6306C48.1857 22.0485 48.0197 22.4493 47.7241 22.7449C47.4286 23.0404 47.0278 23.2064 46.6098 23.2064Z" fill="#CCCCCC"/>
<path d="M81.4458 23.2064H53.4118C52.9939 23.2064 52.593 23.0404 52.2975 22.7449C52.002 22.4493 51.8359 22.0485 51.8359 21.6306C51.8359 21.2126 52.002 20.8118 52.2975 20.5163C52.593 20.2207 52.9939 20.0547 53.4118 20.0547H81.4458C81.8637 20.0547 82.2645 20.2207 82.5601 20.5163C82.8556 20.8118 83.0216 21.2126 83.0216 21.6306C83.0216 22.0485 82.8556 22.4493 82.5601 22.7449C82.2645 23.0404 81.8637 23.2064 81.4458 23.2064Z" fill="#CCCCCC"/>
<path d="M81.4466 29.1791H32.6774C32.2595 29.1791 31.8587 29.0131 31.5631 28.7175C31.2676 28.422 31.1016 28.0212 31.1016 27.6032C31.1016 27.1853 31.2676 26.7844 31.5631 26.4889C31.8587 26.1934 32.2595 26.0273 32.6774 26.0273H81.4466C81.8645 26.0273 82.2653 26.1934 82.5609 26.4889C82.8564 26.7844 83.0224 27.1853 83.0224 27.6032C83.0224 28.0212 82.8564 28.422 82.5609 28.7175C82.2653 29.0131 81.8645 29.1791 81.4466 29.1791Z" fill="#CCCCCC"/>
<path d="M46.6079 17.1517H18.5739C18.1563 17.1512 17.756 16.985 17.4609 16.6895C17.1658 16.394 17 15.9935 17 15.5759C17 15.1583 17.1658 14.7577 17.4609 14.4622C17.756 14.1668 18.1563 14.0005 18.5739 14H46.6079C46.815 13.9997 47.0201 14.0403 47.2115 14.1194C47.403 14.1985 47.5769 14.3145 47.7235 14.4609C47.87 14.6072 47.9862 14.781 48.0656 14.9724C48.1449 15.1637 48.1857 15.3688 48.1857 15.5759C48.1857 15.783 48.1449 15.9881 48.0656 16.1794C47.9862 16.3707 47.87 16.5445 47.7235 16.6909C47.5769 16.8372 47.403 16.9533 47.2115 17.0323C47.0201 17.1114 46.815 17.152 46.6079 17.1517Z" fill="#CCCCCC"/>
<path d="M62.0382 17.2357H54.0759C53.6579 17.2357 53.2571 17.0697 52.9616 16.7742C52.666 16.4786 52.5 16.0778 52.5 15.6599C52.5 15.2419 52.666 14.8411 52.9616 14.5455C53.2571 14.25 53.6579 14.084 54.0759 14.084H62.0382C62.4561 14.084 62.857 14.25 63.1525 14.5455C63.448 14.8411 63.614 15.2419 63.614 15.6599C63.614 16.0778 63.448 16.4786 63.1525 16.7742C62.857 17.0697 62.4561 17.2357 62.0382 17.2357Z" fill="#CCCCCC"/>
<path d="M26.5362 29.1791H18.5739C18.1563 29.1786 17.756 29.0123 17.4609 28.7168C17.1658 28.4214 17 28.0208 17 27.6032C17 27.1856 17.1658 26.7851 17.4609 26.4896C17.756 26.1941 18.1563 26.0279 18.5739 26.0273H26.5362C26.7433 26.0271 26.9485 26.0677 27.1399 26.1467C27.3313 26.2258 27.5053 26.3419 27.6518 26.4882C27.7983 26.6346 27.9146 26.8084 27.9939 26.9997C28.0732 27.191 28.1141 27.3961 28.1141 27.6032C28.1141 27.8103 28.0732 28.0154 27.9939 28.2067C27.9146 28.398 27.7983 28.5719 27.6518 28.7182C27.5053 28.8646 27.3313 28.9806 27.1399 29.0597C26.9485 29.1388 26.7433 29.1793 26.5362 29.1791Z" fill="#CCCCCC"/>
<path d="M46.6098 79.1264H18.5759C18.1579 79.1264 17.7571 78.9603 17.4616 78.6648C17.166 78.3693 17 77.9684 17 77.5505C17 77.1325 17.166 76.7317 17.4616 76.4362C17.7571 76.1406 18.1579 75.9746 18.5759 75.9746H46.6098C46.8168 75.9746 47.0217 76.0154 47.2129 76.0946C47.4041 76.1738 47.5778 76.2898 47.7241 76.4362C47.8705 76.5825 47.9865 76.7562 48.0657 76.9474C48.1449 77.1386 48.1857 77.3435 48.1857 77.5505C48.1857 77.7574 48.1449 77.9623 48.0657 78.1535C47.9865 78.3447 47.8705 78.5185 47.7241 78.6648C47.5778 78.8111 47.4041 78.9272 47.2129 79.0064C47.0217 79.0856 46.8168 79.1264 46.6098 79.1264Z" fill="#CCCCCC"/>
<path d="M81.4458 79.1264H53.4118C52.9939 79.1264 52.593 78.9603 52.2975 78.6648C52.002 78.3693 51.8359 77.9684 51.8359 77.5505C51.8359 77.1325 52.002 76.7317 52.2975 76.4362C52.593 76.1406 52.9939 75.9746 53.4118 75.9746H81.4458C81.6527 75.9746 81.8576 76.0154 82.0488 76.0946C82.24 76.1738 82.4137 76.2898 82.5601 76.4362C82.7064 76.5825 82.8225 76.7562 82.9017 76.9474C82.9809 77.1386 83.0216 77.3435 83.0216 77.5505C83.0216 77.7574 82.9809 77.9623 82.9017 78.1535C82.8225 78.3447 82.7064 78.5185 82.5601 78.6648C82.4137 78.8111 82.24 78.9272 82.0488 79.0064C81.8576 79.0856 81.6527 79.1264 81.4458 79.1264Z" fill="#CCCCCC"/>
<path d="M81.4466 85.099H32.6774C32.2595 85.099 31.8587 84.933 31.5631 84.6375C31.2676 84.3419 31.1016 83.9411 31.1016 83.5231C31.1016 83.1052 31.2676 82.7044 31.5631 82.4088C31.8587 82.1133 32.2595 81.9473 32.6774 81.9473H81.4466C81.6537 81.947 81.8588 81.9876 82.0502 82.0667C82.2416 82.1457 82.4156 82.2618 82.5621 82.4081C82.7087 82.5545 82.8249 82.7283 82.9042 82.9196C82.9836 83.111 83.0244 83.316 83.0244 83.5231C83.0244 83.7302 82.9836 83.9353 82.9042 84.1266C82.8249 84.318 82.7087 84.4918 82.5621 84.6381C82.4156 84.7845 82.2416 84.9005 82.0502 84.9796C81.8588 85.0587 81.6537 85.0993 81.4466 85.099Z" fill="#CCCCCC"/>
<path d="M46.6098 73.0717H18.5759C18.1579 73.0717 17.7571 72.9056 17.4616 72.6101C17.166 72.3146 17 71.9137 17 71.4958C17 71.0778 17.166 70.677 17.4616 70.3815C17.7571 70.086 18.1579 69.9199 18.5759 69.9199H46.6098C47.0278 69.9199 47.4286 70.086 47.7241 70.3815C48.0197 70.677 48.1857 71.0778 48.1857 71.4958C48.1857 71.9137 48.0197 72.3146 47.7241 72.6101C47.4286 72.9056 47.0278 73.0717 46.6098 73.0717Z" fill="#CCCCCC"/>
<path d="M62.0382 73.1557H54.0759C53.6579 73.1557 53.2571 72.9896 52.9616 72.6941C52.666 72.3986 52.5 71.9977 52.5 71.5798C52.5 71.1618 52.666 70.761 52.9616 70.4655C53.2571 70.1699 53.6579 70.0039 54.0759 70.0039H62.0382C62.4561 70.0039 62.857 70.1699 63.1525 70.4655C63.448 70.761 63.614 71.1618 63.614 71.5798C63.614 71.9977 63.448 72.3986 63.1525 72.6941C62.857 72.9896 62.4561 73.1557 62.0382 73.1557Z" fill="#CCCCCC"/>
<path d="M26.5382 85.099H18.5759C18.1579 85.099 17.7571 84.933 17.4616 84.6375C17.166 84.3419 17 83.9411 17 83.5231C17 83.1052 17.166 82.7044 17.4616 82.4088C17.7571 82.1133 18.1579 81.9473 18.5759 81.9473H26.5382C26.7453 81.947 26.9504 81.9876 27.1418 82.0667C27.3332 82.1457 27.5072 82.2618 27.6537 82.4081C27.8003 82.5545 27.9165 82.7283 27.9958 82.9196C28.0752 83.111 28.116 83.316 28.116 83.5231C28.116 83.7302 28.0752 83.9353 27.9958 84.1266C27.9165 84.318 27.8003 84.4918 27.6537 84.6381C27.5072 84.7845 27.3332 84.9005 27.1418 84.9796C26.9504 85.0587 26.7453 85.0993 26.5382 85.099Z" fill="#CCCCCC"/>
<path d="M39.2886 62.2083C38.6937 62.2097 38.1223 61.9759 37.699 61.5579L27.1609 51.1517C26.954 50.9474 26.7898 50.704 26.6776 50.4358C26.5655 50.1675 26.5078 49.8796 26.5078 49.5889C26.5078 49.2981 26.5655 49.0102 26.6776 48.742C26.7898 48.4737 26.954 48.2304 27.1609 48.0261L37.6564 37.6618C38.0936 37.2321 38.6827 36.9922 39.2957 36.9942C39.9088 36.9961 40.4963 37.2397 40.9308 37.6721C41.3658 38.1081 41.6101 38.6987 41.6101 39.3145C41.6101 39.9303 41.3658 40.521 40.9309 40.9569L33.1318 48.7561C32.8889 48.9997 32.7524 49.3297 32.7524 49.6737C32.7524 50.0177 32.8889 50.3477 33.1318 50.5913L40.8886 58.3481C41.2053 58.6643 41.4211 59.0673 41.5086 59.5062C41.5961 59.9451 41.5513 60.4 41.3799 60.8135C41.2086 61.2269 40.9184 61.5801 40.5461 61.8284C40.1738 62.0767 39.7361 62.209 39.2886 62.2083Z" fill="#6C63FF"/>
<path d="M56.0804 62.2083C55.6329 62.209 55.1952 62.0768 54.8229 61.8284C54.4506 61.5801 54.1604 61.2269 53.9891 60.8135C53.8177 60.4001 53.7729 59.9451 53.8604 59.5062C53.9479 59.0673 54.1637 58.6643 54.4804 58.3481L62.2372 50.5913C62.4801 50.3478 62.6166 50.0178 62.6166 49.6737C62.6166 49.3297 62.4801 48.9997 62.2372 48.7561L54.4381 40.9569C54.2224 40.7413 54.0513 40.4852 53.9346 40.2034C53.8179 39.9216 53.7578 39.6196 53.7578 39.3145C53.7578 39.0095 53.8179 38.7075 53.9346 38.4257C54.0514 38.1439 54.2225 37.8878 54.4382 37.6721C54.8727 37.2397 55.4602 36.9961 56.0733 36.9942C56.6863 36.9922 57.2754 37.2321 57.7126 37.6618L68.2081 48.0261C68.415 48.2304 68.5792 48.4737 68.6914 48.742C68.8035 49.0103 68.8612 49.2981 68.8612 49.5889C68.8612 49.8796 68.8035 50.1675 68.6914 50.4358C68.5792 50.704 68.415 50.9474 68.2081 51.1517L57.67 61.5579C57.2466 61.9758 56.6753 62.2096 56.0804 62.2083Z" fill="#6C63FF"/>
</svg>
