<svg width="150" height="150" viewBox="0 0 150 150" fill="none" xmlns="http://www.w3.org/2000/svg">
<rect width="150" height="150" fill="white"/>
<path d="M69.9147 34.8096H27.8638C27.2369 34.8096 26.6356 34.5606 26.1923 34.1173C25.749 33.674 25.5 33.0728 25.5 32.4458C25.5 31.8189 25.749 31.2177 26.1923 30.7744C26.6356 30.3311 27.2369 30.082 27.8638 30.082H69.9147C70.5417 30.082 71.1429 30.3311 71.5862 30.7744C72.0295 31.2177 72.2785 31.8189 72.2785 32.4458C72.2785 33.0728 72.0295 33.674 71.5862 34.1173C71.1429 34.5606 70.5417 34.8096 69.9147 34.8096Z" fill="#CCCCCC"/>
<path d="M122.169 34.8096H80.1177C79.4908 34.8096 78.8895 34.5606 78.4462 34.1173C78.0029 33.674 77.7539 33.0728 77.7539 32.4458C77.7539 31.8189 78.0029 31.2177 78.4462 30.7744C78.8895 30.3311 79.4908 30.082 80.1177 30.082H122.169C122.796 30.082 123.397 30.3311 123.84 30.7744C124.283 31.2177 124.532 31.8189 124.532 32.4458C124.532 33.0728 124.283 33.674 123.84 34.1173C123.397 34.5606 122.796 34.8096 122.169 34.8096Z" fill="#CCCCCC"/>
<path d="M122.166 43.7677H49.0123C48.3853 43.7677 47.7841 43.5186 47.3408 43.0753C46.8975 42.632 46.6484 42.0308 46.6484 41.4038C46.6484 40.7769 46.8975 40.1757 47.3408 39.7324C47.7841 39.2891 48.3853 39.04 49.0123 39.04H122.166C122.793 39.04 123.394 39.2891 123.837 39.7324C124.281 40.1757 124.53 40.7769 124.53 41.4038C124.53 42.0308 124.281 42.632 123.837 43.0753C123.394 43.5186 122.793 43.7677 122.166 43.7677Z" fill="#CCCCCC"/>
<path d="M69.9157 25.7276H27.8648C27.2384 25.7268 26.6379 25.4775 26.1952 25.0342C25.7526 24.591 25.5039 23.9902 25.5039 23.3638C25.5039 22.7374 25.7526 22.1366 26.1952 21.6934C26.6379 21.2502 27.2384 21.0008 27.8648 21H69.9157C70.2264 20.9996 70.5341 21.0605 70.8212 21.1791C71.1083 21.2977 71.3693 21.4718 71.5891 21.6913C71.8089 21.9108 71.9833 22.1716 72.1022 22.4585C72.2212 22.7455 72.2825 23.0531 72.2825 23.3638C72.2825 23.6745 72.2212 23.9821 72.1022 24.2691C71.9833 24.5561 71.8089 24.8168 71.5891 25.0363C71.3693 25.2558 71.1083 25.4299 70.8212 25.5485C70.5341 25.6671 70.2264 25.728 69.9157 25.7276Z" fill="#CCCCCC"/>
<path d="M93.0533 25.8526H81.1099C80.483 25.8526 79.8817 25.6036 79.4384 25.1603C78.9951 24.717 78.7461 24.1157 78.7461 23.4888C78.7461 22.8619 78.9951 22.2606 79.4384 21.8173C79.8817 21.374 80.483 21.125 81.1099 21.125H93.0533C93.6803 21.125 94.2815 21.374 94.7248 21.8173C95.1681 22.2606 95.4172 22.8619 95.4172 23.4888C95.4172 24.1157 95.1681 24.717 94.7248 25.1603C94.2815 25.6036 93.6803 25.8526 93.0533 25.8526Z" fill="#CCCCCC"/>
<path d="M39.8083 43.7677H27.8648C27.2384 43.7669 26.6379 43.5175 26.1952 43.0743C25.7526 42.6311 25.5039 42.0303 25.5039 41.4038C25.5039 40.7774 25.7526 40.1766 26.1952 39.7334C26.6379 39.2902 27.2384 39.0408 27.8648 39.04H39.8083C40.1189 39.0397 40.4266 39.1005 40.7138 39.2191C41.0009 39.3378 41.2618 39.5118 41.4816 39.7313C41.7014 39.9509 41.8758 40.2116 41.9948 40.4986C42.1138 40.7856 42.175 41.0932 42.175 41.4038C42.175 41.7145 42.1138 42.0221 41.9948 42.3091C41.8758 42.5961 41.7014 42.8568 41.4816 43.0763C41.2618 43.2959 41.0009 43.4699 40.7138 43.5886C40.4266 43.7072 40.1189 43.768 39.8083 43.7677Z" fill="#CCCCCC"/>
<path d="M69.9147 118.691H27.8638C27.2369 118.691 26.6356 118.441 26.1923 117.998C25.749 117.555 25.5 116.954 25.5 116.327C25.5 115.7 25.749 115.099 26.1923 114.655C26.6356 114.212 27.2369 113.963 27.8638 113.963H69.9147C70.2252 113.963 70.5325 114.024 70.8193 114.143C71.1061 114.262 71.3667 114.436 71.5862 114.655C71.8057 114.875 71.9798 115.135 72.0986 115.422C72.2174 115.709 72.2785 116.016 72.2785 116.327C72.2785 116.637 72.2174 116.944 72.0986 117.231C71.9798 117.518 71.8057 117.779 71.5862 117.998C71.3667 118.218 71.1061 118.392 70.8193 118.511C70.5325 118.629 70.2252 118.691 69.9147 118.691Z" fill="#CCCCCC"/>
<path d="M122.169 118.691H80.1177C79.4908 118.691 78.8895 118.441 78.4462 117.998C78.0029 117.555 77.7539 116.954 77.7539 116.327C77.7539 115.7 78.0029 115.099 78.4462 114.655C78.8895 114.212 79.4908 113.963 80.1177 113.963H122.169C122.479 113.963 122.786 114.024 123.073 114.143C123.36 114.262 123.621 114.436 123.84 114.655C124.06 114.875 124.234 115.135 124.353 115.422C124.471 115.709 124.532 116.016 124.532 116.327C124.532 116.637 124.471 116.944 124.353 117.231C124.234 117.518 124.06 117.779 123.84 117.998C123.621 118.218 123.36 118.392 123.073 118.511C122.786 118.629 122.479 118.691 122.169 118.691Z" fill="#CCCCCC"/>
<path d="M122.166 127.648H49.0123C48.3853 127.648 47.7841 127.398 47.3408 126.955C46.8975 126.512 46.6484 125.911 46.6484 125.284C46.6484 124.657 46.8975 124.056 47.3408 123.612C47.7841 123.169 48.3853 122.92 49.0123 122.92H122.166C122.477 122.92 122.784 122.98 123.071 123.099C123.359 123.218 123.619 123.392 123.839 123.611C124.059 123.831 124.233 124.091 124.352 124.378C124.471 124.665 124.533 124.973 124.533 125.284C124.533 125.594 124.471 125.902 124.352 126.189C124.233 126.476 124.059 126.737 123.839 126.956C123.619 127.176 123.359 127.35 123.071 127.468C122.784 127.587 122.477 127.648 122.166 127.648Z" fill="#CCCCCC"/>
<path d="M69.9147 109.608H27.8638C27.2369 109.608 26.6356 109.359 26.1923 108.916C25.749 108.473 25.5 107.872 25.5 107.245C25.5 106.618 25.749 106.017 26.1923 105.573C26.6356 105.13 27.2369 104.881 27.8638 104.881H69.9147C70.5417 104.881 71.1429 105.13 71.5862 105.573C72.0295 106.017 72.2785 106.618 72.2785 107.245C72.2785 107.872 72.0295 108.473 71.5862 108.916C71.1429 109.359 70.5417 109.608 69.9147 109.608Z" fill="#CCCCCC"/>
<path d="M93.0533 109.733H81.1099C80.483 109.733 79.8817 109.483 79.4384 109.04C78.9951 108.597 78.7461 107.996 78.7461 107.369C78.7461 106.742 78.9951 106.141 79.4384 105.697C79.8817 105.254 80.483 105.005 81.1099 105.005H93.0533C93.6803 105.005 94.2815 105.254 94.7248 105.697C95.1681 106.141 95.4172 106.742 95.4172 107.369C95.4172 107.996 95.1681 108.597 94.7248 109.04C94.2815 109.483 93.6803 109.733 93.0533 109.733Z" fill="#CCCCCC"/>
<path d="M39.8073 127.648H27.8638C27.2369 127.648 26.6356 127.398 26.1923 126.955C25.749 126.512 25.5 125.911 25.5 125.284C25.5 124.657 25.749 124.056 26.1923 123.612C26.6356 123.169 27.2369 122.92 27.8638 122.92H39.8073C40.1179 122.92 40.4256 122.98 40.7127 123.099C40.9999 123.218 41.2608 123.392 41.4806 123.611C41.7004 123.831 41.8748 124.091 41.9938 124.378C42.1127 124.665 42.174 124.973 42.174 125.284C42.174 125.594 42.1127 125.902 41.9938 126.189C41.8748 126.476 41.7004 126.737 41.4806 126.956C41.2608 127.176 40.9999 127.35 40.7127 127.468C40.4256 127.587 40.1179 127.648 39.8073 127.648Z" fill="#CCCCCC"/>
<path d="M58.9329 93.3125C58.0406 93.3145 57.1835 92.9638 56.5485 92.3368L40.7413 76.7275C40.431 76.421 40.1846 76.056 40.0165 75.6536C39.8483 75.2512 39.7617 74.8194 39.7617 74.3833C39.7617 73.9472 39.8483 73.5154 40.0165 73.113C40.1846 72.7106 40.431 72.3455 40.7413 72.0391L56.4846 56.4927C57.1405 55.8482 58.0241 55.4883 58.9436 55.4912C59.8632 55.4941 60.7445 55.8596 61.3963 56.5082C62.0487 57.1621 62.4151 58.0481 62.4151 58.9718C62.4151 59.8955 62.0487 60.7815 61.3963 61.4354L49.6978 73.1342C49.3333 73.4995 49.1286 73.9945 49.1286 74.5106C49.1286 75.0266 49.3333 75.5216 49.6978 75.8869L61.3329 87.5222C61.808 87.9964 62.1317 88.601 62.2629 89.2593C62.3941 89.9176 62.3269 90.6001 62.0699 91.2202C61.8129 91.8403 61.3776 92.3702 60.8191 92.7426C60.2607 93.1151 59.6042 93.3134 58.9329 93.3125Z" fill="#6C63FF"/>
<path d="M84.1206 93.3125C83.4493 93.3135 82.7928 93.1151 82.2344 92.7427C81.6759 92.3702 81.2406 91.8403 80.9836 91.2202C80.7266 90.6001 80.6594 89.9176 80.7906 89.2593C80.9218 88.601 81.2455 87.9964 81.7206 87.5222L93.3557 75.887C93.7202 75.5216 93.9249 75.0266 93.9249 74.5106C93.9249 73.9945 93.7202 73.4996 93.3557 73.1342L81.6572 61.4354C81.3336 61.1119 81.077 60.7278 80.9019 60.3051C80.7268 59.8824 80.6367 59.4293 80.6367 58.9718C80.6367 58.5143 80.7268 58.0612 80.902 57.6385C81.0771 57.2158 81.3337 56.8317 81.6572 56.5082C82.309 55.8596 83.1903 55.4941 84.1099 55.4912C85.0294 55.4883 85.913 55.8482 86.5689 56.4927L102.312 72.0391C102.622 72.3455 102.869 72.7106 103.037 73.113C103.205 73.5154 103.292 73.9472 103.292 74.3833C103.292 74.8194 103.205 75.2512 103.037 75.6536C102.869 76.056 102.622 76.4211 102.312 76.7275L86.505 92.3368C85.87 92.9638 85.013 93.3144 84.1206 93.3125Z" fill="#6C63FF"/>
</svg>
