<svg width="29" height="29" viewBox="0 0 29 29" fill="none" xmlns="http://www.w3.org/2000/svg">
<path d="M16.7984 15.5998H22.7984V13.1998H16.7984V15.5998ZM16.7984 11.9998H22.7984V9.5998H16.7984V11.9998ZM5.99844 19.1998H15.5984V18.5398C15.5984 17.6398 15.1584 16.9248 14.2784 16.3948C13.3984 15.8648 12.2384 15.5998 10.7984 15.5998C9.35844 15.5998 8.19844 15.8648 7.31844 16.3948C6.43844 16.9248 5.99844 17.6398 5.99844 18.5398V19.1998ZM10.7984 14.3998C11.4584 14.3998 12.0234 14.1648 12.4934 13.6948C12.9634 13.2248 13.1984 12.6598 13.1984 11.9998C13.1984 11.3398 12.9634 10.7748 12.4934 10.3048C12.0234 9.83481 11.4584 9.5998 10.7984 9.5998C10.1384 9.5998 9.57344 9.83481 9.10344 10.3048C8.63344 10.7748 8.39844 11.3398 8.39844 11.9998C8.39844 12.6598 8.63344 13.2248 9.10344 13.6948C9.57344 14.1648 10.1384 14.3998 10.7984 14.3998ZM4.79844 23.9998C4.13844 23.9998 3.57344 23.7648 3.10344 23.2948C2.63344 22.8248 2.39844 22.2598 2.39844 21.5998V7.1998C2.39844 6.5398 2.63344 5.9748 3.10344 5.5048C3.57344 5.0348 4.13844 4.7998 4.79844 4.7998H23.9984C24.6584 4.7998 25.2234 5.0348 25.6934 5.5048C26.1634 5.9748 26.3984 6.5398 26.3984 7.1998V21.5998C26.3984 22.2598 26.1634 22.8248 25.6934 23.2948C25.2234 23.7648 24.6584 23.9998 23.9984 23.9998H4.79844ZM4.79844 21.5998H23.9984V7.1998H4.79844V21.5998Z" fill="black"/>
</svg>
