<svg width="24" height="25" viewBox="0 0 24 25" fill="none" xmlns="http://www.w3.org/2000/svg">
<path d="M2 19.5V17.5H22V19.5H2ZM3.15 13.45L1.85 12.7L2.7 11.2H1V9.7H2.7L1.85 8.25L3.15 7.5L4 8.95L4.85 7.5L6.15 8.25L5.3 9.7H7V11.2H5.3L6.15 12.7L4.85 13.45L4 11.95L3.15 13.45ZM11.15 13.45L9.85 12.7L10.7 11.2H9V9.7H10.7L9.85 8.25L11.15 7.5L12 8.95L12.85 7.5L14.15 8.25L13.3 9.7H15V11.2H13.3L14.15 12.7L12.85 13.45L12 11.95L11.15 13.45ZM19.15 13.45L17.85 12.7L18.7 11.2H17V9.7H18.7L17.85 8.25L19.15 7.5L20 8.95L20.85 7.5L22.15 8.25L21.3 9.7H23V11.2H21.3L22.15 12.7L20.85 13.45L20 11.95L19.15 13.45Z" fill="black"/>
</svg>
