<svg width="13" height="13" viewBox="0 0 13 13" fill="none" xmlns="http://www.w3.org/2000/svg">
<g clip-path="url(#clip0_717_2745)">
<path d="M12.4705 0.638558L9.90419 0.0463227C9.62535 -0.0178361 9.3391 0.127755 9.22559 0.389325L8.04112 3.15309C7.93748 3.39492 8.00657 3.6787 8.21139 3.84403L9.70678 5.06798C8.81843 6.96067 7.26628 8.53502 5.33411 9.44065L4.11016 7.94526C3.94236 7.74044 3.66105 7.67135 3.41922 7.77499L0.655455 8.95946C0.391417 9.07544 0.245826 9.36168 0.309985 9.64053L0.90222 12.2069C0.963911 12.4734 1.2008 12.6659 1.47965 12.6659C7.79929 12.6659 12.9295 7.5455 12.9295 1.21599C12.9295 0.93961 12.7395 0.700249 12.4705 0.638558Z" fill="white"/>
</g>
<defs>
<clipPath id="clip0_717_2745">
<rect width="12.6343" height="12.6343" fill="white" transform="translate(0.294922 0.0332031)"/>
</clipPath>
</defs>
</svg>
