<svg width="24" height="25" viewBox="0 0 24 25" fill="none" xmlns="http://www.w3.org/2000/svg">
<path d="M12 22.5C9.68333 21.9167 7.77083 20.5875 6.2625 18.5125C4.75417 16.4375 4 14.1333 4 11.6V5.5L12 2.5L20 5.5V11.6C20 13.0167 19.7583 14.3792 19.275 15.6875C18.7917 16.9958 18.1 18.15 17.2 19.15L14 15.95C13.7 16.1333 13.3792 16.2708 13.0375 16.3625C12.6958 16.4542 12.35 16.5 12 16.5C10.9 16.5 9.95833 16.1083 9.175 15.325C8.39167 14.5417 8 13.6 8 12.5C8 11.4 8.39167 10.4583 9.175 9.675C9.95833 8.89167 10.9 8.5 12 8.5C13.1 8.5 14.0417 8.89167 14.825 9.675C15.6083 10.4583 16 11.4 16 12.5C16 12.8667 15.9542 13.2208 15.8625 13.5625C15.7708 13.9042 15.6333 14.2333 15.45 14.55L16.95 16.05C17.2833 15.3667 17.5417 14.65 17.725 13.9C17.9083 13.15 18 12.3833 18 11.6V6.875L12 4.625L6 6.875V11.6C6 13.6167 6.56667 15.45 7.7 17.1C8.83333 18.75 10.2667 19.85 12 20.4C12.4333 20.2667 12.8458 20.0958 13.2375 19.8875C13.6292 19.6792 14.0167 19.4333 14.4 19.15L15.8 20.55C15.25 21 14.6542 21.3917 14.0125 21.725C13.3708 22.0583 12.7 22.3167 12 22.5ZM12 14.5C12.55 14.5 13.0208 14.3042 13.4125 13.9125C13.8042 13.5208 14 13.05 14 12.5C14 11.95 13.8042 11.4792 13.4125 11.0875C13.0208 10.6958 12.55 10.5 12 10.5C11.45 10.5 10.9792 10.6958 10.5875 11.0875C10.1958 11.4792 10 11.95 10 12.5C10 13.05 10.1958 13.5208 10.5875 13.9125C10.9792 14.3042 11.45 14.5 12 14.5Z" fill="black"/>
</svg>
