<svg width="39" height="40" viewBox="0 0 39 40" fill="none" xmlns="http://www.w3.org/2000/svg">
<g clip-path="url(#clip0_717_2314)">
<path d="M19.2 4.25828C24.33 4.25828 24.9375 4.28078 26.955 4.37078C28.83 4.45328 29.8425 4.76828 30.5175 5.03078C31.41 5.37578 32.055 5.79578 32.7225 6.46328C33.3975 7.13828 33.81 7.77578 34.155 8.66828C34.4175 9.34328 34.7325 10.3633 34.815 12.2308C34.905 14.2558 34.9275 14.8633 34.9275 19.9858C34.9275 25.1158 34.905 25.7233 34.815 27.7408C34.7325 29.6158 34.4175 30.6283 34.155 31.3033C33.81 32.1958 33.39 32.8408 32.7225 33.5083C32.0475 34.1833 31.41 34.5958 30.5175 34.9408C29.8425 35.2033 28.8225 35.5183 26.955 35.6008C24.93 35.6908 24.3225 35.7133 19.2 35.7133C14.07 35.7133 13.4625 35.6908 11.445 35.6008C9.57 35.5183 8.5575 35.2033 7.8825 34.9408C6.99 34.5958 6.345 34.1758 5.6775 33.5083C5.0025 32.8333 4.59 32.1958 4.245 31.3033C3.9825 30.6283 3.6675 29.6083 3.585 27.7408C3.495 25.7158 3.4725 25.1083 3.4725 19.9858C3.4725 14.8558 3.495 14.2483 3.585 12.2308C3.6675 10.3558 3.9825 9.34328 4.245 8.66828C4.59 7.77578 5.01 7.13078 5.6775 6.46328C6.3525 5.78828 6.99 5.37578 7.8825 5.03078C8.5575 4.76828 9.5775 4.45328 11.445 4.37078C13.4625 4.28078 14.07 4.25828 19.2 4.25828ZM19.2 0.800781C13.9875 0.800781 13.335 0.823281 11.2875 0.913281C9.2475 1.00328 7.845 1.33328 6.63 1.80578C5.3625 2.30078 4.29 2.95328 3.225 4.02578C2.1525 5.09078 1.5 6.16328 1.005 7.42328C0.5325 8.64578 0.2025 10.0408 0.1125 12.0808C0.0225 14.1358 0 14.7883 0 20.0008C0 25.2133 0.0225 25.8658 0.1125 27.9133C0.2025 29.9533 0.5325 31.3558 1.005 32.5708C1.5 33.8383 2.1525 34.9108 3.225 35.9758C4.29 37.0408 5.3625 37.7008 6.6225 38.1883C7.845 38.6608 9.24 38.9908 11.28 39.0808C13.3275 39.1708 13.98 39.1933 19.1925 39.1933C24.405 39.1933 25.0575 39.1708 27.105 39.0808C29.145 38.9908 30.5475 38.6608 31.7625 38.1883C33.0225 37.7008 34.095 37.0408 35.16 35.9758C36.225 34.9108 36.885 33.8383 37.3725 32.5783C37.845 31.3558 38.175 29.9608 38.265 27.9208C38.355 25.8733 38.3775 25.2208 38.3775 20.0083C38.3775 14.7958 38.355 14.1433 38.265 12.0958C38.175 10.0558 37.845 8.65328 37.3725 7.43828C36.9 6.16328 36.2475 5.09078 35.175 4.02578C34.11 2.96078 33.0375 2.30078 31.7775 1.81328C30.555 1.34078 29.16 1.01078 27.12 0.920781C25.065 0.823281 24.4125 0.800781 19.2 0.800781Z" fill="white"/>
<path d="M19.1984 10.1387C13.7534 10.1387 9.33594 14.5562 9.33594 20.0012C9.33594 25.4462 13.7534 29.8637 19.1984 29.8637C24.6434 29.8637 29.0609 25.4462 29.0609 20.0012C29.0609 14.5562 24.6434 10.1387 19.1984 10.1387ZM19.1984 26.3987C15.6659 26.3987 12.8009 23.5337 12.8009 20.0012C12.8009 16.4687 15.6659 13.6037 19.1984 13.6037C22.7309 13.6037 25.5959 16.4687 25.5959 20.0012C25.5959 23.5337 22.7309 26.3987 19.1984 26.3987Z" fill="white"/>
<path d="M31.7534 9.74782C31.7534 11.0228 30.7184 12.0503 29.4509 12.0503C28.1759 12.0503 27.1484 11.0153 27.1484 9.74782C27.1484 8.47281 28.1834 7.44531 29.4509 7.44531C30.7184 7.44531 31.7534 8.48031 31.7534 9.74782Z" fill="white"/>
</g>
<defs>
<clipPath id="clip0_717_2314">
<rect width="38.4" height="38.4" fill="white" transform="translate(0 0.800781)"/>
</clipPath>
</defs>
</svg>
