<svg width="39" height="40" viewBox="0 0 39 40" fill="none" xmlns="http://www.w3.org/2000/svg">
<g clip-path="url(#clip0_717_2673)">
<path d="M38.4179 12.3216C38.4179 12.3216 38.0429 9.67414 36.8879 8.51164C35.4254 6.98164 33.7904 6.97414 33.0404 6.88414C27.6704 6.49414 19.6079 6.49414 19.6079 6.49414H19.5929C19.5929 6.49414 11.5304 6.49414 6.16039 6.88414C5.41039 6.97414 3.77539 6.98164 2.31289 8.51164C1.15789 9.67414 0.790391 12.3216 0.790391 12.3216C0.790391 12.3216 0.400391 15.4341 0.400391 18.5391V21.4491C0.400391 24.5541 0.782891 27.6666 0.782891 27.6666C0.782891 27.6666 1.15789 30.3141 2.30539 31.4766C3.76789 33.0066 5.68789 32.9541 6.54289 33.1191C9.61789 33.4116 19.6004 33.5016 19.6004 33.5016C19.6004 33.5016 27.6704 33.4866 33.0404 33.1041C33.7904 33.0141 35.4254 33.0066 36.8879 31.4766C38.0429 30.3141 38.4179 27.6666 38.4179 27.6666C38.4179 27.6666 38.8004 24.5616 38.8004 21.4491V18.5391C38.8004 15.4341 38.4179 12.3216 38.4179 12.3216ZM15.6329 24.9816V14.1891L26.0054 19.6041L15.6329 24.9816Z" fill="white"/>
</g>
<defs>
<clipPath id="clip0_717_2673">
<rect width="38.4" height="38.4" fill="white" transform="translate(0.400391 0.800781)"/>
</clipPath>
</defs>
</svg>
