<svg width="39" height="40" viewBox="0 0 39 40" fill="none" xmlns="http://www.w3.org/2000/svg">
<g clip-path="url(#clip0_717_2318)">
<path d="M38.4159 12.3216C38.4159 12.3216 38.0409 9.67414 36.8859 8.51164C35.4234 6.98164 33.7884 6.97414 33.0384 6.88414C27.6684 6.49414 19.6059 6.49414 19.6059 6.49414H19.5909C19.5909 6.49414 11.5284 6.49414 6.15844 6.88414C5.40844 6.97414 3.77344 6.98164 2.31094 8.51164C1.15594 9.67414 0.788437 12.3216 0.788437 12.3216C0.788437 12.3216 0.398438 15.4341 0.398438 18.5391V21.4491C0.398438 24.5541 0.780937 27.6666 0.780937 27.6666C0.780937 27.6666 1.15594 30.3141 2.30344 31.4766C3.76594 33.0066 5.68594 32.9541 6.54094 33.1191C9.61594 33.4116 19.5984 33.5016 19.5984 33.5016C19.5984 33.5016 27.6684 33.4866 33.0384 33.1041C33.7884 33.0141 35.4234 33.0066 36.8859 31.4766C38.0409 30.3141 38.4159 27.6666 38.4159 27.6666C38.4159 27.6666 38.7984 24.5616 38.7984 21.4491V18.5391C38.7984 15.4341 38.4159 12.3216 38.4159 12.3216ZM15.6309 24.9816V14.1891L26.0034 19.6041L15.6309 24.9816Z" fill="white"/>
</g>
<defs>
<clipPath id="clip0_717_2318">
<rect width="38.4" height="38.4" fill="white" transform="translate(0.398438 0.800781)"/>
</clipPath>
</defs>
</svg>
