<svg width="427" height="336" viewBox="0 0 427 336" fill="none" xmlns="http://www.w3.org/2000/svg">
<g clip-path="url(#clip0_717_1956)">
<path d="M213.997 10.22C213.978 11.313 213.743 12.3915 213.307 13.3938C212.871 14.3962 212.241 15.3028 211.454 16.0618C210.667 16.8207 209.739 17.4173 208.721 17.8173C207.704 18.2173 206.618 18.413 205.525 18.3931H166.218C166.076 18.3895 165.933 18.3858 165.791 18.3749C165.423 18.3511 165.056 18.301 164.695 18.2251V4.31103C164.695 3.7543 164.865 3.21078 165.182 2.75326C165.499 2.29573 165.949 1.94603 166.47 1.75098H205.824C208.03 1.79269 210.13 2.70777 211.662 4.29545C213.194 5.88314 214.034 8.01379 213.997 10.22Z" fill="#275FCA"/>
<path d="M421.521 0.849628H168.026C167.48 0.848015 166.938 0.948563 166.429 1.14608C165.565 1.46922 164.82 2.04854 164.295 2.80649C163.769 3.56444 163.488 4.46484 163.488 5.38713V281.872C163.489 283.075 163.967 284.229 164.818 285.08C165.669 285.931 166.822 286.409 168.026 286.41H421.521C422.724 286.409 423.878 285.931 424.729 285.08C425.58 284.229 426.058 283.075 426.058 281.872V5.38713C426.058 4.18384 425.58 3.02996 424.729 2.17911C423.878 1.32826 422.724 0.850065 421.521 0.849628ZM424.243 281.872C424.242 282.594 423.955 283.286 423.445 283.796C422.934 284.306 422.242 284.594 421.521 284.595H168.026C167.304 284.594 166.612 284.306 166.102 283.796C165.592 283.286 165.304 282.594 165.303 281.872V5.38713C165.304 4.66541 165.592 3.97357 166.102 3.46323C166.612 2.9529 167.304 2.66571 168.026 2.66463H421.521C422.243 2.66571 422.934 2.9529 423.445 3.46323C423.955 3.97357 424.242 4.66541 424.243 5.38713V281.872Z" fill="#275FCA"/>
<path d="M286.978 95.8476C290.267 95.8476 292.933 93.1814 292.933 89.8925C292.933 86.6037 290.267 83.9375 286.978 83.9375C283.69 83.9375 281.023 86.6037 281.023 89.8925C281.023 93.1814 283.69 95.8476 286.978 95.8476Z" fill="#FDBA13"/>
<path d="M311.791 95.8476C315.08 95.8476 317.746 93.1814 317.746 89.8925C317.746 86.6037 315.08 83.9375 311.791 83.9375C308.502 83.9375 305.836 86.6037 305.836 89.8925C305.836 93.1814 308.502 95.8476 311.791 95.8476Z" fill="#FDBA13"/>
<path d="M237.353 145.058C240.642 145.058 243.308 142.391 243.308 139.102C243.308 135.814 240.642 133.147 237.353 133.147C234.065 133.147 231.398 135.814 231.398 139.102C231.398 142.391 234.065 145.058 237.353 145.058Z" fill="#FDBA13"/>
<path d="M262.166 145.058C265.455 145.058 268.121 142.391 268.121 139.102C268.121 135.814 265.455 133.147 262.166 133.147C258.877 133.147 256.211 135.814 256.211 139.102C256.211 142.391 258.877 145.058 262.166 145.058Z" fill="#FDBA13"/>
<path d="M286.978 169.663C290.267 169.663 292.933 166.997 292.933 163.708C292.933 160.419 290.267 157.753 286.978 157.753C283.69 157.753 281.023 160.419 281.023 163.708C281.023 166.997 283.69 169.663 286.978 169.663Z" fill="#FDBA13"/>
<path d="M311.791 169.663C315.08 169.663 317.746 166.997 317.746 163.708C317.746 160.419 315.08 157.753 311.791 157.753C308.502 157.753 305.836 160.419 305.836 163.708C305.836 166.997 308.502 169.663 311.791 169.663Z" fill="#FDBA13"/>
<path d="M336.603 169.663C339.892 169.663 342.558 166.997 342.558 163.708C342.558 160.419 339.892 157.753 336.603 157.753C333.315 157.753 330.648 160.419 330.648 163.708C330.648 166.997 333.315 169.663 336.603 169.663Z" fill="#FDBA13"/>
<path d="M187.383 5.24931C187.25 5.38205 187.176 5.56208 187.176 5.74981C187.176 5.93754 187.25 6.1176 187.383 6.25036L190.422 9.28925H182.928C182.741 9.2898 182.562 9.36463 182.429 9.49732C182.297 9.63002 182.223 9.80975 182.223 9.99714C182.223 10.1845 182.297 10.3643 182.429 10.497C182.562 10.6296 182.741 10.7045 182.928 10.705H190.422L187.383 13.7439C187.25 13.8766 187.176 14.0567 187.176 14.2444C187.176 14.4321 187.25 14.6122 187.383 14.745C187.516 14.8777 187.696 14.9523 187.884 14.9523C188.071 14.9523 188.251 14.8777 188.384 14.745L192.631 10.4977C192.764 10.3649 192.839 10.1849 192.839 9.99714C192.839 9.8094 192.764 9.62934 192.631 9.49658L188.384 5.24931C188.251 5.11656 188.071 5.04199 187.884 5.04199C187.696 5.04199 187.516 5.11656 187.383 5.24931Z" fill="white"/>
<path d="M366.855 102.598H206.956C206.338 102.598 205.836 102.327 205.836 101.993C205.836 101.659 206.338 101.388 206.956 101.388H366.855C367.473 101.388 367.975 101.659 367.975 101.993C367.975 102.327 367.473 102.598 366.855 102.598Z" fill="#275FCA"/>
<path d="M366.855 75.8692H206.956C206.338 75.8692 205.836 75.5983 205.836 75.2642C205.836 74.9301 206.338 74.6592 206.956 74.6592H366.855C367.473 74.6592 367.975 74.9301 367.975 75.2642C367.975 75.5983 367.473 75.8692 366.855 75.8692Z" fill="#275FCA"/>
<path d="M367.371 127.562H206.585C206.425 127.562 206.271 127.498 206.158 127.384C206.044 127.271 205.98 127.117 205.98 126.957C205.98 126.796 206.044 126.642 206.158 126.529C206.271 126.415 206.425 126.352 206.585 126.352H367.371C367.531 126.352 367.685 126.415 367.799 126.529C367.912 126.642 367.976 126.796 367.976 126.957C367.976 127.117 367.912 127.271 367.799 127.384C367.685 127.498 367.531 127.562 367.371 127.562Z" fill="#275FCA"/>
<path d="M367.371 151.762H206.585C206.425 151.762 206.271 151.698 206.158 151.585C206.044 151.471 205.98 151.317 205.98 151.157C205.98 150.996 206.044 150.842 206.158 150.729C206.271 150.616 206.425 150.552 206.585 150.552H367.371C367.531 150.552 367.685 150.616 367.799 150.729C367.912 150.842 367.976 150.996 367.976 151.157C367.976 151.317 367.912 151.471 367.799 151.585C367.685 151.698 367.531 151.762 367.371 151.762Z" fill="#275FCA"/>
<path d="M367.371 176.567H206.585C206.425 176.567 206.271 176.504 206.158 176.39C206.044 176.277 205.98 176.123 205.98 175.962C205.98 175.802 206.044 175.648 206.158 175.535C206.271 175.421 206.425 175.357 206.585 175.357H367.371C367.531 175.357 367.685 175.421 367.799 175.535C367.912 175.648 367.976 175.802 367.976 175.962C367.976 176.123 367.912 176.277 367.799 176.39C367.685 176.504 367.531 176.567 367.371 176.567Z" fill="#275FCA"/>
<path d="M348.617 175.32V75.6397C348.617 75.4326 348.888 75.2646 349.222 75.2646C349.556 75.2646 349.827 75.4326 349.827 75.6397V175.32C349.827 175.527 349.556 175.695 349.222 175.695C348.888 175.695 348.617 175.527 348.617 175.32Z" fill="#275FCA"/>
<path d="M323.812 175.32V75.6397C323.812 75.4326 324.083 75.2646 324.418 75.2646C324.752 75.2646 325.023 75.4326 325.023 75.6397V175.32C325.023 175.527 324.752 175.695 324.418 175.695C324.083 175.695 323.812 175.527 323.812 175.32Z" fill="#275FCA"/>
<path d="M299.008 175.32V75.6397C299.008 75.4326 299.279 75.2646 299.613 75.2646C299.947 75.2646 300.218 75.4326 300.218 75.6397V175.32C300.218 175.527 299.947 175.695 299.613 175.695C299.279 175.695 299.008 175.527 299.008 175.32Z" fill="#275FCA"/>
<path d="M274.805 175.32V75.6397C274.805 75.4326 275.076 75.2646 275.41 75.2646C275.744 75.2646 276.015 75.4326 276.015 75.6397V175.32C276.015 175.527 275.744 175.695 275.41 175.695C275.076 175.695 274.805 175.527 274.805 175.32Z" fill="#275FCA"/>
<path d="M249.395 200.635V75.7346C249.429 75.6002 249.507 75.4811 249.616 75.396C249.726 75.3109 249.861 75.2646 250 75.2646C250.138 75.2646 250.273 75.3109 250.383 75.396C250.492 75.4811 250.57 75.6002 250.605 75.7346V200.635C250.57 200.769 250.492 200.888 250.383 200.973C250.273 201.058 250.138 201.105 250 201.105C249.861 201.105 249.726 201.058 249.616 200.973C249.507 200.888 249.429 200.769 249.395 200.635Z" fill="#275FCA"/>
<path d="M223.988 200.635V75.7346C224.023 75.6002 224.101 75.4811 224.21 75.396C224.32 75.3109 224.455 75.2646 224.593 75.2646C224.732 75.2646 224.867 75.3109 224.976 75.396C225.086 75.4811 225.164 75.6002 225.198 75.7346V200.635C225.164 200.769 225.086 200.888 224.976 200.973C224.867 201.058 224.732 201.105 224.593 201.105C224.455 201.105 224.32 201.058 224.21 200.973C224.101 200.888 224.023 200.769 223.988 200.635Z" fill="#275FCA"/>
<path d="M206.587 201.372C206.426 201.372 206.272 201.309 206.159 201.195C206.045 201.082 205.981 200.928 205.98 200.768C205.98 200.607 206.044 200.453 206.157 200.34C206.27 200.226 206.424 200.162 206.584 200.162L268.151 199.895C268.31 199.898 268.462 199.962 268.575 200.074C268.688 200.187 268.754 200.338 268.758 200.497C268.759 200.577 268.743 200.655 268.713 200.729C268.683 200.802 268.639 200.869 268.583 200.926C268.527 200.982 268.46 201.027 268.387 201.058C268.314 201.088 268.235 201.104 268.156 201.105L206.589 201.372H206.587Z" fill="#275FCA"/>
<path d="M251.598 49.3569C251.437 49.357 251.283 49.2934 251.17 49.18C251.056 49.0666 250.992 48.9128 250.992 48.7523C250.992 48.5919 251.056 48.4379 251.169 48.3244C251.282 48.2109 251.436 48.147 251.597 48.1469L337.946 48.0391H337.947C338.107 48.0389 338.261 48.1026 338.375 48.2159C338.488 48.3293 338.552 48.4832 338.552 48.6436C338.552 48.8041 338.489 48.958 338.375 49.0715C338.262 49.1851 338.108 49.2489 337.947 49.2491L251.599 49.3569H251.598Z" fill="#275FCA"/>
<path d="M280.836 246.602C278.439 246.602 276.095 245.891 274.102 244.559C272.109 243.227 270.555 241.334 269.638 239.119C268.72 236.905 268.48 234.467 268.948 232.116C269.415 229.765 270.57 227.605 272.265 225.91C273.96 224.214 276.12 223.06 278.471 222.592C280.823 222.125 283.26 222.365 285.475 223.282C287.69 224.2 289.583 225.753 290.915 227.746C292.247 229.74 292.958 232.083 292.958 234.481C292.958 236.073 292.644 237.649 292.035 239.119C291.426 240.59 290.533 241.926 289.407 243.052C288.282 244.178 286.946 245.07 285.475 245.68C284.004 246.289 282.428 246.602 280.836 246.602Z" fill="#275FCA"/>
<path d="M285.617 233.286H282.03V229.699C282.03 229.382 281.904 229.077 281.68 228.853C281.455 228.629 281.151 228.503 280.834 228.503C280.517 228.503 280.213 228.629 279.989 228.853C279.764 229.077 279.638 229.382 279.638 229.699V233.286H276.051C275.734 233.286 275.43 233.412 275.206 233.636C274.981 233.86 274.855 234.164 274.855 234.481C274.855 234.799 274.981 235.103 275.206 235.327C275.43 235.551 275.734 235.677 276.051 235.677H279.638V239.264C279.638 239.422 279.669 239.577 279.729 239.723C279.788 239.868 279.876 240 279.988 240.112C280.099 240.223 280.231 240.311 280.376 240.371C280.521 240.432 280.677 240.463 280.834 240.463C280.991 240.463 281.147 240.432 281.292 240.371C281.437 240.311 281.569 240.223 281.68 240.112C281.792 240 281.88 239.868 281.939 239.723C281.999 239.577 282.03 239.422 282.03 239.264V235.677H285.617C285.934 235.677 286.238 235.551 286.462 235.327C286.686 235.103 286.812 234.799 286.812 234.481C286.812 234.164 286.686 233.86 286.462 233.636C286.238 233.412 285.934 233.286 285.617 233.286Z" fill="white"/>
<path d="M308.664 246.602C306.267 246.602 303.923 245.891 301.93 244.559C299.937 243.227 298.383 241.334 297.466 239.119C296.548 236.905 296.308 234.467 296.776 232.116C297.244 229.765 298.398 227.605 300.093 225.91C301.788 224.214 303.948 223.06 306.3 222.592C308.651 222.125 311.088 222.365 313.303 223.282C315.518 224.2 317.411 225.753 318.743 227.746C320.075 229.74 320.786 232.083 320.786 234.481C320.786 236.073 320.472 237.649 319.863 239.119C319.254 240.59 318.361 241.926 317.236 243.052C316.11 244.178 314.774 245.07 313.303 245.68C311.832 246.289 310.256 246.602 308.664 246.602Z" fill="#275FCA"/>
<path d="M314.801 239.639L311.644 235.943C312.383 234.897 312.704 233.612 312.543 232.341C312.383 231.07 311.753 229.905 310.777 229.076C309.801 228.246 308.549 227.812 307.269 227.859C305.989 227.905 304.773 228.43 303.86 229.328C302.947 230.226 302.403 231.434 302.335 232.713C302.268 233.992 302.681 235.25 303.495 236.24C304.308 237.229 305.462 237.878 306.731 238.06C307.999 238.241 309.289 237.941 310.347 237.219L313.421 240.818C313.578 241 313.8 241.112 314.039 241.13C314.278 241.148 314.515 241.071 314.697 240.915C314.88 240.759 314.993 240.538 315.013 240.299C315.032 240.06 314.956 239.822 314.801 239.639ZM304.129 232.969C304.129 232.31 304.324 231.667 304.689 231.12C305.055 230.573 305.575 230.146 306.183 229.894C306.791 229.643 307.46 229.577 308.105 229.705C308.751 229.833 309.344 230.15 309.809 230.616C310.274 231.081 310.591 231.674 310.72 232.319C310.848 232.965 310.782 233.634 310.53 234.242C310.278 234.85 309.852 235.37 309.305 235.735C308.757 236.101 308.114 236.296 307.456 236.296C306.574 236.295 305.728 235.944 305.104 235.32C304.48 234.697 304.13 233.851 304.129 232.969Z" fill="white"/>
<path d="M251.598 247.798C251.437 247.798 251.283 247.734 251.17 247.621C251.056 247.507 250.992 247.354 250.992 247.193C250.992 247.033 251.056 246.879 251.169 246.765C251.282 246.652 251.436 246.588 251.597 246.588L337.946 246.479H337.947C338.107 246.479 338.261 246.543 338.375 246.656C338.488 246.77 338.552 246.924 338.552 247.084C338.552 247.245 338.489 247.398 338.375 247.512C338.262 247.625 338.108 247.689 337.947 247.689L251.599 247.798H251.598Z" fill="#275FCA"/>
<path d="M141.095 326.952L148.813 326.951L152.485 297.184L141.094 297.184L141.095 326.952Z" fill="#FFB6B6"/>
<path d="M139.129 324.431V334.432H164.013V334.117C164.012 331.548 162.991 329.085 161.175 327.268C159.359 325.452 156.895 324.431 154.327 324.431L149.777 320.982L149.541 321.079L141.301 324.431H139.129Z" fill="#2F2E41"/>
<path d="M71.3633 316.918L78.2706 320.36L94.8361 295.356L84.6412 290.275L71.3633 316.918Z" fill="#FFB6B6"/>
<path d="M66.2656 322.737L88.5357 333.833L88.6748 333.555C89.243 332.417 89.5813 331.178 89.6705 329.909C89.7597 328.64 89.5979 327.366 89.1945 326.16C88.7911 324.953 88.1539 323.838 87.3194 322.879C86.4849 321.919 85.4693 321.133 84.3309 320.565L81.7959 315.453L81.5297 315.435L72.6726 314.751L72.4911 314.66L70.7244 313.783L66.2656 322.737Z" fill="#2F2E41"/>
<path d="M146.331 166.95L103.775 168.44L103.478 168.009C103.478 168.009 99.8483 176.479 99.8483 183.739C99.8483 186.153 101.527 201.94 100.674 204.927C100.568 205.299 101.298 206.209 101.058 207.939C100.903 209.061 100.045 208.198 99.8483 209.754C99.7068 210.871 101.216 211.487 101.058 212.779C100.886 214.19 98.8096 218.762 98.6227 220.331C96.633 237.045 93.9839 261.258 93.9839 261.258C93.9839 261.258 83.3441 289.756 81.0933 290.219C77.3153 290.996 74.7647 297.865 76.8583 299.294C77.8552 299.974 90.7397 304.55 90.7397 304.55C91.4477 304.678 93.6624 303.568 92.2515 300.941C91.9918 300.457 93.5408 301.688 93.7983 301.109C94.0721 300.493 93.5346 298.043 93.8482 297.36C96.664 291.223 100.987 282.719 105.084 278.352C111.138 271.901 114.971 263.683 116.025 254.899L125.423 202.794L128.643 217.405L131.308 220.039L130.577 226.179L130.703 232.139L137.358 256.944C137.358 256.944 138.356 303.268 136.753 304.739C135.885 305.536 132.201 315.349 139.173 316.234L151.841 315.256C151.841 315.256 153.548 311.66 152.694 310.38C151.841 309.099 151.892 309.449 152.933 307.354C153.975 305.259 153.548 301.709 153.548 301.709C155.207 285.027 155.862 268.26 155.508 251.499C154.873 223.969 151.025 192.344 151.025 191.699C150.993 191.04 151.114 190.383 151.379 189.779V188.042L149.745 181.885L146.331 166.95Z" fill="#2F2E41"/>
<path d="M91.236 182.428C90.8791 181.819 90.6603 181.138 90.5949 180.434C90.5296 179.731 90.6193 179.022 90.8577 178.357C91.0961 177.692 91.4775 177.087 91.9749 176.585C92.4723 176.083 93.0736 175.697 93.7366 175.452L93.4309 144.875L100.973 149.646L100.106 178.627C100.442 179.768 100.349 180.993 99.8424 182.069C99.3362 183.146 98.4527 183.999 97.3594 184.468C96.266 184.936 95.0388 184.987 93.9102 184.611C92.7816 184.236 91.8301 183.459 91.236 182.428Z" fill="#FFB8B8"/>
<path d="M92.9547 169.61L93.5966 169.579L93.6731 169.581L96.0484 169.573L99.9605 169.564L100.244 169.56L100.371 169.585L101.707 169.817L101.762 169.459L104.366 164.486L106.367 161.733L105.639 158.489L104.203 156.7L106.642 153.744L106.95 152.284L108.992 142.683L115.76 110.836L115.76 110.817L115.902 110.141L118.103 99.7956L117.425 97.1941L116.67 94.338C116.186 92.5247 115.066 90.9462 113.514 89.8915C112.84 89.4357 112.099 89.0894 111.317 88.8654C110.32 88.5703 109.274 88.4841 108.242 88.6124L108.231 88.6159C107.645 88.6886 107.07 88.8276 106.516 89.0302L106.296 89.1163C105.989 89.2406 105.691 89.3843 105.402 89.5464C104.508 90.0435 103.722 90.7135 103.09 91.5173C102.457 92.3211 101.991 93.2427 101.718 94.2284L94.5469 102.216L93.2857 106.736L92.88 108.188L91.5801 115.925L91.5995 146.377L91.3681 147.756L91.039 155.401L92.325 157.154L90.8721 159.278L90.8223 160.444L90.8125 160.744L92.753 162.715L92.8768 166.965L92.9547 169.61Z" fill="#4685FF"/>
<path d="M99.9609 176.905C110.706 178.763 117.912 178.055 122.346 171.46C128.131 164.093 138.651 172.791 147.528 176.025L148.58 174.888L150.371 172.958L148.726 171.094L150.371 167.501L148.998 163.066L147.243 162.745L147.715 158.928L148.453 156.695L146.287 154.318L144.448 148.383L145.773 135.962C147.586 118.937 144.073 101.769 135.718 86.824L130.691 82.3107L128.603 80.4352L125.802 75.208L122.844 75.5529L114.834 76.4785L114.561 77.1319L112.595 81.8751L105.452 89.5479C104.442 90.6331 103.674 91.921 103.2 93.3259C102.726 94.7308 102.557 96.2204 102.703 97.6959L102.909 99.765L103.06 101.253L103.774 108.416L106.684 137.68L106.902 139.235L109.243 156.06C105.438 159.739 105.206 158.936 103.591 165.41C103.409 166.13 101.304 167.733 101.171 168.435C100.983 169.427 99.9609 176.905 99.9609 176.905Z" fill="#4685FF"/>
<path d="M121.78 72.1242C129.464 72.1242 135.693 65.8953 135.693 58.2115C135.693 50.5278 129.464 44.2988 121.78 44.2988C114.096 44.2988 107.867 50.5278 107.867 58.2115C107.867 65.8953 114.096 72.1242 121.78 72.1242Z" fill="#FFB6B6"/>
<path d="M107.222 47.738C109.09 45.7936 112.073 44.8346 114.606 45.7573C115.173 44.1364 116.173 42.7019 117.498 41.6101C118.823 40.5184 120.423 39.8111 122.122 39.5654C123.822 39.3196 125.556 39.5448 127.136 40.2164C128.716 40.8881 130.082 41.9804 131.084 43.3744C131.543 43.1686 132.047 43.0846 132.547 43.1306C133.047 43.1765 133.527 43.3509 133.94 43.6369C134.761 44.2202 135.422 45 135.863 45.9049C137 48.0658 137.53 50.4948 137.397 52.9331C137.263 55.3715 136.471 57.728 135.105 59.7519C135.649 58.6525 134.118 60.546 132.626 60.0499C131.345 59.714 126.08 56.3383 124.766 56.509C123.453 56.6796 123.026 55.6202 121.741 55.299C120.483 54.8964 117.269 60.1 116.625 63.543C116.503 64.1955 116.207 65.0062 115.543 65.021C114.726 65.0394 114.481 63.8688 113.792 63.4293C113.467 63.264 113.091 63.2313 112.742 63.3381C112.394 63.4449 112.1 63.6829 111.924 64.0018C111.762 64.3296 111.682 64.6912 111.689 65.0564C111.696 65.4216 111.79 65.7799 111.963 66.1014C112.315 66.7406 112.768 67.3186 113.305 67.8133L112.948 68.0094C112.596 68.2612 112.168 68.3829 111.736 68.3536C111.305 68.3243 110.897 68.1459 110.583 67.8488C109.254 68.4483 105.64 65.0675 106.12 63.0221C105.111 60.5149 104.559 57.8472 104.491 55.1454C104.435 52.4202 105.411 49.7745 107.222 47.738Z" fill="#2F2E41"/>
<path d="M209.282 130.669C208.608 130.882 207.896 130.944 207.196 130.851C206.495 130.758 205.824 130.513 205.228 130.133C204.633 129.753 204.128 129.247 203.749 128.65C203.371 128.054 203.127 127.381 203.037 126.681L173.156 120.181L179.485 113.889L207.548 121.176C208.735 121.102 209.908 121.466 210.845 122.198C211.782 122.931 212.418 123.982 212.632 125.152C212.845 126.323 212.622 127.531 212.005 128.547C211.388 129.564 210.419 130.319 209.282 130.669Z" fill="#FFB8B8"/>
<path d="M128.528 87.5331C126.796 87.5962 125.135 88.2347 123.806 89.3477C123.071 89.9571 122.458 90.7002 122 91.5378C121.495 92.4464 121.18 93.4479 121.075 94.4818L121.075 94.4878C120.92 96.0103 121.22 97.5447 121.936 98.8972C122.652 100.25 123.753 101.36 125.099 102.087L134.942 107.422L136.189 108.096C144.576 116.644 158.718 121.112 174.987 124.077L184.34 126.635L187.485 125.468L188.246 128.458L191.377 128.56L193.079 128.206L196.642 126.81L197.322 125.441L197.321 125.435L198.783 118.95L198.793 118.907L198.793 118.901L199.134 117.417L197.125 116.487L195.377 114.153L192.217 114.216L189.336 114.467L188.491 112.492L151.975 95.5946L144.414 92.0925L144.395 92.0813L144.035 91.9123L134.171 87.3486L131.486 87.4338L128.528 87.5331Z" fill="#4685FF"/>
<path d="M208.326 138.198C211.615 138.198 214.281 135.532 214.281 132.243C214.281 128.954 211.615 126.288 208.326 126.288C205.037 126.288 202.371 128.954 202.371 132.243C202.371 135.532 205.037 138.198 208.326 138.198Z" fill="#FDBA13"/>
<path d="M37.6185 331.368C33.2495 331.753 28.8497 331.157 24.7403 329.624C20.631 328.091 16.916 325.66 13.8666 322.507C9.87938 318.304 7.14316 312.893 4.49698 307.66C3.72669 306.137 2.93046 304.562 2.12041 303.053C1.2173 301.408 0.827531 299.53 1.00132 297.661C1.1751 295.792 1.90448 294.018 3.09549 292.567C4.23684 291.117 5.78631 290.042 7.54425 289.48C9.30218 288.919 11.188 288.896 12.9588 289.416L13.3449 289.528L16.8202 303.088C17.3386 301.066 18.4514 296.508 19.1541 292.043L19.2132 291.669L19.5592 291.823C23.1879 293.429 26.6 295.485 29.7149 297.943C35.233 302.369 39.7211 307.944 42.8671 314.28C46.0132 320.616 47.7418 327.561 47.9328 334.632L47.942 335.054L37.6185 331.368Z" fill="#F2F2F2"/>
<path d="M170.263 335.355L1.6188 335.541C1.42775 335.541 1.24452 335.465 1.10942 335.33C0.974331 335.195 0.898438 335.011 0.898438 334.82C0.898438 334.629 0.974331 334.446 1.10942 334.311C1.24452 334.176 1.42775 334.1 1.6188 334.1L170.263 333.914C170.453 333.915 170.636 333.991 170.771 334.126C170.905 334.261 170.981 334.444 170.981 334.634C170.981 334.825 170.905 335.008 170.771 335.143C170.636 335.278 170.453 335.354 170.263 335.355Z" fill="#CACACA"/>
<path d="M310.803 41.2751H278.738C278.016 41.2751 277.324 40.9882 276.813 40.4777C276.302 39.9671 276.016 39.2746 276.016 38.5526C276.016 37.8305 276.302 37.1381 276.813 36.6275C277.324 36.1169 278.016 35.8301 278.738 35.8301H310.803C311.525 35.8301 312.218 36.1169 312.728 36.6275C313.239 37.1381 313.526 37.8305 313.526 38.5526C313.526 39.2746 313.239 39.9671 312.728 40.4777C312.218 40.9882 311.525 41.2751 310.803 41.2751Z" fill="#275FCA"/>
<path d="M411.799 18.1566C410.48 18.1566 409.191 17.7657 408.095 17.0332C406.999 16.3008 406.145 15.2598 405.64 14.0418C405.136 12.8238 405.004 11.4835 405.261 10.1905C405.518 8.89746 406.153 7.70975 407.085 6.77754C408.017 5.84532 409.205 5.21048 410.498 4.95328C411.791 4.69608 413.131 4.82808 414.349 5.33259C415.567 5.83711 416.608 6.69147 417.341 7.78764C418.073 8.88381 418.464 10.1726 418.464 11.4909C418.464 13.2588 417.762 14.9542 416.512 16.2043C415.262 17.4543 413.566 18.1566 411.799 18.1566Z" fill="#275FCA"/>
</g>
<defs>
<clipPath id="clip0_717_1956">
<rect width="425.158" height="334.691" fill="white" transform="translate(0.898438 0.849609)"/>
</clipPath>
</defs>
</svg>
