<svg width="464" height="328" viewBox="0 0 464 328" fill="none" xmlns="http://www.w3.org/2000/svg">
<g clip-path="url(#clip0_717_2237)">
<path d="M197.214 139.872C196.488 139.338 195.794 138.76 195.137 138.142L196.036 137.187C196.655 137.768 197.308 138.312 197.992 138.816L197.214 139.872Z" fill="#E4E4E4"/>
<path d="M191.525 133.735C190.519 132.116 189.726 130.373 189.166 128.551L190.421 128.166C190.947 129.88 191.693 131.519 192.639 133.042L191.525 133.735ZM188.203 122.94C188.19 122.63 188.184 122.319 188.184 122.008C188.184 120.414 188.356 118.825 188.697 117.267L189.978 117.548C189.658 119.013 189.496 120.509 189.496 122.008C189.496 122.301 189.502 122.593 189.514 122.885L188.203 122.94ZM191.793 112.51L190.626 111.909C191.168 110.858 191.792 109.851 192.493 108.898C192.924 108.313 193.388 107.755 193.885 107.226L194.841 108.125C194.38 108.615 193.949 109.133 193.55 109.675C192.891 110.572 192.303 111.52 191.793 112.51ZM199.052 104.898L198.432 103.741C200.126 102.834 201.955 102.206 203.849 101.881L204.071 103.174C202.316 103.475 200.621 104.057 199.052 104.898ZM214.425 104.754C212.843 103.94 211.138 103.388 209.378 103.121L209.575 101.824C211.476 102.112 213.316 102.708 215.025 103.587L214.425 104.754Z" fill="#E4E4E4"/>
<path d="M220.145 109.948C219.715 109.234 219.218 108.562 218.66 107.943L219.635 107.064C220.249 107.746 220.796 108.485 221.269 109.272L220.145 109.948Z" fill="#E4E4E4"/>
<path d="M169.842 95.9867L168.785 95.2093C169.31 94.4955 169.863 93.7896 170.43 93.1113L171.437 93.9524C170.888 94.6102 170.351 95.2947 169.842 95.9867Z" fill="#E4E4E4"/>
<path d="M234.855 94.4704C233.847 93.0711 232.73 91.7534 231.515 90.5295L232.446 89.6048C233.71 90.8777 234.871 92.2482 235.92 93.7037L234.855 94.4704ZM175.007 90.1846L174.113 89.224C175.422 88.0069 176.805 86.8735 178.256 85.8305L179.022 86.8962C177.616 87.9069 176.275 89.0052 175.007 90.1846ZM227.597 87.1589C226.201 86.1344 224.743 85.1973 223.232 84.353L223.871 83.207C225.43 84.0778 226.934 85.0444 228.374 86.1013L227.597 87.1589ZM183.419 84.1413L182.794 82.9876C184.365 82.1371 185.988 81.386 187.653 80.7386L188.128 81.9616C186.514 82.589 184.942 83.317 183.419 84.1413ZM218.551 82.1158C216.945 81.4698 215.3 80.9257 213.626 80.4869L213.958 79.2174C215.686 79.6704 217.384 80.2319 219.041 80.8984L218.551 82.1158ZM193.074 80.3886L192.755 79.1157C194.488 78.6823 196.246 78.3571 198.019 78.1418L198.177 79.4446C196.458 79.6532 194.753 79.9685 193.074 80.3886ZM208.534 79.4916C206.817 79.2677 205.088 79.1513 203.357 79.1433L203.363 77.8311C205.149 77.8395 206.933 77.9596 208.704 78.1905L208.534 79.4916Z" fill="#E4E4E4"/>
<path d="M238.599 101.237C238.276 100.446 237.918 99.6579 237.535 98.8961L238.708 98.3066C239.106 99.0992 239.478 99.9183 239.814 100.741L238.599 101.237Z" fill="#E4E4E4"/>
<path d="M242.197 178.349L241.746 177.117C242.555 176.821 243.369 176.504 244.168 176.176L244.667 177.389C243.853 177.725 243.022 178.048 242.197 178.349Z" fill="#E4E4E4"/>
<path d="M221.738 182.357L221.69 181.046C223.392 180.984 225.113 180.853 226.805 180.658L226.955 181.962C225.23 182.161 223.474 182.294 221.738 182.357ZM216.505 182.342C214.767 182.268 213.012 182.124 211.29 181.914L211.449 180.612C213.137 180.818 214.857 180.959 216.561 181.031L216.505 182.342ZM232.125 181.158L231.873 179.87C233.544 179.543 235.224 179.145 236.864 178.687L237.217 179.951C235.543 180.418 233.83 180.824 232.125 181.158ZM206.126 181.076C204.422 180.73 202.712 180.311 201.043 179.831L201.406 178.57C203.042 179.04 204.718 179.451 206.387 179.79L206.126 181.076ZM196.076 178.186C194.449 177.575 192.827 176.89 191.255 176.151L191.813 174.964C193.354 175.688 194.944 176.359 196.537 176.958L196.076 178.186ZM186.611 173.741C185.106 172.883 183.613 171.952 182.172 170.973L182.909 169.888C184.322 170.847 185.786 171.76 187.261 172.601L186.611 173.741Z" fill="#E4E4E4"/>
<path d="M177.953 167.842C177.269 167.283 176.591 166.701 175.938 166.112L176.817 165.138C177.454 165.713 178.115 166.281 178.783 166.826L177.953 167.842Z" fill="#E4E4E4"/>
<path d="M141.627 35.5354L140.953 34.4094C141.707 33.9583 142.475 33.5117 143.236 33.082L143.881 34.2246C143.129 34.649 142.371 35.0898 141.627 35.5354Z" fill="#E4E4E4"/>
<path d="M267.946 53.4567C266.821 52.147 265.638 50.8551 264.429 49.6175L265.367 48.7004C266.596 49.9583 267.799 51.271 268.941 52.602L267.946 53.4567ZM260.673 46.0115C259.39 44.8571 258.052 43.7267 256.694 42.652L257.508 41.623C258.888 42.715 260.248 43.8633 261.551 45.0363L260.673 46.0115ZM252.512 39.5423C251.092 38.5458 249.632 37.5742 248.171 36.655L248.87 35.5444C250.35 36.4754 251.828 37.4591 253.266 38.4685L252.512 39.5423ZM243.691 33.9924C242.182 33.1471 240.631 32.3293 239.08 31.5617L239.662 30.3858C241.233 31.163 242.804 31.9914 244.332 32.8476L243.691 33.9924ZM148.488 31.7793L147.902 30.6051C149.472 29.8228 151.083 29.071 152.69 28.3705L153.214 29.5733C151.627 30.2649 150.037 31.0071 148.488 31.7793ZM234.35 29.3713C232.762 28.6844 231.135 28.0303 229.514 27.4269L229.972 26.1971C231.614 26.8084 233.262 27.4711 234.871 28.1667L234.35 29.3713ZM158.047 27.6125L157.585 26.3845C159.224 25.7679 160.903 25.1846 162.575 24.6511L162.974 25.9013C161.323 26.428 159.665 27.0038 158.047 27.6125ZM224.583 25.7341C222.934 25.2151 221.248 24.732 219.572 24.2983L219.901 23.0279C221.598 23.4672 223.306 23.9568 224.977 24.4826L224.583 25.7341ZM167.982 24.4439L167.648 23.1749C169.341 22.7287 171.07 22.3195 172.788 21.959L173.058 23.243C171.361 23.5992 169.654 24.0033 167.982 24.4439ZM214.493 23.1221C212.799 22.7755 211.072 22.4681 209.359 22.2086L209.556 20.9114C211.291 21.1741 213.04 21.4855 214.756 21.8364L214.493 23.1221ZM178.188 22.3026L177.984 21.0062C179.714 20.7343 181.476 20.503 183.221 20.3189L183.359 21.6239C181.636 21.8058 179.896 22.0341 178.188 22.3026ZM204.186 21.56C202.465 21.3887 200.715 21.26 198.985 21.1768L199.048 19.8664C200.801 19.9503 202.573 20.0808 204.316 20.2542L204.186 21.56ZM188.558 21.2093L188.487 19.8993C190.239 19.8042 192.016 19.7534 193.768 19.748L193.772 21.0602C192.042 21.0656 190.288 21.1158 188.558 21.2093Z" fill="#E4E4E4"/>
<path d="M272.756 59.6462C272.259 58.9382 271.744 58.23 271.227 57.5414L272.275 56.7529C272.802 57.4528 273.325 58.1726 273.83 58.8923L272.756 59.6462Z" fill="#E4E4E4"/>
<path d="M213.004 271.847C212.133 271.735 211.264 271.616 210.395 271.49L210.583 270.191C211.445 270.316 212.308 270.434 213.171 270.545L213.004 271.847Z" fill="#E4E4E4"/>
<path d="M205.086 270.628C203.33 270.313 201.555 269.963 199.809 269.589L200.084 268.306C201.816 268.677 203.577 269.024 205.318 269.337L205.086 270.628ZM194.569 268.373C192.834 267.939 191.086 267.471 189.374 266.981L189.735 265.719C191.433 266.205 193.167 266.67 194.887 267.1L194.569 268.373ZM184.228 265.414C182.527 264.865 180.814 264.28 179.138 263.676L179.583 262.441C181.245 263.041 182.944 263.621 184.631 264.166L184.228 265.414ZM174.11 261.767C172.454 261.106 170.785 260.407 169.149 259.69L169.676 258.488C171.299 259.2 172.954 259.893 174.597 260.548L174.11 261.767ZM164.261 257.447C162.651 256.675 161.033 255.866 159.451 255.041L160.058 253.877C161.626 254.695 163.231 255.498 164.828 256.263L164.261 257.447ZM154.724 252.475C153.176 251.601 151.615 250.685 150.086 249.754L150.769 248.633C152.286 249.557 153.833 250.465 155.37 251.333L154.724 252.475ZM145.541 246.879C144.05 245.901 142.554 244.884 141.094 243.856L141.849 242.783C143.297 243.803 144.782 244.812 146.261 245.782L145.541 246.879ZM136.746 240.683C135.319 239.6 133.899 238.475 132.525 237.339L133.361 236.328C134.721 237.452 136.127 238.565 137.54 239.638L136.746 240.683ZM128.446 233.824C127.116 232.63 125.794 231.391 124.516 230.142L125.433 229.204C126.698 230.439 128.007 231.666 129.323 232.848L128.446 233.824ZM120.744 226.299C119.519 224.997 118.305 223.652 117.136 222.301L118.129 221.442C119.286 222.78 120.487 224.112 121.7 225.4L120.744 226.299ZM113.7 218.154C112.588 216.754 111.492 215.311 110.441 213.867L111.503 213.095C112.542 214.524 113.628 215.952 114.728 217.338L113.7 218.154Z" fill="#E4E4E4"/>
<path d="M107.35 209.422C106.864 208.689 106.385 207.952 105.914 207.211L107.022 206.508C107.488 207.241 107.962 207.971 108.443 208.696L107.35 209.422Z" fill="#E4E4E4"/>
<path d="M388.042 57.1523L371.686 72.2093L384.684 50.3998C374.444 31.8295 357.696 15.7803 357.696 15.7803C357.696 15.7803 322.949 49.0702 322.949 75.2383C322.949 101.406 338.506 110.543 357.696 110.543C376.886 110.543 392.442 101.406 392.442 75.2383C392.442 69.4138 390.718 63.2368 388.042 57.1523Z" fill="#FFD15E"/>
<path d="M367.481 73.0244V74.3142C367.404 89.3073 364.875 101.005 359.914 109.243C359.844 109.364 359.767 109.479 359.697 109.6L359.141 109.262L358.611 108.93C364.115 100.035 366.063 87.4619 366.133 74.3845C366.14 73.963 366.146 73.5352 366.14 73.1074C366.12 67.5712 365.782 61.9711 365.239 56.5307C365.201 56.1092 365.156 55.6814 365.112 55.2536C364.358 48.0763 363.273 41.2183 362.161 35.2607C362.085 34.8392 362.002 34.4178 361.919 34.0027C359.997 23.9265 358.036 16.6279 357.589 15.0124C357.538 14.8144 357.506 14.7059 357.5 14.6803L358.107 14.5079L358.113 14.5015L358.726 14.3291C358.732 14.3547 358.841 14.7186 359.02 15.3955C359.703 17.9241 361.478 24.7885 363.221 33.8431C363.298 34.2518 363.381 34.6732 363.458 35.0947C364.364 39.9285 365.252 45.3306 365.954 51.0008C366.133 52.4248 366.293 53.8296 366.433 55.2153C366.484 55.6431 366.529 56.0709 366.567 56.4924C367.155 62.3734 367.459 67.8841 367.481 73.0244Z" fill="white"/>
<path d="M363.221 33.8439C362.793 33.9014 362.359 33.9589 361.918 34.0035C360.722 34.1267 359.52 34.1885 358.317 34.1888C353.19 34.1956 348.128 33.0521 343.502 30.8428C343.234 31.1812 342.966 31.5196 342.691 31.8644C347.557 34.2397 352.902 35.4715 358.317 35.4658C359.601 35.4655 360.884 35.3973 362.161 35.2615C362.595 35.2168 363.029 35.1593 363.457 35.0955C366.988 34.5889 370.423 33.549 373.642 32.0113C373.367 31.6601 373.099 31.3153 372.837 30.9768C369.79 32.4008 366.55 33.367 363.221 33.8439Z" fill="white"/>
<path d="M366.433 55.2161C365.993 55.2416 365.552 55.2544 365.111 55.2544C364.977 55.2608 364.837 55.2608 364.703 55.2608C359.148 55.2609 353.676 53.9178 348.753 51.3461C343.829 48.7743 339.601 45.0502 336.428 40.4912C336.172 40.8679 335.917 41.2447 335.668 41.6278C338.975 46.2407 343.334 49.9993 348.383 52.5922C353.432 55.1851 359.027 56.5377 364.703 56.5379C364.882 56.5379 365.06 56.5379 365.239 56.5315C365.686 56.5251 366.127 56.5123 366.567 56.4932C373.385 56.1439 379.958 53.8384 385.5 49.8523C385.296 49.4756 385.091 49.0988 384.881 48.7221C379.494 52.6357 373.083 54.8926 366.433 55.2161Z" fill="white"/>
<path d="M367.48 73.0244C367.033 73.0627 366.586 73.0883 366.139 73.1074C365.66 73.1266 365.181 73.1394 364.703 73.1394C357.239 73.1308 349.979 70.7048 344.009 66.2247C338.039 61.7445 333.681 55.4513 331.588 48.2871C331.3 48.8044 331.013 49.3152 330.738 49.8324C333.097 56.9799 337.649 63.2023 343.746 67.6155C349.843 72.0288 357.176 74.4085 364.703 74.4165C365.181 74.4165 365.66 74.4101 366.133 74.3846C366.586 74.3718 367.033 74.3462 367.48 74.3143C376.509 73.608 384.931 69.4971 391.043 62.814C390.909 62.3415 390.755 61.8754 390.602 61.4029C384.699 68.136 376.405 72.3046 367.48 73.0244Z" fill="white"/>
<path d="M53.2709 67.5786L63.9383 87.0828L45.908 69.2081C25.4159 74.6669 5.80078 87.0493 5.80078 87.0493C5.80078 87.0493 29.7267 128.8 55.1221 135.112C80.5176 141.424 93.137 128.53 97.7658 109.907C102.394 91.2836 97.2797 73.9826 71.8843 67.6707C66.2318 66.2658 59.8213 66.4488 53.2709 67.5786Z" fill="#FFD15E"/>
<path d="M63.7145 91.3618L64.9662 91.6729C79.4982 95.3637 90.241 100.639 97.0383 107.441C97.1391 107.539 97.2321 107.641 97.3329 107.738L96.8705 108.196L96.4204 108.63C89.1158 101.143 77.3838 96.2199 64.7094 92.9974C64.302 92.8896 63.8883 92.7802 63.4716 92.6832C58.0942 91.3664 52.5779 90.3441 47.1672 89.5585C46.7489 89.494 46.323 89.4342 45.897 89.3744C38.7499 88.3745 31.8326 87.7738 25.7828 87.415C25.3553 87.3877 24.9263 87.3666 24.5035 87.347C14.2611 86.7819 6.70519 86.9239 5.02954 86.968C4.82512 86.9698 4.71208 86.9746 4.68575 86.9746L4.66475 86.3444L4.66009 86.3366L4.64062 85.7001C4.66698 85.7001 5.04639 85.6825 5.74637 85.6723C8.36513 85.6191 15.455 85.5521 24.6627 86.0444C25.0778 86.0686 25.5069 86.0897 25.9343 86.117C30.8441 86.403 36.3008 86.8446 41.9731 87.5307C43.3982 87.7007 44.8 87.8846 46.1786 88.0825C46.6061 88.1361 47.0321 88.1959 47.4503 88.2604C53.2995 89.1088 58.7208 90.1426 63.7145 91.3618Z" fill="white"/>
<path d="M24.6609 86.0437C24.6135 86.4728 24.5646 86.908 24.5016 87.3464C24.3326 88.5373 24.1026 89.7187 23.8127 90.8861C22.5828 95.8626 20.2521 100.5 16.9922 104.456C17.2559 104.798 17.5197 105.14 17.7881 105.489C21.2669 101.34 23.7515 96.4504 25.0521 91.1942C25.3614 89.9479 25.6048 88.6862 25.781 87.4143C25.8423 86.9822 25.8913 86.5469 25.9325 86.1163C26.2927 82.5669 26.1119 78.9834 25.396 75.4883C24.989 75.67 24.5897 75.8471 24.1981 76.0196C24.8451 79.3199 25.0011 82.6978 24.6609 86.0437Z" fill="white"/>
<path d="M46.18 88.082C46.0985 88.5157 46.0046 88.9464 45.8983 89.374C45.8722 89.5057 45.8383 89.642 45.8059 89.7721C44.4662 95.1627 41.8429 100.149 38.1595 104.307C34.4762 108.465 29.8421 111.67 24.6523 113.65C24.9563 113.988 25.2604 114.327 25.5721 114.661C30.8466 112.564 35.5455 109.241 39.2798 104.966C43.014 100.691 45.676 95.5886 47.0453 90.0802C47.0885 89.9067 47.1316 89.7332 47.1685 89.5581C47.2701 89.1228 47.364 88.6921 47.4517 88.2599C48.7572 81.5592 48.1052 74.6242 45.5736 68.2842C45.1587 68.3916 44.7438 68.499 44.3274 68.6127C46.8262 74.7839 47.47 81.5502 46.18 88.082Z" fill="white"/>
<path d="M63.7153 91.3617C63.6446 91.8047 63.5616 92.2447 63.4724 92.6831C63.3754 93.1525 63.2723 93.6203 63.1568 94.0851C61.3481 101.326 57.2426 107.787 51.4548 112.5C45.667 117.213 38.5084 119.924 31.0508 120.228C31.4835 120.631 31.9099 121.034 32.3456 121.425C39.8511 120.859 46.9876 117.943 52.7412 113.091C58.4948 108.238 62.5729 101.696 64.3962 94.3931C64.5117 93.9284 64.621 93.4621 64.7103 92.9973C64.8072 92.5543 64.8903 92.1143 64.9671 91.6728C66.4593 82.7406 64.5014 73.5751 59.4898 66.0322C58.9989 66.0484 58.5095 66.0847 58.014 66.1194C63.1245 73.4721 65.1695 82.5264 63.7153 91.3617Z" fill="white"/>
<path d="M83.1453 191.501L79.1484 187.431L84.0491 179.938L92.4368 165.976C92.1628 165.375 92.0778 164.704 92.1931 164.053C92.3084 163.402 92.6186 162.802 93.0826 162.331C93.5466 161.86 94.1426 161.542 94.7917 161.417C95.4409 161.292 96.1125 161.368 96.7179 161.633C97.3232 161.898 97.8338 162.341 98.1819 162.903C98.5301 163.465 98.6994 164.119 98.6676 164.78C98.6358 165.44 98.4043 166.075 98.0038 166.601C97.6032 167.126 97.0525 167.518 96.4244 167.724L89.5011 182.63L83.1453 191.501Z" fill="#A0616A"/>
<path d="M78.7164 200.792C78.2471 201.519 77.5785 202.095 76.7904 202.452C76.0023 202.809 75.1282 202.931 74.2724 202.804C73.4579 202.708 72.6891 202.376 72.0606 201.849C71.432 201.323 70.971 200.624 70.7342 199.838C70.5597 199.281 70.5089 198.692 70.5853 198.113C70.6617 197.534 70.8635 196.979 71.1766 196.486C73.8503 191.979 78.7816 186.026 78.8311 185.967L78.9096 185.872L87.2269 187.674L78.7164 200.792Z" fill="#4685FF"/>
<path d="M149.873 38.3326L148.895 38.6338L140.645 11.8373C139.379 7.72409 136.53 4.28238 132.726 2.26933C128.922 0.256287 124.474 -0.163188 120.361 1.10319L63.5893 18.582C61.5526 19.2091 59.6594 20.2311 58.0177 21.5898C56.376 22.9486 55.018 24.6173 54.0213 26.5009C53.0245 28.3844 52.4085 30.4458 52.2084 32.5674C52.0083 34.689 52.2281 36.8293 52.8551 38.8659L98.1155 185.873C99.3818 189.986 102.23 193.428 106.034 195.441C109.838 197.454 114.286 197.874 118.399 196.607L175.171 179.129C179.285 177.862 182.726 175.014 184.739 171.21C186.752 167.406 187.172 162.958 185.905 158.845L154.768 57.7079L155.746 57.4068L149.873 38.3326Z" fill="#3F3D56"/>
<path d="M122.227 4.94569L114.816 7.22726C115.414 7.95785 115.823 8.82431 116.008 9.75029C116.192 10.6763 116.146 11.6334 115.873 12.5373C115.6 13.4412 115.109 14.2641 114.444 14.9336C113.778 15.6031 112.958 16.0986 112.056 16.3765L79.5317 26.3899C78.6293 26.6677 77.6725 26.7192 76.7455 26.5401C75.8185 26.3609 74.9498 25.9566 74.2159 25.3626C73.482 24.7686 72.9054 24.0033 72.537 23.134C72.1685 22.2647 72.0195 21.3181 72.1031 20.3777L65.1816 22.5087C62.1098 23.4544 59.5396 25.5816 58.0363 28.4224C56.533 31.2632 56.2197 34.5848 57.1654 37.6565L102.359 184.448C103.305 187.52 105.432 190.09 108.273 191.593C111.114 193.097 114.435 193.41 117.507 192.464L174.552 174.901C177.624 173.956 180.194 171.828 181.698 168.988C183.201 166.147 183.514 162.825 182.569 159.753L137.375 12.9618C136.429 9.89009 134.302 7.31986 131.461 5.81654C128.62 4.31323 125.299 3.99998 122.227 4.94569Z" fill="white"/>
<path d="M351.912 325.433L218.735 277.561C215.58 276.422 213.005 274.079 211.575 271.045C210.146 268.01 209.978 264.533 211.109 261.375L280.535 68.2382C281.673 65.0829 284.016 62.508 287.05 61.0783C290.085 59.6486 293.562 59.4809 296.72 60.612L429.897 108.484C433.053 109.622 435.628 111.966 437.057 115C438.487 118.034 438.655 121.512 437.524 124.67L368.098 317.807C366.96 320.962 364.617 323.537 361.582 324.967C358.548 326.396 355.07 326.564 351.912 325.433Z" fill="#3F3D56"/>
<path d="M354.878 317.92L221.232 269.879C220.259 269.528 219.465 268.806 219.025 267.871C218.584 266.935 218.532 265.863 218.881 264.89L288.766 70.4741C289.117 69.5014 289.84 68.7077 290.775 68.267C291.71 67.8262 292.782 67.7745 293.756 68.1232L427.402 116.164C428.374 116.515 429.168 117.237 429.609 118.173C430.049 119.108 430.101 120.18 429.753 121.153L359.867 315.569C359.516 316.542 358.794 317.336 357.859 317.776C356.923 318.217 355.851 318.269 354.878 317.92Z" fill="white"/>
<path d="M361.49 89.0881C362.085 89.0881 362.567 88.6062 362.567 88.0118C362.567 87.4174 362.085 86.9355 361.49 86.9355C360.896 86.9355 360.414 87.4174 360.414 88.0118C360.414 88.6062 360.896 89.0881 361.49 89.0881Z" fill="white"/>
<path d="M140.269 117.433C151.619 106.082 151.619 87.6795 140.269 76.329C128.918 64.9785 110.516 64.9785 99.1651 76.329C87.8147 87.6795 87.8147 106.082 99.1651 117.433C110.516 128.783 128.918 128.783 140.269 117.433Z" fill="#4685FF"/>
<path d="M122.757 110.751L108.371 100.992L109.627 99.141L121.537 107.221L130.145 80.293L132.275 80.9736L122.757 110.751Z" fill="white"/>
<path d="M350.45 216.515C364.827 202.139 364.827 178.83 350.45 164.454C336.074 150.078 312.766 150.078 298.39 164.454C284.014 178.83 284.014 202.139 298.39 216.515C312.766 230.891 336.074 230.891 350.45 216.515Z" fill="#4685FF"/>
<path d="M315.54 206.126L310.254 184.752L313.004 184.073L317.38 201.769L348.29 183.694L349.719 186.138L315.54 206.126Z" fill="white"/>
<path d="M85.4618 300.542H90.4316L92.7957 281.373L85.4609 281.374L85.4618 300.542Z" fill="#A0616A"/>
<path d="M84.1953 298.919L93.9822 298.919C95.6363 298.919 97.2231 299.576 98.3927 300.746C99.5624 301.915 100.219 303.502 100.22 305.156V305.359L84.1956 305.359L84.1953 298.919Z" fill="#2F2E41"/>
<path d="M46.7656 298.39L51.6794 299.133L56.8827 280.534L50.4411 279.438L46.7656 298.39Z" fill="#A0616A"/>
<path d="M45.7553 296.597L55.4323 298.059C57.0679 298.307 58.5385 299.194 59.5202 300.525C60.5018 301.856 60.9145 303.523 60.6673 305.159L60.637 305.359L44.793 302.964L45.7553 296.597Z" fill="#2F2E41"/>
<path d="M75.5501 210.177L87.1066 207.66L93.5884 226.189L93.7911 297.734L84.3577 297.675L80.4144 239.768L55.2823 293.275L45.1484 292.059L67.2403 234.701C67.2403 234.701 66.0242 224.567 69.8751 219.5L69.0644 214.231L75.5501 210.177Z" fill="#2F2E41"/>
<path d="M64.7003 196.554C64.4376 195.764 64.4097 194.916 64.62 194.111C64.8302 193.307 65.2696 192.58 65.8848 192.021L68.3275 189.8L75.2141 188.64L79.52 187.857L89.7301 213.346L69.6319 215.635C68.1567 215.316 67.5675 214.509 68.4258 212.905L64.7003 196.554Z" fill="#4685FF"/>
<path d="M89.036 192.334L88.4609 186.659L96.9705 183.874L112.246 178.221C112.408 177.58 112.761 177.004 113.258 176.568C113.755 176.132 114.372 175.857 115.029 175.78C115.685 175.703 116.35 175.827 116.934 176.135C117.519 176.444 117.996 176.923 118.302 177.508C118.609 178.094 118.73 178.759 118.651 179.415C118.571 180.071 118.294 180.688 117.857 181.183C117.419 181.678 116.842 182.029 116.2 182.189C115.559 182.349 114.884 182.311 114.265 182.079L99.5426 189.384L89.036 192.334Z" fill="#A0616A"/>
<path d="M79.7729 196.817C78.9524 197.09 78.0703 197.122 77.2322 196.908C76.3941 196.694 75.6355 196.243 75.0469 195.609C74.4715 195.024 74.0792 194.285 73.9181 193.481C73.7569 192.676 73.834 191.843 74.1397 191.082C74.352 190.538 74.6804 190.047 75.1019 189.643C75.5235 189.238 76.0282 188.931 76.5807 188.742C81.4854 186.896 89.0559 185.333 89.1315 185.318L89.252 185.293L94.6167 191.899L79.7729 196.817Z" fill="#4685FF"/>
<path d="M72.1922 186.201C76.3672 186.201 79.7517 182.816 79.7517 178.641C79.7517 174.467 76.3672 171.082 72.1922 171.082C68.0173 171.082 64.6328 174.467 64.6328 178.641C64.6328 182.816 68.0173 186.201 72.1922 186.201Z" fill="#A0616A"/>
<path d="M66.0729 189.411C64.9006 189.41 63.7294 189.339 62.5658 189.197L62.4063 189.177L61.1886 182.567C60.6722 179.765 61.248 176.871 62.7978 174.48C64.3476 172.089 66.7539 170.381 69.5228 169.708C69.7076 169.662 69.9017 169.667 70.0838 169.723C70.2658 169.779 70.4288 169.885 70.5548 170.028L70.8452 169.927C71.9571 169.539 73.1344 169.374 74.31 169.441C75.4856 169.509 76.6364 169.807 77.6968 170.319C78.7571 170.831 79.7062 171.547 80.4899 172.426C81.2736 173.305 81.8764 174.329 82.2641 175.441L82.3361 175.648L80.3981 176.323C79.7943 176.534 79.245 176.876 78.7902 177.326C78.3354 177.776 77.9865 178.321 77.7689 178.922C77.5513 179.524 77.4705 180.166 77.5323 180.802C77.5942 181.439 77.7971 182.054 78.1264 182.602L80.1078 185.9L79.8969 186.006C75.6203 188.211 70.8843 189.377 66.0729 189.411Z" fill="#2F2E41"/>
<path d="M167.704 306.076H1.05459C0.938582 306.076 0.827327 306.03 0.745299 305.948C0.66327 305.866 0.617188 305.755 0.617188 305.639C0.617188 305.523 0.66327 305.411 0.745299 305.329C0.827327 305.247 0.938582 305.201 1.05459 305.201H167.704C167.82 305.201 167.931 305.247 168.013 305.329C168.095 305.411 168.141 305.523 168.141 305.639C168.141 305.755 168.095 305.866 168.013 305.948C167.931 306.03 167.82 306.076 167.704 306.076Z" fill="#CACACA"/>
<path d="M462.95 327.508H296.301C296.185 327.508 296.073 327.462 295.991 327.379C295.909 327.297 295.863 327.186 295.863 327.07C295.863 326.954 295.909 326.843 295.991 326.761C296.073 326.679 296.185 326.633 296.301 326.633H462.95C463.066 326.633 463.177 326.679 463.259 326.761C463.341 326.843 463.387 326.954 463.387 327.07C463.387 327.186 463.341 327.297 463.259 327.379C463.177 327.462 463.066 327.508 462.95 327.508Z" fill="#CACACA"/>
<path d="M372.437 251.168C372.807 250.859 373.104 250.472 373.308 250.035C373.512 249.599 373.617 249.122 373.617 248.64C373.617 248.158 373.512 247.682 373.308 247.246C373.104 246.809 372.806 246.422 372.437 246.113L369.986 202.976L362.992 204.557L367.616 246.686C367.137 247.341 366.915 248.15 366.993 248.957C367.07 249.765 367.441 250.516 368.036 251.069C368.63 251.622 369.406 251.937 370.218 251.955C371.029 251.973 371.819 251.694 372.437 251.168Z" fill="#9F616A"/>
<path d="M400.835 256.785C400.455 256.489 400.144 256.114 399.924 255.684C399.705 255.255 399.582 254.783 399.565 254.302C399.547 253.82 399.636 253.34 399.824 252.896C400.012 252.453 400.295 252.056 400.653 251.733L401.541 208.535L408.587 209.862L405.492 252.131C405.994 252.769 406.244 253.568 406.196 254.378C406.148 255.188 405.805 255.953 405.231 256.526C404.657 257.1 403.892 257.443 403.082 257.491C402.272 257.539 401.473 257.288 400.835 256.785Z" fill="#9F616A"/>
<path d="M404.563 320.986L410.05 320.986L411.615 308.186L404.562 308.186L404.563 320.986Z" fill="#9F616A"/>
<path d="M403.164 319.195L413.97 319.194H413.97C415.796 319.194 417.548 319.92 418.839 321.211C420.131 322.503 420.856 324.254 420.856 326.08V326.304L403.164 326.305L403.164 319.195Z" fill="#2F2E41"/>
<path d="M370.325 320.985L375.812 320.985L377.377 299.821H370.324L370.325 320.985Z" fill="#9F616A"/>
<path d="M368.926 319.195L379.731 319.194C381.558 319.194 383.31 319.92 384.601 321.211C385.892 322.503 386.618 324.254 386.618 326.08V326.304L368.926 326.305L368.926 319.195Z" fill="#2F2E41"/>
<path d="M392.43 184.365C397.387 184.365 401.406 180.346 401.406 175.389C401.406 170.431 397.387 166.412 392.43 166.412C387.472 166.412 383.453 170.431 383.453 175.389C383.453 180.346 387.472 184.365 392.43 184.365Z" fill="#9F616A"/>
<path d="M403.835 196.103C403.835 196.103 407.825 196.435 408.157 198.43C408.49 200.425 408.157 206.409 408.157 206.409C408.157 206.409 410.817 214.388 408.157 216.383C405.497 218.378 398.516 218.71 398.516 218.71L403.835 196.103Z" fill="#E4E4E4"/>
<path d="M369.927 241.318L366.27 247.303C366.27 247.303 367.599 273.568 367.932 274.233C368.196 274.623 368.314 275.094 368.264 275.563V279.22L369.262 311.137C369.262 311.137 366.602 312.467 369.927 313.464C373.251 314.461 377.573 314.794 378.238 311.469C378.903 308.144 378.935 280.447 378.903 279.552L379.236 278.222L384.555 258.607L396.857 285.869L404.171 316.456C404.171 316.456 415.241 317.734 413.246 313.412C411.251 309.09 406.498 276.892 406.498 276.892C406.498 276.892 405.501 273.568 405.501 272.903C405.501 272.238 405.168 271.905 405.168 271.24C405.168 270.576 404.836 268.581 404.836 268.581L402.509 247.635L369.927 241.318Z" fill="#2F2E41"/>
<path d="M373.251 190.451C373.251 190.451 369.262 190.118 368.264 193.443C367.267 196.768 358.955 209.401 360.618 210.731C362.28 212.061 374.914 216.716 375.246 216.383C375.579 216.051 373.251 190.451 373.251 190.451Z" fill="#E4E4E4"/>
<path d="M402.883 169.664C402.506 168.262 401.975 166.86 400.893 165.891C399.797 164.917 398.391 164.363 396.925 164.328C395.252 163.359 393.374 162.796 391.444 162.687C389.513 162.577 387.584 162.924 385.812 163.698C385.62 163.311 385.31 162.995 384.927 162.796C384.82 163.719 384.713 164.642 384.607 165.565C384.194 165.255 383.782 164.945 383.37 164.634C383.349 165.181 383.329 165.727 383.309 166.273C382.931 165.948 382.553 165.624 382.175 165.299C382.094 167.234 383.704 168.909 385.525 169.568C387.346 170.228 389.343 170.106 391.277 170.015C392.232 169.97 393.32 169.986 393.965 170.692C394.641 171.432 394.513 172.567 394.53 173.568C394.553 174.977 395.999 174.287 396.725 175.495C397.037 175.895 397.232 176.374 397.287 176.879C397.219 177.337 397.053 177.774 396.801 178.162C396.267 179.265 395.205 182.697 395.712 183.813C396.65 183.287 397.588 182.762 398.526 182.237C398.526 182.237 404.706 176.452 402.883 169.664Z" fill="#2F2E41"/>
<path d="M401.179 215.386C401.179 215.386 407.828 198.43 407.496 197.1C407.163 195.771 398.868 190.314 398.868 190.314C398.552 190.275 398.252 190.237 397.949 190.199C397.995 190.081 398.025 189.959 398.04 189.834L398.183 188.533C398.228 188.129 398.109 187.724 397.855 187.407C397.601 187.09 397.231 186.887 396.827 186.843L386.285 185.687C385.882 185.643 385.476 185.761 385.16 186.015C384.843 186.269 384.64 186.639 384.595 187.043L384.472 188.169C383.916 188.031 383.89 187.977 383.89 187.977C383.89 187.977 374.581 189.454 372.254 190.119C369.927 190.784 371.922 216.051 371.922 216.051C371.922 216.051 370.259 239.324 369.262 239.989C368.265 240.654 369.262 240.321 368.265 242.981C368.133 243.332 369.97 241.373 370.758 241.817C375.946 244.742 396.981 251.581 402.176 251.293C403.837 233.959 400.514 228.352 400.514 228.352L401.179 215.386Z" fill="#E4E4E4"/>
</g>
<defs>
<clipPath id="clip0_717_2237">
<rect width="462.769" height="327.127" fill="white" transform="translate(0.617188 0.380859)"/>
</clipPath>
</defs>
</svg>
