<svg width="450" height="200" viewBox="0 0 450 200" fill="none" xmlns="http://www.w3.org/2000/svg">
<g clip-path="url(#clip0_717_2196)">
<path d="M191.169 127.371H9.25C6.79759 127.368 4.44642 126.393 2.7123 124.659C0.978188 122.925 0.00275266 120.574 0 118.121V7.04419C0.00206708 5.17663 0.74485 3.38615 2.06539 2.06557C3.38593 0.74498 5.17639 0.00213204 7.04395 0H193.271C195.166 0.00213468 196.983 0.75599 198.323 2.09617C199.663 3.43635 200.417 5.2534 200.419 7.14868V118.121C200.416 120.574 199.441 122.925 197.707 124.659C195.973 126.393 193.622 127.368 191.169 127.371Z" fill="white"/>
<path d="M191.169 127.371H9.25C6.79759 127.368 4.44642 126.393 2.7123 124.659C0.978188 122.925 0.00275266 120.574 0 118.121V7.04419C0.00206708 5.17663 0.74485 3.38615 2.06539 2.06557C3.38593 0.74498 5.17639 0.00213204 7.04395 0H193.271C195.166 0.00213468 196.983 0.75599 198.323 2.09617C199.663 3.43635 200.417 5.2534 200.419 7.14868V118.121C200.416 120.574 199.441 122.925 197.707 124.659C195.973 126.393 193.622 127.368 191.169 127.371ZM7.04395 2C5.70665 2.00156 4.42457 2.53352 3.47898 3.47916C2.53339 4.42479 2.0015 5.70689 2 7.04419V118.121C2.00219 120.043 2.76673 121.886 4.12589 123.245C5.48506 124.604 7.32785 125.369 9.25 125.371H191.169C193.091 125.369 194.934 124.604 196.293 123.245C197.652 121.886 198.417 120.043 198.419 118.121V7.14868C198.418 5.78365 197.875 4.47494 196.91 3.5097C195.944 2.54447 194.636 2.00153 193.271 2H7.04395Z" fill="#E6E6E6"/>
<path d="M83.057 99.248H28.547C27.2133 99.2461 25.9257 98.7604 24.923 97.881C23.9202 97.0017 23.2706 95.7885 23.0945 94.4666C23.0613 94.2285 23.0455 93.9884 23.047 93.748V33.623C23.0486 32.1649 23.6286 30.7669 24.6597 29.7358C25.6908 28.7047 27.0888 28.1247 28.547 28.123H83.057C84.5151 28.1247 85.9131 28.7047 86.9442 29.7358C87.9753 30.7669 88.5553 32.1649 88.557 33.623V93.748C88.5553 95.2062 87.9753 96.6042 86.9442 97.6353C85.9131 98.6664 84.5151 99.2464 83.057 99.248ZM28.547 31.123C27.8842 31.1238 27.2487 31.3874 26.78 31.8561C26.3114 32.3248 26.0477 32.9602 26.047 33.623V93.748C26.0459 93.8508 26.0523 93.9536 26.066 94.0554C26.1426 94.6599 26.4366 95.2159 26.8932 95.6194C27.3498 96.0229 27.9376 96.2464 28.547 96.248H83.057C83.7198 96.2473 84.3552 95.9837 84.8239 95.515C85.2926 95.0463 85.5562 94.4109 85.557 93.748V33.623C85.5562 32.9602 85.2926 32.3248 84.8239 31.8561C84.3552 31.3874 83.7198 31.1238 83.057 31.123H28.547Z" fill="#E6E6E6"/>
<path d="M173.375 79.6982H107.375C106.314 79.6982 105.297 79.2768 104.547 78.5267C103.796 77.7765 103.375 76.7591 103.375 75.6982C103.375 74.6374 103.796 73.62 104.547 72.8698C105.297 72.1197 106.314 71.6982 107.375 71.6982H173.375C174.436 71.6982 175.453 72.1197 176.203 72.8698C176.954 73.62 177.375 74.6374 177.375 75.6982C177.375 76.7591 176.954 77.7765 176.203 78.5267C175.453 79.2768 174.436 79.6982 173.375 79.6982Z" fill="#E6E6E6"/>
<path d="M143.375 62.6982H107.375C106.314 62.6982 105.297 62.2768 104.547 61.5267C103.796 60.7765 103.375 59.7591 103.375 58.6982C103.375 57.6374 103.796 56.62 104.547 55.8698C105.297 55.1197 106.314 54.6982 107.375 54.6982H143.375C144.436 54.6982 145.453 55.1197 146.203 55.8698C146.954 56.62 147.375 57.6374 147.375 58.6982C147.375 59.7591 146.954 60.7765 146.203 61.5267C145.453 62.2768 144.436 62.6982 143.375 62.6982Z" fill="#E6E6E6"/>
<path d="M73.7734 62.0332C73.7734 70.8698 65.6026 69.5332 55.5234 69.5332C45.4442 69.5332 37.2734 70.8698 37.2734 62.0332C37.2734 53.1966 41.2647 37.5332 55.5234 37.5332C70.2734 37.5332 73.7734 53.1966 73.7734 62.0332Z" fill="#2F2E41"/>
<path d="M74.5125 76.9045C74.1604 75.8885 73.4586 75.0308 72.5325 74.4845C72.3537 74.3747 72.1664 74.2794 71.9724 74.1995C71.1601 73.8618 70.2671 73.768 69.4024 73.9296C68.5377 74.0913 67.7388 74.5013 67.1034 75.1097C66.468 75.718 66.0236 76.4983 65.8245 77.3552C65.6254 78.2121 65.6803 79.1084 65.9824 79.9345L73.2524 96.4595H82.8274L74.5125 76.9045Z" fill="#3F3D56"/>
<path d="M42.7883 77.8045C42.2137 77.5268 41.5868 77.3738 40.9489 77.3554C40.311 77.337 39.6763 77.4537 39.0867 77.6978C38.497 77.9419 37.9656 78.3078 37.5273 78.7717C37.089 79.2356 36.7537 79.7869 36.5434 80.3895L29.7734 96.3145C30.1201 96.4113 30.4784 96.4601 30.8384 96.4595H39.3335L45.0732 83.4195C45.4561 82.3668 45.4343 81.2095 45.0121 80.172C44.5899 79.1345 43.7974 78.2907 42.7883 77.8045Z" fill="#3F3D56"/>
<path d="M55.4641 69.5181C62.2464 69.5181 67.7446 64.0199 67.7446 57.2375C67.7446 50.4552 62.2464 44.957 55.4641 44.957C48.6818 44.957 43.1836 50.4552 43.1836 57.2375C43.1836 64.0199 48.6818 69.5181 55.4641 69.5181Z" fill="#FFB8B8"/>
<path d="M72.7455 74.6799C72.6757 74.6149 72.6056 74.5449 72.5307 74.4849C71.6746 73.7131 70.6614 73.1359 69.5609 72.7932C68.4604 72.4506 67.2986 72.3505 66.1557 72.4999L43.5256 75.3649C41.4525 75.6213 39.561 76.6754 38.2522 78.3033C36.9435 79.9313 36.3206 82.0052 36.5156 84.0849C36.8256 87.5749 37.3256 91.9799 38.1257 96.4599H73.8757L75.1906 81.1799C75.2964 79.9825 75.1316 78.7766 74.7084 77.6514C74.2851 76.5263 73.6143 75.5107 72.7455 74.6799Z" fill="#3F3D56"/>
<path d="M41.2734 56.0332H46.1306L48.2734 50.0332L48.7019 56.0332H51.0234L52.2734 52.5332L52.5234 56.0332H69.7734C69.7734 52.5854 68.4038 49.2788 65.9658 46.8408C63.5279 44.4028 60.2212 43.0332 56.7734 43.0332H54.2734C50.8256 43.0332 47.519 44.4028 45.081 46.8408C42.6431 49.2788 41.2734 52.5854 41.2734 56.0332Z" fill="#2F2E41"/>
<path d="M248.629 118.121V7.14868C248.631 5.2534 249.385 3.43635 250.725 2.09617C252.065 0.75599 253.882 0.00213468 255.777 0H442.004C443.872 0.00213204 445.662 0.74498 446.983 2.06557C448.303 3.38615 449.046 5.17663 449.048 7.04419V118.121C449.045 120.574 448.07 122.925 446.336 124.659C444.602 126.393 442.251 127.368 439.798 127.371H257.879C255.426 127.368 253.075 126.393 251.341 124.659C249.607 122.925 248.632 120.574 248.629 118.121Z" fill="white"/>
<path d="M248.629 118.121V7.14868C248.631 5.2534 249.385 3.43635 250.725 2.09617C252.065 0.75599 253.882 0.00213468 255.777 0H442.004C443.872 0.00213204 445.662 0.74498 446.983 2.06557C448.303 3.38615 449.046 5.17663 449.048 7.04419V118.121C449.045 120.574 448.07 122.925 446.336 124.659C444.602 126.393 442.251 127.368 439.798 127.371H257.879C255.426 127.368 253.075 126.393 251.341 124.659C249.607 122.925 248.632 120.574 248.629 118.121ZM255.777 2C254.412 2.00153 253.104 2.54447 252.139 3.5097C251.173 4.47494 250.63 5.78365 250.629 7.14868V118.121C250.631 120.043 251.396 121.886 252.755 123.245C254.114 124.604 255.957 125.369 257.879 125.371H439.798C441.72 125.369 443.563 124.604 444.922 123.245C446.281 121.886 447.046 120.043 447.048 118.121V7.04419C447.047 5.70689 446.515 4.42479 445.569 3.47916C444.624 2.53352 443.341 2.00156 442.004 2H255.777Z" fill="#E6E6E6"/>
<path d="M360.492 93.748V33.623C360.494 32.1649 361.074 30.7669 362.105 29.7358C363.136 28.7047 364.534 28.1247 365.992 28.123H420.502C421.96 28.1247 423.358 28.7047 424.389 29.7358C425.421 30.7669 426.001 32.1649 426.002 33.623V93.748C426.004 93.9884 425.988 94.2285 425.955 94.4666C425.779 95.7885 425.129 97.0017 424.126 97.881C423.124 98.7604 421.836 99.2461 420.502 99.248H365.992C364.534 99.2464 363.136 98.6664 362.105 97.6353C361.074 96.6042 360.494 95.2062 360.492 93.748ZM365.992 31.123C365.329 31.1238 364.694 31.3874 364.225 31.8561C363.757 32.3248 363.493 32.9602 363.492 33.623V93.748C363.493 94.4109 363.757 95.0463 364.225 95.515C364.694 95.9837 365.329 96.2473 365.992 96.248H420.502C421.112 96.2464 421.699 96.0229 422.156 95.6194C422.613 95.2159 422.907 94.6599 422.983 94.0554C422.997 93.9536 423.003 93.8508 423.002 93.748V33.623C423.001 32.9602 422.738 32.3248 422.269 31.8561C421.8 31.3874 421.165 31.1238 420.502 31.123H365.992Z" fill="#E6E6E6"/>
<path d="M271.676 75.6982C271.677 74.6377 272.099 73.621 272.849 72.8712C273.599 72.1213 274.615 71.6995 275.676 71.6982H341.676C342.737 71.6982 343.754 72.1197 344.504 72.8698C345.254 73.62 345.676 74.6374 345.676 75.6982C345.676 76.7591 345.254 77.7765 344.504 78.5267C343.754 79.2768 342.737 79.6982 341.676 79.6982H275.676C274.615 79.697 273.599 79.2752 272.849 78.5253C272.099 77.7754 271.677 76.7587 271.676 75.6982Z" fill="#E6E6E6"/>
<path d="M271.676 58.6982C271.677 57.6377 272.099 56.621 272.849 55.8712C273.599 55.1213 274.615 54.6995 275.676 54.6982H311.676C312.737 54.6982 313.754 55.1197 314.504 55.8698C315.254 56.62 315.676 57.6374 315.676 58.6982C315.676 59.7591 315.254 60.7765 314.504 61.5267C313.754 62.2768 312.737 62.6982 311.676 62.6982H275.676C274.615 62.697 273.599 62.2752 272.849 61.5253C272.099 60.7754 271.677 59.7587 271.676 58.6982Z" fill="#E6E6E6"/>
<path d="M379.778 51.4883C383.284 58.3801 386.046 65.4883 393.778 65.4883C397.491 65.4883 401.052 64.0133 403.678 61.3878C406.303 58.7623 407.778 55.2013 407.778 51.4883C407.778 47.7753 406.303 44.2143 403.678 41.5888C401.052 38.9633 397.491 37.4883 393.778 37.4883C385.92 37.3899 373.254 38.6606 379.778 51.4883Z" fill="#2F2E41"/>
<path d="M393.089 65.7602C399.871 65.7602 405.37 60.2621 405.37 53.4797C405.37 46.6974 399.871 41.1992 393.089 41.1992C386.307 41.1992 380.809 46.6974 380.809 53.4797C380.809 60.2621 386.307 65.7602 393.089 65.7602Z" fill="#A0616A"/>
<path d="M409.853 75.8652C409.061 75.0027 408.2 74.2067 407.278 73.4852C403.247 70.3258 398.194 68.7597 393.083 69.0852C392.878 69.0951 392.673 69.1101 392.468 69.1302C389.508 69.3668 386.632 70.2311 384.032 71.6657C381.432 73.1003 379.167 75.0722 377.388 77.4502C375.582 79.8644 374.312 82.6367 373.663 85.5814C373.015 88.5262 373.003 91.5754 373.628 94.5252C373.763 95.1502 373.883 95.7802 373.998 96.4102H414.708L415.178 93.2602C415.648 90.147 415.413 86.9681 414.492 83.9576C413.57 80.9471 411.985 78.1817 409.853 75.8652Z" fill="#3F3D56"/>
<path d="M416.09 79.15C415.803 77.507 414.949 76.0167 413.676 74.9386C412.403 73.8605 410.793 73.263 409.125 73.25C409.06 73.25 408.99 73.255 408.925 73.255C408.37 73.2677 407.818 73.3449 407.28 73.485C406.377 73.7251 405.529 74.1414 404.787 74.7099C404.045 75.2783 403.422 75.9878 402.955 76.7975C402.487 77.6073 402.184 78.5014 402.064 79.4285C401.943 80.3556 402.006 81.2975 402.25 82.2L406.095 96.41H419.035L416.09 79.15Z" fill="#3F3D56"/>
<path d="M387.616 75.4248C387.128 74.4669 386.429 73.6325 385.571 72.9847C384.964 72.526 384.285 72.1712 383.561 71.9347C383.266 71.8337 382.963 71.7535 382.656 71.6948C380.984 71.3783 379.254 71.67 377.777 72.5172C376.301 73.3643 375.177 74.7112 374.606 76.3148L367.566 96.4098H380.926L387.741 81.6298C388.195 80.6546 388.42 79.5883 388.399 78.5127C388.377 77.4372 388.109 76.3808 387.616 75.4248Z" fill="#3F3D56"/>
<path d="M380.059 46.54C382.865 48.4742 386.196 49.5036 389.604 49.4899C388.388 50.3329 387.004 50.9023 385.547 51.1589C390.079 52.131 394.762 52.1573 399.304 51.2363C400.314 51.0744 401.288 50.7398 402.184 50.2471C402.631 49.9978 403.02 49.6572 403.326 49.2476C403.632 48.838 403.849 48.3686 403.962 47.8698C404.263 46.1455 402.92 44.579 401.524 43.5232C399.386 41.9315 396.921 40.8348 394.307 40.3125C391.694 39.7902 388.997 39.8554 386.411 40.5034C384.723 40.9398 383.032 41.677 381.936 43.0327C380.839 44.3884 380.514 46.4785 381.559 47.8745L380.059 46.54Z" fill="#2F2E41"/>
<path d="M315.486 199.371H133.566C131.114 199.368 128.763 198.393 127.029 196.659C125.295 194.925 124.319 192.574 124.316 190.121V79.0442C124.318 77.1766 125.061 75.3862 126.382 74.0656C127.702 72.745 129.493 72.0021 131.36 72H317.587C319.482 72.0021 321.299 72.756 322.64 74.0962C323.98 75.4363 324.733 77.2534 324.736 79.1487V190.121C324.733 192.574 323.757 194.925 322.023 196.659C320.289 198.393 317.938 199.368 315.486 199.371Z" fill="white"/>
<path d="M315.486 199.371H133.566C131.114 199.368 128.763 198.393 127.029 196.659C125.295 194.925 124.319 192.574 124.316 190.121V79.0442C124.318 77.1766 125.061 75.3862 126.382 74.0656C127.702 72.745 129.493 72.0021 131.36 72H317.587C319.482 72.0021 321.299 72.756 322.64 74.0962C323.98 75.4363 324.733 77.2534 324.736 79.1487V190.121C324.733 192.574 323.757 194.925 322.023 196.659C320.289 198.393 317.938 199.368 315.486 199.371ZM131.36 74C130.023 74.0016 128.741 74.5335 127.795 75.4792C126.85 76.4248 126.318 77.7069 126.316 79.0442V190.121C126.319 192.043 127.083 193.886 128.442 195.245C129.801 196.604 131.644 197.369 133.566 197.371H315.486C317.408 197.369 319.251 196.604 320.61 195.245C321.969 193.886 322.733 192.043 322.736 190.121V79.1487C322.734 77.7836 322.191 76.4749 321.226 75.5097C320.261 74.5445 318.952 74.0015 317.587 74H131.36Z" fill="#3F3D56"/>
<path d="M207.369 171.248H152.859C151.526 171.246 150.238 170.76 149.235 169.881C148.233 169.002 147.583 167.789 147.407 166.467C147.374 166.228 147.358 165.988 147.359 165.748V105.623C147.361 104.165 147.941 102.767 148.972 101.736C150.003 100.705 151.401 100.125 152.859 100.123H207.369C208.828 100.125 210.226 100.705 211.257 101.736C212.288 102.767 212.868 104.165 212.869 105.623V165.748C212.868 167.206 212.288 168.604 211.257 169.635C210.226 170.666 208.828 171.246 207.369 171.248ZM152.859 103.123C152.197 103.124 151.561 103.387 151.093 103.856C150.624 104.325 150.36 104.96 150.359 105.623V165.748C150.358 165.851 150.365 165.954 150.379 166.055C150.455 166.66 150.749 167.216 151.206 167.619C151.662 168.023 152.25 168.246 152.859 168.248H207.369C208.032 168.247 208.668 167.984 209.136 167.515C209.605 167.046 209.869 166.411 209.869 165.748V105.623C209.869 104.96 209.605 104.325 209.136 103.856C208.668 103.387 208.032 103.124 207.369 103.123H152.859Z" fill="#E6E6E6"/>
<path d="M179.325 111.115C175.777 109.464 171.42 108.923 167.809 110.457C164.198 111.991 161.737 115.922 162.904 119.402C163.434 120.98 164.639 122.531 164.17 124.125C163.808 125.351 162.547 126.161 161.308 126.736C160.07 127.312 158.715 127.796 157.819 128.767C156.923 129.738 156.737 131.41 157.856 132.163C158.224 132.411 158.685 132.529 159.042 132.79C159.347 133.038 159.567 133.374 159.671 133.752C159.776 134.131 159.759 134.532 159.625 134.901C159.327 135.643 158.834 136.291 158.199 136.776C156.929 137.872 155.25 139.126 155.645 140.681C155.791 141.096 156.035 141.471 156.357 141.772C156.679 142.073 157.069 142.291 157.493 142.41C158.375 142.664 159.289 142.785 160.206 142.768L197.69 143.949C198.927 144.042 200.171 143.972 201.39 143.742C201.983 143.634 202.547 143.405 203.047 143.069C203.547 142.733 203.973 142.297 204.297 141.789C205.015 140.461 204.543 138.824 203.657 137.584C202.771 136.343 201.516 135.364 200.479 134.225C199.443 133.086 198.595 131.664 198.777 130.191C198.924 129.013 199.701 127.994 200.259 126.923C200.817 125.852 201.141 124.514 200.418 123.528C199.4 122.14 196.955 122.266 195.797 120.972C194.923 119.996 195.092 118.59 195.005 117.331C194.796 114.303 192.699 111.443 189.715 110.115C188.197 109.464 186.546 109.182 184.899 109.295C183.251 109.407 181.654 109.909 180.238 110.76L179.325 111.115Z" fill="#2F2E41"/>
<path d="M180.71 143.659C187.493 143.659 192.991 138.161 192.991 131.378C192.991 124.596 187.493 119.098 180.71 119.098C173.928 119.098 168.43 124.596 168.43 131.378C168.43 138.161 173.928 143.659 180.71 143.659Z" fill="#A0616A"/>
<path d="M196.833 159.518C196.82 157.366 196.224 155.257 195.108 153.417C193.991 151.576 192.396 150.073 190.493 149.068C190.338 148.983 190.178 148.908 190.018 148.833C188.636 148.178 187.14 147.798 185.613 147.713L173.923 147.058C172.272 146.964 170.619 147.218 169.073 147.803C168.696 147.944 168.327 148.104 167.968 148.283C166.838 148.84 165.805 149.574 164.908 150.458C163.726 151.625 162.802 153.025 162.194 154.57C161.586 156.115 161.308 157.77 161.378 159.428L161.588 164.383L163.058 168.198H195.743C196.148 167.707 196.5 167.174 196.793 166.608C197.347 165.51 197.639 164.298 197.646 163.068C197.653 161.838 197.374 160.623 196.833 159.518Z" fill="#3F3D56"/>
<path d="M196.036 152.948C195.503 151.79 194.666 150.799 193.616 150.078C192.858 149.558 192.008 149.188 191.111 148.988C190.752 148.909 190.388 148.857 190.021 148.833C189.299 148.784 188.574 148.846 187.871 149.018C186.821 149.279 185.845 149.775 185.015 150.469C184.186 151.163 183.525 152.036 183.082 153.023C182.639 154.01 182.427 155.084 182.46 156.165C182.494 157.246 182.773 158.305 183.276 159.263L187.771 167.773L187.996 168.198H203.091L196.036 152.948Z" fill="#3F3D56"/>
<path d="M171.331 148.513C170.624 148.153 169.862 147.913 169.076 147.803C168.491 147.72 167.898 147.711 167.311 147.778C165.817 147.947 164.415 148.584 163.305 149.598C162.195 150.612 161.434 151.95 161.131 153.423L158.086 168.198H169.996L172.221 167.288L174.991 156.658C175.394 155.086 175.251 153.425 174.586 151.945C173.921 150.465 172.773 149.255 171.331 148.513Z" fill="#3F3D56"/>
<path d="M168.149 129.632C172.027 129.321 175.247 125.447 174.843 121.577C174.798 123.172 175.34 124.728 176.368 125.949C177.395 127.17 178.835 127.971 180.414 128.2C182.193 128.396 184.143 127.858 185.692 128.755C187.407 129.749 187.955 132.163 189.742 133.021C191.468 133.851 193.661 132.72 194.514 131.005C195.367 129.29 195.157 127.23 194.592 125.4C193.786 122.79 192.318 120.433 190.332 118.559C188.345 116.685 185.907 115.356 183.255 114.703C180.603 114.05 177.827 114.095 175.197 114.832C172.567 115.57 170.173 116.975 168.247 118.912C166.617 120.552 165.322 122.643 165.112 124.946C164.902 127.25 165.971 129.749 168.039 130.784L168.149 129.632Z" fill="#2F2E41"/>
<path d="M297.688 151.698H231.688C230.627 151.698 229.609 151.277 228.859 150.527C228.109 149.777 227.688 148.759 227.688 147.698C227.688 146.637 228.109 145.62 228.859 144.87C229.609 144.12 230.627 143.698 231.688 143.698H297.688C298.748 143.698 299.766 144.12 300.516 144.87C301.266 145.62 301.688 146.637 301.688 147.698C301.688 148.759 301.266 149.777 300.516 150.527C299.766 151.277 298.748 151.698 297.688 151.698Z" fill="#E6E6E6"/>
<path d="M267.688 134.698H231.688C230.627 134.698 229.609 134.277 228.859 133.527C228.109 132.777 227.688 131.759 227.688 130.698C227.688 129.637 228.109 128.62 228.859 127.87C229.609 127.12 230.627 126.698 231.688 126.698H267.688C268.748 126.698 269.766 127.12 270.516 127.87C271.266 128.62 271.688 129.637 271.688 130.698C271.688 131.759 271.266 132.777 270.516 133.527C269.766 134.277 268.748 134.698 267.688 134.698Z" fill="#6C63FF"/>
<path d="M287.005 163.91C283.511 163.917 280.162 165.309 277.694 167.782C275.226 170.254 273.84 173.605 273.84 177.099C273.84 180.593 275.226 183.944 277.694 186.417C280.162 188.889 283.511 190.282 287.004 190.288C290.498 190.282 293.847 188.889 296.315 186.417C298.783 183.944 300.169 180.593 300.169 177.099C300.169 173.605 298.783 170.254 296.315 167.782C293.847 165.309 290.498 163.917 287.005 163.91Z" fill="#6C63FF"/>
<path d="M285.752 182.576C285.405 182.577 285.067 182.465 284.789 182.256L284.772 182.244L281.145 179.469C280.806 179.209 280.585 178.825 280.529 178.401C280.474 177.978 280.588 177.55 280.848 177.211C281.108 176.872 281.492 176.65 281.915 176.593C282.339 176.537 282.767 176.651 283.106 176.911L285.456 178.712L291.007 171.47C291.136 171.302 291.296 171.161 291.48 171.055C291.663 170.949 291.865 170.88 292.075 170.853C292.284 170.825 292.498 170.839 292.702 170.894C292.906 170.948 293.098 171.043 293.266 171.171L293.266 171.172L293.232 171.22L293.267 171.172C293.606 171.432 293.828 171.816 293.884 172.24C293.939 172.663 293.825 173.092 293.565 173.431L287.036 181.946C286.885 182.142 286.69 182.301 286.468 182.41C286.246 182.519 286.001 182.575 285.754 182.575L285.752 182.576Z" fill="white"/>
</g>
<defs>
<clipPath id="clip0_717_2196">
<rect width="449.049" height="199.371" fill="white"/>
</clipPath>
</defs>
</svg>
