<svg width="470" height="312" viewBox="0 0 470 312" fill="none" xmlns="http://www.w3.org/2000/svg">
<g clip-path="url(#clip0_717_2150)">
<path d="M451.546 208.836C448.158 212.537 443.956 215.293 439.397 217.432H439.391C438.962 217.636 438.533 217.834 438.099 218.021H438.093L438.088 218.026L438.082 218.021H438.077L438.076 218.023L438.075 218.025L438.073 218.026L438.071 218.026H438.065L438.06 218.021C438.055 218.026 438.055 218.026 438.049 218.021L438.044 218.026L438.038 218.021H438.033C438.027 218.026 438.027 218.026 438.022 218.021H438.016C434.964 219.341 431.83 220.462 428.633 221.376C409.834 226.709 390.075 227.741 370.823 224.395C370.454 224.329 370.091 224.263 369.723 224.197V179.587C370.086 179.433 370.454 179.279 370.823 179.13C373.226 178.135 375.659 177.22 378.121 176.386C381.663 175.176 385.255 174.138 388.896 173.273C400.774 170.398 413.031 169.407 425.218 170.336C427.434 170.501 429.645 170.739 431.851 171.051C436.465 171.694 441.305 172.816 445.562 174.763H445.568C446.189 175.055 446.8 175.357 447.405 175.682C451.189 177.733 454.379 180.555 456.326 184.421C457.025 185.81 457.529 187.289 457.822 188.816V188.827C457.932 189.355 458.009 189.888 458.069 190.416C458.762 196.928 456.062 203.897 451.546 208.836Z" fill="#FFD15E"/>
<path d="M458.069 190.416C458.015 190.43 457.96 190.437 457.904 190.438C448.483 190.851 439.074 191.463 429.678 192.275H429.662C429.623 192.281 429.59 192.281 429.552 192.286C419.905 193.122 410.278 194.169 400.671 195.427C400.264 195.482 399.863 195.537 399.461 195.586C392.817 196.472 386.186 197.455 379.568 198.534C376.647 199.013 373.732 199.512 370.823 200.03C370.454 200.096 370.091 200.157 369.723 200.228V198.562C370.091 198.49 370.46 198.43 370.823 198.364C380.514 196.648 390.238 195.15 399.995 193.87C402.448 193.54 404.904 193.229 407.365 192.935C414.471 192.077 421.588 191.337 428.715 190.713C429.238 190.669 429.755 190.625 430.278 190.581C439.402 189.806 448.539 189.217 457.69 188.816C457.734 188.814 457.778 188.818 457.822 188.827C458.702 188.904 458.889 190.224 458.069 190.416Z" fill="white"/>
<path d="M438.502 216.4C426.765 216.486 415.202 211.509 406.9 203.272C404.558 200.939 402.494 198.342 400.749 195.533C400.189 194.636 398.88 195.626 399.435 196.515C405.882 206.856 416.622 214.221 428.463 216.93C431.826 217.692 435.265 218.06 438.713 218.027C439.765 218.019 439.547 216.392 438.502 216.4Z" fill="white"/>
<path d="M388.896 173.272C388.845 173.427 388.755 173.566 388.635 173.675C388.514 173.784 388.367 173.859 388.208 173.894C385.518 174.599 382.92 175.614 380.464 176.919C376.879 178.813 373.623 181.274 370.823 184.206C370.674 184.355 370.531 184.503 370.394 184.657C370.163 184.899 369.943 185.147 369.723 185.4V183.002C370.075 182.628 370.443 182.259 370.823 181.907C373.034 179.791 375.483 177.937 378.121 176.385C381.663 175.175 385.255 174.138 388.896 173.272Z" fill="white"/>
<path d="M446.536 174.329C439.07 177.538 432.823 183.046 428.704 190.051C428.621 190.252 428.62 190.477 428.701 190.678C428.783 190.879 428.94 191.04 429.14 191.126C429.341 191.205 429.564 191.204 429.764 191.123C429.965 191.042 430.126 190.887 430.214 190.69C434.146 184.073 440.077 178.877 447.152 175.849C448.123 175.434 447.509 173.913 446.536 174.329Z" fill="white"/>
<path d="M469.042 127.617C467.766 132.468 465.318 136.863 462.277 140.872L462.271 140.878C461.991 141.252 461.699 141.631 461.397 141.994V142C459.285 144.601 457.005 147.061 454.571 149.364C445.822 157.701 435.94 164.762 425.218 170.336C408.349 179.147 389.495 184.355 370.823 184.652C370.68 184.658 370.537 184.658 370.394 184.658C370.168 184.663 369.943 184.663 369.723 184.663V159.666C370.08 158.984 370.449 158.302 370.823 157.625C375.675 148.894 381.593 140.798 388.439 133.524C388.604 133.343 388.775 133.161 388.945 132.985C391.519 130.268 394.218 127.681 397.041 125.225C407.903 115.675 420.455 108.241 434.051 103.307C438.434 101.734 443.241 100.475 447.916 100.227C448.604 100.189 449.286 100.172 449.973 100.178C454.28 100.238 458.41 101.256 461.936 103.775C463.198 104.682 464.331 105.757 465.302 106.97C465.643 107.394 465.956 107.828 466.259 108.274V108.279C469.9 113.724 470.747 121.144 469.042 127.617Z" fill="#FFD15E"/>
<path d="M466.259 108.273V108.278C466.218 108.314 466.174 108.345 466.127 108.372C457.987 113.107 449.949 118.015 442.015 123.095C442.004 123.101 441.998 123.106 441.987 123.112C441.955 123.134 441.922 123.154 441.888 123.172C433.732 128.397 425.691 133.798 417.765 139.375C417.435 139.606 417.1 139.843 416.764 140.079C411.292 143.946 405.876 147.895 400.517 151.926C390.397 159.549 380.499 167.455 370.823 175.642C370.454 175.95 370.091 176.264 369.723 176.577V174.438C370.086 174.124 370.454 173.811 370.823 173.503C374.53 170.373 378.27 167.288 382.043 164.246C383.17 163.339 384.303 162.431 385.436 161.535C395.501 153.521 405.792 145.807 416.308 138.391H416.313C418.381 136.933 420.453 135.489 422.528 134.057C428.424 129.998 434.386 126.036 440.414 122.171C440.849 121.891 441.289 121.61 441.729 121.33C449.445 116.402 457.263 111.635 465.181 107.03C465.219 107.006 465.26 106.986 465.302 106.969C466.127 106.639 466.902 107.728 466.259 108.273Z" fill="white"/>
<path d="M461.005 140.373C450.651 145.902 438.099 146.866 426.921 143.427C423.763 142.449 420.728 141.108 417.879 139.432C416.966 138.897 416.267 140.381 417.171 140.912C427.684 147.074 440.617 148.608 452.361 145.506C455.692 144.619 458.909 143.347 461.947 141.716C462.875 141.22 461.927 139.881 461.005 140.373Z" fill="white"/>
<path d="M383.541 160.497C383.028 157.618 382.852 154.689 383.017 151.769C383.387 145.11 385.426 138.651 388.946 132.986C391.523 130.27 394.222 127.683 397.044 125.225C397.071 125.385 397.055 125.55 396.998 125.703C396.942 125.856 396.846 125.992 396.721 126.096C394.668 127.97 392.839 130.076 391.27 132.37C385.666 140.549 383.479 150.593 385.175 160.361C385.202 160.472 385.201 160.588 385.171 160.698C385.14 160.808 385.082 160.909 385.002 160.99C384.885 161.092 384.742 161.162 384.589 161.192C384.436 161.223 384.278 161.213 384.13 161.163C383.982 161.113 383.85 161.025 383.747 160.909C383.643 160.792 383.572 160.65 383.541 160.497Z" fill="white"/>
<path d="M448.574 99.3864C443.453 105.696 440.479 113.476 440.086 121.593C440.105 121.809 440.209 122.009 440.375 122.149C440.54 122.289 440.755 122.358 440.971 122.342C441.186 122.319 441.383 122.214 441.523 122.049C441.662 121.884 441.733 121.672 441.72 121.456C442.128 113.771 444.967 106.414 449.826 100.446C450.493 99.6275 449.242 98.5664 448.574 99.3864Z" fill="white"/>
<path d="M391.618 117.458V117.464C391.58 117.937 391.536 118.404 391.486 118.872V118.883C391.104 122.21 390.507 125.51 389.699 128.761C389.314 130.356 388.896 131.94 388.439 133.524C388.384 133.727 388.324 133.931 388.263 134.129V134.134C386.92 138.741 385.315 143.267 383.456 147.692C380.036 155.837 375.804 163.617 370.823 170.913C370.465 171.446 370.097 171.98 369.723 172.508V86.3776C370.091 86.3556 370.454 86.3556 370.823 86.3666C370.999 86.3666 371.175 86.3721 371.351 86.3831C372.903 86.4646 374.435 86.7627 375.905 87.2686C376.422 87.4391 376.922 87.6316 377.417 87.8461C383.418 90.4751 388.131 96.2721 390.177 102.647C391.712 107.421 392.02 112.442 391.618 117.458Z" fill="#FFD15E"/>
<path d="M377.417 87.8463C377.404 87.9002 377.384 87.952 377.357 88.0003C375.129 92.3288 372.951 96.6793 370.823 101.052C370.454 101.805 370.086 102.564 369.723 103.318V99.5778C370.086 98.8297 370.452 98.0817 370.823 97.3338C372.467 94.0008 374.139 90.6824 375.839 87.3788C375.857 87.3402 375.88 87.3034 375.905 87.2688C376.411 86.5428 377.665 87.0378 377.417 87.8463Z" fill="white"/>
<path d="M391.794 118.344C391.695 118.52 391.596 118.696 391.486 118.872C389.871 121.686 387.949 124.313 385.755 126.704C381.541 131.275 376.467 134.97 370.823 137.577C370.46 137.753 370.091 137.918 369.723 138.072V136.285C370.091 136.12 370.46 135.949 370.823 135.773C378.993 131.876 385.78 125.579 390.276 117.722C390.341 117.61 390.429 117.513 390.535 117.438C390.64 117.363 390.761 117.311 390.888 117.287C391.015 117.262 391.146 117.265 391.272 117.296C391.398 117.326 391.516 117.384 391.618 117.464C391.688 117.51 391.747 117.569 391.794 117.639C391.84 117.708 391.872 117.786 391.889 117.867C391.905 117.949 391.905 118.033 391.889 118.115C391.873 118.197 391.84 118.274 391.794 118.344Z" fill="white"/>
<path d="M370.822 19.025V60.825H369.722V60.3795H1.77188V60.825H0.671875V19.025C0.676599 14.2128 2.59034 9.59899 5.9931 6.19623C9.39586 2.79346 14.0096 0.879724 18.8219 0.875H352.672C357.484 0.879724 362.098 2.79346 365.501 6.19623C368.903 9.59899 370.817 14.2128 370.822 19.025Z" fill="#4685FF"/>
<path d="M352.672 0.875H18.8219C14.0096 0.879724 9.39586 2.79346 5.9931 6.19623C2.59034 9.59899 0.676599 14.2128 0.671875 19.025V257.725C0.676599 262.537 2.59034 267.151 5.9931 270.554C9.39586 273.957 14.0096 275.87 18.8219 275.875H352.672C357.484 275.87 362.098 273.957 365.501 270.554C368.903 267.151 370.817 262.537 370.822 257.725V19.025C370.817 14.2128 368.903 9.59899 365.501 6.19623C362.098 2.79346 357.484 0.879724 352.672 0.875ZM369.722 257.725C369.716 262.245 367.918 266.579 364.722 269.775C361.525 272.971 357.192 274.769 352.672 274.775H18.8219C14.3017 274.769 9.96832 272.971 6.77207 269.775C3.57582 266.579 1.77764 262.245 1.77188 257.725V19.025C1.77764 14.5048 3.57582 10.1714 6.77207 6.9752C9.96832 3.77896 14.3017 1.98077 18.8219 1.975H352.672C357.192 1.98077 361.525 3.77896 364.722 6.9752C367.918 10.1714 369.716 14.5048 369.722 19.025V257.725Z" fill="#3F3D56"/>
<path d="M75.4727 41.8496C81.5478 41.8496 86.4727 36.9247 86.4727 30.8496C86.4727 24.7745 81.5478 19.8496 75.4727 19.8496C69.3975 19.8496 64.4727 24.7745 64.4727 30.8496C64.4727 36.9247 69.3975 41.8496 75.4727 41.8496Z" fill="white"/>
<path d="M296.023 41.8496C302.099 41.8496 307.023 36.9247 307.023 30.8496C307.023 24.7745 302.099 19.8496 296.023 19.8496C289.948 19.8496 285.023 24.7745 285.023 30.8496C285.023 36.9247 289.948 41.8496 296.023 41.8496Z" fill="white"/>
<path d="M107.253 153.501H41.8157C39.0434 153.498 36.3857 152.395 34.4254 150.435C32.4652 148.474 31.3625 145.817 31.3594 143.044V112.116C31.3625 109.344 32.4652 106.686 34.4254 104.726C36.3857 102.766 39.0434 101.663 41.8157 101.66H107.253C110.025 101.663 112.683 102.766 114.643 104.726C116.603 106.686 117.706 109.344 117.709 112.116V143.044C117.706 145.817 116.603 148.474 114.643 150.435C112.683 152.395 110.025 153.498 107.253 153.501Z" fill="#4685FF"/>
<path d="M218.573 153.501H153.136C150.364 153.498 147.706 152.395 145.746 150.435C143.785 148.474 142.683 145.817 142.68 143.044V112.116C142.683 109.344 143.785 106.686 145.746 104.726C147.706 102.766 150.364 101.663 153.136 101.66H218.573C221.345 101.663 224.003 102.766 225.963 104.726C227.923 106.686 229.026 109.344 229.029 112.116V143.044C229.026 145.817 227.923 148.474 225.963 150.435C224.003 152.395 221.345 153.498 218.573 153.501Z" fill="#4685FF"/>
<path d="M218.573 233.411H153.136C150.28 233.408 147.542 232.272 145.522 230.252C143.503 228.232 142.366 225.494 142.363 222.638V191.71C142.366 188.853 143.503 186.115 145.522 184.095C147.542 182.076 150.28 180.94 153.136 180.937H218.573C221.43 180.94 224.168 182.076 226.188 184.095C228.207 186.115 229.343 188.853 229.346 191.71V222.638C229.343 225.494 228.207 228.232 226.188 230.252C224.168 232.272 221.43 233.408 218.573 233.411Z" fill="#FFD15E"/>
<path d="M107.038 233.411H41.6013C38.745 233.408 36.0067 232.272 33.987 230.252C31.9674 228.232 30.8313 225.494 30.8281 222.638V191.71C30.8313 188.853 31.9674 186.115 33.987 184.095C36.0067 182.076 38.745 180.94 41.6013 180.937H107.038C109.894 180.94 112.633 182.076 114.652 184.095C116.672 186.115 117.808 188.853 117.811 191.71V222.638C117.808 225.494 116.672 228.232 114.652 230.252C112.633 232.272 109.894 233.408 107.038 233.411Z" fill="#FFD15E"/>
<path d="M329.89 233.411H264.453C261.597 233.408 258.858 232.272 256.839 230.252C254.819 228.232 253.683 225.494 253.68 222.638V191.71C253.683 188.853 254.819 186.115 256.839 184.095C258.858 182.076 261.597 180.94 264.453 180.937H329.89C332.746 180.94 335.484 182.076 337.504 184.095C339.524 186.115 340.66 188.853 340.663 191.71V222.638C340.66 225.494 339.524 228.232 337.504 230.252C335.484 232.272 332.746 233.408 329.89 233.411Z" fill="#FFD15E"/>
<path d="M329.894 153.563H264.457C261.601 153.56 258.862 152.424 256.843 150.405C254.823 148.385 253.687 145.647 253.684 142.79V111.862C253.687 109.006 254.823 106.267 256.843 104.248C258.862 102.228 261.601 101.092 264.457 101.089H329.894C332.75 101.092 335.488 102.228 337.508 104.248C339.528 106.267 340.664 109.006 340.667 111.862V142.79C340.664 145.647 339.528 148.385 337.508 150.405C335.488 152.424 332.75 153.56 329.894 153.563Z" fill="#FFD15E"/>
<path d="M74.537 145.325C84.3367 145.325 92.281 137.381 92.281 127.581C92.281 117.781 84.3367 109.837 74.537 109.837C64.7372 109.837 56.793 117.781 56.793 127.581C56.793 137.381 64.7372 145.325 74.537 145.325Z" fill="white"/>
<path d="M72.7743 134.349C72.3751 134.35 71.9865 134.221 71.6671 133.982L71.6473 133.967L67.4773 130.774C67.2839 130.626 67.1216 130.442 66.9995 130.231C66.8775 130.02 66.7982 129.788 66.7661 129.546C66.7341 129.305 66.7499 129.06 66.8127 128.825C66.8755 128.589 66.984 128.369 67.132 128.176C67.2801 127.982 67.4648 127.82 67.6756 127.698C67.8863 127.577 68.1191 127.498 68.3604 127.466C68.6018 127.434 68.847 127.45 69.0822 127.513C69.3173 127.576 69.5377 127.685 69.7308 127.833L72.4318 129.904L78.8147 121.58C78.9627 121.387 79.1473 121.225 79.358 121.103C79.5686 120.981 79.8012 120.902 80.0424 120.87C80.2836 120.839 80.5287 120.855 80.7637 120.917C80.9988 120.98 81.2191 121.089 81.4121 121.237L81.3725 121.291L81.4131 121.238C81.8026 121.537 82.0574 121.979 82.1217 122.466C82.186 122.953 82.0545 123.445 81.756 123.835L74.2483 133.626C74.0746 133.852 73.8513 134.035 73.5957 134.16C73.3401 134.285 73.059 134.35 72.7743 134.349Z" fill="#4685FF"/>
<path d="M186.17 145.07C195.97 145.07 203.914 137.126 203.914 127.326C203.914 117.526 195.97 109.582 186.17 109.582C176.37 109.582 168.426 117.526 168.426 127.326C168.426 137.126 176.37 145.07 186.17 145.07Z" fill="white"/>
<path d="M184.414 134.095C184.014 134.095 183.626 133.966 183.306 133.727L183.286 133.712L179.116 130.519C178.726 130.22 178.471 129.779 178.407 129.292C178.342 128.805 178.474 128.312 178.773 127.922C179.072 127.532 179.513 127.277 180 127.212C180.487 127.148 180.98 127.279 181.37 127.578L184.071 129.649L190.454 121.325C190.602 121.132 190.787 120.97 190.997 120.848C191.208 120.726 191.44 120.647 191.682 120.616C191.923 120.584 192.168 120.6 192.403 120.663C192.638 120.725 192.858 120.834 193.051 120.982L193.012 121.036L193.052 120.983C193.442 121.282 193.697 121.724 193.761 122.211C193.825 122.698 193.694 123.19 193.395 123.58L185.887 133.372C185.714 133.597 185.491 133.78 185.235 133.905C184.979 134.031 184.698 134.095 184.414 134.095Z" fill="#4685FF"/>
<path d="M306.092 211.058C306.675 210.42 307.111 209.663 307.369 208.839C307.628 208.014 307.702 207.144 307.588 206.287C307.473 205.431 307.173 204.611 306.707 203.883C306.241 203.156 305.621 202.54 304.891 202.078L294.985 149.183L282.938 153.65L296.463 204.239C295.768 205.517 295.567 207.005 295.896 208.422C296.225 209.838 297.062 211.085 298.249 211.925C299.436 212.766 300.89 213.142 302.335 212.982C303.781 212.822 305.117 212.137 306.092 211.058Z" fill="#A0616A"/>
<path d="M209.964 130.346C209.994 130.674 209.998 131.004 209.976 131.333L233.4 149.362L240.043 146.634L245.47 156.121L234.18 162.093C233.268 162.576 232.224 162.749 231.204 162.588C230.185 162.426 229.246 161.939 228.528 161.198L205.114 137.059C203.874 137.339 202.579 137.234 201.4 136.76C200.222 136.285 199.216 135.463 198.516 134.403C197.816 133.342 197.455 132.094 197.482 130.824C197.509 129.554 197.921 128.322 198.666 127.292C199.41 126.262 200.45 125.483 201.647 125.059C202.845 124.634 204.143 124.584 205.37 124.916C206.596 125.247 207.693 125.945 208.513 126.914C209.334 127.884 209.84 129.081 209.964 130.346Z" fill="#A0616A"/>
<path d="M264.689 304.942H257.946L254.738 284.434L264.691 284.434L264.689 304.942Z" fill="#A0616A"/>
<path d="M266.406 311.478L244.664 311.478V311.203C244.664 310.091 244.883 308.991 245.308 307.964C245.733 306.937 246.357 306.005 247.143 305.219C247.928 304.433 248.861 303.81 249.888 303.384C250.915 302.959 252.015 302.74 253.127 302.74L266.406 302.741L266.406 311.478Z" fill="#2F2E41"/>
<path d="M289.986 304.942H283.243L280.035 284.434L289.987 284.434L289.986 304.942Z" fill="#A0616A"/>
<path d="M291.707 311.478L269.965 311.478V311.203C269.965 310.091 270.184 308.991 270.609 307.964C271.034 306.937 271.658 306.005 272.443 305.219C273.229 304.433 274.162 303.81 275.189 303.384C276.216 302.959 277.316 302.74 278.427 302.74L291.707 302.741L291.707 311.478Z" fill="#2F2E41"/>
<path d="M256.544 300.889C255.929 300.889 255.335 300.66 254.88 300.245C254.424 299.831 254.14 299.262 254.083 298.649L248.207 219.62L248.485 219.597L288.921 216.273L288.932 216.561L292.147 298.429C292.159 298.761 292.104 299.093 291.986 299.404C291.867 299.715 291.687 299.999 291.456 300.238C291.225 300.478 290.948 300.669 290.642 300.799C290.335 300.929 290.006 300.996 289.673 300.996H281.745C281.153 300.999 280.58 300.788 280.13 300.403C279.681 300.017 279.386 299.483 279.299 298.897L268.532 232.763C268.521 232.694 268.485 232.633 268.431 232.59C268.377 232.546 268.309 232.525 268.24 232.53C268.171 232.535 268.106 232.566 268.059 232.617C268.012 232.667 267.985 232.733 267.985 232.802L267.497 298.1C267.491 298.731 267.246 299.336 266.81 299.792C266.375 300.248 265.782 300.521 265.152 300.555L256.677 300.885C256.633 300.887 256.588 300.889 256.544 300.889Z" fill="#2F2E41"/>
<path d="M263.446 119.744C270.907 119.744 276.955 113.696 276.955 106.235C276.955 98.7745 270.907 92.7266 263.446 92.7266C255.985 92.7266 249.938 98.7745 249.938 106.235C249.938 113.696 255.985 119.744 263.446 119.744Z" fill="#A0616A"/>
<path d="M266.062 224.659C260.157 224.642 254.282 223.839 248.589 222.271C248.041 222.112 247.565 221.769 247.241 221.299C246.917 220.83 246.764 220.263 246.809 219.694C248.628 192.363 249.056 171.153 245.231 156.477C243.602 150.223 244.342 143.635 247.262 138.405C251.656 130.532 259.733 125.741 268.349 125.906C268.76 125.914 269.176 125.929 269.596 125.951C282.671 126.624 292.86 138.452 292.308 152.319L289.678 218.411C289.668 218.893 289.516 219.362 289.241 219.758C288.965 220.154 288.578 220.459 288.129 220.635C281.074 223.29 273.599 224.653 266.062 224.659Z" fill="#3F3D56"/>
<path d="M247.453 161.553L237.335 149.153C237.047 148.8 236.838 148.39 236.724 147.949C236.609 147.508 236.59 147.048 236.669 146.6C236.748 146.151 236.923 145.725 237.182 145.35C237.44 144.975 237.776 144.661 238.168 144.428L251.874 136.26C253.688 134.797 256.007 134.113 258.325 134.357C260.642 134.602 262.767 135.755 264.235 137.565C265.703 139.374 266.393 141.692 266.155 144.01C265.916 146.328 264.768 148.456 262.963 149.929L252.25 161.684C251.943 162.021 251.567 162.287 251.148 162.465C250.729 162.643 250.277 162.729 249.822 162.717C249.366 162.704 248.919 162.594 248.511 162.393C248.102 162.192 247.741 161.905 247.453 161.553Z" fill="#3F3D56"/>
<path d="M279.283 159.996C278.868 159.81 278.497 159.537 278.197 159.195C277.896 158.852 277.673 158.449 277.543 158.013L272.988 142.775C271.999 140.665 271.887 138.249 272.678 136.057C273.468 133.865 275.095 132.075 277.202 131.081C279.31 130.087 281.726 129.97 283.92 130.754C286.114 131.539 287.908 133.162 288.907 135.267L297.716 148.57C297.967 148.95 298.134 149.379 298.204 149.829C298.275 150.279 298.247 150.739 298.124 151.177C298.001 151.616 297.785 152.022 297.49 152.37C297.195 152.717 296.829 152.997 296.417 153.19L281.922 159.974C281.51 160.168 281.061 160.27 280.605 160.274C280.15 160.277 279.699 160.183 279.283 159.996Z" fill="#3F3D56"/>
<path d="M270.121 117.32L260.107 115.028C259.075 114.792 257.834 114.341 257.69 113.291C257.498 111.88 259.528 110.897 259.341 109.486C259.16 108.119 257.31 107.942 255.991 107.539C254.763 107.108 253.751 106.216 253.168 105.052C252.586 103.888 252.48 102.543 252.871 101.302C251.445 103.312 248.185 103.485 246.334 101.856C244.483 100.226 244.128 97.2706 245.24 95.0697C245.84 93.9887 246.687 93.0646 247.712 92.3726C248.737 91.6807 249.911 91.2403 251.138 91.0875C253.605 90.8077 256.1 91.2727 258.3 92.4228C258.447 90.8644 260.393 90.2327 261.958 90.2188C265.209 90.2566 268.368 91.3072 270.994 93.2241C273.621 95.1411 275.584 97.8292 276.612 100.914C278.532 107.103 277.248 113.887 271.874 117.508L270.121 117.32Z" fill="#2F2E41"/>
<path d="M370.979 311.625H161.429C161.283 311.625 161.143 311.567 161.04 311.464C160.937 311.361 160.879 311.221 160.879 311.075C160.879 310.93 160.937 310.79 161.04 310.686C161.143 310.583 161.283 310.525 161.429 310.525H370.979C371.125 310.525 371.265 310.583 371.368 310.686C371.471 310.79 371.529 310.93 371.529 311.075C371.529 311.221 371.471 311.361 371.368 311.464C371.265 311.567 371.125 311.625 370.979 311.625Z" fill="#3F3D56"/>
</g>
<defs>
<clipPath id="clip0_717_2150">
<rect width="469.215" height="310.75" fill="white" transform="translate(0.671875 0.875)"/>
</clipPath>
</defs>
</svg>
