<svg width="407" height="320" viewBox="0 0 407 320" fill="none" xmlns="http://www.w3.org/2000/svg">
<g clip-path="url(#clip0_717_2007)">
<path d="M200.418 72.5635H198.74V26.6016C198.74 19.5464 195.937 12.7802 190.949 7.79143C185.96 2.80267 179.194 8.79726e-06 172.138 1.6883e-10H74.7618C71.2684 -1.24452e-05 67.8093 0.688045 64.5818 2.02489C61.3544 3.36173 58.4218 5.32117 55.9516 7.79134C53.4814 10.2615 51.522 13.194 50.1851 16.4215C48.8482 19.6489 48.1602 23.1081 48.1602 26.6014V278.752C48.1602 282.246 48.8482 285.705 50.1851 288.932C51.5219 292.16 53.4814 295.092 55.9515 297.562C58.4217 300.033 61.3542 301.992 64.5817 303.329C67.8091 304.666 71.2683 305.354 74.7616 305.354H172.138C175.632 305.354 179.091 304.666 182.318 303.329C185.546 301.992 188.478 300.033 190.948 297.563C193.419 295.092 195.378 292.16 196.715 288.932C198.052 285.705 198.74 282.246 198.74 278.752V105.28H200.418V72.5635Z" fill="#3F3D56"/>
<path d="M173.012 7.5498H160.301C160.886 8.98291 161.109 10.5378 160.951 12.0774C160.793 13.6171 160.259 15.0943 159.396 16.3789C158.532 17.6634 157.366 18.716 156 19.4438C154.634 20.1717 153.111 20.5524 151.563 20.5525H95.777C94.2292 20.5524 92.7053 20.1717 91.3394 19.4438C89.9734 18.716 88.8075 17.6634 87.9442 16.3788C87.0809 15.0943 86.5467 13.6171 86.3888 12.0774C86.2308 10.5378 86.454 8.98291 87.0385 7.5498H75.1665C69.8978 7.5498 64.8449 9.64278 61.1193 13.3683C57.3938 17.0939 55.3008 22.1468 55.3008 27.4155V279.196C55.3008 281.805 55.8146 284.388 56.813 286.799C57.8113 289.209 59.2746 291.399 61.1193 293.244C62.964 295.088 65.154 296.552 67.5642 297.55C69.9744 298.548 72.5577 299.062 75.1665 299.062H173.012C178.281 299.062 183.334 296.969 187.059 293.244C190.785 289.518 192.878 284.465 192.878 279.196V27.4155C192.878 24.8067 192.364 22.2235 191.366 19.8132C190.367 17.403 188.904 15.213 187.059 13.3683C185.215 11.5236 183.025 10.0603 180.614 9.06199C178.204 8.06364 175.621 7.5498 173.012 7.5498ZM170.877 124.353C170.873 125.716 170.329 127.023 169.365 127.987C168.401 128.951 167.094 129.494 165.731 129.498H140.86C139.497 129.494 138.19 128.951 137.226 127.987C136.262 127.023 135.719 125.716 135.715 124.353V123.066C135.719 121.703 136.262 120.396 137.226 119.432C138.19 118.468 139.497 117.925 140.86 117.921H165.731C167.094 117.925 168.401 118.468 169.365 119.432C170.329 120.396 170.873 121.703 170.877 123.066V124.353ZM173.664 101.626C173.66 102.99 173.116 104.296 172.152 105.26C171.188 106.224 169.882 106.768 168.518 106.772H79.3273C77.9638 106.768 76.6573 106.224 75.6931 105.26C74.729 104.296 74.1856 102.99 74.1816 101.626V100.34C74.1856 98.9762 74.729 97.6697 75.6931 96.7055C76.6573 95.7414 77.9638 95.198 79.3273 95.194H168.518C169.882 95.198 171.188 95.7414 172.152 96.7055C173.116 97.6697 173.66 98.9762 173.664 100.34V101.626ZM173.664 78.8995C173.66 80.263 173.116 81.5695 172.152 82.5336C171.188 83.4977 169.882 84.0412 168.518 84.0451H79.3273C77.9638 84.0412 76.6573 83.4977 75.6931 82.5336C74.729 81.5695 74.1856 80.263 74.1816 78.8995V77.6131C74.1856 76.2496 74.729 74.9431 75.6931 73.979C76.6573 73.0149 77.9638 72.4715 79.3273 72.4675H168.518C169.882 72.4715 171.188 73.0149 172.152 73.979C173.116 74.9431 173.66 76.2496 173.664 77.6131V78.8995ZM173.664 56.173C173.66 57.5364 173.116 58.8429 172.152 59.8071C171.188 60.7712 169.882 61.3146 168.518 61.3186H79.3273C77.9638 61.3146 76.6573 60.7712 75.6931 59.8071C74.729 58.8429 74.1856 57.5364 74.1816 56.173V54.8866C74.1856 53.5231 74.729 52.2166 75.6931 51.2525C76.6573 50.2883 77.9638 49.7449 79.3273 49.7409H168.518C169.882 49.7449 171.188 50.2883 172.152 51.2525C173.116 52.2166 173.66 53.5231 173.664 54.8866V56.173Z" fill="white"/>
<path d="M81.2555 104.2C82.9133 104.2 84.2571 102.856 84.2571 101.198C84.2571 99.5402 82.9133 98.1963 81.2555 98.1963C79.5978 98.1963 78.2539 99.5402 78.2539 101.198C78.2539 102.856 79.5978 104.2 81.2555 104.2Z" fill="white"/>
<path d="M91.1188 104.2C92.7766 104.2 94.1204 102.856 94.1204 101.198C94.1204 99.5402 92.7766 98.1963 91.1188 98.1963C89.4611 98.1963 88.1172 99.5402 88.1172 101.198C88.1172 102.856 89.4611 104.2 91.1188 104.2Z" fill="white"/>
<path d="M100.982 104.2C102.64 104.2 103.984 102.856 103.984 101.198C103.984 99.5402 102.64 98.1963 100.982 98.1963C99.3243 98.1963 97.9805 99.5402 97.9805 101.198C97.9805 102.856 99.3243 104.2 100.982 104.2Z" fill="white"/>
<path d="M110.845 104.2C112.503 104.2 113.847 102.856 113.847 101.198C113.847 99.5402 112.503 98.1963 110.845 98.1963C109.188 98.1963 107.844 99.5402 107.844 101.198C107.844 102.856 109.188 104.2 110.845 104.2Z" fill="white"/>
<path d="M143.006 126.925C144.663 126.925 146.007 125.581 146.007 123.923C146.007 122.266 144.663 120.922 143.006 120.922C141.348 120.922 140.004 122.266 140.004 123.923C140.004 125.581 141.348 126.925 143.006 126.925Z" fill="white"/>
<path d="M152.865 126.925C154.523 126.925 155.867 125.581 155.867 123.923C155.867 122.266 154.523 120.922 152.865 120.922C151.207 120.922 149.863 122.266 149.863 123.923C149.863 125.581 151.207 126.925 152.865 126.925Z" fill="white"/>
<path d="M162.728 126.925C164.386 126.925 165.73 125.581 165.73 123.923C165.73 122.266 164.386 120.922 162.728 120.922C161.07 120.922 159.727 122.266 159.727 123.923C159.727 125.581 161.07 126.925 162.728 126.925Z" fill="white"/>
<path d="M174.355 162.815H72.6356C70.2458 162.815 67.9539 163.765 66.2641 165.455C64.5743 167.144 63.625 169.436 63.625 171.826V221.386C63.625 223.776 64.5743 226.068 66.2641 227.757C67.9539 229.447 70.2458 230.397 72.6356 230.397H174.355C176.745 230.397 179.037 229.447 180.727 227.757C182.417 226.068 183.366 223.776 183.366 221.386V171.826C183.366 169.436 182.417 167.144 180.727 165.455C179.037 163.765 176.745 162.815 174.355 162.815ZM70.1189 168.962C70.3198 168.926 75.0828 168.115 79.0269 170.488C82.9708 172.861 84.4861 177.45 84.5485 177.644L84.708 178.138L84.1962 178.229C83.466 178.343 82.7278 178.397 81.9888 178.391C79.6445 178.436 77.3309 177.853 75.2879 176.702C71.344 174.33 69.829 169.742 69.7665 169.548L69.607 169.053L70.1189 168.962ZM92.1996 214.975H74.057C72.7338 214.975 71.4647 214.45 70.5291 213.514C69.5934 212.578 69.0678 211.309 69.0678 209.986C69.0678 208.663 69.5934 207.394 70.5291 206.458C71.4647 205.523 72.7338 204.997 74.057 204.997H92.1996C93.5228 204.997 94.7918 205.523 95.7275 206.458C96.6631 207.394 97.1888 208.663 97.1888 209.986C97.1888 211.309 96.6631 212.578 95.7275 213.514C94.7918 214.45 93.5228 214.975 92.1996 214.975ZM174.748 214.068C174.744 215.51 174.169 216.892 173.149 217.912C172.13 218.932 170.748 219.507 169.306 219.511H155.699C154.256 219.507 152.874 218.932 151.855 217.912C150.835 216.892 150.26 215.51 150.256 214.068V205.904C150.26 204.462 150.835 203.08 151.855 202.06C152.874 201.04 154.256 200.466 155.699 200.461H169.306C170.748 200.466 172.13 201.04 173.149 202.06C174.169 203.08 174.744 204.462 174.748 205.904L174.748 214.068Z" fill="#6C63FF"/>
<path d="M160.085 212.386H154.614C154.223 212.386 153.848 212.541 153.572 212.817C153.296 213.093 153.141 213.468 153.141 213.859C153.141 214.249 153.296 214.624 153.572 214.9C153.848 215.176 154.223 215.332 154.614 215.332H160.085C160.475 215.332 160.85 215.176 161.126 214.9C161.402 214.624 161.558 214.249 161.558 213.859C161.558 213.468 161.402 213.093 161.126 212.817C160.85 212.541 160.475 212.386 160.085 212.386Z" fill="#3F3D56"/>
<path d="M170.186 212.386H164.715C164.324 212.386 163.95 212.541 163.674 212.817C163.397 213.093 163.242 213.468 163.242 213.859C163.242 214.249 163.397 214.624 163.674 214.9C163.95 215.176 164.324 215.332 164.715 215.332H170.186C170.577 215.332 170.951 215.176 171.228 214.9C171.504 214.624 171.659 214.249 171.659 213.859C171.659 213.468 171.504 213.093 171.228 212.817C170.951 212.541 170.577 212.386 170.186 212.386Z" fill="#3F3D56"/>
<path d="M160.085 208.228H154.614C154.223 208.228 153.848 208.383 153.572 208.659C153.296 208.935 153.141 209.31 153.141 209.701C153.141 210.091 153.296 210.466 153.572 210.742C153.848 211.018 154.223 211.173 154.614 211.173H160.085C160.475 211.173 160.85 211.018 161.126 210.742C161.402 210.466 161.558 210.091 161.558 209.701C161.558 209.31 161.402 208.935 161.126 208.659C160.85 208.383 160.475 208.228 160.085 208.228Z" fill="#3F3D56"/>
<path d="M170.182 208.228H164.711C164.321 208.228 163.946 208.383 163.67 208.659C163.393 208.935 163.238 209.31 163.238 209.701C163.238 210.091 163.393 210.466 163.67 210.742C163.946 211.018 164.321 211.173 164.711 211.173H170.182C170.573 211.173 170.948 211.018 171.224 210.742C171.5 210.466 171.655 210.091 171.655 209.701C171.655 209.31 171.5 208.935 171.224 208.659C170.948 208.383 170.573 208.228 170.182 208.228Z" fill="#3F3D56"/>
<path d="M160.085 204.154H154.614C154.223 204.154 153.848 204.309 153.572 204.586C153.296 204.862 153.141 205.237 153.141 205.627C153.141 206.018 153.296 206.393 153.572 206.669C153.848 206.945 154.223 207.1 154.614 207.1H160.085C160.475 207.1 160.85 206.945 161.126 206.669C161.402 206.393 161.558 206.018 161.558 205.627C161.558 205.237 161.402 204.862 161.126 204.586C160.85 204.309 160.475 204.154 160.085 204.154Z" fill="#3F3D56"/>
<path d="M170.182 204.154H164.711C164.321 204.154 163.946 204.309 163.67 204.586C163.393 204.862 163.238 205.237 163.238 205.627C163.238 206.018 163.393 206.393 163.67 206.669C163.946 206.945 164.321 207.1 164.711 207.1H170.182C170.573 207.1 170.948 206.945 171.224 206.669C171.5 206.393 171.655 206.018 171.655 205.627C171.655 205.237 171.5 204.862 171.224 204.586C170.948 204.309 170.573 204.154 170.182 204.154Z" fill="#3F3D56"/>
<path d="M244.807 181.484H231.539V194.752H244.807V181.484Z" fill="#E6E6E6"/>
<path d="M215.902 189.54H237.699V211.337H215.902V189.54ZM236.752 190.488H216.85V210.389H236.752V190.488Z" fill="#3F3D56"/>
<path d="M14.0412 72.0254H0.773438V85.2932H14.0412V72.0254Z" fill="#E6E6E6"/>
<path d="M29.6799 77.2375H7.88281V55.4404H29.6799V77.2375ZM8.83051 76.2898H28.7322V56.3881H8.83051V76.2898Z" fill="#3F3D56"/>
<path d="M310.233 313.412H304.424L301.66 291.005H310.234L310.233 313.412Z" fill="#FFB8B8"/>
<path d="M300.277 311.752H311.48V318.806H293.223C293.223 316.935 293.966 315.141 295.289 313.818C296.612 312.495 298.406 311.752 300.277 311.752Z" fill="#2F2E41"/>
<path d="M339.139 313.412H333.33L330.566 291.005H339.14L339.139 313.412Z" fill="#FFB8B8"/>
<path d="M329.179 311.752H340.383V318.806H322.125C322.125 316.935 322.868 315.141 324.191 313.818C325.514 312.495 327.308 311.752 329.179 311.752Z" fill="#2F2E41"/>
<path d="M281.093 233.278C280.675 232.662 280.398 231.962 280.279 231.227C280.161 230.492 280.206 229.741 280.409 229.025C280.613 228.309 280.971 227.647 281.459 227.085C281.946 226.522 282.551 226.074 283.231 225.77L302.979 171.341L312.696 176.644L290.148 228.659C290.582 229.834 290.569 231.128 290.113 232.295C289.657 233.462 288.788 234.421 287.672 234.99C286.556 235.559 285.27 235.699 284.057 235.384C282.845 235.068 281.79 234.319 281.093 233.278Z" fill="#FFB8B8"/>
<path d="M336.172 243.505C335.527 243.134 334.97 242.627 334.542 242.019C334.113 241.41 333.824 240.715 333.693 239.983C333.562 239.25 333.594 238.498 333.785 237.778C333.977 237.059 334.324 236.391 334.801 235.82L328.684 178.243L339.742 178.748L342.285 235.383C343.19 236.249 343.746 237.417 343.848 238.666C343.949 239.915 343.589 241.158 342.836 242.159C342.082 243.16 340.988 243.85 339.76 244.098C338.532 244.346 337.255 244.135 336.172 243.505Z" fill="#FFB8B8"/>
<path d="M318.529 161.26C324.956 161.26 330.167 156.049 330.167 149.622C330.167 143.194 324.956 137.983 318.529 137.983C312.101 137.983 306.891 143.194 306.891 149.622C306.891 156.049 312.101 161.26 318.529 161.26Z" fill="#FFB8B8"/>
<path d="M336.099 230.411H301.012L301.054 230.138C301.117 229.729 307.307 189.178 302.742 175.912C302.284 174.608 302.324 173.181 302.855 171.906C303.386 170.63 304.37 169.595 305.618 169.002C312.143 165.929 324.67 162.145 335.243 171.328C336.799 172.702 338.014 174.418 338.792 176.342C339.57 178.266 339.889 180.345 339.725 182.414L336.099 230.411Z" fill="#CCCCCC"/>
<path d="M307.75 195.172L291.953 191.967L299.358 174.42C299.801 172.721 300.9 171.266 302.414 170.376C303.928 169.486 305.733 169.232 307.434 169.672C309.134 170.111 310.591 171.206 311.485 172.718C312.379 174.23 312.637 176.035 312.202 177.736L307.75 195.172Z" fill="#CCCCCC"/>
<path d="M327.982 201.121L327.032 179.352C326.312 175.259 328.655 171.391 332.258 170.758C335.862 170.128 339.381 172.967 340.104 177.089L343.673 197.43L327.982 201.121Z" fill="#CCCCCC"/>
<path d="M334.931 227.804C340.577 249.305 341.193 276.643 339.67 306.463L332.088 305.515L318.346 248.653L310.765 306.463L302.235 305.989C299.687 274.701 297.206 247.84 301.288 230.173L334.931 227.804Z" fill="#2F2E41"/>
<path d="M326.2 158.615C324.029 160.928 319.997 159.687 319.714 156.527C319.692 156.282 319.693 156.035 319.719 155.79C319.865 154.39 320.673 153.12 320.479 151.642C320.436 151.274 320.299 150.924 320.081 150.624C318.351 148.307 314.29 151.66 312.657 149.563C311.656 148.277 312.833 146.252 312.064 144.814C311.05 142.917 308.047 143.853 306.163 142.814C304.067 141.658 304.193 138.443 305.572 136.487C307.255 134.102 310.205 132.829 313.118 132.646C316.031 132.462 318.924 133.25 321.643 134.31C324.733 135.514 327.797 137.178 329.699 139.895C332.011 143.199 332.234 147.642 331.077 151.505C330.374 153.856 327.973 156.727 326.2 158.615Z" fill="#2F2E41"/>
<path d="M405.972 319.375H225.435C225.309 319.375 225.189 319.326 225.1 319.237C225.011 319.148 224.961 319.027 224.961 318.902C224.961 318.776 225.011 318.655 225.1 318.567C225.189 318.478 225.309 318.428 225.435 318.428H405.972C406.097 318.428 406.218 318.478 406.307 318.567C406.396 318.655 406.446 318.776 406.446 318.902C406.446 319.027 406.396 319.148 406.307 319.237C406.218 319.326 406.097 319.375 405.972 319.375Z" fill="#3F3D56"/>
</g>
<defs>
<clipPath id="clip0_717_2007">
<rect width="405.673" height="319.375" fill="white" transform="translate(0.773438)"/>
</clipPath>
</defs>
</svg>
