<svg width="554" height="400" viewBox="0 0 554 400" fill="none" xmlns="http://www.w3.org/2000/svg">
<g clip-path="url(#clip0_717_2404)">
<circle cx="69.5" cy="225.5" r="54.5" fill="#E7EFFF"/>
<path d="M552.8 396.834H0.8C0.587827 396.834 0.384343 396.75 0.234314 396.6C0.0842849 396.45 0 396.247 0 396.034C0 395.822 0.0842849 395.619 0.234314 395.469C0.384343 395.319 0.587827 395.234 0.8 395.234H552.8C553.012 395.234 553.216 395.319 553.366 395.469C553.516 395.619 553.6 395.822 553.6 396.034C553.6 396.247 553.516 396.45 553.366 396.6C553.216 396.75 553.012 396.834 552.8 396.834Z" fill="#4685FF"/>
<path d="M498.164 257.313H173.364C171.985 257.313 170.662 257.861 169.687 258.837C168.712 259.812 168.164 261.134 168.164 262.513C168.164 263.893 168.712 265.215 169.687 266.19C170.662 267.166 171.985 267.713 173.364 267.713H182.564V392.113C182.564 393.493 183.112 394.815 184.087 395.79C185.062 396.766 186.385 397.313 187.764 397.313C189.143 397.313 190.466 396.766 191.441 395.79C192.416 394.815 192.964 393.493 192.964 392.113L193.043 267.713H477.764V392.113C477.764 393.493 478.312 394.815 479.287 395.79C480.262 396.766 481.585 397.313 482.964 397.313C484.343 397.313 485.666 396.766 486.641 395.79C487.616 394.815 488.164 393.493 488.164 392.113V270.455L489.677 267.713H498.164C499.543 267.713 500.866 267.166 501.841 266.19C502.816 265.215 503.364 263.893 503.364 262.513C503.364 261.134 502.816 259.812 501.841 258.837C500.866 257.861 499.543 257.313 498.164 257.313Z" fill="#4685FF"/>
<path d="M353.434 260.034H255.049C253.144 260.032 251.317 259.274 249.97 257.927C248.623 256.58 247.865 254.754 247.863 252.849V198.682C247.865 196.777 248.623 194.95 249.97 193.603C251.317 192.256 253.144 191.498 255.049 191.496H353.434C355.339 191.498 357.166 192.256 358.513 193.603C359.86 194.95 360.617 196.777 360.62 198.682V252.849C360.617 254.754 359.86 256.58 358.513 257.927C357.166 259.274 355.339 260.032 353.434 260.034Z" fill="#3F3D56"/>
<path d="M353.435 197.026H255.05C254.611 197.027 254.191 197.202 253.88 197.512C253.57 197.823 253.395 198.243 253.395 198.682V252.85C253.395 253.289 253.57 253.71 253.881 254.02C254.191 254.331 254.611 254.505 255.05 254.506H353.435C353.874 254.505 354.294 254.331 354.605 254.02C354.915 253.71 355.09 253.289 355.091 252.85V198.682C355.09 198.243 354.915 197.823 354.605 197.512C354.294 197.202 353.874 197.027 353.435 197.026Z" fill="white"/>
<path d="M312.633 235.377C312.633 235.377 300.855 232.663 294.377 237.639C287.9 242.615 302.622 253.923 302.622 253.923L312.633 235.377Z" fill="#2F2E41"/>
<path d="M304.821 230.249C310.956 230.249 315.93 225.275 315.93 219.139C315.93 213.003 310.956 208.029 304.821 208.029C298.685 208.029 293.711 213.003 293.711 219.139C293.711 225.275 298.685 230.249 304.821 230.249Z" fill="#A0616A"/>
<path d="M296.228 203.544C296.969 202.286 298.043 201.258 299.331 200.572C300.62 199.887 302.073 199.571 303.529 199.659C305.053 199.85 306.54 200.266 307.942 200.894L315.204 203.727C317.084 204.46 319.142 205.358 319.958 207.203C320.714 208.916 320.15 210.893 319.578 212.676L316.861 221.151C316.56 219.233 316.043 217.355 315.321 215.553C314.587 213.738 313.26 212.226 311.558 211.262C309.671 210.294 307.448 210.314 305.33 210.416C302.33 210.56 299.069 210.942 296.938 213.057C295.807 214.259 295.04 215.756 294.727 217.377C294.418 218.988 294.263 220.625 294.263 222.266C293.033 220.152 291.997 217.931 291.167 215.63C290.485 213.916 290.096 212.1 290.017 210.258C289.946 208.399 290.563 206.58 291.749 205.148C292.351 204.448 293.137 203.931 294.018 203.654C294.898 203.376 295.839 203.351 296.733 203.579L296.228 203.544Z" fill="#2F2E41"/>
<path d="M331.347 245.011C331.243 244.635 331.03 244.299 330.735 244.045C330.441 243.79 330.077 243.628 329.691 243.579C329.665 243.561 329.639 243.545 329.611 243.531L313.026 234.236C312.552 233.971 311.995 233.898 311.469 234.033C310.943 234.169 310.49 234.502 310.203 234.963L305.667 242.307L298.835 235.475L298.727 235.366C298.376 235.015 297.913 234.8 297.419 234.756C296.925 234.713 296.432 234.845 296.025 235.13L282.395 244.675C282.371 244.675 282.347 244.683 282.323 244.683C281.671 244.791 281.075 245.119 280.634 245.612C280.193 246.106 279.934 246.734 279.899 247.395L279.547 254.507H333.979L331.347 245.011Z" fill="#6C63FF"/>
<path d="M361.728 253.401H351.226C351.226 253.108 351.109 252.827 350.902 252.62C350.695 252.412 350.414 252.296 350.12 252.296H346.804C346.511 252.296 346.23 252.412 346.022 252.62C345.815 252.827 345.699 253.108 345.699 253.401H342.382C342.382 253.108 342.266 252.827 342.058 252.62C341.851 252.412 341.57 252.296 341.277 252.296H337.96C337.667 252.296 337.386 252.412 337.179 252.62C336.971 252.827 336.855 253.108 336.855 253.401H333.539C333.539 253.108 333.422 252.827 333.215 252.62C333.008 252.412 332.726 252.296 332.433 252.296H329.117C328.824 252.296 328.542 252.412 328.335 252.62C328.128 252.827 328.011 253.108 328.011 253.401H324.695C324.695 253.108 324.579 252.827 324.371 252.62C324.164 252.412 323.883 252.296 323.59 252.296H320.273C319.98 252.296 319.699 252.412 319.492 252.62C319.284 252.827 319.168 253.108 319.168 253.401H315.851C315.851 253.108 315.735 252.827 315.528 252.62C315.32 252.412 315.039 252.296 314.746 252.296H311.43C311.136 252.296 310.855 252.412 310.648 252.62C310.441 252.827 310.324 253.108 310.324 253.401H307.008C307.008 253.108 306.891 252.827 306.684 252.62C306.477 252.412 306.195 252.296 305.902 252.296H302.586C302.293 252.296 302.012 252.412 301.804 252.62C301.597 252.827 301.48 253.108 301.48 253.401H298.164C298.164 253.108 298.048 252.827 297.84 252.62C297.633 252.412 297.352 252.296 297.059 252.296H293.742C293.449 252.296 293.168 252.412 292.961 252.62C292.753 252.827 292.637 253.108 292.637 253.401H289.32C289.32 253.108 289.204 252.827 288.997 252.62C288.789 252.412 288.508 252.296 288.215 252.296H284.899C284.605 252.296 284.324 252.412 284.117 252.62C283.91 252.827 283.793 253.108 283.793 253.401H280.477C280.477 253.108 280.36 252.827 280.153 252.62C279.946 252.412 279.665 252.296 279.371 252.296H276.055C275.762 252.296 275.481 252.412 275.273 252.62C275.066 252.827 274.95 253.108 274.95 253.401H271.633C271.633 253.108 271.517 252.827 271.309 252.62C271.102 252.412 270.821 252.296 270.528 252.296H267.211C266.918 252.296 266.637 252.412 266.43 252.62C266.222 252.827 266.106 253.108 266.106 253.401H262.79C262.79 253.108 262.673 252.827 262.466 252.62C262.258 252.412 261.977 252.296 261.684 252.296H258.368C258.075 252.296 257.793 252.412 257.586 252.62C257.379 252.827 257.262 253.108 257.262 253.401H246.76C245.882 253.403 245.04 253.753 244.419 254.375C243.798 254.996 243.449 255.839 243.449 256.718C243.449 257.596 243.798 258.439 244.419 259.061C245.04 259.683 245.882 260.033 246.76 260.034H361.728C362.607 260.034 363.451 259.685 364.073 259.063C364.695 258.441 365.044 257.597 365.044 256.718C365.044 255.838 364.695 254.995 364.073 254.373C363.451 253.751 362.607 253.401 361.728 253.401Z" fill="#3F3D56"/>
<path d="M229.664 234.142V256.163H174.494C173.016 256.214 171.542 255.968 170.162 255.438C168.781 254.907 167.521 254.105 166.457 253.077C165.393 252.05 164.547 250.819 163.969 249.457C163.392 248.096 163.094 246.632 163.094 245.153C163.094 243.674 163.392 242.21 163.969 240.848C164.547 239.487 165.393 238.256 166.457 237.228C167.521 236.201 168.781 235.398 170.162 234.868C171.542 234.338 173.016 234.091 174.494 234.142H229.664Z" fill="#82ACFF"/>
<path d="M231.017 255.994C231.017 256.219 230.928 256.434 230.769 256.593C230.61 256.752 230.395 256.841 230.17 256.841H173.509C170.432 256.841 167.481 255.619 165.305 253.443C163.129 251.267 161.906 248.315 161.906 245.238C161.906 242.161 163.129 239.209 165.305 237.033C167.481 234.857 170.432 233.635 173.509 233.635H230.17C230.395 233.635 230.61 233.724 230.769 233.883C230.928 234.042 231.017 234.257 231.017 234.482C231.017 234.706 230.928 234.922 230.769 235.081C230.61 235.239 230.395 235.329 230.17 235.329H173.509C170.883 235.331 168.365 236.376 166.508 238.234C164.652 240.092 163.609 242.611 163.609 245.238C163.609 247.864 164.652 250.384 166.508 252.242C168.365 254.1 170.883 255.145 173.509 255.147H230.17C230.395 255.147 230.61 255.236 230.769 255.395C230.928 255.554 231.017 255.769 231.017 255.994Z" fill="#6C63FF"/>
<path d="M229.664 239.225H170.378C170.355 239.225 170.333 239.22 170.312 239.212C170.292 239.204 170.273 239.191 170.257 239.175C170.241 239.16 170.229 239.141 170.22 239.12C170.211 239.1 170.207 239.077 170.207 239.055C170.207 239.033 170.211 239.011 170.22 238.99C170.229 238.969 170.241 238.951 170.257 238.935C170.273 238.919 170.292 238.907 170.312 238.898C170.333 238.89 170.355 238.886 170.378 238.886H229.664C229.708 238.886 229.751 238.904 229.783 238.936C229.814 238.968 229.832 239.01 229.832 239.055C229.832 239.1 229.814 239.143 229.783 239.175C229.751 239.206 229.708 239.224 229.664 239.225Z" fill="#4685FF"/>
<path d="M229.664 243.29H170.378C170.355 243.29 170.333 243.286 170.312 243.277C170.292 243.269 170.273 243.256 170.257 243.241C170.241 243.225 170.229 243.206 170.22 243.186C170.211 243.165 170.207 243.143 170.207 243.121C170.207 243.098 170.211 243.076 170.22 243.055C170.229 243.035 170.241 243.016 170.257 243C170.273 242.985 170.292 242.972 170.312 242.964C170.333 242.955 170.355 242.951 170.378 242.951H229.664C229.708 242.951 229.751 242.969 229.783 243.001C229.814 243.033 229.832 243.076 229.832 243.121C229.832 243.165 229.814 243.208 229.783 243.24C229.751 243.272 229.708 243.29 229.664 243.29Z" fill="#4685FF"/>
<path d="M229.664 247.355H170.378C170.355 247.356 170.333 247.351 170.312 247.343C170.292 247.334 170.273 247.322 170.257 247.306C170.241 247.29 170.229 247.272 170.22 247.251C170.211 247.23 170.207 247.208 170.207 247.186C170.207 247.164 170.211 247.142 170.22 247.121C170.229 247.1 170.241 247.082 170.257 247.066C170.273 247.05 170.292 247.038 170.312 247.029C170.333 247.021 170.355 247.016 170.378 247.017H229.664C229.708 247.017 229.751 247.035 229.783 247.067C229.814 247.098 229.832 247.141 229.832 247.186C229.832 247.231 229.814 247.274 229.783 247.305C229.751 247.337 229.708 247.355 229.664 247.355Z" fill="#4685FF"/>
<path d="M229.664 251.421H170.378C170.355 251.421 170.333 251.417 170.312 251.408C170.292 251.4 170.273 251.387 170.257 251.372C170.241 251.356 170.229 251.337 170.22 251.317C170.211 251.296 170.207 251.274 170.207 251.251C170.207 251.229 170.211 251.207 170.22 251.186C170.229 251.166 170.241 251.147 170.257 251.131C170.273 251.116 170.292 251.103 170.312 251.095C170.333 251.086 170.355 251.082 170.378 251.082H229.664C229.708 251.082 229.751 251.1 229.783 251.132C229.814 251.164 229.832 251.207 229.832 251.251C229.832 251.296 229.814 251.339 229.783 251.371C229.751 251.403 229.708 251.42 229.664 251.421Z" fill="#4685FF"/>
<path d="M219.261 210.942V232.963H164.092C162.613 233.014 161.14 232.768 159.759 232.237C158.379 231.707 157.119 230.904 156.055 229.877C154.991 228.849 154.145 227.618 153.567 226.257C152.989 224.895 152.691 223.432 152.691 221.953C152.691 220.473 152.989 219.01 153.567 217.648C154.145 216.287 154.991 215.056 156.055 214.028C157.119 213.001 158.379 212.198 159.759 211.668C161.14 211.137 162.613 210.891 164.092 210.942H219.261Z" fill="#82ACFF"/>
<path d="M220.619 232.794C220.618 233.019 220.529 233.234 220.37 233.393C220.212 233.552 219.996 233.641 219.772 233.641H163.111C161.587 233.641 160.078 233.341 158.671 232.758C157.263 232.175 155.984 231.32 154.906 230.242C153.829 229.165 152.974 227.886 152.391 226.478C151.808 225.07 151.508 223.561 151.508 222.038C151.508 220.514 151.808 219.005 152.391 217.597C152.974 216.19 153.829 214.911 154.906 213.833C155.984 212.756 157.263 211.901 158.671 211.318C160.078 210.735 161.587 210.435 163.111 210.435H219.772C219.996 210.435 220.212 210.524 220.37 210.683C220.529 210.841 220.619 211.057 220.619 211.282C220.619 211.506 220.529 211.722 220.37 211.88C220.212 212.039 219.996 212.128 219.772 212.128H163.111C160.484 212.131 157.966 213.176 156.11 215.034C154.253 216.892 153.211 219.411 153.211 222.038C153.211 224.664 154.253 227.183 156.11 229.041C157.966 230.9 160.484 231.945 163.111 231.947H219.772C219.996 231.947 220.212 232.036 220.37 232.195C220.529 232.354 220.618 232.569 220.619 232.794Z" fill="#3F3D56"/>
<path d="M219.261 216.024H159.975C159.953 216.024 159.931 216.02 159.91 216.012C159.889 216.003 159.871 215.991 159.855 215.975C159.839 215.959 159.826 215.941 159.818 215.92C159.809 215.899 159.805 215.877 159.805 215.855C159.805 215.833 159.809 215.81 159.818 215.79C159.826 215.769 159.839 215.751 159.855 215.735C159.871 215.719 159.889 215.707 159.91 215.698C159.931 215.69 159.953 215.685 159.975 215.686H219.261C219.306 215.686 219.349 215.704 219.38 215.736C219.412 215.767 219.43 215.81 219.43 215.855C219.43 215.9 219.412 215.943 219.38 215.974C219.349 216.006 219.306 216.024 219.261 216.024Z" fill="#4685FF"/>
<path d="M219.261 220.09H159.975C159.953 220.09 159.931 220.086 159.91 220.077C159.889 220.069 159.871 220.056 159.855 220.041C159.839 220.025 159.826 220.006 159.818 219.985C159.809 219.965 159.805 219.943 159.805 219.92C159.805 219.898 159.809 219.876 159.818 219.855C159.826 219.835 159.839 219.816 159.855 219.8C159.871 219.784 159.889 219.772 159.91 219.764C159.931 219.755 159.953 219.751 159.975 219.751H219.261C219.306 219.751 219.349 219.769 219.38 219.801C219.412 219.833 219.43 219.876 219.43 219.92C219.43 219.965 219.412 220.008 219.38 220.04C219.349 220.071 219.306 220.089 219.261 220.09Z" fill="#4685FF"/>
<path d="M219.261 224.155H159.975C159.953 224.155 159.931 224.151 159.91 224.143C159.889 224.134 159.871 224.122 159.855 224.106C159.839 224.09 159.826 224.072 159.818 224.051C159.809 224.03 159.805 224.008 159.805 223.986C159.805 223.963 159.809 223.941 159.818 223.921C159.826 223.9 159.839 223.881 159.855 223.866C159.871 223.85 159.889 223.837 159.91 223.829C159.931 223.821 159.953 223.816 159.975 223.816H219.261C219.306 223.817 219.349 223.835 219.38 223.866C219.412 223.898 219.43 223.941 219.43 223.986C219.43 224.031 219.412 224.073 219.38 224.105C219.349 224.137 219.306 224.155 219.261 224.155Z" fill="#4685FF"/>
<path d="M219.261 228.221H159.975C159.953 228.221 159.931 228.216 159.91 228.208C159.889 228.2 159.871 228.187 159.855 228.171C159.839 228.156 159.826 228.137 159.818 228.116C159.809 228.096 159.805 228.074 159.805 228.051C159.805 228.029 159.809 228.007 159.818 227.986C159.826 227.966 159.839 227.947 159.855 227.931C159.871 227.915 159.889 227.903 159.91 227.894C159.931 227.886 159.953 227.882 159.975 227.882H219.261C219.306 227.882 219.349 227.9 219.38 227.932C219.412 227.964 219.43 228.007 219.43 228.051C219.43 228.096 219.412 228.139 219.38 228.171C219.349 228.202 219.306 228.22 219.261 228.221Z" fill="#4685FF"/>
<path d="M283.442 334.434V315.234C283.442 314.385 283.105 313.572 282.505 312.971C281.905 312.371 281.091 312.034 280.242 312.034H207.442C206.593 312.034 205.78 312.371 205.179 312.971C204.579 313.572 204.242 314.385 204.242 315.234V334.434H283.442Z" fill="#4685FF"/>
<path d="M283.442 341.635H204.242V366.435H283.442V341.635Z" fill="#4685FF"/>
<path d="M204.242 373.635V392.835C204.242 393.683 204.579 394.497 205.179 395.097C205.78 395.698 206.593 396.035 207.442 396.035H280.242C281.091 396.035 281.905 395.698 282.505 395.097C283.105 394.497 283.442 393.683 283.442 392.835V373.635H204.242Z" fill="#4685FF"/>
<path d="M243.443 326.435C244.768 326.435 245.843 325.36 245.843 324.035C245.843 322.709 244.768 321.635 243.443 321.635C242.117 321.635 241.043 322.709 241.043 324.035C241.043 325.36 242.117 326.435 243.443 326.435Z" fill="white"/>
<path d="M243.443 358.435C244.768 358.435 245.843 357.36 245.843 356.035C245.843 354.709 244.768 353.635 243.443 353.635C242.117 353.635 241.043 354.709 241.043 356.035C241.043 357.36 242.117 358.435 243.443 358.435Z" fill="white"/>
<path d="M243.572 389.757C244.897 389.757 245.972 388.683 245.972 387.357C245.972 386.032 244.897 384.957 243.572 384.957C242.246 384.957 241.172 386.032 241.172 387.357C241.172 388.683 242.246 389.757 243.572 389.757Z" fill="white"/>
<path d="M274.464 290.142V312.163H219.295C217.817 312.214 216.343 311.968 214.962 311.438C213.582 310.907 212.322 310.105 211.258 309.077C210.194 308.05 209.348 306.819 208.77 305.457C208.192 304.096 207.895 302.632 207.895 301.153C207.895 299.674 208.192 298.21 208.77 296.848C209.348 295.487 210.194 294.256 211.258 293.228C212.322 292.201 213.582 291.398 214.962 290.868C216.343 290.338 217.817 290.091 219.295 290.142H274.464Z" fill="#82ACFF"/>
<path d="M275.82 311.994C275.819 312.219 275.73 312.434 275.571 312.593C275.413 312.752 275.197 312.841 274.973 312.841H218.312C216.787 312.842 215.278 312.543 213.869 311.961C212.46 311.378 211.18 310.524 210.101 309.446C209.023 308.368 208.167 307.089 207.583 305.68C207 304.272 206.699 302.762 206.699 301.238C206.699 299.713 207 298.204 207.583 296.795C208.167 295.387 209.023 294.107 210.101 293.03C211.18 291.952 212.46 291.098 213.869 290.515C215.278 289.933 216.787 289.634 218.312 289.635H274.973C275.197 289.635 275.413 289.724 275.571 289.883C275.73 290.042 275.82 290.257 275.82 290.482C275.82 290.706 275.73 290.922 275.571 291.081C275.413 291.239 275.197 291.329 274.973 291.329H218.312C215.685 291.331 213.167 292.376 211.311 294.234C209.454 296.092 208.412 298.611 208.412 301.238C208.412 303.864 209.454 306.384 211.311 308.242C213.167 310.1 215.685 311.145 218.312 311.147H274.973C275.197 311.147 275.413 311.237 275.571 311.395C275.73 311.554 275.819 311.77 275.82 311.994Z" fill="#3F3D56"/>
<path d="M274.465 295.225H215.178C215.156 295.225 215.134 295.22 215.113 295.212C215.092 295.204 215.074 295.191 215.058 295.175C215.042 295.16 215.029 295.141 215.021 295.12C215.012 295.1 215.008 295.077 215.008 295.055C215.008 295.033 215.012 295.011 215.021 294.99C215.029 294.969 215.042 294.951 215.058 294.935C215.074 294.919 215.092 294.907 215.113 294.898C215.134 294.89 215.156 294.886 215.178 294.886H274.465C274.509 294.886 274.552 294.904 274.584 294.936C274.615 294.968 274.633 295.01 274.633 295.055C274.633 295.1 274.615 295.143 274.584 295.175C274.552 295.206 274.509 295.224 274.465 295.225Z" fill="#4685FF"/>
<path d="M274.465 299.29H215.178C215.156 299.29 215.134 299.286 215.113 299.277C215.092 299.269 215.074 299.256 215.058 299.241C215.042 299.225 215.029 299.206 215.021 299.186C215.012 299.165 215.008 299.143 215.008 299.121C215.008 299.098 215.012 299.076 215.021 299.055C215.029 299.035 215.042 299.016 215.058 299C215.074 298.985 215.092 298.972 215.113 298.964C215.134 298.955 215.156 298.951 215.178 298.951H274.465C274.509 298.951 274.552 298.969 274.584 299.001C274.615 299.033 274.633 299.076 274.633 299.121C274.633 299.165 274.615 299.208 274.584 299.24C274.552 299.272 274.509 299.29 274.465 299.29Z" fill="#4685FF"/>
<path d="M274.465 303.355H215.178C215.156 303.356 215.134 303.351 215.113 303.343C215.092 303.334 215.074 303.322 215.058 303.306C215.042 303.29 215.029 303.272 215.021 303.251C215.012 303.23 215.008 303.208 215.008 303.186C215.008 303.164 215.012 303.142 215.021 303.121C215.029 303.1 215.042 303.082 215.058 303.066C215.074 303.05 215.092 303.038 215.113 303.029C215.134 303.021 215.156 303.016 215.178 303.017H274.465C274.509 303.017 274.552 303.035 274.584 303.067C274.615 303.098 274.633 303.141 274.633 303.186C274.633 303.231 274.615 303.274 274.584 303.305C274.552 303.337 274.509 303.355 274.465 303.355Z" fill="#4685FF"/>
<path d="M274.465 307.421H215.178C215.156 307.421 215.134 307.417 215.113 307.408C215.092 307.4 215.074 307.387 215.058 307.372C215.042 307.356 215.029 307.337 215.021 307.317C215.012 307.296 215.008 307.274 215.008 307.251C215.008 307.229 215.012 307.207 215.021 307.186C215.029 307.166 215.042 307.147 215.058 307.131C215.074 307.116 215.092 307.103 215.113 307.095C215.134 307.086 215.156 307.082 215.178 307.082H274.465C274.509 307.082 274.552 307.1 274.584 307.132C274.615 307.164 274.633 307.207 274.633 307.251C274.633 307.296 274.615 307.339 274.584 307.371C274.552 307.403 274.509 307.42 274.465 307.421Z" fill="#4685FF"/>
<path d="M200.09 146.417V6.01715C200.092 4.42186 200.726 2.89243 201.854 1.76439C202.982 0.636352 204.512 0.00181459 206.107 0H317.09C318.685 0.00182516 320.215 0.636366 321.343 1.7644C322.471 2.89244 323.105 4.42187 323.107 6.01715V146.417C323.105 148.012 322.471 149.542 321.343 150.67C320.215 151.798 318.685 152.432 317.09 152.434H206.107C204.512 152.432 202.982 151.798 201.854 150.67C200.726 149.542 200.092 148.012 200.09 146.417ZM206.107 1.33715C204.866 1.33854 203.677 1.83205 202.799 2.70942C201.922 3.58679 201.428 4.77636 201.427 6.01715V146.417C201.428 147.658 201.922 148.848 202.799 149.725C203.677 150.602 204.866 151.096 206.107 151.097H317.09C318.331 151.096 319.52 150.602 320.398 149.725C321.275 148.848 321.768 147.658 321.77 146.417V6.01715C321.768 4.77636 321.275 3.58679 320.398 2.70942C319.52 1.83205 318.331 1.33854 317.09 1.33715H206.107Z" fill="#275FCA"/>
<path d="M267.82 64.4778V35.6492C267.821 34.8516 268.138 34.0868 268.702 33.5228C269.266 32.9588 270.031 32.6415 270.829 32.6406H295.258C296.056 32.6415 296.821 32.9588 297.385 33.5228C297.949 34.0868 298.266 34.8516 298.267 35.6492V64.4778C298.266 65.2754 297.949 66.0401 297.385 66.6042C296.821 67.1682 296.056 67.4854 295.258 67.4863H270.829C270.031 67.4854 269.266 67.1682 268.702 66.6042C268.138 66.0401 267.821 65.2754 267.82 64.4778Z" fill="#6C63FF"/>
<path d="M220.352 77.8498V49.0213C220.352 48.2236 220.67 47.4589 221.234 46.8948C221.798 46.3308 222.563 46.0136 223.36 46.0127H247.79C248.587 46.0136 249.352 46.3308 249.916 46.8948C250.48 47.4589 250.797 48.2236 250.798 49.0213V77.8498C250.797 78.6475 250.48 79.4122 249.916 79.9762C249.352 80.5402 248.587 80.8575 247.79 80.8584H223.36C222.562 80.8575 221.798 80.5402 221.234 79.9762C220.67 79.4122 220.352 78.6474 220.352 77.8498Z" fill="#4685FF"/>
<path d="M258.461 118.632V89.8035C258.462 89.0058 258.779 88.2411 259.343 87.6771C259.907 87.1131 260.672 86.7958 261.469 86.7949H285.899C286.697 86.7958 287.461 87.1131 288.025 87.6771C288.59 88.2411 288.907 89.0058 288.908 89.8035V118.632C288.907 119.43 288.59 120.194 288.025 120.758C287.461 121.322 286.697 121.64 285.899 121.641H261.469C260.672 121.64 259.907 121.322 259.343 120.758C258.779 120.194 258.462 119.43 258.461 118.632Z" fill="#FDBA13"/>
<path d="M404.45 250.435H379.314C379.075 250.435 378.84 250.489 378.626 250.595L372.282 253.771C372.073 253.86 371.895 254.008 371.77 254.197C371.645 254.386 371.578 254.608 371.578 254.835C371.578 255.062 371.645 255.284 371.77 255.473C371.895 255.662 372.073 255.81 372.282 255.899L378.626 259.075C378.84 259.18 379.075 259.235 379.314 259.235H404.45C404.796 259.255 405.137 259.138 405.397 258.909C405.658 258.679 405.818 258.357 405.842 258.011V251.659C405.818 251.313 405.658 250.99 405.397 250.761C405.137 250.532 404.796 250.415 404.45 250.435Z" fill="#3F3D56"/>
<path d="M405.841 251.658V258.01C405.817 258.356 405.657 258.678 405.397 258.908C405.136 259.137 404.796 259.254 404.449 259.234H399.441V250.434H404.449C404.796 250.414 405.136 250.531 405.397 250.76C405.657 250.989 405.817 251.312 405.841 251.658Z" fill="#6C63FF"/>
<path d="M404.263 202.914C405.401 202.422 406.631 202.177 407.871 202.194C409.111 202.211 410.333 202.49 411.458 203.012C412.583 203.534 413.584 204.288 414.397 205.225C415.21 206.161 415.816 207.259 416.175 208.445C416.287 208.822 416.373 209.205 416.431 209.593L451.582 227.024L459.717 221.633L469.838 233.285L457.417 243.373C455.924 244.577 454.082 245.267 452.165 245.341C450.248 245.415 448.358 244.869 446.776 243.784L411.113 219.121C410.847 219.234 410.576 219.332 410.301 219.417C409.114 219.776 407.864 219.88 406.634 219.723C405.404 219.565 404.221 219.15 403.163 218.503C402.105 217.856 401.195 216.993 400.494 215.971C399.792 214.948 399.315 213.789 399.093 212.569C399.027 212.214 398.983 211.857 398.963 211.497C398.864 209.696 399.319 207.908 400.266 206.374C401.214 204.839 402.609 203.632 404.263 202.914Z" fill="#FFB8B8"/>
<path d="M477.473 310.233H439.065C439.065 311.337 399.481 312.233 399.481 312.233C398.86 312.701 398.293 313.238 397.793 313.833C396.289 315.627 395.468 317.893 395.473 320.233V321.833C395.474 324.485 396.528 327.028 398.403 328.903C400.278 330.779 402.821 331.832 405.473 331.833H477.473C480.124 331.831 482.666 330.777 484.541 328.902C486.416 327.027 487.47 324.485 487.473 321.833V320.233C487.469 317.582 486.414 315.041 484.54 313.166C482.665 311.292 480.124 310.237 477.473 310.233Z" fill="#3F3D56"/>
<path d="M435.694 398.636H446.094V331.436H435.694V398.636Z" fill="#3F3D56"/>
<path d="M406.094 398.271C406.094 399.395 421.853 398.706 441.294 398.706C460.734 398.706 476.494 399.395 476.494 398.271C476.494 397.147 460.734 388.236 441.294 388.236C421.853 388.236 406.094 397.147 406.094 398.271Z" fill="#3F3D56"/>
<path d="M415.481 390.394L405.674 390.394L401.008 364.956L415.483 364.957L415.481 390.394Z" fill="#FFB8B8"/>
<path d="M417.984 399.902L386.359 399.9V399.5C386.359 397.884 386.678 396.283 387.296 394.79C387.915 393.296 388.822 391.94 389.965 390.797C391.108 389.654 392.465 388.747 393.958 388.128C395.451 387.51 397.052 387.191 398.669 387.191H398.669L417.984 387.192L417.984 399.902Z" fill="#2F2E41"/>
<path d="M400.814 374.62L381.261 330.774C379.628 327.078 379.448 322.904 380.755 319.081C382.063 315.258 384.762 312.068 388.316 310.147L430.726 287.404L450.079 285.758L467.931 284.136L468.06 284.354C468.225 284.632 472.063 291.262 469.468 298.531C467.5 304.045 462.381 308.352 454.253 311.333C435.282 318.289 413.366 324.234 404.824 326.467C404.447 326.564 404.094 326.739 403.789 326.982C403.484 327.224 403.234 327.529 403.055 327.875C402.876 328.217 402.769 328.593 402.742 328.978C402.715 329.363 402.768 329.75 402.898 330.114L421.063 370.926C421.253 371.443 421.321 371.997 421.263 372.546C421.205 373.094 421.021 373.621 420.727 374.087C420.432 374.553 420.035 374.946 419.565 375.234C419.095 375.522 418.565 375.698 418.016 375.749L404.443 376.737C404.327 376.748 404.213 376.754 404.099 376.754C403.403 376.754 402.723 376.552 402.14 376.173C401.557 375.795 401.096 375.255 400.814 374.62Z" fill="#2F2E41"/>
<path d="M420.282 390.394L410.475 390.394L405.809 364.956L420.284 364.957L420.282 390.394Z" fill="#FFB8B8"/>
<path d="M422.785 399.902L391.16 399.9V399.5C391.16 397.884 391.479 396.283 392.097 394.79C392.716 393.296 393.622 391.94 394.765 390.797C395.908 389.654 397.265 388.747 398.759 388.128C400.252 387.51 401.853 387.191 403.469 387.191H403.47L422.785 387.192L422.785 399.902Z" fill="#2F2E41"/>
<path d="M406.415 377.02L386.862 333.173C385.23 329.478 385.049 325.303 386.357 321.48C387.664 317.658 390.364 314.468 393.917 312.546L436.328 289.804L455.681 288.158L473.533 286.535L473.661 286.753C473.826 287.031 477.664 293.661 475.07 300.93C473.102 306.445 467.983 310.752 459.855 313.732C440.883 320.688 418.968 326.634 410.426 328.866C410.048 328.963 409.695 329.138 409.391 329.381C409.086 329.624 408.836 329.928 408.657 330.274C408.477 330.616 408.371 330.992 408.344 331.377C408.317 331.763 408.37 332.149 408.5 332.513L426.665 373.325C426.855 373.843 426.923 374.397 426.865 374.945C426.806 375.493 426.623 376.021 426.328 376.487C426.034 376.953 425.636 377.345 425.166 377.633C424.696 377.921 424.166 378.098 423.618 378.148L410.044 379.137C409.929 379.148 409.814 379.153 409.7 379.153C409.005 379.153 408.325 378.951 407.742 378.573C407.159 378.194 406.698 377.655 406.415 377.02Z" fill="#2F2E41"/>
<path d="M396.668 243.076C388.452 232.147 381.956 220.025 377.407 207.13C377.144 206.359 377.163 205.519 377.46 204.761C377.758 204.002 378.315 203.373 379.033 202.987L407.149 187.922C407.604 187.676 408.109 187.537 408.625 187.516C409.142 187.496 409.656 187.593 410.13 187.801C410.612 188.01 411.04 188.327 411.381 188.727C411.722 189.126 411.967 189.599 412.099 190.108C415.371 202.533 421.523 214.013 430.055 223.62C430.406 224.011 430.664 224.477 430.808 224.983C430.952 225.488 430.978 226.02 430.886 226.538C430.797 227.047 430.593 227.529 430.289 227.947C429.986 228.366 429.591 228.709 429.134 228.952L401.018 244.017C400.299 244.401 399.467 244.517 398.67 244.344C397.874 244.172 397.164 243.722 396.668 243.076Z" fill="#4685FF"/>
<path d="M398.586 241.634C398.737 241.822 398.95 241.952 399.186 242.001C399.423 242.05 399.67 242.015 399.884 241.902L428 226.836C428.137 226.765 428.255 226.663 428.345 226.538C428.436 226.414 428.496 226.27 428.522 226.118C428.551 225.958 428.543 225.793 428.498 225.637C428.453 225.48 428.372 225.336 428.262 225.216C419.478 215.326 413.145 203.507 409.776 190.716C409.738 190.558 409.662 190.411 409.557 190.287C409.452 190.163 409.32 190.064 409.17 190C409.029 189.937 408.876 189.908 408.722 189.914C408.567 189.92 408.417 189.962 408.282 190.037L380.166 205.102C379.953 205.217 379.787 205.403 379.696 205.627C379.606 205.852 379.597 206.101 379.67 206.332C384.138 218.995 390.517 230.9 398.586 241.634Z" fill="white"/>
<path d="M490.072 239.057L468.053 247.425L462.677 232.491C461.963 230.508 461.973 228.337 462.705 226.361C463.437 224.384 464.845 222.731 466.678 221.692C468.533 220.641 470.703 220.287 472.795 220.696C474.887 221.104 476.765 222.248 478.088 223.919L490.072 239.057Z" fill="#6C63FF"/>
<path d="M434.067 298.224C433.604 297.897 433.215 297.474 432.928 296.984C432.641 296.495 432.461 295.95 432.4 295.385C429.58 269.058 431.544 248.454 438.405 232.397C439.613 229.628 441.434 227.169 443.729 225.204C446.025 223.239 448.736 221.82 451.658 221.054L469.458 220.155L469.55 220.2C473.567 222.167 476.842 225.376 478.892 229.352C480.941 233.328 481.654 237.858 480.926 242.271C475.201 257.361 470.407 273.073 474.063 285.747C474.216 286.277 474.261 286.833 474.194 287.38C474.128 287.928 473.951 288.456 473.676 288.934C473.408 289.396 473.049 289.798 472.621 290.116C472.192 290.434 471.703 290.66 471.183 290.781L437.28 298.846C436.731 298.977 436.161 298.989 435.607 298.882C435.053 298.775 434.528 298.55 434.067 298.224Z" fill="#6C63FF"/>
<path d="M463.516 213.508C474.368 213.508 483.165 204.711 483.165 193.859C483.165 183.007 474.368 174.21 463.516 174.21C452.664 174.21 443.867 183.007 443.867 193.859C443.867 204.711 452.664 213.508 463.516 213.508Z" fill="#FFB8B8"/>
<path d="M408.994 209.422L393.681 216.181C393.098 216.438 392.438 216.452 391.845 216.222C391.251 215.992 390.774 215.537 390.516 214.955L390.137 214.097C389.881 213.514 389.866 212.854 390.096 212.261C390.326 211.667 390.782 211.19 391.364 210.932L406.677 204.172C407.259 203.916 407.92 203.901 408.513 204.131C409.106 204.361 409.584 204.817 409.842 205.399L410.22 206.257C410.477 206.839 410.492 207.499 410.262 208.093C410.032 208.686 409.576 209.164 408.994 209.422Z" fill="#4685FF"/>
<path d="M414.596 219.821L399.282 226.581C398.7 226.837 398.04 226.852 397.446 226.622C396.853 226.392 396.375 225.936 396.117 225.354L395.739 224.496C395.482 223.914 395.468 223.253 395.697 222.66C395.927 222.067 396.383 221.589 396.965 221.331L412.278 214.572C412.861 214.315 413.521 214.301 414.114 214.53C414.708 214.76 415.186 215.216 415.443 215.798L415.822 216.656C416.078 217.239 416.093 217.899 415.863 218.492C415.633 219.085 415.177 219.563 414.596 219.821Z" fill="#4685FF"/>
<path d="M426.404 260.442L392.264 233.51C391.992 233.605 391.716 233.687 391.435 233.754C390.23 234.036 388.979 234.061 387.764 233.828C386.549 233.595 385.396 233.109 384.381 232.401C383.359 231.693 382.5 230.774 381.862 229.707C381.224 228.64 380.821 227.449 380.68 226.214C380.451 224.239 380.896 222.245 381.943 220.555C382.99 218.865 384.577 217.578 386.447 216.904C387.614 216.485 388.857 216.318 390.093 216.413C391.329 216.507 392.532 216.863 393.621 217.455C394.711 218.046 395.663 218.862 396.416 219.847C397.168 220.833 397.704 221.967 397.988 223.174C398.076 223.556 398.137 223.944 398.171 224.335L432.156 243.941L440.614 239.072L449.982 251.338L436.851 260.697C435.314 261.784 433.467 262.346 431.585 262.3C429.703 262.254 427.886 261.603 426.404 260.442Z" fill="#FFB8B8"/>
<path d="M454.147 255.158L434.668 241.912L443.822 228.946C445.038 227.225 446.823 225.988 448.862 225.455C450.901 224.922 453.063 225.128 454.965 226.034C456.89 226.952 458.423 228.527 459.288 230.476C460.152 232.424 460.292 234.618 459.681 236.66L454.147 255.158Z" fill="#6C63FF"/>
<path d="M456.315 190.932C451.264 194.388 444.633 197.941 439.475 194.26C436.089 191.843 435.021 187.368 436.395 183.44C438.865 176.377 445.65 173.268 452.139 170.885C460.575 167.786 469.76 165.321 478.468 167.54C487.177 169.759 494.873 178.191 493.301 187.039C492.036 194.154 485.325 200.075 486.277 207.238C487.236 214.448 495.345 218.243 502.503 219.532C509.661 220.82 517.671 221.234 522.815 226.376C529.378 232.935 527.739 244.658 521.564 251.583C515.389 258.508 506.07 261.647 497.041 263.781C485.077 266.609 472.138 268.095 460.775 263.402C449.413 258.71 440.571 246.079 443.862 234.235C445.253 229.232 448.528 225.003 451.693 220.887C454.858 216.771 458.064 212.466 459.271 207.416C460.277 203.207 459.532 198.321 456.742 195.164C456.234 194.611 455.914 193.912 455.829 193.167C455.744 192.421 455.897 191.668 456.266 191.015L456.315 190.932Z" fill="#2F2E41"/>
<path d="M87.2595 286.398C82.1964 288.178 76.7603 288.624 71.4748 287.693C66.1894 286.762 61.2328 284.485 57.0826 281.083C46.513 272.211 43.1991 257.596 40.5027 244.063C37.8443 230.72 35.1858 217.377 32.5273 204.034L49.2247 215.531C61.2324 223.799 73.5106 232.332 81.8247 244.308C90.1388 256.284 93.7679 272.632 87.0878 285.591" fill="#275FCA"/>
<path d="M85.8304 334.862C87.5204 322.552 89.2581 310.084 88.0727 297.642C87.0199 286.592 83.6488 275.8 76.7856 266.951C73.1427 262.262 68.7099 258.246 63.6866 255.081C62.3766 254.254 61.171 256.33 62.4752 257.153C71.167 262.646 77.8898 270.758 81.6743 280.318C85.8542 290.95 86.5255 302.539 85.8052 313.833C85.3696 320.663 84.4464 327.448 83.5161 334.224C83.4427 334.53 83.4885 334.853 83.6441 335.127C83.7997 335.401 84.0535 335.606 84.3542 335.7C84.6611 335.783 84.9881 335.741 85.2644 335.584C85.5408 335.427 85.7442 335.168 85.8304 334.862Z" fill="#82ACFF"/>
<path d="M69.5522 313.079C67.3807 316.379 64.3958 319.065 60.8852 320.877C57.3746 322.689 53.4565 323.566 49.5084 323.424C39.3619 322.942 30.9029 315.861 23.2883 309.138L0.765625 289.252L15.6719 288.539C26.3916 288.026 37.3878 287.547 47.5979 290.853C57.8081 294.159 67.2244 302.114 69.0914 312.683" fill="#275FCA"/>
<path d="M90.6065 341.938C82.4724 327.545 73.0374 311.549 56.1788 306.436C51.4912 305.019 46.576 304.512 41.6979 304.941C40.1605 305.073 40.5444 307.443 42.079 307.311C50.2558 306.632 58.4169 308.791 65.1882 313.425C71.7041 317.86 76.7775 324.026 81.0715 330.565C83.7017 334.57 86.0577 338.745 88.4142 342.915C89.1673 344.247 91.3684 343.286 90.6065 341.938Z" fill="#82ACFF"/>
<path d="M103.641 357.088C103.367 353.912 102.227 350.873 100.345 348.3C98.4629 345.728 95.911 343.721 92.9672 342.499V334.178H79.0113V342.761C76.2124 344.043 73.8037 346.045 72.0306 348.562C70.2576 351.079 69.1837 354.021 68.9183 357.088L65.6367 395.235H106.923L103.641 357.088Z" fill="#82ACFF"/>
</g>
<defs>
<clipPath id="clip0_717_2404">
<rect width="553.6" height="399.901" fill="white"/>
</clipPath>
</defs>
</svg>
