<svg width="428" height="310" viewBox="0 0 428 310" fill="none" xmlns="http://www.w3.org/2000/svg">
<g clip-path="url(#clip0_717_2328)">
<circle cx="53.6669" cy="175.096" r="42.0849" fill="#E7EFFF"/>
<path d="M426.872 307.402H0.61776C0.45392 307.402 0.29679 307.336 0.180937 307.221C0.0650848 307.105 0 306.948 0 306.784C0 306.62 0.0650848 306.463 0.180937 306.347C0.29679 306.231 0.45392 306.166 0.61776 306.166H426.872C427.036 306.166 427.193 306.231 427.309 306.347C427.425 306.463 427.49 306.62 427.49 306.784C427.49 306.948 427.425 307.105 427.309 307.221C427.193 307.336 427.036 307.402 426.872 307.402Z" fill="#4685FF"/>
<path d="M384.681 199.662H133.871C132.806 199.662 131.785 200.085 131.032 200.838C130.279 201.591 129.855 202.613 129.855 203.678C129.855 204.743 130.279 205.764 131.032 206.517C131.785 207.27 132.806 207.693 133.871 207.693H140.975V303.755C140.975 304.82 141.398 305.841 142.151 306.594C142.904 307.347 143.926 307.77 144.991 307.77C146.056 307.77 147.077 307.347 147.83 306.594C148.583 305.841 149.006 304.82 149.006 303.755L149.067 207.693H368.929V303.755C368.929 304.82 369.352 305.841 370.105 306.594C370.858 307.347 371.879 307.77 372.944 307.77C374.009 307.77 375.03 307.347 375.783 306.594C376.536 305.841 376.959 304.82 376.959 303.755V209.81L378.128 207.693H384.681C385.746 207.693 386.768 207.27 387.521 206.517C388.274 205.764 388.697 204.743 388.697 203.678C388.697 202.613 388.274 201.591 387.521 200.838C386.768 200.085 385.746 199.662 384.681 199.662Z" fill="#4685FF"/>
<path d="M272.92 201.763H196.947C195.476 201.761 194.066 201.176 193.025 200.136C191.985 199.096 191.4 197.686 191.398 196.214V154.386C191.4 152.915 191.985 151.505 193.025 150.465C194.066 149.425 195.476 148.84 196.947 148.838H272.92C274.391 148.84 275.802 149.425 276.842 150.465C277.882 151.505 278.467 152.915 278.469 154.386V196.214C278.467 197.686 277.882 199.096 276.842 200.136C275.802 201.176 274.391 201.761 272.92 201.763Z" fill="#3F3D56"/>
<path d="M272.923 153.108H196.951C196.612 153.109 196.287 153.244 196.047 153.484C195.807 153.723 195.673 154.048 195.672 154.387V196.216C195.673 196.555 195.808 196.879 196.047 197.119C196.287 197.359 196.612 197.494 196.951 197.494H272.923C273.262 197.494 273.587 197.359 273.826 197.119C274.066 196.879 274.201 196.555 274.202 196.216V154.387C274.201 154.048 274.066 153.723 273.826 153.484C273.587 153.244 273.262 153.109 272.923 153.108Z" fill="white"/>
<path d="M241.416 182.724C241.416 182.724 232.321 180.628 227.319 184.47C222.316 188.312 233.685 197.045 233.685 197.045L241.416 182.724Z" fill="#2F2E41"/>
<path d="M235.38 178.763C240.118 178.763 243.959 174.922 243.959 170.184C243.959 165.446 240.118 161.605 235.38 161.605C230.642 161.605 226.801 165.446 226.801 170.184C226.801 174.922 230.642 178.763 235.38 178.763Z" fill="#A0616A"/>
<path d="M228.746 158.142C229.318 157.171 230.147 156.377 231.142 155.847C232.137 155.318 233.259 155.074 234.384 155.142C235.56 155.29 236.709 155.611 237.791 156.096L243.399 158.283C244.85 158.85 246.44 159.543 247.069 160.968C247.654 162.29 247.218 163.817 246.776 165.194L244.678 171.738C244.446 170.257 244.047 168.807 243.489 167.415C242.922 166.014 241.898 164.846 240.583 164.102C239.126 163.354 237.409 163.37 235.774 163.448C233.458 163.56 230.94 163.855 229.294 165.488C228.42 166.416 227.828 167.573 227.586 168.824C227.348 170.068 227.228 171.332 227.228 172.599C226.278 170.967 225.478 169.251 224.838 167.475C224.311 166.152 224.011 164.749 223.95 163.326C223.895 161.891 224.371 160.487 225.287 159.381C225.752 158.84 226.359 158.441 227.039 158.227C227.719 158.013 228.445 157.993 229.136 158.169L228.746 158.142Z" fill="#2F2E41"/>
<path d="M255.867 190.163C255.787 189.873 255.622 189.614 255.395 189.417C255.167 189.22 254.887 189.095 254.588 189.057C254.569 189.043 254.548 189.031 254.527 189.02L241.72 181.843C241.354 181.638 240.923 181.582 240.517 181.686C240.111 181.791 239.761 182.048 239.54 182.404L236.037 188.075L230.762 182.799L230.678 182.715C230.407 182.444 230.049 182.278 229.668 182.244C229.287 182.211 228.906 182.313 228.592 182.533L218.066 189.903C218.048 189.903 218.029 189.91 218.011 189.91C217.507 189.993 217.047 190.247 216.707 190.628C216.366 191.008 216.166 191.494 216.139 192.004L215.867 197.496H257.9L255.867 190.163Z" fill="#6C63FF"/>
<path d="M279.323 196.641H271.213C271.213 196.414 271.123 196.197 270.963 196.037C270.803 195.877 270.586 195.787 270.36 195.787H267.799C267.573 195.787 267.355 195.877 267.195 196.037C267.035 196.197 266.945 196.414 266.945 196.641H264.384C264.384 196.414 264.294 196.197 264.134 196.037C263.974 195.877 263.757 195.787 263.531 195.787H260.97C260.743 195.787 260.526 195.877 260.366 196.037C260.206 196.197 260.116 196.414 260.116 196.641H257.555C257.555 196.414 257.465 196.197 257.305 196.037C257.145 195.877 256.928 195.787 256.702 195.787H254.141C253.914 195.787 253.697 195.877 253.537 196.037C253.377 196.197 253.287 196.414 253.287 196.641H250.726C250.726 196.414 250.636 196.197 250.476 196.037C250.316 195.877 250.099 195.787 249.873 195.787H247.312C247.085 195.787 246.868 195.877 246.708 196.037C246.548 196.197 246.458 196.414 246.458 196.641H243.897C243.897 196.414 243.807 196.197 243.647 196.037C243.487 195.877 243.27 195.787 243.044 195.787H240.483C240.256 195.787 240.039 195.877 239.879 196.037C239.719 196.197 239.629 196.414 239.629 196.641H237.068C237.068 196.414 236.978 196.197 236.818 196.037C236.658 195.877 236.441 195.787 236.215 195.787H233.654C233.427 195.787 233.21 195.877 233.05 196.037C232.89 196.197 232.8 196.414 232.8 196.641H230.239C230.239 196.414 230.149 196.197 229.989 196.037C229.829 195.877 229.612 195.787 229.385 195.787H226.825C226.598 195.787 226.381 195.877 226.221 196.037C226.061 196.197 225.971 196.414 225.971 196.641H223.41C223.41 196.414 223.32 196.197 223.16 196.037C223 195.877 222.783 195.787 222.556 195.787H219.996C219.769 195.787 219.552 195.877 219.392 196.037C219.232 196.197 219.142 196.414 219.142 196.641H216.581C216.581 196.414 216.491 196.197 216.331 196.037C216.171 195.877 215.954 195.787 215.727 195.787H213.166C212.94 195.787 212.723 195.877 212.563 196.037C212.403 196.197 212.313 196.414 212.313 196.641H209.752C209.752 196.414 209.662 196.197 209.502 196.037C209.342 195.877 209.125 195.787 208.898 195.787H206.337C206.111 195.787 205.894 195.877 205.734 196.037C205.574 196.197 205.484 196.414 205.484 196.641H202.923C202.923 196.414 202.833 196.197 202.673 196.037C202.513 195.877 202.296 195.787 202.069 195.787H199.508C199.282 195.787 199.065 195.877 198.905 196.037C198.745 196.197 198.655 196.414 198.655 196.641H190.545C189.867 196.642 189.216 196.912 188.737 197.392C188.258 197.872 187.988 198.523 187.988 199.202C187.988 199.88 188.258 200.531 188.737 201.011C189.216 201.491 189.867 201.761 190.545 201.763H279.323C280.002 201.763 280.654 201.493 281.134 201.012C281.614 200.532 281.884 199.881 281.884 199.202C281.884 198.522 281.614 197.871 281.134 197.391C280.654 196.911 280.002 196.641 279.323 196.641Z" fill="#3F3D56"/>
<path d="M177.347 181.77V198.774H134.745C133.603 198.814 132.465 198.623 131.399 198.214C130.333 197.805 129.36 197.185 128.539 196.391C127.717 195.598 127.064 194.647 126.618 193.596C126.171 192.544 125.941 191.414 125.941 190.272C125.941 189.13 126.171 187.999 126.618 186.948C127.064 185.897 127.717 184.946 128.539 184.153C129.36 183.359 130.333 182.739 131.399 182.33C132.465 181.921 133.603 181.73 134.745 181.77H177.347Z" fill="#82ACFF"/>
<path d="M178.391 198.644C178.391 198.817 178.322 198.984 178.199 199.106C178.076 199.229 177.91 199.298 177.737 199.298H133.983C131.607 199.298 129.328 198.354 127.648 196.674C125.967 194.993 125.023 192.714 125.023 190.338C125.023 187.962 125.967 185.683 127.648 184.002C129.328 182.322 131.607 181.378 133.983 181.378H177.737C177.91 181.378 178.077 181.447 178.199 181.569C178.322 181.692 178.391 181.858 178.391 182.032C178.391 182.205 178.322 182.372 178.199 182.494C178.077 182.617 177.91 182.686 177.737 182.686H133.983C131.955 182.688 130.011 183.495 128.577 184.93C127.144 186.364 126.338 188.31 126.338 190.338C126.338 192.366 127.144 194.311 128.577 195.746C130.011 197.181 131.955 197.988 133.983 197.99H177.737C177.91 197.99 178.076 198.059 178.199 198.181C178.322 198.304 178.391 198.47 178.391 198.644Z" fill="#6C63FF"/>
<path d="M177.346 185.695H131.565C131.548 185.695 131.531 185.692 131.515 185.686C131.499 185.679 131.484 185.669 131.472 185.657C131.46 185.645 131.45 185.631 131.444 185.615C131.437 185.599 131.434 185.582 131.434 185.564C131.434 185.547 131.437 185.53 131.444 185.514C131.45 185.498 131.46 185.484 131.472 185.472C131.484 185.459 131.499 185.45 131.515 185.443C131.531 185.437 131.548 185.433 131.565 185.434H177.346C177.381 185.434 177.414 185.448 177.438 185.472C177.462 185.497 177.476 185.53 177.476 185.564C177.476 185.599 177.462 185.632 177.438 185.657C177.414 185.681 177.381 185.695 177.346 185.695Z" fill="#4685FF"/>
<path d="M177.346 188.834H131.565C131.548 188.834 131.531 188.831 131.515 188.824C131.499 188.818 131.484 188.808 131.472 188.796C131.46 188.784 131.45 188.769 131.444 188.753C131.437 188.737 131.434 188.72 131.434 188.703C131.434 188.686 131.437 188.669 131.444 188.653C131.45 188.637 131.46 188.622 131.472 188.61C131.484 188.598 131.499 188.588 131.515 188.582C131.531 188.575 131.548 188.572 131.565 188.572H177.346C177.381 188.573 177.414 188.586 177.438 188.611C177.462 188.635 177.476 188.669 177.476 188.703C177.476 188.738 177.462 188.771 177.438 188.795C177.414 188.82 177.381 188.834 177.346 188.834Z" fill="#4685FF"/>
<path d="M177.346 191.973H131.565C131.548 191.973 131.531 191.969 131.515 191.963C131.499 191.956 131.484 191.947 131.472 191.935C131.46 191.922 131.45 191.908 131.444 191.892C131.437 191.876 131.434 191.859 131.434 191.842C131.434 191.824 131.437 191.807 131.444 191.791C131.45 191.776 131.46 191.761 131.472 191.749C131.484 191.737 131.499 191.727 131.515 191.721C131.531 191.714 131.548 191.711 131.565 191.711H177.346C177.381 191.711 177.414 191.725 177.438 191.75C177.462 191.774 177.476 191.807 177.476 191.842C177.476 191.876 177.462 191.909 177.438 191.934C177.414 191.958 177.381 191.972 177.346 191.973Z" fill="#4685FF"/>
<path d="M177.346 195.113H131.565C131.548 195.113 131.531 195.11 131.515 195.103C131.499 195.097 131.484 195.087 131.472 195.075C131.46 195.063 131.45 195.049 131.444 195.033C131.437 195.017 131.434 195 131.434 194.982C131.434 194.965 131.437 194.948 131.444 194.932C131.45 194.916 131.46 194.902 131.472 194.89C131.484 194.877 131.499 194.868 131.515 194.861C131.531 194.855 131.548 194.851 131.565 194.852H177.346C177.381 194.852 177.414 194.866 177.438 194.89C177.462 194.915 177.476 194.948 177.476 194.982C177.476 195.017 177.462 195.05 177.438 195.075C177.414 195.099 177.381 195.113 177.346 195.113Z" fill="#4685FF"/>
<path d="M169.315 163.855V180.859H126.713C125.572 180.899 124.434 180.708 123.368 180.299C122.302 179.889 121.329 179.27 120.507 178.476C119.686 177.683 119.033 176.732 118.586 175.681C118.14 174.629 117.91 173.499 117.91 172.357C117.91 171.215 118.14 170.084 118.586 169.033C119.033 167.982 119.686 167.031 120.507 166.238C121.329 165.444 122.302 164.824 123.368 164.415C124.434 164.006 125.572 163.815 126.713 163.855H169.315Z" fill="#82ACFF"/>
<path d="M170.36 180.729C170.359 180.902 170.291 181.069 170.168 181.191C170.045 181.314 169.879 181.383 169.705 181.383H125.952C124.776 181.383 123.61 181.151 122.523 180.701C121.436 180.25 120.449 179.59 119.616 178.758C118.784 177.926 118.124 176.939 117.674 175.852C117.224 174.765 116.992 173.599 116.992 172.423C116.992 171.246 117.224 170.081 117.674 168.994C118.124 167.907 118.784 166.919 119.616 166.087C120.449 165.255 121.436 164.595 122.523 164.145C123.61 163.695 124.776 163.463 125.952 163.463H169.705C169.879 163.463 170.045 163.532 170.168 163.654C170.291 163.777 170.36 163.943 170.36 164.117C170.36 164.29 170.291 164.457 170.168 164.579C170.045 164.702 169.879 164.771 169.705 164.771H125.952C123.924 164.773 121.979 165.58 120.546 167.015C119.112 168.449 118.307 170.395 118.307 172.423C118.307 174.451 119.112 176.396 120.546 177.831C121.979 179.266 123.924 180.073 125.952 180.075H169.705C169.879 180.075 170.045 180.144 170.168 180.266C170.29 180.389 170.359 180.555 170.36 180.729Z" fill="#3F3D56"/>
<path d="M169.315 167.779H123.534C123.517 167.779 123.5 167.776 123.484 167.769C123.468 167.763 123.453 167.753 123.441 167.741C123.429 167.729 123.419 167.715 123.412 167.699C123.406 167.683 123.402 167.666 123.402 167.648C123.402 167.631 123.406 167.614 123.412 167.598C123.419 167.582 123.429 167.568 123.441 167.556C123.453 167.543 123.468 167.534 123.484 167.527C123.5 167.521 123.517 167.517 123.534 167.518H169.315C169.349 167.518 169.382 167.532 169.407 167.556C169.431 167.581 169.445 167.614 169.445 167.648C169.445 167.683 169.431 167.716 169.407 167.741C169.382 167.765 169.349 167.779 169.315 167.779Z" fill="#4685FF"/>
<path d="M169.315 170.919H123.534C123.517 170.919 123.5 170.916 123.484 170.909C123.468 170.903 123.453 170.893 123.441 170.881C123.429 170.869 123.419 170.854 123.412 170.838C123.406 170.822 123.402 170.805 123.402 170.788C123.402 170.771 123.406 170.754 123.412 170.738C123.419 170.722 123.429 170.707 123.441 170.695C123.453 170.683 123.468 170.673 123.484 170.667C123.5 170.66 123.517 170.657 123.534 170.657H169.315C169.349 170.657 169.382 170.671 169.407 170.696C169.431 170.72 169.445 170.753 169.445 170.788C169.445 170.823 169.431 170.856 169.407 170.88C169.382 170.905 169.349 170.919 169.315 170.919Z" fill="#4685FF"/>
<path d="M169.315 174.057H123.534C123.517 174.058 123.5 174.054 123.484 174.048C123.468 174.041 123.453 174.032 123.441 174.02C123.429 174.007 123.419 173.993 123.412 173.977C123.406 173.961 123.402 173.944 123.402 173.927C123.402 173.909 123.406 173.892 123.412 173.876C123.419 173.861 123.429 173.846 123.441 173.834C123.453 173.822 123.468 173.812 123.484 173.806C123.5 173.799 123.517 173.796 123.534 173.796H169.315C169.349 173.796 169.382 173.81 169.407 173.835C169.431 173.859 169.445 173.892 169.445 173.927C169.445 173.961 169.431 173.994 169.407 174.019C169.382 174.043 169.349 174.057 169.315 174.057Z" fill="#4685FF"/>
<path d="M169.315 177.197H123.534C123.517 177.197 123.5 177.194 123.484 177.187C123.468 177.181 123.453 177.171 123.441 177.159C123.429 177.147 123.419 177.133 123.412 177.117C123.406 177.101 123.402 177.084 123.402 177.066C123.402 177.049 123.406 177.032 123.412 177.016C123.419 177 123.429 176.986 123.441 176.974C123.453 176.961 123.468 176.952 123.484 176.945C123.5 176.939 123.517 176.935 123.534 176.936H169.315C169.349 176.936 169.382 176.95 169.407 176.974C169.431 176.999 169.445 177.032 169.445 177.066C169.445 177.101 169.431 177.134 169.407 177.159C169.382 177.183 169.349 177.197 169.315 177.197Z" fill="#4685FF"/>
<path d="M218.873 259.215V244.389C218.873 243.734 218.613 243.105 218.149 242.642C217.686 242.178 217.057 241.918 216.402 241.918H160.186C159.531 241.918 158.902 242.178 158.439 242.642C157.975 243.105 157.715 243.734 157.715 244.389V259.215H218.873Z" fill="#4685FF"/>
<path d="M218.873 264.775H157.715V283.926H218.873V264.775Z" fill="#4685FF"/>
<path d="M157.715 289.486V304.313C157.715 304.968 157.975 305.596 158.439 306.06C158.902 306.523 159.531 306.784 160.186 306.784H216.402C217.057 306.784 217.686 306.523 218.149 306.06C218.613 305.596 218.873 304.968 218.873 304.313V289.486H157.715Z" fill="#4685FF"/>
<path d="M187.986 253.039C189.01 253.039 189.839 252.209 189.839 251.185C189.839 250.162 189.01 249.332 187.986 249.332C186.963 249.332 186.133 250.162 186.133 251.185C186.133 252.209 186.963 253.039 187.986 253.039Z" fill="white"/>
<path d="M187.986 277.75C189.01 277.75 189.839 276.92 189.839 275.896C189.839 274.873 189.01 274.043 187.986 274.043C186.963 274.043 186.133 274.873 186.133 275.896C186.133 276.92 186.963 277.75 187.986 277.75Z" fill="white"/>
<path d="M188.084 301.935C189.107 301.935 189.937 301.105 189.937 300.082C189.937 299.058 189.107 298.229 188.084 298.229C187.06 298.229 186.23 299.058 186.23 300.082C186.23 301.105 187.06 301.935 188.084 301.935Z" fill="white"/>
<path d="M211.94 225.013V242.017H169.338C168.197 242.057 167.059 241.866 165.993 241.457C164.927 241.048 163.954 240.428 163.132 239.634C162.311 238.841 161.658 237.89 161.211 236.839C160.765 235.788 160.535 234.657 160.535 233.515C160.535 232.373 160.765 231.243 161.211 230.191C161.658 229.14 162.311 228.189 163.132 227.396C163.954 226.602 164.927 225.983 165.993 225.573C167.059 225.164 168.197 224.973 169.338 225.013H211.94Z" fill="#82ACFF"/>
<path d="M212.988 241.887C212.988 242.06 212.919 242.227 212.796 242.349C212.674 242.472 212.507 242.541 212.334 242.541H168.581C167.403 242.542 166.237 242.311 165.15 241.861C164.062 241.411 163.073 240.751 162.24 239.919C161.407 239.087 160.747 238.099 160.296 237.012C159.845 235.924 159.613 234.758 159.613 233.581C159.613 232.404 159.845 231.238 160.296 230.151C160.747 229.063 161.407 228.075 162.24 227.243C163.073 226.411 164.062 225.751 165.15 225.301C166.237 224.851 167.403 224.62 168.581 224.621H212.334C212.507 224.621 212.674 224.69 212.796 224.813C212.919 224.935 212.988 225.102 212.988 225.275C212.988 225.449 212.919 225.615 212.796 225.738C212.674 225.86 212.507 225.929 212.334 225.929H168.581C166.552 225.931 164.608 226.738 163.174 228.173C161.741 229.608 160.936 231.553 160.936 233.581C160.936 235.609 161.741 237.555 163.174 238.989C164.608 240.424 166.552 241.231 168.581 241.233H212.334C212.507 241.233 212.674 241.302 212.796 241.425C212.919 241.547 212.988 241.714 212.988 241.887Z" fill="#3F3D56"/>
<path d="M211.94 228.937H166.159C166.142 228.938 166.125 228.934 166.109 228.928C166.093 228.921 166.078 228.912 166.066 228.899C166.054 228.887 166.044 228.873 166.037 228.857C166.031 228.841 166.027 228.824 166.027 228.807C166.027 228.789 166.031 228.772 166.037 228.756C166.044 228.74 166.054 228.726 166.066 228.714C166.078 228.702 166.093 228.692 166.109 228.685C166.125 228.679 166.142 228.676 166.159 228.676H211.94C211.974 228.676 212.007 228.69 212.032 228.714C212.056 228.739 212.07 228.772 212.07 228.807C212.07 228.841 212.056 228.874 212.032 228.899C212.007 228.923 211.974 228.937 211.94 228.937Z" fill="#4685FF"/>
<path d="M211.94 232.078H166.159C166.142 232.078 166.125 232.075 166.109 232.068C166.093 232.062 166.078 232.052 166.066 232.04C166.054 232.028 166.044 232.013 166.037 231.997C166.031 231.982 166.027 231.964 166.027 231.947C166.027 231.93 166.031 231.913 166.037 231.897C166.044 231.881 166.054 231.867 166.066 231.854C166.078 231.842 166.093 231.833 166.109 231.826C166.125 231.82 166.142 231.816 166.159 231.816H211.94C211.974 231.817 212.007 231.831 212.032 231.855C212.056 231.88 212.07 231.913 212.07 231.947C212.07 231.982 212.056 232.015 212.032 232.039C212.007 232.064 211.974 232.078 211.94 232.078Z" fill="#4685FF"/>
<path d="M211.94 235.217H166.159C166.142 235.217 166.125 235.214 166.109 235.207C166.093 235.2 166.078 235.191 166.066 235.179C166.054 235.167 166.044 235.152 166.037 235.136C166.031 235.12 166.027 235.103 166.027 235.086C166.027 235.069 166.031 235.052 166.037 235.036C166.044 235.02 166.054 235.005 166.066 234.993C166.078 234.981 166.093 234.971 166.109 234.965C166.125 234.958 166.142 234.955 166.159 234.955H211.94C211.974 234.955 212.007 234.969 212.032 234.994C212.056 235.018 212.07 235.051 212.07 235.086C212.07 235.12 212.056 235.154 212.032 235.178C212.007 235.203 211.974 235.216 211.94 235.217Z" fill="#4685FF"/>
<path d="M211.94 238.355H166.159C166.142 238.355 166.125 238.352 166.109 238.346C166.093 238.339 166.078 238.33 166.066 238.317C166.054 238.305 166.044 238.291 166.037 238.275C166.031 238.259 166.027 238.242 166.027 238.225C166.027 238.207 166.031 238.19 166.037 238.174C166.044 238.158 166.054 238.144 166.066 238.132C166.078 238.12 166.093 238.11 166.109 238.103C166.125 238.097 166.142 238.094 166.159 238.094H211.94C211.974 238.094 212.007 238.108 212.032 238.132C212.056 238.157 212.07 238.19 212.07 238.225C212.07 238.259 212.056 238.292 212.032 238.317C212.007 238.341 211.974 238.355 211.94 238.355Z" fill="#4685FF"/>
<path d="M154.508 114.028V5.61129C154.509 4.37941 154.999 3.19838 155.87 2.32731C156.741 1.45623 157.922 0.966245 159.154 0.964844H244.855C246.087 0.966253 247.268 1.45625 248.139 2.32732C249.01 3.19839 249.5 4.37941 249.502 5.61129V114.028C249.5 115.26 249.01 116.441 248.139 117.312C247.268 118.183 246.087 118.673 244.855 118.675H159.154C157.922 118.673 156.741 118.183 155.87 117.312C154.999 116.441 154.509 115.26 154.508 114.028ZM159.154 1.99739C158.196 1.99846 157.278 2.37956 156.6 3.05706C155.923 3.73457 155.541 4.65315 155.54 5.61129V114.028C155.541 114.986 155.923 115.905 156.6 116.582C157.278 117.26 158.196 117.641 159.154 117.642H244.855C245.813 117.641 246.732 117.26 247.409 116.582C248.087 115.905 248.468 114.986 248.469 114.028V5.61129C248.468 4.65315 248.087 3.73457 247.409 3.05706C246.732 2.37956 245.813 1.99846 244.855 1.99739H159.154Z" fill="#275FCA"/>
<path d="M206.812 50.7546V28.4931C206.813 27.8772 207.058 27.2867 207.494 26.8511C207.929 26.4156 208.52 26.1706 209.136 26.1699H228C228.616 26.1706 229.207 26.4156 229.642 26.8511C230.078 27.2867 230.323 27.8772 230.323 28.4931V50.7546C230.323 51.3705 230.078 51.961 229.642 52.3966C229.207 52.8321 228.616 53.0771 228 53.0778H209.136C208.52 53.0771 207.929 52.8321 207.494 52.3966C207.058 51.961 206.813 51.3705 206.812 50.7546Z" fill="#6C63FF"/>
<path d="M170.156 61.0807V38.8193C170.157 38.2034 170.402 37.6128 170.837 37.1773C171.273 36.7418 171.864 36.4968 172.479 36.4961H191.344C191.96 36.4968 192.55 36.7418 192.986 37.1773C193.422 37.6128 193.667 38.2034 193.667 38.8193V61.0807C193.667 61.6967 193.422 62.2872 192.986 62.7227C192.55 63.1583 191.96 63.4032 191.344 63.4039H172.479C171.864 63.4032 171.273 63.1583 170.837 62.7227C170.402 62.2872 170.157 61.6966 170.156 61.0807Z" fill="#4685FF"/>
<path d="M199.582 92.5719V70.3105C199.583 69.6946 199.828 69.104 200.263 68.6685C200.699 68.233 201.289 67.988 201.905 67.9873H220.77C221.386 67.988 221.976 68.233 222.412 68.6685C222.847 69.104 223.092 69.6946 223.093 70.3105V92.5719C223.092 93.1879 222.847 93.7784 222.412 94.2139C221.976 94.6495 221.386 94.8945 220.77 94.8951H201.905C201.289 94.8945 200.699 94.6495 200.263 94.2139C199.828 93.7784 199.583 93.1879 199.582 92.5719Z" fill="#FDBA13"/>
<path d="M312.317 194.351H292.907C292.723 194.351 292.541 194.393 292.376 194.475L287.477 196.927C287.316 196.996 287.178 197.11 287.082 197.256C286.985 197.403 286.934 197.574 286.934 197.749C286.934 197.924 286.985 198.095 287.082 198.242C287.178 198.388 287.316 198.502 287.477 198.571L292.376 201.023C292.541 201.105 292.723 201.147 292.907 201.147H312.317C312.585 201.162 312.848 201.072 313.049 200.895C313.25 200.718 313.373 200.469 313.392 200.201V195.297C313.373 195.029 313.25 194.78 313.049 194.603C312.848 194.426 312.585 194.336 312.317 194.351Z" fill="#3F3D56"/>
<path d="M313.391 195.295V200.2C313.372 200.467 313.249 200.716 313.048 200.893C312.847 201.07 312.584 201.16 312.316 201.145H308.449V194.349H312.316C312.584 194.334 312.847 194.424 313.048 194.601C313.249 194.778 313.372 195.027 313.391 195.295Z" fill="#6C63FF"/>
<path d="M312.17 157.656C313.049 157.277 313.998 157.087 314.956 157.1C315.913 157.113 316.857 157.329 317.726 157.732C318.594 158.135 319.368 158.717 319.995 159.44C320.623 160.163 321.091 161.011 321.368 161.927C321.455 162.218 321.521 162.514 321.566 162.814L348.709 176.274L354.991 172.111L362.807 181.109L353.215 188.899C352.062 189.828 350.64 190.361 349.159 190.418C347.679 190.475 346.22 190.054 344.998 189.216L317.459 170.171C317.254 170.258 317.045 170.334 316.832 170.4C315.916 170.677 314.951 170.758 314.001 170.636C313.051 170.514 312.137 170.193 311.32 169.694C310.503 169.195 309.801 168.528 309.259 167.738C308.717 166.949 308.349 166.054 308.177 165.111C308.126 164.838 308.093 164.562 308.077 164.284C308 162.893 308.352 161.513 309.083 160.328C309.815 159.143 310.892 158.21 312.17 157.656Z" fill="#FFB8B8"/>
<path d="M368.703 240.527H339.045C339.045 241.38 308.478 242.072 308.478 242.072C307.998 242.433 307.561 242.847 307.175 243.307C306.014 244.692 305.379 246.442 305.383 248.249V249.485C305.384 251.533 306.197 253.496 307.645 254.944C309.093 256.392 311.057 257.206 313.105 257.207H368.703C370.751 257.205 372.714 256.391 374.162 254.943C375.609 253.495 376.423 251.532 376.425 249.485V248.249C376.422 246.202 375.608 244.24 374.16 242.792C372.713 241.345 370.75 240.53 368.703 240.527Z" fill="#3F3D56"/>
<path d="M336.442 308.791H344.473V256.899H336.442V308.791Z" fill="#3F3D56"/>
<path d="M313.586 308.51C313.586 309.378 325.755 308.846 340.767 308.846C355.779 308.846 367.949 309.378 367.949 308.51C367.949 307.643 355.779 300.762 340.767 300.762C325.755 300.762 313.586 307.643 313.586 308.51Z" fill="#3F3D56"/>
<path d="M320.837 302.429L313.264 302.428L309.66 282.785L320.838 282.786L320.837 302.429Z" fill="#FFB8B8"/>
<path d="M322.768 309.77L298.348 309.769V309.46C298.348 308.212 298.594 306.976 299.071 305.823C299.549 304.669 300.249 303.622 301.132 302.739C302.014 301.856 303.062 301.156 304.215 300.679C305.369 300.201 306.605 299.955 307.853 299.955H307.853L322.769 299.956L322.768 309.77Z" fill="#2F2E41"/>
<path d="M309.508 290.247L294.41 256.389C293.149 253.535 293.01 250.312 294.019 247.36C295.029 244.408 297.113 241.945 299.857 240.461L332.607 222.899L347.551 221.628L361.336 220.375L361.436 220.543C361.563 220.758 364.527 225.878 362.523 231.491C361.004 235.749 357.051 239.075 350.774 241.376C336.125 246.748 319.201 251.339 312.605 253.063C312.314 253.138 312.041 253.273 311.806 253.461C311.57 253.648 311.377 253.883 311.239 254.15C311.101 254.415 311.019 254.705 310.998 255.002C310.977 255.3 311.018 255.598 311.118 255.879L325.145 287.394C325.292 287.794 325.344 288.222 325.299 288.645C325.254 289.068 325.113 289.476 324.885 289.836C324.658 290.196 324.351 290.498 323.988 290.721C323.625 290.943 323.216 291.079 322.792 291.119L312.311 291.882C312.222 291.89 312.133 291.895 312.045 291.895C311.508 291.894 310.983 291.739 310.533 291.446C310.083 291.154 309.727 290.737 309.508 290.247Z" fill="#2F2E41"/>
<path d="M324.544 302.429L316.971 302.428L313.367 282.785L324.545 282.786L324.544 302.429Z" fill="#FFB8B8"/>
<path d="M326.475 309.77L302.055 309.769V309.46C302.055 308.212 302.301 306.976 302.778 305.823C303.256 304.669 303.956 303.622 304.839 302.739C305.721 301.856 306.769 301.156 307.922 300.679C309.076 300.201 310.312 299.955 311.56 299.955H311.56L326.476 299.956L326.475 309.77Z" fill="#2F2E41"/>
<path d="M313.833 292.101L298.734 258.243C297.473 255.389 297.334 252.165 298.343 249.213C299.353 246.261 301.438 243.798 304.182 242.314L336.931 224.753L351.876 223.482L365.661 222.229L365.76 222.397C365.887 222.612 368.851 227.731 366.848 233.345C365.328 237.603 361.375 240.928 355.099 243.23C340.449 248.602 323.525 253.193 316.929 254.917C316.638 254.991 316.366 255.127 316.13 255.314C315.895 255.501 315.702 255.737 315.563 256.004C315.425 256.268 315.343 256.558 315.322 256.856C315.301 257.153 315.342 257.452 315.442 257.733L329.469 289.248C329.616 289.647 329.669 290.075 329.624 290.499C329.579 290.922 329.437 291.329 329.209 291.689C328.982 292.049 328.675 292.352 328.312 292.574C327.949 292.797 327.54 292.933 327.116 292.972L316.635 293.735C316.546 293.744 316.457 293.748 316.369 293.748C315.832 293.748 315.307 293.592 314.857 293.3C314.407 293.007 314.051 292.591 313.833 292.101Z" fill="#2F2E41"/>
<path d="M306.305 188.669C299.96 180.229 294.944 170.869 291.432 160.912C291.228 160.316 291.243 159.668 291.473 159.082C291.703 158.496 292.133 158.01 292.687 157.712L314.398 146.079C314.75 145.889 315.139 145.782 315.538 145.766C315.937 145.75 316.334 145.825 316.7 145.985C317.072 146.147 317.402 146.392 317.666 146.7C317.929 147.009 318.119 147.374 318.22 147.767C320.747 157.362 325.497 166.227 332.086 173.645C332.358 173.947 332.556 174.307 332.667 174.697C332.779 175.088 332.799 175.498 332.728 175.898C332.659 176.291 332.501 176.663 332.267 176.987C332.033 177.31 331.728 177.575 331.375 177.762L309.664 189.396C309.108 189.692 308.466 189.781 307.851 189.648C307.236 189.515 306.688 189.168 306.305 188.669Z" fill="#4685FF"/>
<path d="M307.789 187.555C307.906 187.701 308.07 187.801 308.253 187.839C308.436 187.877 308.626 187.849 308.791 187.762L330.503 176.128C330.608 176.073 330.699 175.994 330.769 175.898C330.839 175.802 330.886 175.691 330.906 175.574C330.928 175.45 330.922 175.323 330.887 175.202C330.852 175.081 330.79 174.97 330.705 174.877C323.922 167.24 319.032 158.114 316.431 148.236C316.4 148.114 316.342 148.001 316.261 147.905C316.18 147.809 316.078 147.733 315.962 147.683C315.853 147.635 315.735 147.612 315.616 147.617C315.497 147.622 315.381 147.654 315.276 147.712L293.565 159.345C293.401 159.434 293.273 159.577 293.203 159.751C293.133 159.924 293.126 160.117 293.183 160.295C296.632 170.073 301.558 179.266 307.789 187.555Z" fill="white"/>
<path d="M378.434 185.565L361.43 192.027L357.279 180.495C356.728 178.964 356.735 177.287 357.301 175.761C357.866 174.235 358.953 172.958 360.369 172.156C361.801 171.344 363.477 171.071 365.092 171.387C366.708 171.702 368.158 172.585 369.18 173.876L378.434 185.565Z" fill="#6C63FF"/>
<path d="M335.185 231.255C334.827 231.002 334.527 230.675 334.306 230.297C334.084 229.919 333.945 229.498 333.898 229.062C331.72 208.732 333.237 192.822 338.535 180.423C339.468 178.285 340.874 176.385 342.646 174.868C344.419 173.351 346.512 172.255 348.769 171.664L362.514 170.97L362.585 171.004C365.687 172.523 368.216 175.002 369.799 178.071C371.381 181.141 371.932 184.64 371.369 188.047C366.949 199.7 363.247 211.833 366.07 221.62C366.188 222.029 366.223 222.458 366.171 222.881C366.12 223.304 365.984 223.712 365.771 224.081C365.565 224.437 365.287 224.748 364.956 224.993C364.625 225.239 364.247 225.414 363.846 225.507L337.666 231.735C337.243 231.836 336.802 231.845 336.374 231.762C335.946 231.68 335.541 231.506 335.185 231.255Z" fill="#6C63FF"/>
<path d="M357.927 165.836C366.306 165.836 373.1 159.043 373.1 150.663C373.1 142.283 366.306 135.49 357.927 135.49C349.547 135.49 342.754 142.283 342.754 150.663C342.754 159.043 349.547 165.836 357.927 165.836Z" fill="#FFB8B8"/>
<path d="M315.824 162.68L303.999 167.9C303.549 168.098 303.039 168.11 302.581 167.932C302.123 167.754 301.754 167.402 301.555 166.953L301.263 166.291C301.065 165.841 301.053 165.331 301.231 164.873C301.408 164.415 301.76 164.046 302.21 163.847L314.035 158.627C314.484 158.429 314.994 158.418 315.452 158.595C315.911 158.773 316.28 159.125 316.478 159.574L316.771 160.236C316.969 160.686 316.98 161.196 316.803 161.654C316.625 162.112 316.273 162.481 315.824 162.68Z" fill="#4685FF"/>
<path d="M320.148 170.711L308.323 175.93C307.873 176.128 307.364 176.14 306.905 175.962C306.447 175.785 306.078 175.433 305.879 174.983L305.587 174.321C305.389 173.871 305.378 173.361 305.555 172.903C305.733 172.445 306.085 172.076 306.534 171.877L318.359 166.657C318.809 166.459 319.318 166.448 319.777 166.625C320.235 166.803 320.604 167.155 320.803 167.604L321.095 168.267C321.293 168.716 321.305 169.226 321.127 169.685C320.949 170.143 320.597 170.512 320.148 170.711Z" fill="#4685FF"/>
<path d="M329.267 202.079L302.905 181.282C302.695 181.356 302.481 181.419 302.265 181.471C301.334 181.688 300.368 181.708 299.43 181.528C298.491 181.348 297.601 180.972 296.817 180.426C296.028 179.879 295.365 179.17 294.872 178.346C294.379 177.522 294.068 176.602 293.959 175.648C293.783 174.123 294.126 172.583 294.935 171.278C295.743 169.973 296.969 168.98 298.413 168.459C299.314 168.135 300.274 168.006 301.228 168.08C302.183 168.153 303.111 168.427 303.953 168.884C304.794 169.341 305.53 169.971 306.111 170.732C306.692 171.493 307.106 172.368 307.325 173.3C307.393 173.596 307.44 173.896 307.466 174.197L333.71 189.337L340.24 185.577L347.475 195.049L337.335 202.276C336.148 203.115 334.722 203.549 333.269 203.514C331.815 203.478 330.412 202.975 329.267 202.079Z" fill="#FFB8B8"/>
<path d="M350.694 197.998L335.652 187.77L342.721 177.758C343.66 176.428 345.038 175.474 346.613 175.062C348.187 174.651 349.857 174.809 351.326 175.509C352.812 176.218 353.996 177.434 354.664 178.939C355.331 180.443 355.439 182.137 354.967 183.715L350.694 197.998Z" fill="#6C63FF"/>
<path d="M352.363 148.402C348.463 151.071 343.343 153.815 339.36 150.972C336.744 149.106 335.92 145.65 336.981 142.617C338.888 137.163 344.128 134.762 349.139 132.922C355.653 130.529 362.745 128.626 369.47 130.339C376.195 132.053 382.138 138.563 380.924 145.396C379.947 150.89 374.765 155.462 375.5 160.994C376.241 166.561 382.502 169.492 388.029 170.487C393.557 171.482 399.742 171.802 403.715 175.772C408.782 180.837 407.517 189.89 402.749 195.237C397.98 200.585 390.784 203.009 383.812 204.657C374.573 206.84 364.582 207.987 355.807 204.364C347.033 200.74 340.206 190.987 342.747 181.84C343.821 177.977 346.35 174.712 348.794 171.533C351.238 168.355 353.714 165.031 354.646 161.131C355.423 157.881 354.848 154.108 352.693 151.67C352.301 151.243 352.054 150.704 351.988 150.128C351.922 149.552 352.04 148.971 352.325 148.466L352.363 148.402Z" fill="#2F2E41"/>
<path d="M67.3814 222.121C63.4716 223.496 59.2738 223.84 55.1924 223.121C51.111 222.402 47.2836 220.644 44.0788 218.016C35.9169 211.166 33.3579 199.88 31.2758 189.43C29.2229 179.126 27.1701 168.823 25.1172 158.52L38.0109 167.398C47.2832 173.782 56.7645 180.371 63.1846 189.619C69.6048 198.867 72.4072 211.491 67.2488 221.498" fill="#275FCA"/>
<path d="M66.2768 259.546C67.5818 250.04 68.9237 240.412 68.0083 230.804C67.1953 222.272 64.5922 213.938 59.2924 207.104C56.4793 203.484 53.0563 200.382 49.1773 197.938C48.1658 197.3 47.2348 198.903 48.2419 199.539C54.9537 203.781 60.1451 210.044 63.0675 217.427C66.2952 225.637 66.8135 234.586 66.2573 243.307C65.9209 248.581 65.208 253.82 64.4897 259.053C64.433 259.29 64.4684 259.539 64.5885 259.75C64.7087 259.962 64.9046 260.12 65.1369 260.193C65.3738 260.257 65.6264 260.224 65.8398 260.103C66.0532 259.982 66.2102 259.782 66.2768 259.546Z" fill="#82ACFF"/>
<path d="M53.7068 242.725C52.03 245.273 49.7251 247.347 47.0142 248.746C44.3033 250.145 41.2777 250.823 38.229 250.713C30.3939 250.341 23.8619 244.873 17.9818 239.681L0.589844 224.325L12.1005 223.775C20.3782 223.378 28.8695 223.009 36.7538 225.562C44.638 228.114 51.9093 234.258 53.351 242.419" fill="#275FCA"/>
<path d="M69.9648 265.009C63.6835 253.895 56.3979 241.543 43.3796 237.595C39.7599 236.501 35.9644 236.109 32.1975 236.44C31.0103 236.543 31.3068 238.373 32.4918 238.271C38.806 237.746 45.1079 239.414 50.3367 242.992C55.3683 246.416 59.2859 251.178 62.6018 256.227C64.6329 259.32 66.4522 262.544 68.2718 265.764C68.8533 266.793 70.5531 266.05 69.9648 265.009Z" fill="#82ACFF"/>
<path d="M80.0308 276.709C79.8192 274.257 78.9387 271.909 77.4853 269.923C76.0319 267.936 74.0614 266.387 71.7882 265.443V259.018H61.0114V265.645C58.8501 266.636 56.9901 268.181 55.621 270.125C54.2518 272.069 53.4225 274.34 53.2177 276.709L50.6836 306.166H82.5649L80.0308 276.709Z" fill="#82ACFF"/>
</g>
<defs>
<clipPath id="clip0_717_2328">
<rect width="427.49" height="308.804" fill="white" transform="translate(0 0.964844)"/>
</clipPath>
</defs>
</svg>
