<svg width="429" height="280" viewBox="0 0 429 280" fill="none" xmlns="http://www.w3.org/2000/svg">
<g clip-path="url(#clip0_717_1918)">
<path d="M252.834 18.4785H205.512V19.38H252.834V18.4785Z" fill="#275FCA"/>
<path d="M168.556 18.4785H18.4766V19.38H168.556V18.4785Z" fill="#275FCA"/>
<path d="M18.478 37.4062C28.6831 37.4062 36.956 29.1333 36.956 18.9282C36.956 8.72308 28.6831 0.450195 18.478 0.450195C8.27288 0.450195 0 8.72308 0 18.9282C0 29.1333 8.27288 37.4062 18.478 37.4062Z" fill="#6C63FF"/>
<path d="M102.755 37.4062C112.96 37.4062 121.233 29.1333 121.233 18.9282C121.233 8.72308 112.96 0.450195 102.755 0.450195C92.5502 0.450195 84.2773 8.72308 84.2773 18.9282C84.2773 29.1333 92.5502 37.4062 102.755 37.4062Z" fill="#3F3D56"/>
<path d="M187.034 37.858C183.291 37.858 179.631 36.7478 176.518 34.6679C173.405 32.5879 170.979 29.6316 169.546 26.1728C168.114 22.714 167.739 18.908 168.469 15.2361C169.2 11.5643 171.002 8.19145 173.65 5.54418C176.297 2.89692 179.67 1.0941 183.342 0.363725C187.013 -0.366654 190.819 0.00819778 194.278 1.44089C197.737 2.87358 200.693 5.29976 202.773 8.41261C204.853 11.5255 205.963 15.1852 205.963 18.929C205.963 23.9493 203.969 28.764 200.419 32.3138C196.869 35.8637 192.055 37.858 187.034 37.858ZM187.034 0.901506C183.469 0.901506 179.984 1.9588 177.019 3.93969C174.054 5.92058 171.744 8.73609 170.379 12.0302C169.015 15.3243 168.658 18.949 169.353 22.446C170.049 25.943 171.766 29.1552 174.287 31.6764C176.808 34.1976 180.02 35.9145 183.517 36.6101C187.014 37.3057 190.639 36.9487 193.933 35.5842C197.227 34.2198 200.043 31.9092 202.024 28.9446C204.005 25.9799 205.062 22.4945 205.062 18.929C205.062 14.1478 203.163 9.56245 199.782 6.18164C196.401 2.80083 191.816 0.901506 187.034 0.901506Z" fill="#275FCA"/>
<path d="M271.312 37.858C267.568 37.858 263.908 36.7478 260.795 34.6679C257.683 32.5879 255.256 29.6316 253.824 26.1728C252.391 22.714 252.016 18.908 252.747 15.2361C253.477 11.5643 255.28 8.19145 257.927 5.54418C260.574 2.89692 263.947 1.0941 267.619 0.363725C271.291 -0.366654 275.097 0.00819778 278.556 1.44089C282.014 2.87358 284.971 5.29976 287.051 8.41261C289.131 11.5255 290.241 15.1852 290.241 18.929C290.241 23.9493 288.247 28.764 284.697 32.3138C281.147 35.8637 276.332 37.858 271.312 37.858ZM271.312 0.901506C267.746 0.901506 264.261 1.9588 261.296 3.93969C258.332 5.92058 256.021 8.73609 254.657 12.0302C253.292 15.3243 252.935 18.949 253.631 22.446C254.326 25.943 256.043 29.1552 258.564 31.6764C261.086 34.1976 264.298 35.9145 267.795 36.6101C271.292 37.3057 274.917 36.9487 278.211 35.5842C281.505 34.2198 284.32 31.9092 286.301 28.9446C288.282 25.9799 289.339 22.4945 289.339 18.929C289.339 16.5616 288.873 14.2174 287.967 12.0302C287.061 9.84299 285.733 7.85565 284.059 6.18164C282.385 4.50763 280.398 3.17973 278.211 2.27377C276.023 1.3678 273.679 0.901506 271.312 0.901506Z" fill="#275FCA"/>
<path d="M17.0538 24.4382C16.7292 24.4385 16.4134 24.3332 16.1538 24.1382L16.1378 24.1262L12.7463 21.5322C12.4291 21.289 12.2215 20.9298 12.1692 20.5335C12.1169 20.1372 12.2241 19.7364 12.4673 19.4192C12.7105 19.102 13.0698 18.8944 13.4661 18.8421C13.8623 18.7898 14.2631 18.897 14.5803 19.1402L16.7768 20.8247L21.9673 14.0527C22.2104 13.7357 22.5695 13.5282 22.9656 13.4759C23.3616 13.4236 23.7623 13.5307 24.0793 13.7737L24.0473 13.8182L24.0803 13.7737C24.3971 14.0171 24.6043 14.3763 24.6566 14.7724C24.7088 15.1684 24.6017 15.569 24.3588 15.8862L18.2533 23.8477C18.1119 24.0313 17.9301 24.1798 17.722 24.2817C17.5139 24.3836 17.2851 24.4361 17.0533 24.4352L17.0538 24.4382Z" fill="white"/>
<path d="M328.292 97.9806C328.637 98.1384 328.969 98.3237 329.285 98.5346L360.862 85.0576L361.989 76.7396L374.606 76.6621L373.861 95.7411L332.182 106.765C332.094 107.054 331.989 107.338 331.867 107.615C331.264 108.9 330.295 109.979 329.081 110.716C327.867 111.453 326.463 111.815 325.044 111.756C323.625 111.697 322.255 111.22 321.106 110.386C319.958 109.551 319.081 108.395 318.587 107.064C318.093 105.733 318.003 104.285 318.329 102.903C318.655 101.521 319.382 100.266 320.419 99.2957C321.455 98.3253 322.756 97.683 324.156 97.4493C325.557 97.2156 326.995 97.401 328.291 97.9821L328.292 97.9806Z" fill="#FEB8B8"/>
<path d="M379.195 270.86H370.563L366.457 237.568H379.196L379.195 270.86Z" fill="#FEB8B8"/>
<path d="M364.399 268.395H381.045V278.873H353.918C353.918 276.093 355.022 273.427 356.988 271.461C358.953 269.496 361.619 268.392 364.399 268.392V268.395Z" fill="#2F2E41"/>
<path d="M412.763 268.422L404.174 269.267L396.824 236.538L409.502 235.293L412.763 268.422Z" fill="#FEB8B8"/>
<path d="M397.791 267.421L414.354 265.789L415.381 276.218L388.39 278.876C388.118 276.11 388.955 273.35 390.718 271.202C392.481 269.053 395.025 267.693 397.79 267.421H397.791Z" fill="#2F2E41"/>
<path d="M381.596 41.4277C391.146 41.4277 398.888 33.6861 398.888 24.1362C398.888 14.5864 391.146 6.84473 381.596 6.84473C372.046 6.84473 364.305 14.5864 364.305 24.1362C364.305 33.6861 372.046 41.4277 381.596 41.4277Z" fill="#FEB8B8"/>
<path d="M368.634 264.128C367.892 264.129 367.173 263.869 366.605 263.392C366.036 262.916 365.654 262.254 365.525 261.523C361.061 236.728 346.455 155.637 346.105 153.389C346.097 153.337 346.093 153.285 346.094 153.233V147.186C346.093 146.966 346.162 146.751 346.29 146.572L348.219 143.872C348.311 143.742 348.431 143.635 348.571 143.559C348.711 143.482 348.866 143.439 349.025 143.432C360.025 142.917 396.043 141.405 397.783 143.579C399.53 145.762 398.909 152.385 398.768 153.689L398.775 153.825L414.958 257.316C415.085 258.142 414.881 258.984 414.392 259.66C413.902 260.337 413.166 260.794 412.342 260.931L402.235 262.596C401.482 262.717 400.711 262.564 400.062 262.164C399.412 261.765 398.928 261.145 398.697 260.419C395.571 250.43 385.089 216.827 381.456 203.824C381.436 203.738 381.385 203.663 381.313 203.613C381.24 203.563 381.151 203.543 381.064 203.555C380.977 203.568 380.898 203.613 380.843 203.681C380.787 203.749 380.76 203.836 380.765 203.924C380.947 216.319 381.385 247.942 381.54 258.864L381.556 260.041C381.562 260.837 381.27 261.607 380.737 262.198C380.203 262.789 379.467 263.159 378.674 263.234L368.928 264.117C368.83 264.126 368.732 264.129 368.634 264.128Z" fill="#2F2E41"/>
<path d="M370.622 48.2268C367.604 50.0208 365.798 53.3167 364.762 56.6767C362.844 62.8871 361.689 69.3081 361.324 75.7978L360.228 95.2273L346.672 146.741C358.422 156.683 365.198 154.423 381.015 146.291C396.831 138.16 398.638 149.002 398.638 149.002L401.801 105.171L406.319 57.2743C405.305 56.0529 404.157 54.9492 402.896 53.9838C398.72 50.7354 393.861 48.4773 388.685 47.3797C383.509 46.2821 378.151 46.3736 373.016 47.6473L370.622 48.2268Z" fill="#82ACFF"/>
<path d="M366.219 108.384C366.583 108.52 366.936 108.685 367.275 108.877L398.498 93.2471L399.016 84.7806L411.896 83.8926L412.586 103.193L370.861 116.993C370.521 118.455 369.743 119.779 368.632 120.788C367.521 121.797 366.128 122.445 364.64 122.643C363.152 122.842 361.639 122.583 360.302 121.901C358.965 121.218 357.867 120.145 357.155 118.824C356.442 117.502 356.149 115.995 356.314 114.503C356.48 113.011 357.095 111.604 358.079 110.471C359.064 109.337 360.37 108.53 361.824 108.157C363.278 107.783 364.811 107.862 366.219 108.381L366.219 108.384Z" fill="#FEB8B8"/>
<path d="M406.095 57.4907C413.777 60.2017 415.131 89.5762 415.131 89.5762C406.093 84.6057 395.248 92.7392 395.248 92.7392C395.248 92.7392 392.989 85.0567 390.278 75.1162C389.459 72.32 389.361 69.362 389.993 66.5177C390.625 63.6734 391.966 61.0352 393.892 58.8487C393.892 58.8487 398.413 54.7782 406.095 57.4907Z" fill="#82ACFF"/>
<path d="M397.098 28.7073C394.944 26.9838 392.005 30.1153 392.005 30.1153L390.281 14.6073C390.281 14.6073 379.51 15.8978 372.614 14.1763C365.719 12.4548 364.643 20.4263 364.643 20.4263C364.287 17.207 364.215 13.9627 364.427 10.7308C364.858 6.85282 370.459 2.97483 380.37 0.389327C390.28 -2.19617 395.451 9.00732 395.451 9.00732C402.349 12.4518 399.255 30.4328 397.098 28.7073Z" fill="#2F2E41"/>
<path d="M428.193 278.875H59.5V279.97H428.193V278.875Z" fill="#82ACFF"/>
<path d="M95.0665 259.538C96.6441 260.093 98.338 260.232 99.985 259.941C101.632 259.651 103.176 258.942 104.469 257.882C107.763 255.118 108.795 250.564 109.635 246.347L112.12 233.874L106.918 237.457C103.176 240.033 99.351 242.692 96.76 246.423C94.169 250.155 93.0385 255.249 95.12 259.286" fill="#82ACFF"/>
<path d="M95.8718 275.506C95.2168 270.735 94.5433 265.903 95.0028 261.081C95.4108 256.799 96.7173 252.616 99.3773 249.187C100.789 247.37 102.507 245.813 104.454 244.587C104.961 244.266 105.429 245.071 104.923 245.39C101.554 247.518 98.948 250.662 97.4808 254.367C95.8608 258.488 95.6008 262.979 95.8808 267.356C96.0498 270.003 96.4073 272.632 96.7678 275.258C96.7962 275.377 96.7784 275.502 96.7181 275.608C96.6577 275.714 96.5594 275.794 96.4428 275.83C96.3239 275.862 96.1972 275.846 96.0901 275.785C95.983 275.724 95.9042 275.624 95.8708 275.505L95.8718 275.506Z" fill="#82ACFF"/>
<path d="M100.586 267.851C101.263 268.88 102.193 269.716 103.286 270.281C104.38 270.846 105.601 271.119 106.831 271.075C109.993 270.925 112.629 268.718 115.001 266.625L122.019 260.429L117.375 260.207C114.035 260.047 110.608 259.898 107.425 260.928C104.241 261.958 101.309 264.437 100.728 267.728" fill="#82ACFF"/>
<path d="M94.0217 278.249C97.1717 272.671 100.831 266.472 107.364 264.49C109.181 263.941 111.086 263.745 112.976 263.911C113.572 263.961 113.423 264.881 112.826 264.829C109.657 264.566 106.494 265.403 103.87 267.199C101.345 268.918 99.3787 271.307 97.7147 273.842C96.6952 275.392 95.7822 277.012 94.8692 278.628C94.5782 279.144 93.7282 278.772 94.0217 278.249Z" fill="#82ACFF"/>
<path d="M316.209 117.298H158.364C157.589 117.297 156.847 116.989 156.299 116.441C155.751 115.893 155.442 115.15 155.441 114.375V75.2209C155.442 74.4459 155.751 73.703 156.299 73.155C156.847 72.607 157.589 72.2988 158.364 72.2979H316.209C316.984 72.2988 317.727 72.607 318.275 73.155C318.823 73.703 319.131 74.4459 319.132 75.2209V114.375C319.131 115.15 318.823 115.893 318.275 116.441C317.727 116.989 316.984 117.297 316.209 117.298ZM158.364 73.4673C157.899 73.4679 157.454 73.6528 157.125 73.9817C156.796 74.3105 156.611 74.7563 156.61 75.2213V114.376C156.611 114.841 156.796 115.287 157.125 115.616C157.453 115.945 157.899 116.129 158.364 116.13H316.209C316.674 116.129 317.12 115.945 317.449 115.616C317.778 115.287 317.963 114.841 317.963 114.376V75.2209C317.963 74.7558 317.778 74.3099 317.449 73.981C317.12 73.6522 316.674 73.4672 316.209 73.4668L158.364 73.4673Z" fill="#82ACFF"/>
<path d="M210.391 85.3574C209.864 85.3574 209.36 85.5665 208.987 85.9387C208.615 86.3109 208.406 86.8156 208.406 87.3419C208.406 87.8683 208.615 88.373 208.987 88.7452C209.36 89.1173 209.864 89.3264 210.391 89.3264H303.945C304.471 89.3264 304.976 89.1173 305.348 88.7452C305.72 88.373 305.929 87.8683 305.929 87.3419C305.929 86.8156 305.72 86.3109 305.348 85.9387C304.976 85.5665 304.471 85.3574 303.945 85.3574H210.391Z" fill="#82ACFF"/>
<path d="M210.391 97.2646C209.864 97.2646 209.36 97.4737 208.987 97.8459C208.615 98.2181 208.406 98.7228 208.406 99.2491C208.406 99.7755 208.615 100.28 208.987 100.652C209.36 101.025 209.864 101.234 210.391 101.234H250.647C251.174 101.234 251.678 101.025 252.05 100.652C252.423 100.28 252.632 99.7755 252.632 99.2491C252.632 98.7228 252.423 98.2181 252.05 97.8459C251.678 97.4737 251.174 97.2646 250.647 97.2646H210.391Z" fill="#82ACFF"/>
<path d="M183.001 105.112C189.577 105.112 194.908 99.7809 194.908 93.2049C194.908 86.6288 189.577 81.2979 183.001 81.2979C176.425 81.2979 171.094 86.6288 171.094 93.2049C171.094 99.7809 176.425 105.112 183.001 105.112Z" fill="#82ACFF"/>
<path d="M181.13 99.8223C180.73 99.8229 180.341 99.6934 180.021 99.4533L180.001 99.4383L175.822 96.2413C175.431 95.9416 175.175 95.4988 175.11 95.0103C175.045 94.5217 175.177 94.0275 175.477 93.6363C175.777 93.2451 176.219 92.989 176.708 92.9243C177.196 92.8596 177.691 92.9916 178.082 93.2913L180.789 95.3668L187.185 87.0218C187.485 86.6312 187.927 86.3754 188.415 86.3109C188.903 86.2464 189.397 86.3784 189.788 86.6778L189.748 86.7328L189.789 86.6778C190.18 86.9778 190.435 87.4203 190.499 87.9083C190.564 88.3963 190.432 88.8899 190.133 89.2808L182.609 99.0978C182.435 99.3238 182.212 99.5067 181.955 99.6322C181.699 99.7578 181.418 99.8227 181.132 99.8218L181.13 99.8223Z" fill="#6C63FF"/>
</g>
<defs>
<clipPath id="clip0_717_1918">
<rect width="428.193" height="279.97" fill="white"/>
</clipPath>
</defs>
</svg>
