<svg width="23" height="20" viewBox="0 0 23 20" fill="none" xmlns="http://www.w3.org/2000/svg">
<g clip-path="url(#clip0_717_2826)">
<path d="M3.78918 9.04908C5.01731 9.04908 6.01582 7.96736 6.01582 6.63689C6.01582 5.30641 5.01731 4.22469 3.78918 4.22469C2.56105 4.22469 1.56254 5.30641 1.56254 6.63689C1.56254 7.96736 2.56105 9.04908 3.78918 9.04908ZM19.3757 9.04908C20.6038 9.04908 21.6023 7.96736 21.6023 6.63689C21.6023 5.30641 20.6038 4.22469 19.3757 4.22469C18.1475 4.22469 17.149 5.30641 17.149 6.63689C17.149 7.96736 18.1475 9.04908 19.3757 9.04908ZM20.489 10.2552H18.2623C17.65 10.2552 17.0968 10.5228 16.6933 10.9562C18.0953 11.7892 19.0904 13.293 19.3061 15.0796H21.6023C22.2181 15.0796 22.7156 14.5406 22.7156 13.8735V12.6674C22.7156 11.3369 21.7171 10.2552 20.489 10.2552ZM11.5824 10.2552C13.736 10.2552 15.479 8.36688 15.479 6.03384C15.479 3.7008 13.736 1.8125 11.5824 1.8125C9.42884 1.8125 7.6858 3.7008 7.6858 6.03384C7.6858 8.36688 9.42884 10.2552 11.5824 10.2552ZM14.2544 11.4613H13.9656C13.242 11.8382 12.4383 12.0643 11.5824 12.0643C10.7266 12.0643 9.92636 11.8382 9.19922 11.4613H8.91045C6.69773 11.4613 4.9025 13.4061 4.9025 15.8032V16.8887C4.9025 17.8875 5.65051 18.6979 6.57248 18.6979H16.5924C17.5143 18.6979 18.2623 17.8875 18.2623 16.8887V15.8032C18.2623 13.4061 16.4671 11.4613 14.2544 11.4613ZM6.47158 10.9562C6.06801 10.5228 5.51482 10.2552 4.9025 10.2552H2.67586C1.44773 10.2552 0.449219 11.3369 0.449219 12.6674V13.8735C0.449219 14.5406 0.946734 15.0796 1.56254 15.0796H3.85528C4.07447 13.293 5.0695 11.7892 6.47158 10.9562Z" fill="#2F327D"/>
</g>
<defs>
<clipPath id="clip0_717_2826">
<rect width="22.2664" height="19.2975" fill="white" transform="translate(0.449219 0.605469)"/>
</clipPath>
</defs>
</svg>
