<svg width="63" height="29" viewBox="0 0 63 29" fill="none" xmlns="http://www.w3.org/2000/svg">
<path d="M1.61719 10.2851C3.77689 7.92241 9.59739 3.49079 15.6018 4.66575C23.1073 6.13444 27.277 10.2851 36.8994 10.2851C46.5219 10.2851 54.2198 -0.251141 62.6234 1.98379" stroke="#B2C4F0" stroke-width="2.22664"/>
<path d="M1.61719 18.8969C3.77689 16.5342 9.59739 12.1026 15.6018 13.2776C23.1073 14.7463 27.277 18.8969 36.8994 18.8969C46.5219 18.8969 54.2198 8.36068 62.6234 10.5956" stroke="#B2C4F0" stroke-width="2.22664"/>
<path d="M1.61719 27.5097C3.77689 25.147 9.59739 20.7154 15.6018 21.8904C23.1073 23.359 27.277 27.5097 36.8994 27.5097C46.5219 27.5097 54.2198 16.9735 62.6234 19.2084" stroke="#B2C4F0" stroke-width="2.22664"/>
</svg>
