<svg width="38" height="49" viewBox="0 0 38 49" fill="none" xmlns="http://www.w3.org/2000/svg">
<rect x="0.25" y="0.441162" width="37.5" height="48.1183" rx="6" fill="#23BDEE"/>
<g clip-path="url(#clip0_134_146)">
<path d="M13.8436 11.2677C13.4367 11.2677 13.1069 11.6909 13.1069 12.2129V14.1032H14.5801V12.2129C14.5801 11.6909 14.2503 11.2677 13.8436 11.2677Z" fill="white"/>
<path d="M24.1561 11.2677C23.7492 11.2677 23.4194 11.6909 23.4194 12.2129V14.1032H24.8926V12.2129C24.8927 11.6909 24.5629 11.2677 24.1561 11.2677Z" fill="white"/>
<path d="M27.1027 14.1033H24.8929V17.884C24.8929 18.406 24.5631 18.8292 24.1562 18.8292C23.7494 18.8292 23.4196 18.406 23.4196 17.884V14.1033H14.5803V17.884C14.5803 18.406 14.2505 18.8292 13.8437 18.8292C13.4369 18.8292 13.1071 18.406 13.1071 17.884V14.1033H10.8973C9.67687 14.1033 8.6875 15.3728 8.6875 16.9388V34.8973C8.6875 36.4633 9.67687 37.7328 10.8973 37.7328H27.1027C28.3231 37.7328 29.3125 36.4633 29.3125 34.8973V16.9388C29.3125 15.3728 28.3231 14.1033 27.1027 14.1033ZM27.8393 34.8973C27.8393 35.4193 27.5095 35.8425 27.1026 35.8425H10.8973C10.4905 35.8425 10.1607 35.4193 10.1607 34.8973V22.6099H27.8393V34.8973Z" fill="white"/>
<path d="M14.5804 24.5002H13.1072C12.7004 24.5002 12.3706 24.9234 12.3706 25.4454C12.3706 25.9675 12.7004 26.3907 13.1072 26.3907H14.5804C14.9873 26.3907 15.3171 25.9675 15.3171 25.4454C15.3171 24.9234 14.9873 24.5002 14.5804 24.5002Z" fill="white"/>
<path d="M19.7367 24.5002H18.2635C17.8566 24.5002 17.5269 24.9234 17.5269 25.4454C17.5269 25.9675 17.8566 26.3907 18.2635 26.3907H19.7367C20.1435 26.3907 20.4733 25.9675 20.4733 25.4454C20.4733 24.9234 20.1435 24.5002 19.7367 24.5002Z" fill="white"/>
<path d="M24.8929 24.5002H23.4197C23.0129 24.5002 22.6831 24.9234 22.6831 25.4454C22.6831 25.9675 23.0129 26.3907 23.4197 26.3907H24.8929C25.2998 26.3907 25.6295 25.9675 25.6295 25.4454C25.6295 24.9234 25.2997 24.5002 24.8929 24.5002Z" fill="white"/>
<path d="M14.5804 28.281H13.1072C12.7004 28.281 12.3706 28.7042 12.3706 29.2262C12.3706 29.7482 12.7004 30.1714 13.1072 30.1714H14.5804C14.9873 30.1714 15.3171 29.7482 15.3171 29.2262C15.3171 28.7042 14.9873 28.281 14.5804 28.281Z" fill="white"/>
<path d="M19.7367 28.281H18.2635C17.8566 28.281 17.5269 28.7042 17.5269 29.2262C17.5269 29.7482 17.8566 30.1714 18.2635 30.1714H19.7367C20.1435 30.1714 20.4733 29.7482 20.4733 29.2262C20.4733 28.7042 20.1435 28.281 19.7367 28.281Z" fill="white"/>
<path d="M24.8929 28.281H23.4197C23.0129 28.281 22.6831 28.7042 22.6831 29.2262C22.6831 29.7482 23.0129 30.1714 23.4197 30.1714H24.8929C25.2998 30.1714 25.6295 29.7482 25.6295 29.2262C25.6295 28.7042 25.2997 28.281 24.8929 28.281Z" fill="white"/>
<path d="M14.5804 32.0618H13.1072C12.7004 32.0618 12.3706 32.4849 12.3706 33.007C12.3706 33.529 12.7004 33.9521 13.1072 33.9521H14.5804C14.9873 33.9521 15.3171 33.5289 15.3171 33.0069C15.3171 32.4849 14.9873 32.0618 14.5804 32.0618Z" fill="white"/>
<path d="M19.7367 32.0618H18.2635C17.8566 32.0618 17.5269 32.4849 17.5269 33.007C17.5269 33.529 17.8566 33.9522 18.2635 33.9522H19.7367C20.1435 33.9522 20.4733 33.529 20.4733 33.007C20.4733 32.4849 20.1435 32.0618 19.7367 32.0618Z" fill="white"/>
<path d="M24.8929 32.0618H23.4197C23.0129 32.0618 22.6831 32.4849 22.6831 33.007C22.6831 33.529 23.0129 33.9522 23.4197 33.9522H24.8929C25.2998 33.9522 25.6295 33.529 25.6295 33.007C25.6295 32.4849 25.2997 32.0618 24.8929 32.0618Z" fill="white"/>
</g>
<defs>
<clipPath id="clip0_134_146">
<rect width="20.625" height="26.4651" fill="white" transform="translate(8.6875 11.2677)"/>
</clipPath>
</defs>
</svg>
