<svg width="38" height="46" viewBox="0 0 38 46" fill="none" xmlns="http://www.w3.org/2000/svg">
<rect x="0.25" y="0.61084" width="37.5" height="44.6556" rx="6" fill="#23BDEE"/>
<g clip-path="url(#clip0_717_3225)">
<path d="M13.844 10.6583C13.4372 10.6583 13.1074 11.051 13.1074 11.5355V13.2898H14.5806V11.5355C14.5806 11.051 14.2508 10.6583 13.844 10.6583Z" fill="white"/>
<path d="M24.1565 10.6583C23.7497 10.6583 23.4199 11.051 23.4199 11.5355V13.2898H24.8931V11.5355C24.8932 11.051 24.5634 10.6583 24.1565 10.6583Z" fill="white"/>
<path d="M27.1027 13.2898H24.8929V16.7985C24.8929 17.2829 24.5631 17.6756 24.1562 17.6756C23.7494 17.6756 23.4196 17.2829 23.4196 16.7985V13.2898H14.5803V16.7985C14.5803 17.2829 14.2505 17.6756 13.8437 17.6756C13.4369 17.6756 13.1071 17.2829 13.1071 16.7985V13.2898H10.8973C9.67687 13.2898 8.6875 14.468 8.6875 15.9213V32.5874C8.6875 34.0408 9.67687 35.2189 10.8973 35.2189H27.1027C28.3231 35.2189 29.3125 34.0408 29.3125 32.5874V15.9213C29.3125 14.468 28.3231 13.2898 27.1027 13.2898ZM27.8393 32.5874C27.8393 33.0719 27.5095 33.4646 27.1026 33.4646H10.8973C10.4905 33.4646 10.1607 33.0719 10.1607 32.5874V21.1843H27.8393V32.5874Z" fill="white"/>
<path d="M14.5809 22.9386H13.1077C12.7009 22.9386 12.3711 23.3313 12.3711 23.8158C12.3711 24.3002 12.7009 24.693 13.1077 24.693H14.5809C14.9877 24.693 15.3175 24.3002 15.3175 23.8158C15.3175 23.3313 14.9877 22.9386 14.5809 22.9386Z" fill="white"/>
<path d="M19.7372 22.9386H18.264C17.8571 22.9386 17.5273 23.3313 17.5273 23.8158C17.5273 24.3002 17.8571 24.693 18.264 24.693H19.7372C20.144 24.693 20.4738 24.3002 20.4738 23.8158C20.4738 23.3313 20.144 22.9386 19.7372 22.9386Z" fill="white"/>
<path d="M24.8934 22.9386H23.4202C23.0134 22.9386 22.6836 23.3313 22.6836 23.8158C22.6836 24.3002 23.0134 24.693 23.4202 24.693H24.8934C25.3002 24.693 25.63 24.3002 25.63 23.8158C25.63 23.3313 25.3002 22.9386 24.8934 22.9386Z" fill="white"/>
<path d="M14.5809 26.4473H13.1077C12.7009 26.4473 12.3711 26.84 12.3711 27.3244C12.3711 27.8089 12.7009 28.2016 13.1077 28.2016H14.5809C14.9877 28.2016 15.3175 27.8089 15.3175 27.3244C15.3175 26.84 14.9877 26.4473 14.5809 26.4473Z" fill="white"/>
<path d="M19.7372 26.4473H18.264C17.8571 26.4473 17.5273 26.84 17.5273 27.3244C17.5273 27.8089 17.8571 28.2016 18.264 28.2016H19.7372C20.144 28.2016 20.4738 27.8089 20.4738 27.3244C20.4738 26.84 20.144 26.4473 19.7372 26.4473Z" fill="white"/>
<path d="M24.8934 26.4473H23.4202C23.0134 26.4473 22.6836 26.84 22.6836 27.3244C22.6836 27.8089 23.0134 28.2016 23.4202 28.2016H24.8934C25.3002 28.2016 25.63 27.8089 25.63 27.3244C25.63 26.84 25.3002 26.4473 24.8934 26.4473Z" fill="white"/>
<path d="M14.5809 29.9559H13.1077C12.7009 29.9559 12.3711 30.3487 12.3711 30.8331C12.3711 31.3176 12.7009 31.7102 13.1077 31.7102H14.5809C14.9877 31.7102 15.3175 31.3175 15.3175 30.8331C15.3175 30.3486 14.9877 29.9559 14.5809 29.9559Z" fill="white"/>
<path d="M19.7372 29.9559H18.264C17.8571 29.9559 17.5273 30.3487 17.5273 30.8331C17.5273 31.3176 17.8571 31.7103 18.264 31.7103H19.7372C20.144 31.7103 20.4738 31.3176 20.4738 30.8331C20.4738 30.3487 20.144 29.9559 19.7372 29.9559Z" fill="white"/>
<path d="M24.8934 29.9559H23.4202C23.0134 29.9559 22.6836 30.3487 22.6836 30.8331C22.6836 31.3176 23.0134 31.7103 23.4202 31.7103H24.8934C25.3002 31.7103 25.63 31.3176 25.63 30.8331C25.63 30.3487 25.3002 29.9559 24.8934 29.9559Z" fill="white"/>
</g>
<defs>
<clipPath id="clip0_717_3225">
<rect width="20.625" height="24.5606" fill="white" transform="translate(8.6875 10.6583)"/>
</clipPath>
</defs>
</svg>
