<svg width="105" height="19" viewBox="0 0 105 19" fill="none" xmlns="http://www.w3.org/2000/svg">
<path d="M9.46369 0.36377L12.4969 5.08618L17.9255 6.51164L14.3715 10.8557L14.6934 16.4591L9.46369 14.4215L4.234 16.4591L4.55583 10.8557L1.00187 6.51164L6.43047 5.08618L9.46369 0.36377Z" fill="#FBA333"/>
<path d="M30.4363 0.36377L33.4696 5.08618L38.8982 6.51164L35.3442 10.8557L35.666 16.4591L30.4363 14.4215L25.2067 16.4591L25.5285 10.8557L21.9745 6.51164L27.4031 5.08618L30.4363 0.36377Z" fill="#FBA333"/>
<path d="M51.409 0.36377L54.4422 5.08618L59.8708 6.51164L56.3169 10.8557L56.6387 16.4591L51.409 14.4215L46.1793 16.4591L46.5011 10.8557L42.9472 6.51164L48.3758 5.08618L51.409 0.36377Z" fill="#FBA333"/>
<path d="M72.3797 0.36377L75.4129 5.08618L80.8415 6.51164L77.2876 10.8557L77.6094 16.4591L72.3797 14.4215L67.15 16.4591L67.4718 10.8557L63.9179 6.51164L69.3465 5.08618L72.3797 0.36377Z" fill="#FBA333"/>
<path d="M95.3524 0.36377L98.3856 5.08618L103.814 6.51164L100.26 10.8557L100.582 16.4591L95.3524 14.4215L90.1227 16.4591L90.4445 10.8557L86.8905 6.51164L92.3191 5.08618L95.3524 0.36377Z" fill="#FBA333"/>
</svg>
