<svg width="100" height="100" viewBox="0 0 100 100" fill="none" xmlns="http://www.w3.org/2000/svg">
<rect width="100" height="100" fill="white"/>
<path d="M20.6956 70.7737C19.0165 70.7908 17.3387 70.6746 15.678 70.4264C14.1317 70.1648 13.3477 69.7933 13.3477 69.3222L13.3482 69.3137L16.2329 47.3509L14.78 43.1862C14.719 43.0113 14.701 42.8244 14.7276 42.6411C14.7541 42.4578 14.8243 42.2836 14.9323 42.1331C15.0404 41.9827 15.183 41.8605 15.3482 41.7768C15.5135 41.6931 15.6964 41.6505 15.8816 41.6524L25.4356 41.7519C25.6174 41.7538 25.7962 41.7986 25.9573 41.8828C26.1185 41.9669 26.2576 42.0879 26.3631 42.2359C26.4686 42.384 26.5377 42.5549 26.5646 42.7347C26.5916 42.9145 26.5756 43.0981 26.5182 43.2706L25.1582 47.3504L28.0429 69.3137C28.0435 70.4681 23.4247 70.7737 20.6956 70.7737Z" fill="#F2F2F2"/>
<path d="M19.9168 67.6821H15.25V67.9446H19.9168V67.6821Z" fill="#CCCCCC"/>
<path d="M19.9168 66.1074H15.25V66.3699H19.9168V66.1074Z" fill="#CCCCCC"/>
<path d="M19.9168 64.5337H15.25V64.7961H19.9168V64.5337Z" fill="#CCCCCC"/>
<path d="M19.9168 62.9585H15.25V63.2209H19.9168V62.9585Z" fill="#CCCCCC"/>
<path d="M19.9168 61.3843H15.25V61.6467H19.9168V61.3843Z" fill="#CCCCCC"/>
<path d="M62.6839 70.7737C61.0048 70.7908 59.327 70.6746 57.6663 70.4264C56.12 70.1648 55.3359 69.7933 55.3359 69.3222L55.3365 69.3137L58.2211 47.3509L56.7683 43.1862C56.7073 43.0113 56.6893 42.8244 56.7158 42.6411C56.7423 42.4578 56.8126 42.2836 56.9206 42.1331C57.0286 41.9827 57.1713 41.8605 57.3365 41.7768C57.5017 41.6931 57.6847 41.6505 57.8699 41.6524L67.4239 41.7519C67.6057 41.7538 67.7844 41.7986 67.9456 41.8828C68.1068 41.9669 68.2458 42.0879 68.3514 42.2359C68.4569 42.384 68.526 42.5549 68.5529 42.7347C68.5799 42.9145 68.5639 43.0981 68.5064 43.2706L67.1465 47.3504L70.0312 69.3137C70.0318 70.4681 65.413 70.7737 62.6839 70.7737Z" fill="#F2F2F2"/>
<path d="M61.9051 67.6821H57.2383V67.9446H61.9051V67.6821Z" fill="#CCCCCC"/>
<path d="M61.9051 66.1079H57.2383V66.3703H61.9051V66.1079Z" fill="#CCCCCC"/>
<path d="M61.9051 64.5337H57.2383V64.7961H61.9051V64.5337Z" fill="#CCCCCC"/>
<path d="M61.9051 62.9585H57.2383V63.2209H61.9051V62.9585Z" fill="#CCCCCC"/>
<path d="M61.9051 61.3843H57.2383V61.6467H61.9051V61.3843Z" fill="#CCCCCC"/>
<path d="M43.0003 70.7737C41.3212 70.7908 39.6434 70.6746 37.9827 70.4264C36.4364 70.1648 35.6523 69.7933 35.6523 69.3222L35.6529 69.3137L38.5376 47.3509L37.0847 43.1862C37.0237 43.0113 37.0057 42.8244 37.0322 42.6411C37.0587 42.4578 37.129 42.2836 37.237 42.1331C37.345 41.9827 37.4877 41.8605 37.6529 41.7768C37.8181 41.6931 38.0011 41.6505 38.1863 41.6524L47.7403 41.7519C47.9221 41.7538 48.1009 41.7986 48.262 41.8828C48.4232 41.9669 48.5623 42.0879 48.6678 42.2359C48.7733 42.384 48.8424 42.5549 48.8693 42.7347C48.8963 42.9145 48.8803 43.0981 48.8228 43.2706L47.4629 47.3504L50.3476 69.3137C50.3482 70.4681 45.7294 70.7737 43.0003 70.7737Z" fill="#F2F2F2"/>
<path d="M42.2215 67.6821H37.5547V67.9446H42.2215V67.6821Z" fill="#CCCCCC"/>
<path d="M42.2215 66.1074H37.5547V66.3699H42.2215V66.1074Z" fill="#CCCCCC"/>
<path d="M42.2215 64.5337H37.5547V64.7961H42.2215V64.5337Z" fill="#CCCCCC"/>
<path d="M42.2215 62.9585H37.5547V63.2209H42.2215V62.9585Z" fill="#CCCCCC"/>
<path d="M42.2215 61.3843H37.5547V61.6467H42.2215V61.3843Z" fill="#CCCCCC"/>
<path d="M74.0319 72.4057H65.1094V57.4474H74.0319C74.5191 57.4474 74.9864 57.2539 75.3309 56.9094C75.6754 56.5649 75.8689 56.0976 75.8689 55.6104C75.8689 55.1232 75.6754 54.656 75.3309 54.3115C74.9864 53.967 74.5191 53.7734 74.0319 53.7734H11.837C11.3498 53.7734 10.8825 53.967 10.538 54.3115C10.1935 54.656 10 55.1232 10 55.6104C10 56.0976 10.1935 56.5649 10.538 56.9094C10.8825 57.2539 11.3498 57.4474 11.837 57.4474H19.4473V72.4057H11.837C11.3498 72.4057 10.8825 72.5992 10.538 72.9437C10.1935 73.2882 10 73.7555 10 74.2427C10 74.7299 10.1935 75.1971 10.538 75.5416C10.8825 75.8861 11.3498 76.0796 11.837 76.0796H74.0319C74.2733 76.0799 74.5124 76.0326 74.7355 75.9404C74.9586 75.8482 75.1614 75.7129 75.3321 75.5423C75.5029 75.3717 75.6384 75.1691 75.7309 74.9461C75.8233 74.7231 75.8709 74.4841 75.8709 74.2427C75.8709 74.0013 75.8233 73.7622 75.7309 73.5392C75.6384 73.3162 75.5029 73.1136 75.3321 72.943C75.1614 72.7724 74.9586 72.6371 74.7355 72.5449C74.5124 72.4527 74.2733 72.4054 74.0319 72.4057ZM23.1213 72.4057V57.4474H61.4355V72.4057H23.1213Z" fill="#CCCCCC"/>
<path d="M72.5873 91.7736C68.0237 91.7736 63.7673 91.4786 60.6027 90.9432C56.6986 90.2828 54.8008 89.3232 54.8008 88.0095L54.8029 87.9681L61.6553 35.7914L58.2246 25.9569C58.06 25.4942 58.0106 24.9984 58.0809 24.5123C58.1512 24.0263 58.339 23.5647 58.6279 23.1676C58.9101 22.7643 59.2877 22.437 59.7269 22.2149C60.1662 21.9928 60.6535 21.8827 61.1456 21.8944L83.863 22.131C84.3445 22.136 84.8181 22.2548 85.245 22.4775C85.6719 22.7003 86.0401 23.0208 86.3197 23.4129C86.5992 23.805 86.7821 24.2577 86.8535 24.7339C86.9249 25.2101 86.8827 25.6965 86.7304 26.1533L83.519 35.7877L90.3725 87.969V87.9891C90.3733 89.4055 88.2246 90.4111 83.8039 91.0635C79.461 91.7044 74.5131 91.7736 72.5873 91.7736Z" fill="white"/>
<path d="M72.5873 91.7736C68.0237 91.7736 63.7673 91.4786 60.6027 90.9432C56.6986 90.2828 54.8008 89.3232 54.8008 88.0095L54.8029 87.9681L61.6553 35.7914L58.2246 25.9569C58.06 25.4942 58.0106 24.9984 58.0809 24.5123C58.1512 24.0263 58.339 23.5647 58.6279 23.1676C58.9101 22.7643 59.2877 22.437 59.7269 22.2149C60.1662 21.9928 60.6535 21.8827 61.1456 21.8944L83.863 22.131C84.3445 22.136 84.8181 22.2548 85.245 22.4775C85.6719 22.7003 86.0401 23.0208 86.3197 23.4129C86.5992 23.805 86.7821 24.2577 86.8535 24.7339C86.9249 25.2101 86.8827 25.6965 86.7304 26.1533L83.519 35.7877L90.3725 87.969V87.9891C90.3733 89.4055 88.2246 90.4111 83.8039 91.0635C79.461 91.7044 74.5131 91.7736 72.5873 91.7736ZM61.0828 22.5179C60.7005 22.5175 60.3237 22.6095 59.9845 22.786C59.6454 22.9625 59.3539 23.2183 59.1348 23.5317C58.9049 23.8477 58.7555 24.215 58.6996 24.6018C58.6436 24.9885 58.6829 25.3831 58.8139 25.7512L62.2934 35.7256L62.2837 35.799L55.4237 88.0299C55.4249 88.5416 56.1111 89.5505 60.7069 90.3276C63.8382 90.8575 68.0574 91.1495 72.5873 91.1495C76.5691 91.1495 80.7282 90.8865 83.7128 90.4461C87.5254 89.8836 89.7218 88.9956 89.7481 88.008L82.8815 35.7268L86.1383 25.956C86.2594 25.5925 86.293 25.2055 86.2362 24.8265C86.1794 24.4475 86.0339 24.0874 85.8114 23.7753C85.589 23.4633 85.296 23.2082 84.9563 23.0309C84.6166 22.8536 84.2398 22.7591 83.8566 22.7551L61.1357 22.5185C61.118 22.518 61.1003 22.5179 61.0828 22.5179Z" fill="#3F3D56"/>
<path opacity="0.5" d="M85.5365 81.6252H59.6367L63.7424 53.8625L63.8543 53.0973L65.5647 41.5395C65.6691 40.8345 66.4807 41.382 67.0546 40.9594C70.6177 38.3355 74.2235 38.2594 77.8606 40.7884C78.4228 41.1793 79.1994 40.7218 79.3043 41.3985L81.1011 52.9913L81.2748 54.1126L85.5365 81.6252Z" fill="#6C63FF"/>
<path d="M82.3405 85.513H62.8062C62.2941 85.513 61.7879 85.4026 61.3223 85.1894C60.8567 84.9762 60.4425 84.6652 60.1079 84.2775C59.7734 83.8897 59.5263 83.4345 59.3835 82.9427C59.2407 82.4509 59.2056 81.9341 59.2806 81.4275L64.9879 42.8335C65.0173 42.6362 65.0984 42.4502 65.2229 42.2942C65.3473 42.1383 65.5108 42.018 65.6967 41.9455C65.8826 41.8731 66.0843 41.851 66.2815 41.8816C66.4786 41.9121 66.6642 41.9942 66.8195 42.1196C70.2978 44.906 74.0888 44.8433 78.0869 41.934C78.2419 41.8207 78.4237 41.7494 78.6144 41.7272C78.8052 41.705 78.9985 41.7325 79.1754 41.8072C79.356 41.8814 79.5144 42.001 79.635 42.1546C79.7556 42.3081 79.8344 42.4903 79.8636 42.6833L85.8626 81.4034C85.9412 81.9115 85.9091 82.4306 85.7682 82.9251C85.6274 83.4196 85.3812 83.8778 85.0466 84.2682C84.712 84.6586 84.2969 84.972 83.8298 85.1868C83.3627 85.4017 82.8547 85.513 82.3405 85.513Z" fill="#6C63FF"/>
<path d="M74.4813 80.9883H63.3828V81.6124H74.4813V80.9883Z" fill="white"/>
<path d="M74.4813 77.2437H63.3828V77.8677H74.4813V77.2437Z" fill="white"/>
<path d="M74.4813 73.4995H63.3828V74.1236H74.4813V73.4995Z" fill="white"/>
<path d="M74.4813 69.7549H63.3828V70.379H74.4813V69.7549Z" fill="white"/>
<path d="M74.4813 66.0098H63.3828V66.6339H74.4813V66.0098Z" fill="white"/>
<path d="M81.7995 56.1866C80.9387 57.0414 79.9032 57.6998 78.764 58.1167C77.6248 58.5336 76.4089 58.6991 75.1997 58.6018C73.8205 58.477 72.5629 57.9621 71.3522 57.3131C70.1009 56.6422 68.8902 55.8403 67.5047 55.4658C66.2908 55.1381 64.8523 55.0944 63.8101 55.9058C63.7249 55.9718 63.6208 56.0089 63.5131 56.0117C63.4053 56.0145 63.2995 55.9829 63.2109 55.9214L63.3295 55.1101C64.4903 54.2987 65.9008 54.1739 67.2831 54.4516C70.0666 55.0133 72.1791 57.3162 75.0312 57.647C76.2615 57.7855 77.5069 57.6162 78.6556 57.1543C79.8043 56.6925 80.8203 55.9525 81.6122 55.0008L81.6153 54.9977L81.7995 56.1866Z" fill="white"/>
<path d="M79.7605 11.2265C80.4674 11.2265 81.0405 10.6534 81.0405 9.9465C81.0405 9.23958 80.4674 8.6665 79.7605 8.6665C79.0535 8.6665 78.4805 9.23958 78.4805 9.9465C78.4805 10.6534 79.0535 11.2265 79.7605 11.2265Z" fill="#6C63FF"/>
<path d="M72.9323 20.4003C73.6393 20.4003 74.2123 19.8273 74.2123 19.1203C74.2123 18.4134 73.6393 17.8403 72.9323 17.8403C72.2254 17.8403 71.6523 18.4134 71.6523 19.1203C71.6523 19.8273 72.2254 20.4003 72.9323 20.4003Z" fill="#6C63FF"/>
</svg>
