<svg width="100" height="100" viewBox="0 0 100 100" fill="none" xmlns="http://www.w3.org/2000/svg">
<rect width="100" height="100" fill="white"/>
<path d="M46.6098 23.2064H18.5759C18.1579 23.2064 17.7571 23.0404 17.4616 22.7449C17.166 22.4493 17 22.0485 17 21.6306C17 21.2126 17.166 20.8118 17.4616 20.5163C17.7571 20.2207 18.1579 20.0547 18.5759 20.0547H46.6098C47.0278 20.0547 47.4286 20.2207 47.7241 20.5163C48.0197 20.8118 48.1857 21.2126 48.1857 21.6306C48.1857 22.0485 48.0197 22.4493 47.7241 22.7449C47.4286 23.0404 47.0278 23.2064 46.6098 23.2064Z" fill="#CCCCCC"/>
<path d="M81.4458 23.2064H53.4118C52.9939 23.2064 52.593 23.0404 52.2975 22.7449C52.002 22.4493 51.8359 22.0485 51.8359 21.6306C51.8359 21.2126 52.002 20.8118 52.2975 20.5163C52.593 20.2207 52.9939 20.0547 53.4118 20.0547H81.4458C81.8637 20.0547 82.2645 20.2207 82.5601 20.5163C82.8556 20.8118 83.0216 21.2126 83.0216 21.6306C83.0216 22.0485 82.8556 22.4493 82.5601 22.7449C82.2645 23.0404 81.8637 23.2064 81.4458 23.2064Z" fill="#CCCCCC"/>
<path d="M81.4466 29.1786H32.6774C32.2595 29.1786 31.8587 29.0126 31.5631 28.717C31.2676 28.4215 31.1016 28.0207 31.1016 27.6027C31.1016 27.1848 31.2676 26.7839 31.5631 26.4884C31.8587 26.1929 32.2595 26.0269 32.6774 26.0269H81.4466C81.8645 26.0269 82.2653 26.1929 82.5609 26.4884C82.8564 26.7839 83.0224 27.1848 83.0224 27.6027C83.0224 28.0207 82.8564 28.4215 82.5609 28.717C82.2653 29.0126 81.8645 29.1786 81.4466 29.1786Z" fill="#CCCCCC"/>
<path d="M46.6079 17.1517H18.5739C18.1563 17.1512 17.756 16.985 17.4609 16.6895C17.1658 16.394 17 15.9935 17 15.5759C17 15.1583 17.1658 14.7577 17.4609 14.4622C17.756 14.1668 18.1563 14.0005 18.5739 14H46.6079C46.815 13.9997 47.0201 14.0403 47.2115 14.1194C47.403 14.1985 47.5769 14.3145 47.7235 14.4609C47.87 14.6072 47.9862 14.781 48.0656 14.9724C48.1449 15.1637 48.1857 15.3688 48.1857 15.5759C48.1857 15.783 48.1449 15.9881 48.0656 16.1794C47.9862 16.3707 47.87 16.5445 47.7235 16.6909C47.5769 16.8372 47.403 16.9533 47.2115 17.0323C47.0201 17.1114 46.815 17.152 46.6079 17.1517Z" fill="#CCCCCC"/>
<path d="M62.0382 17.2352H54.0759C53.6579 17.2352 53.2571 17.0692 52.9616 16.7737C52.666 16.4781 52.5 16.0773 52.5 15.6594C52.5 15.2414 52.666 14.8406 52.9616 14.5451C53.2571 14.2495 53.6579 14.0835 54.0759 14.0835H62.0382C62.4561 14.0835 62.857 14.2495 63.1525 14.5451C63.448 14.8406 63.614 15.2414 63.614 15.6594C63.614 16.0773 63.448 16.4781 63.1525 16.7737C62.857 17.0692 62.4561 17.2352 62.0382 17.2352Z" fill="#CCCCCC"/>
<path d="M26.5362 29.1786H18.5739C18.1563 29.1781 17.756 29.0118 17.4609 28.7164C17.1658 28.4209 17 28.0203 17 27.6027C17 27.1851 17.1658 26.7846 17.4609 26.4891C17.756 26.1936 18.1563 26.0274 18.5739 26.0269H26.5362C26.7433 26.0266 26.9485 26.0672 27.1399 26.1463C27.3313 26.2253 27.5053 26.3414 27.6518 26.4877C27.7983 26.6341 27.9146 26.8079 27.9939 26.9992C28.0732 27.1905 28.1141 27.3956 28.1141 27.6027C28.1141 27.8098 28.0732 28.0149 27.9939 28.2062C27.9146 28.3976 27.7983 28.5714 27.6518 28.7177C27.5053 28.8641 27.3313 28.9801 27.1399 29.0592C26.9485 29.1383 26.7433 29.1789 26.5362 29.1786Z" fill="#CCCCCC"/>
<path d="M46.6098 79.1268H18.5759C18.1579 79.1268 17.7571 78.9608 17.4616 78.6653C17.166 78.3697 17 77.9689 17 77.551C17 77.133 17.166 76.7322 17.4616 76.4367C17.7571 76.1411 18.1579 75.9751 18.5759 75.9751H46.6098C46.8168 75.9751 47.0217 76.0159 47.2129 76.0951C47.4041 76.1742 47.5778 76.2903 47.7241 76.4367C47.8705 76.583 47.9865 76.7567 48.0657 76.9479C48.1449 77.1391 48.1857 77.344 48.1857 77.551C48.1857 77.7579 48.1449 77.9628 48.0657 78.154C47.9865 78.3452 47.8705 78.5189 47.7241 78.6653C47.5778 78.8116 47.4041 78.9277 47.2129 79.0069C47.0217 79.0861 46.8168 79.1268 46.6098 79.1268Z" fill="#CCCCCC"/>
<path d="M81.4458 79.1268H53.4118C52.9939 79.1268 52.593 78.9608 52.2975 78.6653C52.002 78.3697 51.8359 77.9689 51.8359 77.551C51.8359 77.133 52.002 76.7322 52.2975 76.4367C52.593 76.1411 52.9939 75.9751 53.4118 75.9751H81.4458C81.6527 75.9751 81.8576 76.0159 82.0488 76.0951C82.24 76.1742 82.4137 76.2903 82.5601 76.4367C82.7064 76.583 82.8225 76.7567 82.9017 76.9479C82.9809 77.1391 83.0216 77.344 83.0216 77.551C83.0216 77.7579 82.9809 77.9628 82.9017 78.154C82.8225 78.3452 82.7064 78.5189 82.5601 78.6653C82.4137 78.8116 82.24 78.9277 82.0488 79.0069C81.8576 79.0861 81.6527 79.1268 81.4458 79.1268Z" fill="#CCCCCC"/>
<path d="M81.4466 85.0985H32.6774C32.2595 85.0985 31.8587 84.9325 31.5631 84.637C31.2676 84.3414 31.1016 83.9406 31.1016 83.5226C31.1016 83.1047 31.2676 82.7039 31.5631 82.4083C31.8587 82.1128 32.2595 81.9468 32.6774 81.9468H81.4466C81.6537 81.9465 81.8588 81.9871 82.0502 82.0662C82.2416 82.1453 82.4156 82.2613 82.5621 82.4076C82.7087 82.554 82.8249 82.7278 82.9042 82.9191C82.9836 83.1105 83.0244 83.3155 83.0244 83.5226C83.0244 83.7298 82.9836 83.9348 82.9042 84.1262C82.8249 84.3175 82.7087 84.4913 82.5621 84.6377C82.4156 84.784 82.2416 84.9 82.0502 84.9791C81.8588 85.0582 81.6537 85.0988 81.4466 85.0985Z" fill="#CCCCCC"/>
<path d="M46.6098 73.0722H18.5759C18.1579 73.0722 17.7571 72.9061 17.4616 72.6106C17.166 72.3151 17 71.9142 17 71.4963C17 71.0783 17.166 70.6775 17.4616 70.382C17.7571 70.0864 18.1579 69.9204 18.5759 69.9204H46.6098C47.0278 69.9204 47.4286 70.0864 47.7241 70.382C48.0197 70.6775 48.1857 71.0783 48.1857 71.4963C48.1857 71.9142 48.0197 72.3151 47.7241 72.6106C47.4286 72.9061 47.0278 73.0722 46.6098 73.0722Z" fill="#CCCCCC"/>
<path d="M62.0382 73.1552H54.0759C53.6579 73.1552 53.2571 72.9891 52.9616 72.6936C52.666 72.3981 52.5 71.9972 52.5 71.5793C52.5 71.1613 52.666 70.7605 52.9616 70.465C53.2571 70.1694 53.6579 70.0034 54.0759 70.0034H62.0382C62.4561 70.0034 62.857 70.1694 63.1525 70.465C63.448 70.7605 63.614 71.1613 63.614 71.5793C63.614 71.9972 63.448 72.3981 63.1525 72.6936C62.857 72.9891 62.4561 73.1552 62.0382 73.1552Z" fill="#CCCCCC"/>
<path d="M26.5382 85.0985H18.5759C18.1579 85.0985 17.7571 84.9325 17.4616 84.637C17.166 84.3414 17 83.9406 17 83.5226C17 83.1047 17.166 82.7039 17.4616 82.4083C17.7571 82.1128 18.1579 81.9468 18.5759 81.9468H26.5382C26.7453 81.9465 26.9504 81.9871 27.1418 82.0662C27.3332 82.1453 27.5072 82.2613 27.6537 82.4076C27.8003 82.554 27.9165 82.7278 27.9958 82.9191C28.0752 83.1105 28.116 83.3155 28.116 83.5226C28.116 83.7298 28.0752 83.9348 27.9958 84.1262C27.9165 84.3175 27.8003 84.4913 27.6537 84.6377C27.5072 84.784 27.3332 84.9 27.1418 84.9791C26.9504 85.0582 26.7453 85.0988 26.5382 85.0985Z" fill="#CCCCCC"/>
<path d="M39.2886 62.2083C38.6937 62.2097 38.1223 61.9759 37.699 61.5579L27.1609 51.1517C26.954 50.9474 26.7898 50.704 26.6776 50.4358C26.5655 50.1675 26.5078 49.8796 26.5078 49.5889C26.5078 49.2981 26.5655 49.0102 26.6776 48.742C26.7898 48.4737 26.954 48.2304 27.1609 48.0261L37.6564 37.6618C38.0936 37.2321 38.6827 36.9922 39.2957 36.9942C39.9088 36.9961 40.4963 37.2397 40.9308 37.6721C41.3658 38.1081 41.6101 38.6987 41.6101 39.3145C41.6101 39.9303 41.3658 40.521 40.9309 40.9569L33.1318 48.7561C32.8889 48.9997 32.7524 49.3297 32.7524 49.6737C32.7524 50.0177 32.8889 50.3477 33.1318 50.5913L40.8886 58.3481C41.2053 58.6643 41.4211 59.0673 41.5086 59.5062C41.5961 59.9451 41.5513 60.4 41.3799 60.8135C41.2086 61.2269 40.9184 61.5801 40.5461 61.8284C40.1738 62.0767 39.7361 62.209 39.2886 62.2083Z" fill="#6C63FF"/>
<path d="M56.0804 62.2083C55.6329 62.209 55.1952 62.0768 54.8229 61.8284C54.4506 61.5801 54.1604 61.2269 53.9891 60.8135C53.8177 60.4001 53.7729 59.9451 53.8604 59.5062C53.9479 59.0673 54.1637 58.6643 54.4804 58.3481L62.2372 50.5913C62.4801 50.3478 62.6166 50.0178 62.6166 49.6737C62.6166 49.3297 62.4801 48.9997 62.2372 48.7561L54.4381 40.9569C54.2224 40.7413 54.0513 40.4852 53.9346 40.2034C53.8179 39.9216 53.7578 39.6196 53.7578 39.3145C53.7578 39.0095 53.8179 38.7075 53.9346 38.4257C54.0514 38.1439 54.2225 37.8878 54.4382 37.6721C54.8727 37.2397 55.4602 36.9961 56.0733 36.9942C56.6863 36.9922 57.2754 37.2321 57.7126 37.6618L68.2081 48.0261C68.415 48.2304 68.5792 48.4737 68.6914 48.742C68.8035 49.0103 68.8612 49.2981 68.8612 49.5889C68.8612 49.8796 68.8035 50.1675 68.6914 50.4358C68.5792 50.704 68.415 50.9474 68.2081 51.1517L57.67 61.5579C57.2466 61.9758 56.6753 62.2096 56.0804 62.2083Z" fill="#6C63FF"/>
</svg>
