<svg width="13" height="13" viewBox="0 0 13 13" fill="none" xmlns="http://www.w3.org/2000/svg">
<g clip-path="url(#clip0_717_2745)">
<path d="M12.4705 0.641365L9.90419 0.0491303C9.62535 -0.0150284 9.3391 0.130563 9.22559 0.392133L8.04112 3.1559C7.93748 3.39772 8.00657 3.6815 8.21139 3.84684L9.70678 5.07079C8.81843 6.96347 7.26628 8.53783 5.33411 9.44346L4.11016 7.94806C3.94236 7.74325 3.66105 7.67415 3.41922 7.77779L0.655455 8.96227C0.391417 9.07824 0.245826 9.36449 0.309985 9.64334L0.90222 12.2097C0.963911 12.4762 1.2008 12.6687 1.47965 12.6687C7.79929 12.6687 12.9295 7.5483 12.9295 1.21879C12.9295 0.942418 12.7395 0.703056 12.4705 0.641365Z" fill="white"/>
</g>
<defs>
<clipPath id="clip0_717_2745">
<rect width="12.6343" height="12.6343" fill="white" transform="translate(0.294922 0.0350342)"/>
</clipPath>
</defs>
</svg>
