<svg width="41" height="40" viewBox="0 0 41 40" fill="none" xmlns="http://www.w3.org/2000/svg">
<g clip-path="url(#clip0_361_444)">
<path d="M20.3297 4.25706C25.6547 4.25706 26.2853 4.27956 28.3795 4.36956C30.3258 4.45206 31.3768 4.76706 32.0774 5.02956C33.0039 5.37456 33.6734 5.79456 34.3662 6.46206C35.0669 7.13706 35.4951 7.77456 35.8532 8.66706C36.1257 9.34206 36.4526 10.3621 36.5383 12.2296C36.6317 14.2546 36.6551 14.8621 36.6551 19.9846C36.6551 25.1146 36.6317 25.7221 36.5383 27.7396C36.4526 29.6146 36.1257 30.6271 35.8532 31.3021C35.4951 32.1946 35.0591 32.8396 34.3662 33.5071C33.6656 34.1821 33.0039 34.5946 32.0774 34.9396C31.3768 35.2021 30.318 35.5171 28.3795 35.5996C26.2775 35.6896 25.6469 35.7121 20.3297 35.7121C15.0047 35.7121 14.3741 35.6896 12.2799 35.5996C10.3337 35.5171 9.28269 35.2021 8.58203 34.9396C7.6556 34.5946 6.98609 34.1746 6.29321 33.5071C5.59256 32.8321 5.16438 32.1946 4.80626 31.3021C4.53378 30.6271 4.20681 29.6071 4.12117 27.7396C4.02775 25.7146 4.0044 25.1071 4.0044 19.9846C4.0044 14.8546 4.02775 14.2471 4.12117 12.2296C4.20681 10.3546 4.53378 9.34206 4.80626 8.66706C5.16438 7.77456 5.60034 7.12956 6.29321 6.46206C6.99387 5.78706 7.6556 5.37456 8.58203 5.02956C9.28269 4.76706 10.3415 4.45206 12.2799 4.36956C14.3741 4.27956 15.0047 4.25706 20.3297 4.25706ZM20.3297 0.799561C14.9191 0.799561 14.2418 0.822061 12.1165 0.912061C9.99892 1.00206 8.5431 1.33206 7.28192 1.80456C5.96624 2.29956 4.85297 2.95206 3.74749 4.02456C2.63422 5.08956 1.95692 6.16206 1.4431 7.42206C0.952644 8.64456 0.6101 10.0396 0.516679 12.0796C0.423258 14.1346 0.399902 14.7871 0.399902 19.9996C0.399902 25.2121 0.423258 25.8646 0.516679 27.9121C0.6101 29.9521 0.952644 31.3546 1.4431 32.5696C1.95692 33.8371 2.63422 34.9096 3.74749 35.9746C4.85297 37.0396 5.96624 37.6996 7.27414 38.1871C8.5431 38.6596 9.99113 38.9896 12.1087 39.0796C14.234 39.1696 14.9113 39.1921 20.3219 39.1921C25.7326 39.1921 26.4099 39.1696 28.5352 39.0796C30.6528 38.9896 32.1086 38.6596 33.3698 38.1871C34.6776 37.6996 35.7909 37.0396 36.8964 35.9746C38.0019 34.9096 38.687 33.8371 39.193 32.5771C39.6835 31.3546 40.026 29.9596 40.1194 27.9196C40.2128 25.8721 40.2362 25.2196 40.2362 20.0071C40.2362 14.7946 40.2128 14.1421 40.1194 12.0946C40.026 10.0546 39.6835 8.65206 39.193 7.43706C38.7025 6.16206 38.0252 5.08956 36.912 4.02456C35.8065 2.95956 34.6932 2.29956 33.3853 1.81206C32.1164 1.33956 30.6683 1.00956 28.5508 0.919561C26.4177 0.822061 25.7404 0.799561 20.3297 0.799561Z" fill="white"/>
<path d="M20.3297 10.137C14.6777 10.137 10.0923 14.5545 10.0923 19.9995C10.0923 25.4445 14.6777 29.862 20.3297 29.862C25.9816 29.862 30.5671 25.4445 30.5671 19.9995C30.5671 14.5545 25.9816 10.137 20.3297 10.137ZM20.3297 26.397C16.6629 26.397 13.689 23.532 13.689 19.9995C13.689 16.467 16.6629 13.602 20.3297 13.602C23.9964 13.602 26.9703 16.467 26.9703 19.9995C26.9703 23.532 23.9964 26.397 20.3297 26.397Z" fill="white"/>
<path d="M33.3621 9.74708C33.3621 11.0221 32.2877 12.0496 30.9721 12.0496C29.6486 12.0496 28.582 11.0146 28.582 9.74708C28.582 8.47208 29.6564 7.44458 30.9721 7.44458C32.2877 7.44458 33.3621 8.47958 33.3621 9.74708Z" fill="white"/>
</g>
<defs>
<clipPath id="clip0_361_444">
<rect width="39.8596" height="38.4" fill="white" transform="translate(0.399902 0.799561)"/>
</clipPath>
</defs>
</svg>
