<svg width="40" height="40" viewBox="0 0 40 40" fill="none" xmlns="http://www.w3.org/2000/svg">
<g clip-path="url(#clip0_361_448)">
<path d="M39.4826 12.3197C39.4826 12.3197 39.0934 9.67219 37.8945 8.50969C36.3764 6.97969 34.6792 6.97219 33.9007 6.88219C28.3266 6.49219 19.9576 6.49219 19.9576 6.49219H19.9421C19.9421 6.49219 11.5731 6.49219 5.99897 6.88219C5.22046 6.97219 3.52331 6.97969 2.00522 8.50969C0.806313 9.67219 0.424844 12.3197 0.424844 12.3197C0.424844 12.3197 0.0200195 15.4322 0.0200195 18.5372V21.4472C0.0200195 24.5522 0.417059 27.6647 0.417059 27.6647C0.417059 27.6647 0.806313 30.3122 1.99743 31.4747C3.51552 33.0047 5.50851 32.9522 6.39601 33.1172C9.58789 33.4097 19.9498 33.4997 19.9498 33.4997C19.9498 33.4997 28.3266 33.4847 33.9007 33.1022C34.6792 33.0122 36.3764 33.0047 37.8945 31.4747C39.0934 30.3122 39.4826 27.6647 39.4826 27.6647C39.4826 27.6647 39.8797 24.5597 39.8797 21.4472V18.5372C39.8797 15.4322 39.4826 12.3197 39.4826 12.3197ZM15.8315 24.9797V14.1872L26.5983 19.6022L15.8315 24.9797Z" fill="white"/>
</g>
<defs>
<clipPath id="clip0_361_448">
<rect width="39.8596" height="38.4" fill="white" transform="translate(0.0200195 0.799561)"/>
</clipPath>
</defs>
</svg>
