<svg width="39" height="40" viewBox="0 0 39 40" fill="none" xmlns="http://www.w3.org/2000/svg">
<g clip-path="url(#clip0_717_2669)">
<path d="M19.2 4.2573C24.33 4.2573 24.9375 4.2798 26.955 4.3698C28.83 4.4523 29.8425 4.76731 30.5175 5.02981C31.41 5.3748 32.055 5.7948 32.7225 6.4623C33.3975 7.1373 33.81 7.77481 34.155 8.6673C34.4175 9.34231 34.7325 10.3623 34.815 12.2298C34.905 14.2548 34.9275 14.8623 34.9275 19.9848C34.9275 25.1148 34.905 25.7223 34.815 27.7398C34.7325 29.6148 34.4175 30.6273 34.155 31.3023C33.81 32.1948 33.39 32.8398 32.7225 33.5073C32.0475 34.1823 31.41 34.5948 30.5175 34.9398C29.8425 35.2023 28.8225 35.5173 26.955 35.5998C24.93 35.6898 24.3225 35.7123 19.2 35.7123C14.07 35.7123 13.4625 35.6898 11.445 35.5998C9.57 35.5173 8.5575 35.2023 7.8825 34.9398C6.99 34.5948 6.345 34.1748 5.6775 33.5073C5.0025 32.8323 4.59 32.1948 4.245 31.3023C3.9825 30.6273 3.6675 29.6073 3.585 27.7398C3.495 25.7148 3.4725 25.1073 3.4725 19.9848C3.4725 14.8548 3.495 14.2473 3.585 12.2298C3.6675 10.3548 3.9825 9.34231 4.245 8.6673C4.59 7.77481 5.01 7.1298 5.6775 6.4623C6.3525 5.7873 6.99 5.3748 7.8825 5.02981C8.5575 4.76731 9.5775 4.4523 11.445 4.3698C13.4625 4.2798 14.07 4.2573 19.2 4.2573ZM19.2 0.799805C13.9875 0.799805 13.335 0.822305 11.2875 0.912305C9.2475 1.0023 7.845 1.3323 6.63 1.8048C5.3625 2.2998 4.29 2.9523 3.225 4.0248C2.1525 5.0898 1.5 6.16231 1.005 7.42231C0.5325 8.64481 0.2025 10.0398 0.1125 12.0798C0.0225 14.1348 0 14.7873 0 19.9998C0 25.2123 0.0225 25.8648 0.1125 27.9123C0.2025 29.9523 0.5325 31.3548 1.005 32.5698C1.5 33.8373 2.1525 34.9098 3.225 35.9748C4.29 37.0398 5.3625 37.6998 6.6225 38.1873C7.845 38.6598 9.24 38.9898 11.28 39.0798C13.3275 39.1698 13.98 39.1923 19.1925 39.1923C24.405 39.1923 25.0575 39.1698 27.105 39.0798C29.145 38.9898 30.5475 38.6598 31.7625 38.1873C33.0225 37.6998 34.095 37.0398 35.16 35.9748C36.225 34.9098 36.885 33.8373 37.3725 32.5773C37.845 31.3548 38.175 29.9598 38.265 27.9198C38.355 25.8723 38.3775 25.2198 38.3775 20.0073C38.3775 14.7948 38.355 14.1423 38.265 12.0948C38.175 10.0548 37.845 8.6523 37.3725 7.4373C36.9 6.1623 36.2475 5.0898 35.175 4.0248C34.11 2.9598 33.0375 2.2998 31.7775 1.8123C30.555 1.3398 29.16 1.0098 27.12 0.919805C25.065 0.822305 24.4125 0.799805 19.2 0.799805Z" fill="white"/>
<path d="M19.2004 10.1372C13.7554 10.1372 9.33789 14.5547 9.33789 19.9997C9.33789 25.4447 13.7554 29.8622 19.2004 29.8622C24.6454 29.8622 29.0629 25.4447 29.0629 19.9997C29.0629 14.5547 24.6454 10.1372 19.2004 10.1372ZM19.2004 26.3972C15.6679 26.3972 12.8029 23.5322 12.8029 19.9997C12.8029 16.4672 15.6679 13.6022 19.2004 13.6022C22.7329 13.6022 25.5979 16.4672 25.5979 19.9997C25.5979 23.5322 22.7329 26.3972 19.2004 26.3972Z" fill="white"/>
<path d="M31.7554 9.74733C31.7554 11.0223 30.7204 12.0498 29.4529 12.0498C28.1779 12.0498 27.1504 11.0148 27.1504 9.74733C27.1504 8.47233 28.1854 7.44482 29.4529 7.44482C30.7204 7.44482 31.7554 8.47983 31.7554 9.74733Z" fill="white"/>
</g>
<defs>
<clipPath id="clip0_717_2669">
<rect width="38.4" height="38.4" fill="white" transform="translate(0 0.799805)"/>
</clipPath>
</defs>
</svg>
