<svg width="39" height="40" viewBox="0 0 39 40" fill="none" xmlns="http://www.w3.org/2000/svg">
<g clip-path="url(#clip0_717_2673)">
<path d="M38.4179 12.3197C38.4179 12.3197 38.0429 9.67219 36.8879 8.50969C35.4254 6.97969 33.7904 6.97219 33.0404 6.88219C27.6704 6.49219 19.6079 6.49219 19.6079 6.49219H19.5929C19.5929 6.49219 11.5304 6.49219 6.16039 6.88219C5.41039 6.97219 3.77539 6.97969 2.31289 8.50969C1.15789 9.67219 0.790391 12.3197 0.790391 12.3197C0.790391 12.3197 0.400391 15.4322 0.400391 18.5372V21.4472C0.400391 24.5522 0.782891 27.6647 0.782891 27.6647C0.782891 27.6647 1.15789 30.3122 2.30539 31.4747C3.76789 33.0047 5.68789 32.9522 6.54289 33.1172C9.61789 33.4097 19.6004 33.4997 19.6004 33.4997C19.6004 33.4997 27.6704 33.4847 33.0404 33.1022C33.7904 33.0122 35.4254 33.0047 36.8879 31.4747C38.0429 30.3122 38.4179 27.6647 38.4179 27.6647C38.4179 27.6647 38.8004 24.5597 38.8004 21.4472V18.5372C38.8004 15.4322 38.4179 12.3197 38.4179 12.3197ZM15.6329 24.9797V14.1872L26.0054 19.6022L15.6329 24.9797Z" fill="white"/>
</g>
<defs>
<clipPath id="clip0_717_2673">
<rect width="38.4" height="38.4" fill="white" transform="translate(0.400391 0.799805)"/>
</clipPath>
</defs>
</svg>
