<svg width="63" height="29" viewBox="0 0 63 29" fill="none" xmlns="http://www.w3.org/2000/svg">
<path d="M1.61914 10.2851C3.77884 7.92241 9.59934 3.49079 15.6037 4.66575C23.1092 6.13444 27.279 10.2851 36.9014 10.2851C46.5238 10.2851 54.2218 -0.251141 62.6254 1.98379" stroke="#B2C4F0" stroke-width="2.22664"/>
<path d="M1.61914 18.8969C3.77884 16.5342 9.59934 12.1026 15.6037 13.2776C23.1092 14.7463 27.279 18.8969 36.9014 18.8969C46.5238 18.8969 54.2218 8.36068 62.6254 10.5956" stroke="#B2C4F0" stroke-width="2.22664"/>
<path d="M1.61914 27.5097C3.77884 25.147 9.59934 20.7154 15.6037 21.8904C23.1092 23.359 27.279 27.5097 36.9014 27.5097C46.5238 27.5097 54.2218 16.9735 62.6254 19.2084" stroke="#B2C4F0" stroke-width="2.22664"/>
</svg>
