<svg width="510" height="454" viewBox="0 0 510 454" fill="none" xmlns="http://www.w3.org/2000/svg">
<circle cx="30.4234" cy="143.265" r="3.71107" transform="rotate(-8.81526 30.4234 143.265)" fill="#DCE2EE"/>
<circle cx="37.2496" cy="187.272" r="3.71107" transform="rotate(-8.81526 37.2496 187.272)" fill="#DCE2EE"/>
<circle cx="46.0719" cy="231.279" r="3.71107" transform="rotate(-8.81526 46.0719 231.279)" fill="#DCE2EE"/>
<circle cx="52.8981" cy="275.287" r="3.71107" transform="rotate(-8.81526 52.8981 275.287)" fill="#DCE2EE"/>
<circle cx="59.7223" cy="319.293" r="3.71107" transform="rotate(-8.81526 59.7223 319.293)" fill="#DCE2EE"/>
<circle cx="66.5465" cy="363.3" r="3.71107" transform="rotate(-8.81526 66.5465 363.3)" fill="#DCE2EE"/>
<circle cx="73.3707" cy="407.306" r="3.71107" transform="rotate(-8.81526 73.3707 407.306)" fill="#DCE2EE"/>
<circle cx="76.4313" cy="136.441" r="3.71107" transform="rotate(-8.81526 76.4313 136.441)" fill="#DCE2EE"/>
<circle cx="83.2555" cy="180.448" r="3.71107" transform="rotate(-8.81526 83.2555 180.448)" fill="#DCE2EE"/>
<circle cx="90.0797" cy="224.455" r="3.71107" transform="rotate(-8.81526 90.0797 224.455)" fill="#DCE2EE"/>
<circle cx="96.9039" cy="268.461" r="3.71107" transform="rotate(-8.81526 96.9039 268.461)" fill="#DCE2EE"/>
<circle cx="103.73" cy="312.468" r="3.71107" transform="rotate(-8.81526 103.73 312.468)" fill="#DCE2EE"/>
<circle cx="110.554" cy="356.475" r="3.71107" transform="rotate(-8.81526 110.554 356.475)" fill="#DCE2EE"/>
<circle cx="117.379" cy="400.482" r="3.71107" transform="rotate(-8.81526 117.379 400.482)" fill="#DCE2EE"/>
<circle cx="120.437" cy="129.616" r="3.71107" transform="rotate(-8.81526 120.437 129.616)" fill="#DCE2EE"/>
<circle cx="127.263" cy="173.623" r="3.71107" transform="rotate(-8.81526 127.263 173.623)" fill="#DCE2EE"/>
<circle cx="134.088" cy="217.63" r="3.71107" transform="rotate(-8.81526 134.088 217.63)" fill="#DCE2EE"/>
<circle cx="140.912" cy="261.637" r="3.71107" transform="rotate(-8.81526 140.912 261.637)" fill="#DCE2EE"/>
<circle cx="148.736" cy="305.644" r="3.71107" transform="rotate(-8.81526 148.736 305.644)" fill="#DCE2EE"/>
<circle cx="155.562" cy="349.651" r="3.71107" transform="rotate(-8.81526 155.562 349.651)" fill="#DCE2EE"/>
<circle cx="162.386" cy="393.656" r="3.71107" transform="rotate(-8.81526 162.386 393.656)" fill="#DCE2EE"/>
<circle cx="165.445" cy="122.793" r="3.71107" transform="rotate(-8.81526 165.445 122.793)" fill="#DCE2EE"/>
<circle cx="172.269" cy="166.798" r="3.71107" transform="rotate(-8.81526 172.269 166.798)" fill="#DCE2EE"/>
<circle cx="179.093" cy="210.806" r="3.71107" transform="rotate(-8.81526 179.093 210.806)" fill="#DCE2EE"/>
<circle cx="185.918" cy="254.812" r="3.71107" transform="rotate(-8.81526 185.918 254.812)" fill="#DCE2EE"/>
<circle cx="192.744" cy="298.819" r="3.71107" transform="rotate(-8.81526 192.744 298.819)" fill="#DCE2EE"/>
<circle cx="199.568" cy="342.825" r="3.71107" transform="rotate(-8.81526 199.568 342.825)" fill="#DCE2EE"/>
<circle cx="206.392" cy="386.833" r="3.71107" transform="rotate(-8.81526 206.392 386.833)" fill="#DCE2EE"/>
<circle cx="209.451" cy="115.968" r="3.71107" transform="rotate(-8.81526 209.451 115.968)" fill="#DCE2EE"/>
<circle cx="216.277" cy="159.974" r="3.71107" transform="rotate(-8.81526 216.277 159.974)" fill="#DCE2EE"/>
<circle cx="223.101" cy="203.98" r="3.71107" transform="rotate(-8.81526 223.101 203.98)" fill="#DCE2EE"/>
<circle cx="229.925" cy="247.988" r="3.71107" transform="rotate(-8.81526 229.925 247.988)" fill="#DCE2EE"/>
<circle cx="236.75" cy="291.994" r="3.71107" transform="rotate(-8.81526 236.75 291.994)" fill="#DCE2EE"/>
<circle cx="243.574" cy="336.002" r="3.71107" transform="rotate(-8.81526 243.574 336.002)" fill="#DCE2EE"/>
<circle cx="251.4" cy="380.008" r="3.71107" transform="rotate(-8.81526 251.4 380.008)" fill="#DCE2EE"/>
<circle cx="254.459" cy="109.144" r="3.71107" transform="rotate(-8.81526 254.459 109.144)" fill="#DCE2EE"/>
<circle cx="261.283" cy="153.149" r="3.71107" transform="rotate(-8.81526 261.283 153.149)" fill="#DCE2EE"/>
<circle cx="268.107" cy="197.156" r="3.71107" transform="rotate(-8.81526 268.107 197.156)" fill="#DCE2EE"/>
<circle cx="274.931" cy="241.163" r="3.71107" transform="rotate(-8.81526 274.931 241.163)" fill="#DCE2EE"/>
<circle cx="281.755" cy="285.17" r="3.71107" transform="rotate(-8.81526 281.755 285.17)" fill="#DCE2EE"/>
<circle cx="288.582" cy="329.176" r="3.71107" transform="rotate(-8.81526 288.582 329.176)" fill="#DCE2EE"/>
<circle cx="295.406" cy="373.184" r="3.71107" transform="rotate(-8.81526 295.406 373.184)" fill="#DCE2EE"/>
<circle cx="298.464" cy="102.318" r="3.71107" transform="rotate(-8.81526 298.464 102.318)" fill="#DCE2EE"/>
<circle cx="305.289" cy="146.325" r="3.71107" transform="rotate(-8.81526 305.289 146.325)" fill="#DCE2EE"/>
<circle cx="312.115" cy="190.331" r="3.71107" transform="rotate(-8.81526 312.115 190.331)" fill="#DCE2EE"/>
<circle cx="318.937" cy="234.339" r="3.71107" transform="rotate(-8.81526 318.937 234.339)" fill="#DCE2EE"/>
<circle cx="325.763" cy="278.345" r="3.71107" transform="rotate(-8.81526 325.763 278.345)" fill="#DCE2EE"/>
<circle cx="332.588" cy="322.353" r="3.71107" transform="rotate(-8.81526 332.588 322.353)" fill="#DCE2EE"/>
<circle cx="339.412" cy="366.359" r="3.71107" transform="rotate(-8.81526 339.412 366.359)" fill="#DCE2EE"/>
<circle cx="342.472" cy="95.4937" r="3.71107" transform="rotate(-8.81526 342.472 95.4937)" fill="#DCE2EE"/>
<circle cx="349.297" cy="139.501" r="3.71107" transform="rotate(-8.81526 349.297 139.501)" fill="#DCE2EE"/>
<circle cx="357.121" cy="183.507" r="3.71107" transform="rotate(-8.81526 357.121 183.507)" fill="#DCE2EE"/>
<circle cx="363.947" cy="227.513" r="3.71107" transform="rotate(-8.81526 363.947 227.513)" fill="#DCE2EE"/>
<circle cx="370.769" cy="271.521" r="3.71107" transform="rotate(-8.81526 370.769 271.521)" fill="#DCE2EE"/>
<circle cx="377.595" cy="315.527" r="3.71107" transform="rotate(-8.81526 377.595 315.527)" fill="#DCE2EE"/>
<circle cx="384.42" cy="359.535" r="3.71107" transform="rotate(-8.81526 384.42 359.535)" fill="#DCE2EE"/>
<circle cx="387.478" cy="88.6691" r="3.71107" transform="rotate(-8.81526 387.478 88.6691)" fill="#DCE2EE"/>
<circle cx="394.302" cy="132.675" r="3.71107" transform="rotate(-8.81526 394.302 132.675)" fill="#DCE2EE"/>
<circle cx="401.129" cy="176.682" r="3.71107" transform="rotate(-8.81526 401.129 176.682)" fill="#DCE2EE"/>
<circle cx="407.953" cy="220.69" r="3.71107" transform="rotate(-8.81526 407.953 220.69)" fill="#DCE2EE"/>
<circle cx="414.777" cy="264.696" r="3.71107" transform="rotate(-8.81526 414.777 264.696)" fill="#DCE2EE"/>
<circle cx="421.601" cy="308.703" r="3.71107" transform="rotate(-8.81526 421.601 308.703)" fill="#DCE2EE"/>
<circle cx="428.427" cy="352.71" r="3.71107" transform="rotate(-8.81526 428.427 352.71)" fill="#DCE2EE"/>
<circle cx="431.484" cy="81.8436" r="3.71107" transform="rotate(-8.81526 431.484 81.8436)" fill="#DCE2EE"/>
<circle cx="438.31" cy="125.852" r="3.71107" transform="rotate(-8.81526 438.31 125.852)" fill="#DCE2EE"/>
<circle cx="445.134" cy="169.858" r="3.71107" transform="rotate(-8.81526 445.134 169.858)" fill="#DCE2EE"/>
<circle cx="451.959" cy="213.864" r="3.71107" transform="rotate(-8.81526 451.959 213.864)" fill="#DCE2EE"/>
<circle cx="460.785" cy="257.871" r="3.71107" transform="rotate(-8.81526 460.785 257.871)" fill="#DCE2EE"/>
<circle cx="467.609" cy="301.878" r="3.71107" transform="rotate(-8.81526 467.609 301.878)" fill="#DCE2EE"/>
<circle cx="474.433" cy="345.885" r="3.71107" transform="rotate(-8.81526 474.433 345.885)" fill="#DCE2EE"/>
<circle cx="256.306" cy="146.634" r="87.5812" fill="#FF6A6A"/>
<circle cx="445.344" cy="414.573" r="7.42213" fill="#8C7AFF"/>
<circle cx="9.85968" cy="340.352" r="8.90656" fill="#FF9A7A"/>
<circle cx="370.381" cy="31.5901" r="7.42213" fill="#6BF0A8"/>
<rect x="120.965" y="0.41748" width="293.917" height="453.492" fill="#C4C4C4"/>
<g filter="url(#filter0_d_717_2831)">
<rect x="54.166" y="98.7498" width="63.7287" height="63.7287" rx="14.8443" transform="rotate(-12.1401 54.166 98.7498)" fill="white"/>
</g>
<g filter="url(#filter1_d_717_2831)">
<rect x="64.5254" y="105.441" width="46.2871" height="46.2871" rx="14.8443" transform="rotate(-12.1401 64.5254 105.441)" fill="white"/>
</g>
<rect x="75.6875" y="113.949" width="12.7457" height="6.37287" rx="2.96885" transform="rotate(-12.1401 75.6875 113.949)" fill="#545AE8"/>
<rect width="12.7457" height="6.37287" rx="2.96885" transform="matrix(0.977636 -0.210303 -0.210303 -0.977636 95.4961 135.328)" fill="#545AE8"/>
<rect x="77.3848" y="121.841" width="12.7457" height="16.9943" rx="2.96885" transform="rotate(-12.1401 77.3848 121.841)" fill="#545AE8"/>
<rect width="12.7457" height="16.9943" rx="2.96885" transform="matrix(0.977636 -0.210303 -0.210303 -0.977636 93.8008 127.436)" fill="#F48C06"/>
<g filter="url(#filter2_d_717_2831)">
<rect x="416.664" y="136.243" width="63.1685" height="63.1685" rx="14.8443" transform="rotate(9.91602 416.664 136.243)" fill="white"/>
</g>
<g filter="url(#filter3_d_717_2831)">
<rect x="423.691" y="146.247" width="45.8803" height="45.8803" rx="14.8443" transform="rotate(9.91602 423.691 146.247)" fill="white"/>
</g>
<g clip-path="url(#clip0_717_2831)">
<path d="M438.915 172.963C438.654 174.456 439.646 175.876 441.128 176.135C442.612 176.394 444.025 175.395 444.286 173.902C444.547 172.41 443.556 170.99 442.073 170.731C440.59 170.472 439.176 171.471 438.915 172.963ZM448.315 174.607C448.054 176.099 449.045 177.519 450.528 177.778C452.011 178.037 453.425 177.038 453.686 175.545C453.946 174.053 452.956 172.633 451.472 172.374C449.989 172.115 448.575 173.114 448.315 174.607ZM431.729 174.492C433.213 174.751 434.626 173.752 434.887 172.259C435.148 170.767 434.157 169.347 432.674 169.088C431.191 168.829 429.777 169.828 429.516 171.32C429.255 172.813 430.246 174.232 431.729 174.492ZM451.634 179.364L448.949 178.894C447.466 178.635 446.052 179.634 445.791 181.126L445.555 182.477C445.424 183.223 445.92 183.933 446.661 184.063L452.032 185.002C452.774 185.132 453.481 184.632 453.611 183.886L453.847 182.535C454.108 181.043 453.117 179.623 451.634 179.364ZM442.235 177.72L439.55 177.251C438.067 176.992 436.653 177.991 436.392 179.483L436.156 180.834C436.025 181.58 436.521 182.29 437.262 182.42L442.633 183.359C443.375 183.489 444.082 182.989 444.212 182.243L444.448 180.892C444.709 179.399 443.718 177.98 442.235 177.72ZM432.836 176.077L430.15 175.608C428.667 175.349 427.253 176.348 426.993 177.84L426.756 179.191C426.626 179.937 427.121 180.647 427.863 180.777L433.234 181.716C433.975 181.845 434.682 181.346 434.813 180.6L435.049 179.249C435.31 177.756 434.319 176.337 432.836 176.077ZM433.855 162.333L452.653 165.619L451.709 171.023C452.744 171.204 453.609 171.774 454.21 172.547L455.445 165.481C455.647 164.326 454.908 163.229 453.797 163.035L433.656 159.514C432.545 159.32 431.477 160.101 431.276 161.255L430.04 168.322C430.868 167.798 431.875 167.556 432.91 167.737L433.855 162.333Z" fill="#545AE8"/>
</g>
<defs>
<filter id="filter0_d_717_2831" x="24.2957" y="65.8678" width="135.448" height="135.447" filterUnits="userSpaceOnUse" color-interpolation-filters="sRGB">
<feFlood flood-opacity="0" result="BackgroundImageFix"/>
<feColorMatrix in="SourceAlpha" type="matrix" values="0 0 0 0 0 0 0 0 0 0 0 0 0 0 0 0 0 0 127 0" result="hardAlpha"/>
<feOffset dy="10.391"/>
<feGaussianBlur stdDeviation="16.3287"/>
<feColorMatrix type="matrix" values="0 0 0 0 0.337255 0 0 0 0 0.356863 0 0 0 0 0.866667 0 0 0 0.1 0"/>
<feBlend mode="normal" in2="BackgroundImageFix" result="effect1_dropShadow_717_2831"/>
<feBlend mode="normal" in="SourceGraphic" in2="effect1_dropShadow_717_2831" result="shape"/>
</filter>
<filter id="filter1_d_717_2831" x="34.6551" y="77.7113" width="114.727" height="114.728" filterUnits="userSpaceOnUse" color-interpolation-filters="sRGB">
<feFlood flood-opacity="0" result="BackgroundImageFix"/>
<feColorMatrix in="SourceAlpha" type="matrix" values="0 0 0 0 0 0 0 0 0 0 0 0 0 0 0 0 0 0 127 0" result="hardAlpha"/>
<feOffset dy="11.8754"/>
<feGaussianBlur stdDeviation="16.3287"/>
<feColorMatrix type="matrix" values="0 0 0 0 0.0509804 0 0 0 0 0.0588235 0 0 0 0 0.109804 0 0 0 0.1 0"/>
<feBlend mode="normal" in2="BackgroundImageFix" result="effect1_dropShadow_717_2831"/>
<feBlend mode="normal" in="SourceGraphic" in2="effect1_dropShadow_717_2831" result="shape"/>
</filter>
<filter id="filter2_d_717_2831" x="375.462" y="116.309" width="133.752" height="133.753" filterUnits="userSpaceOnUse" color-interpolation-filters="sRGB">
<feFlood flood-opacity="0" result="BackgroundImageFix"/>
<feColorMatrix in="SourceAlpha" type="matrix" values="0 0 0 0 0 0 0 0 0 0 0 0 0 0 0 0 0 0 127 0" result="hardAlpha"/>
<feOffset dy="10.391"/>
<feGaussianBlur stdDeviation="16.3287"/>
<feColorMatrix type="matrix" values="0 0 0 0 0.337255 0 0 0 0 0.356863 0 0 0 0 0.866667 0 0 0 0.1 0"/>
<feBlend mode="normal" in2="BackgroundImageFix" result="effect1_dropShadow_717_2831"/>
<feBlend mode="normal" in="SourceGraphic" in2="effect1_dropShadow_717_2831" result="shape"/>
</filter>
<filter id="filter3_d_717_2831" x="385.466" y="127.797" width="113.746" height="113.746" filterUnits="userSpaceOnUse" color-interpolation-filters="sRGB">
<feFlood flood-opacity="0" result="BackgroundImageFix"/>
<feColorMatrix in="SourceAlpha" type="matrix" values="0 0 0 0 0 0 0 0 0 0 0 0 0 0 0 0 0 0 127 0" result="hardAlpha"/>
<feOffset dy="11.8754"/>
<feGaussianBlur stdDeviation="16.3287"/>
<feColorMatrix type="matrix" values="0 0 0 0 0.0509804 0 0 0 0 0.0588235 0 0 0 0 0.109804 0 0 0 0.1 0"/>
<feBlend mode="normal" in2="BackgroundImageFix" result="effect1_dropShadow_717_2831"/>
<feBlend mode="normal" in="SourceGraphic" in2="effect1_dropShadow_717_2831" result="shape"/>
</filter>
<clipPath id="clip0_717_2831">
<rect width="27.2622" height="21.9428" fill="white" transform="translate(430.299 158.927) rotate(9.91602)"/>
</clipPath>
</defs>
</svg>
