<svg width="50" height="45" viewBox="0 0 50 45" fill="none" xmlns="http://www.w3.org/2000/svg">
<rect y="0.193115" width="50" height="44.7227" rx="6" fill="#23BDEE"/>
<g clip-path="url(#clip0_134_146)">
<path d="M18.1247 10.2557C17.5823 10.2557 17.1426 10.649 17.1426 11.1342V12.8912H19.1069V11.1342C19.1069 10.649 18.6671 10.2557 18.1247 10.2557Z" fill="white"/>
<path d="M31.8747 10.2557C31.3323 10.2557 30.8926 10.649 30.8926 11.1342V12.8912H32.8568V11.1342C32.8569 10.649 32.4172 10.2557 31.8747 10.2557Z" fill="white"/>
<path d="M35.8036 12.8911H32.8571V16.4051C32.8571 16.8902 32.4174 17.2836 31.875 17.2836C31.3325 17.2836 30.8928 16.8902 30.8928 16.4051V12.8911H19.1071V16.4051C19.1071 16.8902 18.6674 17.2836 18.125 17.2836C17.5825 17.2836 17.1428 16.8902 17.1428 16.4051V12.8911H14.1964C12.5692 12.8911 11.25 14.071 11.25 15.5266V32.2177C11.25 33.6732 12.5692 34.8532 14.1964 34.8532H35.8036C37.4308 34.8532 38.75 33.6732 38.75 32.2177V15.5266C38.75 14.071 37.4308 12.8911 35.8036 12.8911ZM36.7857 32.2177C36.7857 32.7029 36.346 33.0962 35.8035 33.0962H14.1964C13.654 33.0962 13.2143 32.7029 13.2143 32.2177V20.7974H36.7857V32.2177Z" fill="white"/>
<path d="M19.1071 22.5544H17.1428C16.6004 22.5544 16.1606 22.9478 16.1606 23.4329C16.1606 23.9181 16.6004 24.3115 17.1428 24.3115H19.1071C19.6495 24.3115 20.0892 23.9181 20.0892 23.4329C20.0892 22.9478 19.6495 22.5544 19.1071 22.5544Z" fill="white"/>
<path d="M25.9821 22.5544H24.0178C23.4754 22.5544 23.0356 22.9478 23.0356 23.4329C23.0356 23.9181 23.4754 24.3115 24.0178 24.3115H25.9821C26.5245 24.3115 26.9642 23.9181 26.9642 23.4329C26.9642 22.9478 26.5245 22.5544 25.9821 22.5544Z" fill="white"/>
<path d="M32.8571 22.5544H30.8928C30.3504 22.5544 29.9106 22.9478 29.9106 23.4329C29.9106 23.9181 30.3504 24.3115 30.8928 24.3115H32.8571C33.3995 24.3115 33.8392 23.9181 33.8392 23.4329C33.8392 22.9478 33.3995 22.5544 32.8571 22.5544Z" fill="white"/>
<path d="M19.1071 26.0685H17.1428C16.6004 26.0685 16.1606 26.4618 16.1606 26.947C16.1606 27.4322 16.6004 27.8255 17.1428 27.8255H19.1071C19.6495 27.8255 20.0892 27.4322 20.0892 26.947C20.0892 26.4618 19.6495 26.0685 19.1071 26.0685Z" fill="white"/>
<path d="M25.9821 26.0685H24.0178C23.4754 26.0685 23.0356 26.4618 23.0356 26.947C23.0356 27.4322 23.4754 27.8255 24.0178 27.8255H25.9821C26.5245 27.8255 26.9642 27.4322 26.9642 26.947C26.9642 26.4618 26.5245 26.0685 25.9821 26.0685Z" fill="white"/>
<path d="M32.8571 26.0685H30.8928C30.3504 26.0685 29.9106 26.4618 29.9106 26.947C29.9106 27.4322 30.3504 27.8255 30.8928 27.8255H32.8571C33.3995 27.8255 33.8392 27.4322 33.8392 26.947C33.8392 26.4618 33.3995 26.0685 32.8571 26.0685Z" fill="white"/>
<path d="M19.1071 29.5824H17.1428C16.6004 29.5824 16.1606 29.9757 16.1606 30.4609C16.1606 30.9461 16.6004 31.3393 17.1428 31.3393H19.1071C19.6495 31.3393 20.0892 30.946 20.0892 30.4608C20.0892 29.9757 19.6495 29.5824 19.1071 29.5824Z" fill="white"/>
<path d="M25.9821 29.5824H24.0178C23.4754 29.5824 23.0356 29.9757 23.0356 30.4609C23.0356 30.9461 23.4754 31.3394 24.0178 31.3394H25.9821C26.5245 31.3394 26.9642 30.9461 26.9642 30.4609C26.9642 29.9757 26.5245 29.5824 25.9821 29.5824Z" fill="white"/>
<path d="M32.8571 29.5824H30.8928C30.3504 29.5824 29.9106 29.9757 29.9106 30.4609C29.9106 30.9461 30.3504 31.3394 30.8928 31.3394H32.8571C33.3995 31.3394 33.8392 30.9461 33.8392 30.4609C33.8392 29.9757 33.3995 29.5824 32.8571 29.5824Z" fill="white"/>
</g>
<defs>
<clipPath id="clip0_134_146">
<rect width="27.5" height="24.5975" fill="white" transform="translate(11.25 10.2557)"/>
</clipPath>
</defs>
</svg>
