<svg width="236" height="121" viewBox="0 0 236 121" fill="none" xmlns="http://www.w3.org/2000/svg">
<g opacity="0.8" filter="url(#filter0_d_350_622)">
<circle cx="58.3987" cy="52.9254" r="34.5129" fill="#F9F9F9"/>
</g>
<g filter="url(#filter1_d_350_622)">
<circle cx="58.3984" cy="52.9253" r="27.0908" fill="#F9F9F9"/>
</g>
<path d="M234.322 85.6956C233.117 84.9565 231.41 84.72 229.972 85.0927C229.587 85.1928 229.23 85.333 228.909 85.5098C228.092 85.9606 226.278 87.3139 224.841 88.6532V78.3293C224.841 77.4518 224.36 76.5941 223.521 75.9759C222.689 75.3623 221.595 75.0313 220.448 75.0474C219.927 75.0544 219.428 75.1319 218.966 75.2674V74.259C218.966 73.3039 218.443 72.3704 217.529 71.6972C216.624 71.03 215.44 70.6703 214.187 70.6875C211.69 70.7199 209.651 72.2424 209.576 74.1037C209.035 73.9197 208.448 73.8164 207.84 73.8028C206.571 73.7749 205.314 74.1431 204.393 74.8138C203.491 75.4706 202.994 76.3377 202.994 77.2528L202.991 78.2306C202.601 78.1346 202.186 78.082 201.755 78.082C199.577 78.082 197.805 79.4109 197.805 81.0442L197.806 96.0515L197.809 96.1226C197.991 98.0922 198.541 99.7785 199.444 101.135C200.29 102.407 201.47 103.431 202.952 104.178C205.868 105.65 209.47 105.839 212.283 105.839C217.806 105.839 222.774 103.78 225.259 100.463C225.561 100.097 226.358 99.1582 227.218 98.1453C228.055 97.1583 228.834 96.2489 229.521 95.4465C229.899 95.0053 230.242 94.6041 230.541 94.2544C231.652 92.9512 232.836 91.6878 234.06 90.4989C234.514 90.058 234.654 89.9384 234.686 89.9121C235.259 89.443 235.62 88.8689 235.73 88.2512C235.904 87.2822 235.39 86.3506 234.322 85.6956ZM233.005 87.9777C232.97 88.175 232.85 88.3622 232.659 88.5189C232.559 88.6007 232.381 88.7562 231.884 89.2384C230.61 90.4753 229.379 91.7892 228.224 93.1435C227.927 93.4924 227.584 93.892 227.208 94.3321C226.519 95.1362 225.739 96.0478 224.898 97.0379C224.018 98.0747 223.204 99.0351 222.905 99.3964L222.874 99.4361C220.88 102.114 216.822 103.777 212.283 103.777C209.861 103.777 206.786 103.628 204.487 102.468C202.141 101.284 200.855 99.1735 200.556 96.0153L200.554 81.0444C200.554 80.548 201.093 80.1441 201.755 80.1441C202.42 80.1441 202.962 80.548 202.962 81.0444V86.6606C202.962 86.6772 202.965 86.6933 202.965 86.7099C202.967 86.7282 202.967 86.7467 202.969 86.7649C202.971 86.7813 202.976 86.7971 202.979 86.8132C202.983 86.8311 202.985 86.8494 202.99 86.8674C202.994 86.8834 203.001 86.8993 203.006 86.9151C203.012 86.932 203.017 86.9494 203.024 86.966C203.03 86.9821 203.039 86.9977 203.047 87.0133C203.054 87.0291 203.061 87.0452 203.07 87.0607C203.078 87.0763 203.089 87.091 203.098 87.106C203.108 87.1211 203.117 87.1363 203.127 87.1511C203.138 87.1656 203.15 87.1795 203.162 87.1937C203.173 87.208 203.184 87.2224 203.196 87.2361C203.209 87.2498 203.222 87.2627 203.236 87.2758C203.249 87.2892 203.261 87.3029 203.275 87.3155C203.289 87.3281 203.304 87.3396 203.319 87.3517C203.334 87.364 203.348 87.3772 203.364 87.389C203.379 87.4002 203.395 87.4104 203.411 87.4214C203.428 87.4327 203.444 87.4448 203.461 87.4555C203.478 87.4657 203.495 87.4748 203.512 87.4845C203.531 87.4947 203.548 87.5054 203.567 87.515C203.584 87.5239 203.603 87.5314 203.621 87.5394C203.64 87.5486 203.66 87.5582 203.68 87.5668C203.699 87.5743 203.718 87.5805 203.737 87.5874C203.758 87.5952 203.779 87.6033 203.8 87.6102C203.82 87.6167 203.841 87.6215 203.861 87.6271C203.883 87.633 203.904 87.6397 203.927 87.6451C203.948 87.6499 203.97 87.6534 203.991 87.6577C204.014 87.662 204.036 87.6671 204.058 87.6706C204.081 87.6741 204.104 87.6759 204.127 87.6786C204.15 87.681 204.172 87.6845 204.195 87.6864C204.218 87.688 204.241 87.6883 204.264 87.6891C204.287 87.6899 204.31 87.6918 204.333 87.6918C204.335 87.6918 204.336 87.6918 204.337 87.6918C204.385 87.6918 204.431 87.6899 204.478 87.6864C204.498 87.6851 204.517 87.6818 204.537 87.6797C204.563 87.677 204.589 87.6749 204.614 87.6709C204.64 87.6668 204.666 87.6612 204.691 87.6561C204.709 87.6523 204.728 87.6497 204.745 87.6456C204.774 87.6389 204.802 87.6306 204.83 87.6226C204.843 87.6186 204.858 87.6153 204.872 87.611C204.9 87.6022 204.926 87.5917 204.953 87.5818C204.966 87.577 204.979 87.573 204.992 87.5679C205.017 87.5577 205.04 87.5459 205.064 87.5346C205.078 87.5284 205.092 87.5228 205.105 87.5161C205.127 87.5051 205.148 87.4925 205.169 87.4802C205.183 87.4724 205.197 87.4651 205.211 87.4568C205.23 87.445 205.248 87.4316 205.267 87.4188C205.281 87.4094 205.295 87.4002 205.309 87.3906C205.326 87.3777 205.341 87.3638 205.357 87.3504C205.37 87.3394 205.385 87.3286 205.397 87.3174C205.412 87.3042 205.424 87.2903 205.438 87.2766C205.451 87.2637 205.465 87.2514 205.476 87.238C205.489 87.2243 205.499 87.2101 205.511 87.1959C205.522 87.1817 205.535 87.1677 205.545 87.1532C205.556 87.1388 205.564 87.1237 205.574 87.109C205.584 87.0937 205.594 87.0787 205.603 87.0631C205.612 87.0481 205.618 87.0323 205.626 87.017C205.634 87.0009 205.643 86.9851 205.65 86.9685C205.656 86.9526 205.661 86.9365 205.666 86.9205C205.672 86.9036 205.679 86.8869 205.684 86.8698C205.688 86.8537 205.691 86.8368 205.694 86.8202C205.698 86.8027 205.702 86.7853 205.704 86.7676C205.707 86.751 205.707 86.7338 205.708 86.7169C205.709 86.6989 205.712 86.6815 205.712 86.6635L205.744 77.2554C205.744 76.9004 205.944 76.5587 206.308 76.2934C206.7 76.0089 207.229 75.8517 207.758 75.8641C208.75 75.8863 209.557 76.5335 209.557 77.3083L209.573 86.6061C209.573 86.6249 209.576 86.6431 209.577 86.6614C209.578 86.6777 209.578 86.6946 209.58 86.7107C209.583 86.73 209.588 86.7485 209.592 86.7673C209.595 86.7826 209.597 86.7982 209.601 86.8132C209.607 86.8336 209.615 86.8534 209.622 86.8733C209.626 86.8861 209.63 86.8993 209.635 86.9119C209.644 86.9333 209.655 86.9542 209.666 86.9752C209.672 86.9856 209.675 86.9964 209.681 87.0065C209.694 87.0288 209.709 87.0505 209.723 87.072C209.729 87.08 209.733 87.0886 209.739 87.0964C209.755 87.1186 209.773 87.1398 209.791 87.1608C209.797 87.1677 209.802 87.1747 209.808 87.1814C209.827 87.2026 209.848 87.2224 209.869 87.2423C209.875 87.2485 209.881 87.2549 209.887 87.2608C209.91 87.282 209.935 87.3018 209.961 87.3214C209.966 87.3257 209.97 87.33 209.976 87.334C210.002 87.3536 210.03 87.3718 210.058 87.3898C210.063 87.3933 210.068 87.397 210.073 87.4005C210.102 87.4179 210.131 87.4338 210.161 87.4493C210.167 87.4528 210.173 87.4566 210.179 87.4598C210.209 87.4751 210.241 87.4888 210.272 87.5022C210.279 87.5051 210.286 87.5086 210.293 87.5115C210.326 87.5247 210.36 87.5365 210.394 87.548C210.4 87.5502 210.406 87.5528 210.413 87.555C210.448 87.566 210.484 87.5754 210.52 87.5845C210.527 87.5858 210.533 87.588 210.539 87.5896C210.575 87.5979 210.612 87.6046 210.649 87.6108C210.656 87.6118 210.663 87.6137 210.671 87.6151C210.76 87.6287 210.853 87.636 210.948 87.636C210.948 87.636 210.949 87.636 210.95 87.636C210.974 87.636 210.997 87.6341 211.021 87.6333C211.044 87.6322 211.067 87.6322 211.089 87.6306C211.114 87.6285 211.138 87.625 211.163 87.622C211.184 87.6196 211.205 87.618 211.226 87.6148C211.251 87.611 211.275 87.6057 211.299 87.6009C211.319 87.5968 211.338 87.5939 211.358 87.5893C211.382 87.5837 211.406 87.5764 211.43 87.5695C211.448 87.5644 211.466 87.5604 211.484 87.5547C211.508 87.5467 211.532 87.5373 211.556 87.5284C211.572 87.5225 211.589 87.5174 211.604 87.5113C211.628 87.5016 211.65 87.4904 211.673 87.4799C211.688 87.4729 211.703 87.4668 211.717 87.4595C211.739 87.4485 211.759 87.4362 211.78 87.4241C211.795 87.4161 211.809 87.4086 211.823 87.4C211.843 87.3879 211.861 87.3742 211.88 87.3611C211.894 87.352 211.908 87.3431 211.921 87.3335C211.938 87.3201 211.955 87.3056 211.972 87.2916C211.984 87.2812 211.997 87.2712 212.009 87.2603C212.024 87.2463 212.038 87.2316 212.052 87.2173C212.064 87.205 212.077 87.1932 212.088 87.1809C212.101 87.1667 212.112 87.1516 212.124 87.1369C212.135 87.1232 212.147 87.1098 212.157 87.0959C212.168 87.0811 212.176 87.0655 212.186 87.0505C212.196 87.0355 212.206 87.021 212.215 87.0055C212.223 86.9907 212.23 86.9752 212.237 86.9599C212.245 86.9435 212.254 86.9274 212.261 86.9108C212.268 86.8947 212.272 86.8784 212.278 86.862C212.284 86.8454 212.29 86.829 212.295 86.8121C212.299 86.7952 212.302 86.7778 212.306 86.7609C212.309 86.7437 212.313 86.7268 212.316 86.7097C212.318 86.6922 212.318 86.6745 212.319 86.6568C212.321 86.6394 212.323 86.6225 212.323 86.6048V74.2096C212.323 73.4179 213.181 72.763 214.235 72.7493C214.744 72.744 215.228 72.8915 215.603 73.168C215.993 73.4557 216.217 73.8535 216.217 74.259V86.6617C216.217 86.6804 216.22 86.6987 216.221 86.7172C216.222 86.7335 216.222 86.7502 216.224 86.7665C216.227 86.7848 216.232 86.8025 216.235 86.8204C216.239 86.8368 216.241 86.8531 216.245 86.869C216.25 86.8869 216.258 86.9044 216.264 86.9221C216.269 86.9374 216.273 86.9526 216.279 86.9677C216.287 86.9867 216.297 87.0052 216.307 87.0237C216.313 87.0366 216.318 87.0497 216.326 87.0623C216.337 87.0816 216.349 87.1001 216.362 87.1189C216.369 87.1299 216.376 87.1414 216.383 87.1524C216.397 87.1715 216.413 87.1895 216.428 87.2077C216.436 87.2173 216.444 87.2278 216.452 87.2375C216.469 87.2557 216.487 87.2731 216.505 87.2906C216.514 87.2991 216.522 87.3083 216.531 87.3166C216.551 87.3351 216.574 87.3522 216.595 87.3697C216.604 87.3761 216.612 87.3834 216.62 87.3898C216.643 87.407 216.667 87.4225 216.691 87.4383C216.7 87.4442 216.708 87.4507 216.718 87.4563C216.745 87.4732 216.774 87.4885 216.802 87.5038C216.809 87.5075 216.816 87.5118 216.824 87.5158C216.854 87.5314 216.887 87.5456 216.919 87.5593C216.925 87.5617 216.931 87.5649 216.937 87.5673C216.972 87.5818 217.009 87.5947 217.046 87.607C217.05 87.6081 217.053 87.6097 217.057 87.6108C217.096 87.6231 217.136 87.6338 217.177 87.6435C217.179 87.6443 217.181 87.6448 217.183 87.6454C217.269 87.6655 217.358 87.6792 217.45 87.6864C217.45 87.6864 217.451 87.6864 217.452 87.6864C217.498 87.6899 217.545 87.6918 217.592 87.6918C217.592 87.6918 217.593 87.6918 217.594 87.6918C217.618 87.6918 217.642 87.6899 217.666 87.6891C217.689 87.688 217.711 87.688 217.733 87.6864C217.759 87.6845 217.783 87.6808 217.808 87.6778C217.829 87.6754 217.85 87.6738 217.87 87.6706C217.897 87.6666 217.922 87.6607 217.949 87.6556C217.966 87.6521 217.984 87.6494 218.002 87.6454C218.029 87.6387 218.056 87.6306 218.083 87.6228C218.098 87.6186 218.113 87.6151 218.128 87.6105C218.155 87.6017 218.182 87.5915 218.209 87.5813C218.221 87.5764 218.235 87.5724 218.248 87.5671C218.274 87.5563 218.299 87.5443 218.324 87.5322C218.337 87.5266 218.349 87.5215 218.361 87.5153C218.387 87.5024 218.411 87.4879 218.435 87.4737C218.446 87.4678 218.457 87.4622 218.467 87.456C218.491 87.441 218.514 87.4247 218.536 87.4086C218.546 87.4021 218.556 87.3962 218.564 87.3895C218.587 87.3729 218.607 87.3552 218.628 87.3372C218.636 87.3303 218.645 87.3235 218.653 87.3163C218.673 87.2983 218.691 87.2793 218.709 87.2605C218.716 87.2525 218.725 87.245 218.732 87.2369C218.749 87.2181 218.764 87.1986 218.779 87.179C218.786 87.1699 218.795 87.1613 218.801 87.1519C218.816 87.1321 218.828 87.1114 218.84 87.0908C218.846 87.0811 218.854 87.0717 218.859 87.0618C218.87 87.0417 218.88 87.0208 218.889 87.0001C218.894 86.9891 218.901 86.9784 218.905 86.9669C218.913 86.9473 218.919 86.9266 218.926 86.9065C218.93 86.8936 218.936 86.881 218.939 86.8682C218.944 86.8483 218.948 86.8277 218.952 86.8075C218.954 86.7936 218.958 86.7799 218.96 86.7657C218.963 86.7469 218.963 86.7276 218.964 86.7083C218.965 86.6925 218.967 86.6769 218.967 86.6606V78.1504C219.056 77.5751 219.708 77.1195 220.496 77.1093C220.901 77.1042 221.292 77.2238 221.595 77.4467C221.911 77.6794 222.092 78.0013 222.092 78.3293V90.4994L222.093 90.5456C222.1 91.2136 222.685 91.7782 223.548 91.9504C224.405 92.1212 225.281 91.8511 225.731 91.2724L225.74 91.2608C226.818 89.8485 229.699 87.6349 230.54 87.1709C230.637 87.117 230.749 87.0739 230.872 87.0417C231.42 86.8998 232.107 87.0004 232.582 87.2922C232.806 87.4297 233.062 87.6604 233.005 87.9777Z" fill="#F48C06"/>
<defs>
<filter id="filter0_d_350_622" x="0.134915" y="0.599355" width="119.496" height="119.496" filterUnits="userSpaceOnUse" color-interpolation-filters="sRGB">
<feFlood flood-opacity="0" result="BackgroundImageFix"/>
<feColorMatrix in="SourceAlpha" type="matrix" values="0 0 0 0 0 0 0 0 0 0 0 0 0 0 0 0 0 0 127 0" result="hardAlpha"/>
<feOffset dx="1.48443" dy="7.42213"/>
<feGaussianBlur stdDeviation="12.6176"/>
<feColorMatrix type="matrix" values="0 0 0 0 0.0599965 0 0 0 0 0.0750638 0 0 0 0 0.154167 0 0 0 0.15 0"/>
<feBlend mode="normal" in2="BackgroundImageFix" result="effect1_dropShadow_350_622"/>
<feBlend mode="normal" in="SourceGraphic" in2="effect1_dropShadow_350_622" result="shape"/>
</filter>
<filter id="filter1_d_350_622" x="7.55679" y="8.02141" width="104.652" height="104.652" filterUnits="userSpaceOnUse" color-interpolation-filters="sRGB">
<feFlood flood-opacity="0" result="BackgroundImageFix"/>
<feColorMatrix in="SourceAlpha" type="matrix" values="0 0 0 0 0 0 0 0 0 0 0 0 0 0 0 0 0 0 127 0" result="hardAlpha"/>
<feOffset dx="1.48443" dy="7.42213"/>
<feGaussianBlur stdDeviation="12.6176"/>
<feColorMatrix type="matrix" values="0 0 0 0 0.0599965 0 0 0 0 0.0750638 0 0 0 0 0.154167 0 0 0 0.15 0"/>
<feBlend mode="normal" in2="BackgroundImageFix" result="effect1_dropShadow_350_622"/>
<feBlend mode="normal" in="SourceGraphic" in2="effect1_dropShadow_350_622" result="shape"/>
</filter>
</defs>
</svg>
