<svg width="11" height="11" viewBox="0 0 11 11" fill="none" xmlns="http://www.w3.org/2000/svg">
<g clip-path="url(#clip0_717_3037)">
<path d="M9.74629 1.4155L7.80273 0.966981C7.59155 0.918392 7.37477 1.02865 7.28881 1.22675L6.39178 3.31981C6.31329 3.50295 6.36561 3.71787 6.52072 3.84308L7.65322 4.77001C6.98045 6.20338 5.80497 7.39568 4.34169 8.08153L3.41476 6.94904C3.28769 6.79393 3.07464 6.7416 2.8915 6.82009L0.798431 7.71712C0.598469 7.80495 0.488209 8.02173 0.536798 8.23291L0.985312 10.1765C1.03203 10.3783 1.21144 10.5241 1.42261 10.5241C6.20863 10.5241 10.0939 6.64629 10.0939 1.8528C10.0939 1.64349 9.94999 1.46222 9.74629 1.4155Z" fill="white"/>
</g>
<defs>
<clipPath id="clip0_717_3037">
<rect x="0.525391" y="0.956543" width="9.5683" height="9.5683" fill="white"/>
</clipPath>
</defs>
</svg>
