<svg width="43" height="40" viewBox="0 0 43 40" fill="none" xmlns="http://www.w3.org/2000/svg">
<g clip-path="url(#clip0_361_444)">
<path d="M21.6497 4.2573C27.2028 4.2573 27.8604 4.2798 30.0443 4.3698C32.0739 4.4523 33.17 4.76731 33.9006 5.02981C34.8667 5.37481 35.5649 5.7948 36.2875 6.4623C37.0181 7.1373 37.4647 7.77481 37.8381 8.66731C38.1223 9.34231 38.4633 10.3623 38.5526 12.2298C38.65 14.2548 38.6743 14.8623 38.6743 19.9848C38.6743 25.1148 38.65 25.7223 38.5526 27.7398C38.4633 29.6148 38.1223 30.6273 37.8381 31.3023C37.4647 32.1948 37.01 32.8398 36.2875 33.5073C35.5568 34.1823 34.8667 34.5948 33.9006 34.9398C33.17 35.2023 32.0658 35.5173 30.0443 35.5998C27.8523 35.6898 27.1947 35.7123 21.6497 35.7123C16.0966 35.7123 15.439 35.6898 13.2551 35.5998C11.2255 35.5173 10.1295 35.2023 9.39882 34.9398C8.43271 34.5948 7.73451 34.1748 7.01196 33.5073C6.28129 32.8323 5.83477 32.1948 5.46131 31.3023C5.17716 30.6273 4.83619 29.6073 4.74688 27.7398C4.64946 25.7148 4.6251 25.1073 4.6251 19.9848C4.6251 14.8548 4.64946 14.2473 4.74688 12.2298C4.83619 10.3548 5.17716 9.34231 5.46131 8.66731C5.83477 7.77481 6.28941 7.1298 7.01196 6.4623C7.74263 5.7873 8.43271 5.37481 9.39882 5.02981C10.1295 4.76731 11.2336 4.4523 13.2551 4.3698C15.439 4.2798 16.0966 4.2573 21.6497 4.2573ZM21.6497 0.799805C16.0073 0.799805 15.301 0.822305 13.0846 0.912305C10.8764 1.0023 9.35822 1.3323 8.04302 1.8048C6.67098 2.2998 5.51003 2.9523 4.35719 4.0248C3.19624 5.0898 2.48992 6.16231 1.9541 7.42231C1.44263 8.64481 1.08541 10.0398 0.987989 12.0798C0.890567 14.1348 0.866211 14.7873 0.866211 19.9998C0.866211 25.2123 0.890567 25.8648 0.987989 27.9123C1.08541 29.9523 1.44263 31.3548 1.9541 32.5698C2.48992 33.8373 3.19624 34.9098 4.35719 35.9748C5.51003 37.0398 6.67098 37.6998 8.0349 38.1873C9.35822 38.6598 10.8683 38.9898 13.0765 39.0798C15.2929 39.1698 15.9992 39.1923 21.6416 39.1923C27.284 39.1923 27.9903 39.1698 30.2067 39.0798C32.4149 38.9898 33.9331 38.6598 35.2483 38.1873C36.6122 37.6998 37.7732 37.0398 38.926 35.9748C40.0788 34.9098 40.7933 33.8373 41.321 32.5773C41.8325 31.3548 42.1897 29.9598 42.2871 27.9198C42.3845 25.8723 42.4089 25.2198 42.4089 20.0073C42.4089 14.7948 42.3845 14.1423 42.2871 12.0948C42.1897 10.0548 41.8325 8.6523 41.321 7.4373C40.8095 6.1623 40.1032 5.0898 38.9422 4.0248C37.7894 2.9598 36.6285 2.2998 35.2645 1.8123C33.9412 1.3398 32.4312 1.0098 30.2229 0.919805C27.9984 0.822305 27.2921 0.799805 21.6497 0.799805Z" fill="white"/>
<path d="M21.6495 10.1372C15.7555 10.1372 10.9736 14.5547 10.9736 19.9997C10.9736 25.4447 15.7555 29.8622 21.6495 29.8622C27.5436 29.8622 32.3254 25.4447 32.3254 19.9997C32.3254 14.5547 27.5436 10.1372 21.6495 10.1372ZM21.6495 26.3972C17.8257 26.3972 14.7244 23.5322 14.7244 19.9997C14.7244 16.4672 17.8257 13.6022 21.6495 13.6022C25.4734 13.6022 28.5747 16.4672 28.5747 19.9997C28.5747 23.5322 25.4734 26.3972 21.6495 26.3972Z" fill="white"/>
<path d="M35.2402 9.74733C35.2402 11.0223 34.1198 12.0498 32.7478 12.0498C31.3676 12.0498 30.2554 11.0148 30.2554 9.74733C30.2554 8.47233 31.3757 7.44482 32.7478 7.44482C34.1198 7.44482 35.2402 8.47983 35.2402 9.74733Z" fill="white"/>
</g>
<defs>
<clipPath id="clip0_361_444">
<rect width="41.567" height="38.4" fill="white" transform="translate(0.866211 0.799805)"/>
</clipPath>
</defs>
</svg>
