<svg width="42" height="40" viewBox="0 0 42 40" fill="none" xmlns="http://www.w3.org/2000/svg">
<g clip-path="url(#clip0_361_448)">
<path d="M41.236 12.3197C41.236 12.3197 40.83 9.67219 39.5798 8.50969C37.9967 6.97969 36.2268 6.97219 35.415 6.88219C29.6021 6.49219 20.8746 6.49219 20.8746 6.49219H20.8584C20.8584 6.49219 12.1309 6.49219 6.31806 6.88219C5.5062 6.97219 3.73636 6.97969 2.15324 8.50969C0.902982 9.67219 0.505173 12.3197 0.505173 12.3197C0.505173 12.3197 0.0830078 15.4322 0.0830078 18.5372V21.4472C0.0830078 24.5522 0.497054 27.6647 0.497054 27.6647C0.497054 27.6647 0.902982 30.3122 2.14512 31.4747C3.72824 33.0047 5.80659 32.9522 6.73211 33.1172C10.0607 33.4097 20.8665 33.4997 20.8665 33.4997C20.8665 33.4997 29.6021 33.4847 35.415 33.1022C36.2268 33.0122 37.9967 33.0047 39.5798 31.4747C40.83 30.3122 41.236 27.6647 41.236 27.6647C41.236 27.6647 41.65 24.5597 41.65 21.4472V18.5372C41.65 15.4322 41.236 12.3197 41.236 12.3197ZM16.5718 24.9797V14.1872L27.7998 19.6022L16.5718 24.9797Z" fill="white"/>
</g>
<defs>
<clipPath id="clip0_361_448">
<rect width="41.567" height="38.4" fill="white" transform="translate(0.0830078 0.799805)"/>
</clipPath>
</defs>
</svg>
