<svg width="23" height="20" viewBox="0 0 23 20" fill="none" xmlns="http://www.w3.org/2000/svg">
<g clip-path="url(#clip0_717_2826)">
<path d="M3.78918 9.04993C5.01731 9.04993 6.01582 7.96822 6.01582 6.63774C6.01582 5.30727 5.01731 4.22555 3.78918 4.22555C2.56105 4.22555 1.56254 5.30727 1.56254 6.63774C1.56254 7.96822 2.56105 9.04993 3.78918 9.04993ZM19.3757 9.04993C20.6038 9.04993 21.6023 7.96822 21.6023 6.63774C21.6023 5.30727 20.6038 4.22555 19.3757 4.22555C18.1475 4.22555 17.149 5.30727 17.149 6.63774C17.149 7.96822 18.1475 9.04993 19.3757 9.04993ZM20.489 10.256H18.2623C17.65 10.256 17.0968 10.5236 16.6933 10.9571C18.0953 11.79 19.0904 13.2939 19.3061 15.0804H21.6023C22.2181 15.0804 22.7156 14.5414 22.7156 13.8743V12.6682C22.7156 11.3377 21.7171 10.256 20.489 10.256ZM11.5824 10.256C13.736 10.256 15.479 8.36774 15.479 6.03469C15.479 3.70165 13.736 1.81335 11.5824 1.81335C9.42884 1.81335 7.6858 3.70165 7.6858 6.03469C7.6858 8.36774 9.42884 10.256 11.5824 10.256ZM14.2544 11.4621H13.9656C13.242 11.839 12.4383 12.0652 11.5824 12.0652C10.7266 12.0652 9.92636 11.839 9.19922 11.4621H8.91045C6.69773 11.4621 4.9025 13.407 4.9025 15.8041V16.8896C4.9025 17.8884 5.65051 18.6987 6.57248 18.6987H16.5924C17.5143 18.6987 18.2623 17.8884 18.2623 16.8896V15.8041C18.2623 13.407 16.4671 11.4621 14.2544 11.4621ZM6.47158 10.9571C6.06801 10.5236 5.51482 10.256 4.9025 10.256H2.67586C1.44773 10.256 0.449219 11.3377 0.449219 12.6682V13.8743C0.449219 14.5414 0.946734 15.0804 1.56254 15.0804H3.85528C4.07447 13.2939 5.0695 11.79 6.47158 10.9571Z" fill="#2F327D"/>
</g>
<defs>
<clipPath id="clip0_717_2826">
<rect width="22.2664" height="19.2975" fill="white" transform="translate(0.449219 0.605957)"/>
</clipPath>
</defs>
</svg>
