<svg width="120" height="121" viewBox="0 0 120 121" fill="none" xmlns="http://www.w3.org/2000/svg">
<g opacity="0.8" filter="url(#filter0_d_717_2807)">
<circle cx="58.3977" cy="52.9254" r="34.5129" fill="#F9F9F9"/>
</g>
<g filter="url(#filter1_d_717_2807)">
<circle cx="58.3974" cy="52.9253" r="27.0908" fill="#F9F9F9"/>
</g>
<path d="M74.2396 85.6956C73.3356 84.9565 72.0552 84.72 70.9774 85.0927C70.6885 85.1928 70.4203 85.333 70.18 85.5098C69.5672 85.9606 68.2067 87.3139 67.1286 88.6532V78.3293C67.1286 77.4518 66.7679 76.5941 66.139 75.9759C65.5146 75.3623 64.6945 75.0313 63.8339 75.0474C63.4431 75.0544 63.0687 75.1319 62.7228 75.2674V74.259C62.7228 73.3039 62.3301 72.3704 61.6452 71.6972C60.9664 71.03 60.0781 70.6703 59.1387 70.6875C57.2656 70.7199 55.7364 72.2424 55.6804 74.1037C55.2746 73.9197 54.834 73.8164 54.3778 73.8028C53.4262 73.7749 52.4838 74.1431 51.793 74.8138C51.1163 75.4706 50.7435 76.3377 50.7435 77.2528L50.7411 78.2306C50.4491 78.1346 50.1377 78.082 49.814 78.082C48.1804 78.082 46.8516 79.4109 46.8516 81.0442L46.8526 96.0515L46.855 96.1226C46.9916 98.0922 47.4038 99.7785 48.0807 101.135C48.7152 102.407 49.6005 103.431 50.7119 104.178C52.899 105.65 55.6007 105.839 57.71 105.839C61.8522 105.839 65.5787 103.78 67.4424 100.463C67.669 100.097 68.2662 99.1582 68.9112 98.1453C69.5393 97.1583 70.1237 96.2489 70.6389 95.4465C70.9221 95.0053 71.1798 94.6041 71.4035 94.2544C72.2368 92.9512 73.1248 91.6878 74.043 90.4989C74.3836 90.058 74.4885 89.9384 74.5124 89.9121C74.9423 89.443 75.2131 88.8689 75.2957 88.2512C75.4258 87.2822 75.0407 86.3506 74.2396 85.6956ZM73.2521 87.9777C73.2256 88.175 73.1357 88.3622 72.9923 88.5189C72.9174 88.6007 72.7836 88.7562 72.4114 89.2384C71.4558 90.4753 70.5322 91.7892 69.6662 93.1435C69.443 93.4924 69.1864 93.892 68.9037 94.3321C68.3875 95.1362 67.8023 96.0478 67.1717 97.0379C66.5117 98.0747 65.9008 99.0351 65.6771 99.3964L65.6538 99.4361C64.1581 102.114 61.1144 103.777 57.7103 103.777C55.8938 103.777 53.5874 103.628 51.8632 102.468C50.1039 101.284 49.1395 99.1735 48.9147 96.0153L48.9137 81.0444C48.9137 80.548 49.3176 80.1441 49.814 80.1441C50.3134 80.1441 50.7197 80.548 50.7197 81.0444V86.6606C50.7197 86.6772 50.7215 86.6933 50.7221 86.7099C50.7231 86.7282 50.7231 86.7467 50.725 86.7649C50.7266 86.7813 50.7299 86.7971 50.7323 86.8132C50.7349 86.8312 50.7368 86.8494 50.7403 86.8674C50.7438 86.8834 50.7486 86.8993 50.7526 86.9151C50.7569 86.932 50.7604 86.9494 50.7658 86.966C50.7706 86.9821 50.7771 86.9977 50.783 87.0133C50.7886 87.0291 50.7937 87.0452 50.8004 87.0607C50.8068 87.0763 50.8146 87.091 50.8218 87.106C50.8291 87.1211 50.8358 87.1363 50.8436 87.1511C50.8513 87.1656 50.8607 87.1795 50.8693 87.1937C50.8779 87.208 50.8859 87.2224 50.8951 87.2361C50.9044 87.2498 50.9149 87.2627 50.9248 87.2758C50.9347 87.2892 50.9439 87.3029 50.9543 87.3155C50.9648 87.3281 50.9763 87.3396 50.987 87.3517C50.9983 87.364 51.009 87.3772 51.0208 87.389C51.0324 87.4002 51.0444 87.4104 51.0565 87.4214C51.0688 87.4327 51.0809 87.4448 51.0941 87.4555C51.1064 87.4657 51.1195 87.4748 51.1324 87.4845C51.1461 87.4946 51.1592 87.5054 51.1732 87.515C51.1863 87.5239 51.2003 87.5314 51.2137 87.5394C51.2284 87.5486 51.2429 87.5582 51.2582 87.5668C51.2721 87.5743 51.2869 87.5805 51.3011 87.5874C51.3167 87.5952 51.3322 87.6033 51.3483 87.6102C51.363 87.6167 51.3789 87.6215 51.3939 87.6271C51.4102 87.633 51.4263 87.6397 51.443 87.6451C51.4588 87.6499 51.4754 87.6534 51.4915 87.6577C51.5084 87.662 51.5248 87.6671 51.5417 87.6706C51.5588 87.6741 51.576 87.6759 51.5932 87.6786C51.6103 87.681 51.6269 87.6845 51.6441 87.6864C51.6613 87.688 51.679 87.6883 51.6964 87.6891C51.7136 87.6899 51.7307 87.6918 51.7482 87.6918C51.749 87.6918 51.75 87.6918 51.7508 87.6918C51.7865 87.6918 51.8217 87.6899 51.8562 87.6864C51.8713 87.6851 51.886 87.6818 51.901 87.6797C51.9201 87.677 51.9397 87.6749 51.9584 87.6709C51.9783 87.6668 51.9973 87.6612 52.0166 87.6561C52.03 87.6523 52.044 87.6497 52.0571 87.6456C52.0786 87.6389 52.0995 87.6306 52.1204 87.6226C52.1306 87.6186 52.1416 87.6153 52.1518 87.611C52.1727 87.6022 52.1926 87.5917 52.2127 87.5818C52.2223 87.577 52.2322 87.573 52.2419 87.5679C52.2607 87.5577 52.2784 87.5459 52.2963 87.5346C52.3065 87.5284 52.317 87.5228 52.3267 87.5161C52.3433 87.5051 52.3591 87.4925 52.3749 87.4802C52.3854 87.4724 52.3961 87.4651 52.406 87.4568C52.4208 87.445 52.4342 87.4316 52.4481 87.4188C52.4586 87.4094 52.4693 87.4002 52.4795 87.3906C52.4924 87.3777 52.5039 87.3638 52.516 87.3504C52.5259 87.3394 52.5366 87.3286 52.546 87.3174C52.5568 87.3042 52.5664 87.2903 52.5766 87.2766C52.5863 87.2637 52.5965 87.2514 52.6053 87.238C52.6147 87.2243 52.6225 87.2101 52.631 87.1959C52.6396 87.1817 52.649 87.1677 52.6571 87.1532C52.6648 87.1388 52.6713 87.1237 52.6785 87.109C52.6858 87.0937 52.6938 87.0787 52.7005 87.0631C52.7069 87.0481 52.7118 87.0323 52.7174 87.017C52.7236 87.0009 52.73 86.9851 52.7354 86.9685C52.7402 86.9526 52.7437 86.9365 52.7477 86.9205C52.752 86.9036 52.7571 86.8869 52.7609 86.8698C52.7641 86.8537 52.7659 86.8368 52.7684 86.8202C52.7713 86.8027 52.7745 86.7853 52.7764 86.7676C52.7783 86.751 52.7783 86.7338 52.7791 86.7169C52.7802 86.6989 52.782 86.6815 52.782 86.6635L52.8059 77.2554C52.8059 76.9004 52.9564 76.5587 53.2294 76.2934C53.5228 76.0089 53.9197 75.8517 54.3169 75.8641C55.0608 75.8863 55.6661 76.5335 55.6661 77.3083L55.6779 86.6061C55.6779 86.6249 55.6798 86.6431 55.6809 86.6614C55.6817 86.6777 55.6817 86.6946 55.6833 86.7107C55.6852 86.73 55.6889 86.7485 55.6919 86.7673C55.6943 86.7826 55.6959 86.7982 55.6989 86.8132C55.7032 86.8336 55.7091 86.8534 55.7144 86.8733C55.7179 86.8861 55.7206 86.8993 55.7243 86.9119C55.7311 86.9333 55.7396 86.9542 55.7477 86.9752C55.7517 86.9856 55.7547 86.9964 55.7589 87.0065C55.7686 87.0288 55.7796 87.0505 55.7906 87.072C55.7949 87.08 55.7981 87.0886 55.8024 87.0964C55.8145 87.1186 55.8281 87.1398 55.8415 87.1608C55.8458 87.1677 55.8496 87.1747 55.8541 87.1814C55.8684 87.2026 55.8839 87.2224 55.8995 87.2423C55.9043 87.2485 55.9086 87.2549 55.9134 87.2608C55.9309 87.282 55.9496 87.3018 55.9687 87.3214C55.9727 87.3257 55.9759 87.33 55.9799 87.334C55.9995 87.3536 56.0204 87.3718 56.0416 87.3898C56.0456 87.3933 56.0491 87.397 56.0531 87.4005C56.0743 87.4179 56.0963 87.4338 56.1186 87.4493C56.1234 87.4528 56.1277 87.4566 56.1325 87.4598C56.1551 87.4751 56.1787 87.4888 56.2023 87.5022C56.2074 87.5051 56.2122 87.5086 56.2175 87.5115C56.2422 87.5247 56.2677 87.5365 56.2934 87.548C56.2983 87.5502 56.3028 87.5528 56.3077 87.555C56.3339 87.566 56.361 87.5754 56.3884 87.5845C56.3932 87.5858 56.3975 87.588 56.4023 87.5896C56.4294 87.5979 56.457 87.6046 56.4847 87.6108C56.4903 87.6118 56.4957 87.6137 56.5013 87.6151C56.5683 87.6287 56.6378 87.636 56.7089 87.636C56.7094 87.636 56.7099 87.636 56.7105 87.636C56.7284 87.636 56.7461 87.6341 56.7638 87.6333C56.781 87.6322 56.7982 87.6322 56.8151 87.6306C56.8338 87.6285 56.8518 87.625 56.8703 87.622C56.8859 87.6196 56.902 87.618 56.9175 87.6148C56.936 87.611 56.954 87.6057 56.9722 87.6009C56.987 87.5968 57.0017 87.5939 57.0162 87.5893C57.0347 87.5837 57.0524 87.5764 57.0704 87.5695C57.0838 87.5644 57.0977 87.5604 57.1109 87.5547C57.1294 87.5467 57.1474 87.5373 57.1653 87.5284C57.1771 87.5225 57.1895 87.5174 57.201 87.5113C57.2187 87.5016 57.2356 87.4904 57.2528 87.4799C57.2638 87.4729 57.2753 87.4668 57.286 87.4595C57.3024 87.4485 57.3177 87.4362 57.3332 87.4241C57.3439 87.4161 57.3549 87.4086 57.3654 87.4C57.3801 87.3879 57.3941 87.3742 57.4083 87.3611C57.4182 87.352 57.4287 87.3431 57.4386 87.3335C57.4518 87.3201 57.4641 87.3056 57.4767 87.2916C57.4861 87.2812 57.496 87.2712 57.5051 87.2603C57.5164 87.2463 57.5266 87.2316 57.537 87.2173C57.5462 87.205 57.5558 87.1932 57.5644 87.1809C57.574 87.1667 57.5821 87.1516 57.5909 87.1369C57.5993 87.1232 57.6084 87.1098 57.6159 87.0959C57.6239 87.0811 57.6304 87.0655 57.6376 87.0505C57.6449 87.0355 57.6529 87.021 57.6593 87.0055C57.6655 86.9907 57.6706 86.9752 57.676 86.9599C57.6821 86.9435 57.6888 86.9274 57.6939 86.9108C57.6988 86.8947 57.7022 86.8784 57.7065 86.862C57.7108 86.8454 57.7159 86.829 57.7191 86.8121C57.7226 86.7952 57.7245 86.7778 57.7272 86.7609C57.7296 86.7437 57.7331 86.7268 57.7347 86.7097C57.7366 86.6922 57.7366 86.6745 57.7374 86.6568C57.7384 86.6394 57.7401 86.6225 57.7401 86.6048V74.2096C57.7401 73.4179 58.3837 72.763 59.1746 72.7493C59.5562 72.744 59.9188 72.8915 60.2002 73.168C60.493 73.4557 60.6609 73.8535 60.6609 74.259V86.6617C60.6609 86.6804 60.6628 86.6987 60.6639 86.7172C60.6647 86.7335 60.6647 86.7502 60.6663 86.7665C60.6682 86.7848 60.6719 86.8025 60.6746 86.8204C60.6773 86.8368 60.6789 86.8531 60.6821 86.869C60.6859 86.8869 60.6912 86.9044 60.6958 86.9221C60.6998 86.9374 60.7027 86.9526 60.7076 86.9677C60.7135 86.9867 60.721 87.0052 60.728 87.0237C60.7328 87.0366 60.7368 87.0497 60.7422 87.0623C60.7505 87.0816 60.7601 87.1001 60.7695 87.1189C60.7749 87.1299 60.7797 87.1414 60.7856 87.1524C60.7958 87.1715 60.8076 87.1895 60.8191 87.2077C60.8253 87.2173 60.8307 87.2278 60.8374 87.2375C60.8497 87.2557 60.8634 87.2731 60.8771 87.2906C60.8838 87.2991 60.8897 87.3083 60.8966 87.3166C60.9117 87.3351 60.9283 87.3522 60.9447 87.3697C60.9511 87.3761 60.9567 87.3834 60.9632 87.3898C60.9801 87.407 60.9983 87.4225 61.0165 87.4383C61.0232 87.4442 61.0294 87.4507 61.0364 87.4563C61.0568 87.4732 61.0782 87.4885 61.0997 87.5038C61.105 87.5075 61.1101 87.5118 61.1158 87.5158C61.1388 87.5314 61.163 87.5456 61.1874 87.5593C61.1919 87.5617 61.1959 87.5649 61.2005 87.5673C61.2273 87.5818 61.2547 87.5947 61.2828 87.607C61.2855 87.6081 61.2879 87.6097 61.2906 87.6108C61.3199 87.6231 61.3499 87.6338 61.3805 87.6435C61.3821 87.6443 61.3837 87.6448 61.3856 87.6454C61.4497 87.6655 61.5164 87.6792 61.5854 87.6864C61.5859 87.6864 61.5862 87.6864 61.5867 87.6864C61.6213 87.6899 61.6564 87.6918 61.6921 87.6918C61.6924 87.6918 61.6926 87.6918 61.6932 87.6918C61.7114 87.6918 61.7294 87.6899 61.7476 87.6891C61.7645 87.688 61.7814 87.688 61.798 87.6864C61.8171 87.6845 61.8356 87.6808 61.8544 87.6778C61.8696 87.6754 61.8852 87.6738 61.9005 87.6706C61.9206 87.6666 61.9399 87.6607 61.9595 87.6556C61.9726 87.6521 61.9863 87.6494 61.9992 87.6454C62.0201 87.6387 62.0402 87.6306 62.0606 87.6228C62.0716 87.6186 62.0829 87.6151 62.0938 87.6105C62.1145 87.6017 62.1343 87.5915 62.1545 87.5813C62.1641 87.5764 62.1743 87.5724 62.184 87.5671C62.2035 87.5563 62.2223 87.5443 62.2414 87.5322C62.2505 87.5266 62.2599 87.5215 62.269 87.5153C62.2883 87.5024 62.3063 87.4879 62.3245 87.4737C62.3323 87.4678 62.3406 87.4622 62.3484 87.456C62.3663 87.441 62.3832 87.4247 62.4004 87.4086C62.4074 87.4021 62.4149 87.3962 62.4213 87.3895C62.4379 87.3729 62.4535 87.3552 62.4688 87.3372C62.4752 87.3302 62.4819 87.3235 62.4881 87.3163C62.5028 87.2983 62.5162 87.2793 62.5297 87.2605C62.5353 87.2525 62.5417 87.245 62.5474 87.2369C62.56 87.2181 62.5712 87.1986 62.5825 87.179C62.5879 87.1699 62.594 87.1613 62.5991 87.1519C62.6098 87.1321 62.619 87.1114 62.6283 87.0908C62.6329 87.0811 62.6383 87.0717 62.6423 87.0618C62.6509 87.0417 62.6579 87.0208 62.6651 87.0001C62.6688 86.9891 62.6737 86.9784 62.6772 86.9669C62.6831 86.9473 62.6876 86.9266 62.6927 86.9065C62.6957 86.8936 62.6997 86.881 62.7024 86.8682C62.7064 86.8483 62.7088 86.8277 62.7118 86.8075C62.7136 86.7936 62.7166 86.7799 62.7179 86.7657C62.7201 86.7469 62.7201 86.7276 62.7209 86.7083C62.7217 86.6925 62.7233 86.6769 62.7233 86.6606V78.1504C62.7903 77.5751 63.2787 77.1195 63.8701 77.1093C64.1739 77.1042 64.4673 77.2238 64.6939 77.4467C64.931 77.6794 65.067 78.0013 65.067 78.3293V90.4994L65.0675 90.5456C65.0732 91.2136 65.5119 91.7782 66.1591 91.9504C66.8019 92.1212 67.4587 91.8511 67.7966 91.2724L67.8031 91.2608C68.6114 89.8485 70.7719 87.6349 71.4027 87.1709C71.4757 87.117 71.5596 87.0739 71.6521 87.0417C72.063 86.8998 72.5782 87.0004 72.9349 87.2922C73.1028 87.4297 73.2945 87.6604 73.2521 87.9777Z" fill="#F48C06"/>
<defs>
<filter id="filter0_d_717_2807" x="0.133938" y="0.599355" width="119.496" height="119.496" filterUnits="userSpaceOnUse" color-interpolation-filters="sRGB">
<feFlood flood-opacity="0" result="BackgroundImageFix"/>
<feColorMatrix in="SourceAlpha" type="matrix" values="0 0 0 0 0 0 0 0 0 0 0 0 0 0 0 0 0 0 127 0" result="hardAlpha"/>
<feOffset dx="1.48443" dy="7.42213"/>
<feGaussianBlur stdDeviation="12.6176"/>
<feColorMatrix type="matrix" values="0 0 0 0 0.0599965 0 0 0 0 0.0750638 0 0 0 0 0.154167 0 0 0 0.15 0"/>
<feBlend mode="normal" in2="BackgroundImageFix" result="effect1_dropShadow_717_2807"/>
<feBlend mode="normal" in="SourceGraphic" in2="effect1_dropShadow_717_2807" result="shape"/>
</filter>
<filter id="filter1_d_717_2807" x="7.55581" y="8.02141" width="104.652" height="104.652" filterUnits="userSpaceOnUse" color-interpolation-filters="sRGB">
<feFlood flood-opacity="0" result="BackgroundImageFix"/>
<feColorMatrix in="SourceAlpha" type="matrix" values="0 0 0 0 0 0 0 0 0 0 0 0 0 0 0 0 0 0 127 0" result="hardAlpha"/>
<feOffset dx="1.48443" dy="7.42213"/>
<feGaussianBlur stdDeviation="12.6176"/>
<feColorMatrix type="matrix" values="0 0 0 0 0.0599965 0 0 0 0 0.0750638 0 0 0 0 0.154167 0 0 0 0.15 0"/>
<feBlend mode="normal" in2="BackgroundImageFix" result="effect1_dropShadow_717_2807"/>
<feBlend mode="normal" in="SourceGraphic" in2="effect1_dropShadow_717_2807" result="shape"/>
</filter>
</defs>
</svg>
